<svg width="100" height="16" viewBox="0 0 100 16" fill="none" xmlns="http://www.w3.org/2000/svg">
<path d="M14.9834 5.45329L10.3417 4.74686L8.26666 0.341753C8.20999 0.221143 8.11675 0.123507 8.00157 0.0641599C7.71272 -0.0851658 7.36171 0.0392723 7.21728 0.341753L5.14229 4.74686L0.500529 5.45329C0.372556 5.47243 0.255552 5.53561 0.165971 5.63133C0.0576721 5.74789 -0.00200535 5.90471 5.1456e-05 6.06733C0.00210826 6.22994 0.065731 6.38505 0.17694 6.49857L3.53532 9.92732L2.74188 14.7689C2.72328 14.8815 2.73518 14.9974 2.77624 15.1033C2.8173 15.2092 2.88587 15.3009 2.97419 15.3681C3.0625 15.4353 3.16702 15.4752 3.2759 15.4833C3.38477 15.4914 3.49364 15.4674 3.59016 15.4141L7.74197 13.1282L11.8938 15.4141C12.0071 15.4773 12.1388 15.4983 12.2649 15.4753C12.583 15.4179 12.7969 15.102 12.7421 14.7689L11.9486 9.92732L15.307 6.49857C15.3984 6.40476 15.4587 6.28224 15.477 6.14823C15.5264 5.8132 15.3033 5.50306 14.9834 5.45329Z" fill="#3D4C81"/>
<path d="M35.8867 5.45231L31.245 4.74589L29.17 0.340776C29.1133 0.220167 29.0201 0.122531 28.9049 0.0631834C28.616 -0.0861424 28.265 0.0382958 28.1206 0.340776L26.0456 4.74589L21.4038 5.45231C21.2759 5.47146 21.1589 5.53463 21.0693 5.63035C20.961 5.74692 20.9013 5.90374 20.9034 6.06635C20.9054 6.22897 20.9691 6.38407 21.0803 6.49759L24.4386 9.92634L23.6452 14.7679C23.6266 14.8806 23.6385 14.9964 23.6796 15.1023C23.7206 15.2082 23.7892 15.2999 23.8775 15.3671C23.9658 15.4343 24.0703 15.4742 24.1792 15.4823C24.2881 15.4904 24.397 15.4665 24.4935 15.4131L28.6453 13.1273L32.7971 15.4131C32.9104 15.4763 33.0421 15.4973 33.1682 15.4744C33.4863 15.4169 33.7002 15.1011 33.6454 14.7679L32.8519 9.92634L36.2103 6.49759C36.3017 6.40378 36.3621 6.28126 36.3803 6.14725C36.4297 5.81222 36.2067 5.50209 35.8867 5.45231Z" fill="#3D4C81"/>
<path d="M56.7901 5.45231L52.1483 4.74589L50.0733 0.340776C50.0166 0.220167 49.9234 0.122531 49.8082 0.0631834C49.5194 -0.0861424 49.1683 0.0382958 49.0239 0.340776L46.9489 4.74589L42.3072 5.45231C42.1792 5.47146 42.0622 5.53463 41.9726 5.63035C41.8643 5.74692 41.8046 5.90374 41.8067 6.06635C41.8087 6.22897 41.8724 6.38407 41.9836 6.49759L45.342 9.92634L44.5485 14.7679C44.5299 14.8806 44.5418 14.9964 44.5829 15.1023C44.6239 15.2082 44.6925 15.2999 44.7808 15.3671C44.8691 15.4343 44.9737 15.4742 45.0825 15.4823C45.1914 15.4904 45.3003 15.4665 45.3968 15.4131L49.5486 13.1273L53.7004 15.4131C53.8138 15.4763 53.9454 15.4973 54.0715 15.4744C54.3896 15.4169 54.6035 15.1011 54.5487 14.7679L53.7553 9.92634L57.1136 6.49759C57.2051 6.40378 57.2654 6.28126 57.2837 6.14725C57.333 5.81222 57.11 5.50209 56.7901 5.45231Z" fill="#3D4C81"/>
<path d="M77.6934 5.45231L73.0516 4.74589L70.9766 0.340776C70.9199 0.220167 70.8267 0.122531 70.7115 0.0631834C70.4227 -0.0861424 70.0717 0.0382958 69.9272 0.340776L67.8523 4.74589L63.2105 5.45231C63.0825 5.47146 62.9655 5.53463 62.8759 5.63035C62.7676 5.74692 62.708 5.90374 62.71 6.06635C62.7121 6.22897 62.7757 6.38407 62.8869 6.49759L66.2453 9.92634L65.4518 14.7679C65.4332 14.8806 65.4451 14.9964 65.4862 15.1023C65.5273 15.2082 65.5958 15.2999 65.6841 15.3671C65.7725 15.4343 65.877 15.4742 65.9859 15.4823C66.0947 15.4904 66.2036 15.4665 66.3001 15.4131L70.4519 13.1273L74.6037 15.4131C74.7171 15.4763 74.8487 15.4973 74.9749 15.4744C75.293 15.4169 75.5069 15.1011 75.452 14.7679L74.6586 9.92634L78.017 6.49759C78.1084 6.40378 78.1687 6.28126 78.187 6.14725C78.2363 5.81222 78.0133 5.50209 77.6934 5.45231Z" fill="#3D4C81"/>
<path d="M98.9834 5.45231L94.3417 4.74589L92.2667 0.340776C92.21 0.220167 92.1167 0.122531 92.0016 0.0631834C91.7127 -0.0861424 91.3617 0.0382958 91.2173 0.340776L89.1423 4.74589L84.5005 5.45231C84.3726 5.47146 84.2556 5.53463 84.166 5.63035C84.0577 5.74692 83.998 5.90374 84.0001 6.06635C84.0021 6.22897 84.0657 6.38407 84.1769 6.49759L87.5353 9.92634L86.7419 14.7679C86.7233 14.8806 86.7352 14.9964 86.7762 15.1023C86.8173 15.2082 86.8859 15.2999 86.9742 15.3671C87.0625 15.4343 87.167 15.4742 87.2759 15.4823C87.3848 15.4904 87.4936 15.4665 87.5902 15.4131L91.742 13.1273L95.8938 15.4131C96.0071 15.4763 96.1388 15.4973 96.2649 15.4744C96.583 15.4169 96.7969 15.1011 96.7421 14.7679L95.9486 9.92634L99.307 6.49759C99.3984 6.40378 99.4587 6.28126 99.477 6.14725C99.5264 5.81222 99.3033 5.50209 98.9834 5.45231Z" fill="#3D4C81"/>
</svg>
