<svg width="92" height="91" viewBox="0 0 92 91" fill="none" xmlns="http://www.w3.org/2000/svg">
<ellipse cx="46" cy="45.6135" rx="46" ry="45.1165" fill="white"/>
<path fill-rule="evenodd" clip-rule="evenodd" d="M45.4088 25L26 36.1504V55.1179C26 57.1697 27.1291 59.055 28.9379 60.0235L42.9864 67.5457C44.6273 68.4243 46.5988 68.4243 48.2397 67.5457L62.2883 60.0235C64.0971 59.055 65.2261 57.1697 65.2261 55.1179V36.1504L45.4088 25Z" stroke="#7D93B3" stroke-width="1.5" stroke-miterlimit="10" stroke-linecap="round" stroke-linejoin="round"/>
<path fill-rule="evenodd" clip-rule="evenodd" d="M45.1123 33.0342L32.7188 40.1081V53.0478C32.7188 53.791 33.1288 54.4736 33.7849 54.8226L44.2986 60.4156C44.8889 60.7296 45.5967 60.7296 46.1869 60.4156L56.7006 54.8226C57.3567 54.4736 57.7668 53.791 57.7668 53.0478V40.1081L45.1123 33.0342Z" fill="url(#paint0_linear)"/>
<path d="M34.6093 41.7774L44.6011 47.1219C44.7072 47.1786 44.8343 47.1804 44.942 47.1265L55.6402 41.7774" stroke="#7D93B3" stroke-width="1.5" stroke-miterlimit="10" stroke-linecap="round" stroke-linejoin="round"/>
<defs>
<linearGradient id="paint0_linear" x1="44.9993" y1="26.8727" x2="45.2402" y2="60.8823" gradientUnits="userSpaceOnUse">
<stop stop-color="#50E6C5"/>
<stop offset="1" stop-color="#00DDAC" stop-opacity="0"/>
</linearGradient>
</defs>
</svg>
