<svg width="92" height="92" viewBox="0 0 92 92" fill="none" xmlns="http://www.w3.org/2000/svg">
<circle cx="46" cy="46" r="46" fill="white"/>
<path d="M62.1452 69.7882H67V65.9737" stroke="#7D93B3" stroke-width="1.5" stroke-miterlimit="10" stroke-linecap="round" stroke-linejoin="round"/>
<path d="M29.5482 69.7882H24.6934V65.9737" stroke="#7D93B3" stroke-width="1.5" stroke-miterlimit="10" stroke-linecap="round" stroke-linejoin="round"/>
<path d="M28.8548 27.0104H24V30.8249" stroke="#7D93B3" stroke-width="1.5" stroke-miterlimit="10" stroke-linecap="round" stroke-linejoin="round"/>
<path d="M61.4518 27.0104H66.3066V30.8249" stroke="#7D93B3" stroke-width="1.5" stroke-miterlimit="10" stroke-linecap="round" stroke-linejoin="round"/>
<path d="M32.3231 59.2604V59.2604C32.3231 53.7063 36.8255 49.2039 42.3795 49.2039H48.9682C54.5222 49.2039 59.0247 53.7063 59.0247 59.2604V59.2604" stroke="#7D93B3" stroke-width="1.5" stroke-miterlimit="10" stroke-linecap="round" stroke-linejoin="round"/>
<circle cx="45.5003" cy="38.8007" r="6.93548" stroke="#7D93B3" stroke-width="1.5" stroke-miterlimit="10" stroke-linecap="round" stroke-linejoin="round"/>
<path d="M24 39.2977C27.5218 39.1489 31.1219 39.1489 34.6437 39.0744L45.3657 39L56.0095 39.0744C59.5313 39.1489 63.1314 39.1489 66.6532 39.2977C63.1314 39.3721 59.6096 39.4466 56.0095 39.521H45.3657H34.6437C31.1219 39.4466 27.5218 39.3721 24 39.2977Z" fill="#7D93B3"/>
<path d="M35.0967 58.9154V60.3008H56.5967V58.9137C56.5967 55.0833 53.4916 51.9782 49.6612 51.9782H42.0322C38.2018 51.9782 35.0967 55.085 35.0967 58.9154Z" fill="url(#paint0_linear)"/>
<defs>
<linearGradient id="paint0_linear" x1="45.8467" y1="51.9782" x2="45.8464" y2="60.2902" gradientUnits="userSpaceOnUse">
<stop stop-color="#50E6C5"/>
<stop offset="1" stop-color="#00DDAC" stop-opacity="0"/>
</linearGradient>
</defs>
</svg>
