<svg width="467" height="468" viewBox="0 0 467 468" fill="none" xmlns="http://www.w3.org/2000/svg">
<g filter="url(#filter0_d)">
<circle cx="233.5" cy="227.5" r="196.5" fill="white"/>
</g>
<mask id="mask0" mask-type="alpha" maskUnits="userSpaceOnUse" x="58" y="51" width="350" height="350">
<circle cx="233.061" cy="225.801" r="174.709" fill="#C4C4C4"/>
</mask>
<g mask="url(#mask0)">
<g filter="url(#filter1_d)">
<path d="M240.401 226.552V47.5028C240.401 44.4189 243.117 42.0403 246.174 42.4462L290.226 48.2949C290.766 48.3666 291.291 48.5243 291.781 48.762L341.862 73.0552C342.281 73.2585 342.671 73.5184 343.019 73.8274L392.384 117.583C392.908 118.047 393.331 118.615 393.626 119.249L418.729 173.237C420.038 176.052 418.549 179.374 415.577 180.271L246.709 231.237C243.568 232.186 240.401 229.834 240.401 226.552Z" fill="#50E6C5"/>
</g>
<path d="M131.756 382.892L235.494 245.996C237.728 243.048 240.834 240.877 244.371 239.793L418.926 186.268L467.067 311.243L232.102 434.304L131.756 382.892Z" fill="#C4D0E1"/>
<g filter="url(#filter2_d)">
<path d="M232.57 233.763V31.0004L137.31 22.707L31.2894 45.6734L-20.9297 213.455L127.66 373.105L230.952 238.531C232.001 237.163 232.57 235.487 232.57 233.763Z" fill="#7D93B2"/>
</g>
</g>
<path d="M270.313 143.238H275.847C276.079 143.238 276.259 143.163 276.388 143.014C276.516 142.86 276.581 142.682 276.581 142.481C276.581 142.281 276.514 142.103 276.38 141.949C276.251 141.794 276.074 141.717 275.847 141.717H271.254V133.095C271.254 132.802 271.162 132.575 270.977 132.416C270.791 132.251 270.567 132.169 270.305 132.169C270.043 132.169 269.816 132.251 269.626 132.416C269.435 132.575 269.34 132.802 269.34 133.095V142.281C269.34 142.543 269.435 142.77 269.626 142.96C269.821 143.145 270.05 143.238 270.313 143.238ZM281.212 143.346C282.334 143.346 283.281 143.006 284.053 142.327C284.222 142.188 284.307 142.021 284.307 141.825C284.307 141.671 284.253 141.535 284.145 141.416C284.042 141.298 283.919 141.239 283.775 141.239C283.677 141.239 283.579 141.272 283.481 141.339C282.694 141.895 281.979 142.173 281.336 142.173C280.641 142.167 280.085 141.972 279.668 141.586C279.257 141.195 279.033 140.59 278.997 139.772H284.06C284.235 139.772 284.361 139.713 284.439 139.594C284.521 139.471 284.562 139.317 284.562 139.131C284.552 138.622 284.475 138.151 284.331 137.719C284.186 137.281 283.975 136.89 283.698 136.545C283.425 136.195 283.059 135.92 282.601 135.719C282.149 135.519 281.626 135.418 281.035 135.418C280.453 135.418 279.923 135.524 279.444 135.735C278.966 135.946 278.572 136.232 278.263 136.592C277.955 136.952 277.715 137.366 277.545 137.835C277.381 138.298 277.298 138.789 277.298 139.309C277.298 140.554 277.656 141.537 278.371 142.258C279.092 142.973 280.039 143.336 281.212 143.346ZM279.012 138.753C279.038 138.475 279.097 138.21 279.19 137.958C279.287 137.706 279.419 137.474 279.583 137.263C279.748 137.052 279.962 136.882 280.224 136.754C280.486 136.625 280.78 136.561 281.104 136.561C281.732 136.561 282.21 136.769 282.54 137.186C282.869 137.603 283.057 138.125 283.103 138.753H279.012ZM289.078 143.346C290.292 143.346 291.152 142.896 291.656 141.995V142.42C291.656 142.96 291.934 143.23 292.49 143.23C292.721 143.23 292.922 143.158 293.092 143.014C293.262 142.87 293.346 142.672 293.346 142.42V132.948C293.346 132.701 293.264 132.508 293.099 132.369C292.935 132.23 292.737 132.161 292.505 132.161C292.273 132.161 292.073 132.23 291.903 132.369C291.738 132.508 291.656 132.701 291.656 132.948V136.692C291.146 135.843 290.326 135.418 289.194 135.418C288.133 135.418 287.292 135.779 286.669 136.499C286.052 137.22 285.743 138.164 285.743 139.332C285.743 139.867 285.815 140.377 285.959 140.86C286.109 141.339 286.319 141.764 286.592 142.134C286.865 142.505 287.215 142.8 287.642 143.022C288.069 143.238 288.548 143.346 289.078 143.346ZM289.464 142.196C289.16 142.196 288.887 142.137 288.646 142.018C288.404 141.895 288.208 141.738 288.059 141.547C287.915 141.352 287.794 141.125 287.696 140.868C287.598 140.611 287.529 140.359 287.488 140.112C287.452 139.859 287.434 139.602 287.434 139.34C287.434 139.072 287.454 138.812 287.495 138.56C287.537 138.308 287.606 138.058 287.704 137.811C287.807 137.564 287.935 137.351 288.09 137.171C288.244 136.985 288.44 136.839 288.676 136.731C288.918 136.617 289.191 136.561 289.495 136.561C289.875 136.561 290.207 136.641 290.49 136.8C290.779 136.955 291.002 137.168 291.162 137.441C291.327 137.708 291.448 138.004 291.525 138.329C291.607 138.648 291.648 138.99 291.648 139.355C291.648 140.287 291.481 140.994 291.146 141.478C290.817 141.956 290.256 142.196 289.464 142.196ZM298.85 146.611C300.018 146.611 300.947 146.32 301.637 145.739C302.331 145.157 302.679 144.283 302.679 143.114V136.329C302.679 136.077 302.599 135.882 302.439 135.743C302.28 135.599 302.095 135.527 301.884 135.527C301.688 135.527 301.513 135.586 301.359 135.704C301.21 135.817 301.122 135.977 301.096 136.183V136.7C300.921 136.427 300.739 136.203 300.548 136.028C300.363 135.853 300.108 135.709 299.784 135.596C299.46 135.478 299.079 135.418 298.642 135.418C297.911 135.418 297.273 135.593 296.727 135.943C296.182 136.293 295.768 136.769 295.485 137.371C295.207 137.973 295.068 138.66 295.068 139.432C295.068 140.58 295.395 141.501 296.048 142.196C296.702 142.89 297.582 143.238 298.688 143.238C299.8 143.238 300.589 142.808 301.058 141.949V143.238C301.058 143.943 300.849 144.491 300.433 144.882C300.021 145.273 299.452 145.469 298.727 145.469C298.5 145.469 298.271 145.448 298.04 145.407C297.813 145.371 297.638 145.332 297.515 145.291C297.391 145.255 297.219 145.196 296.998 145.114C296.781 145.031 296.642 144.98 296.581 144.959C296.555 144.949 296.527 144.939 296.496 144.928C296.47 144.923 296.444 144.918 296.419 144.913C296.398 144.913 296.375 144.913 296.349 144.913C296.246 144.913 296.154 144.939 296.071 144.99C295.989 145.047 295.925 145.116 295.878 145.198C295.837 145.286 295.817 145.376 295.817 145.469C295.817 145.566 295.84 145.659 295.886 145.747C295.937 145.839 296.012 145.916 296.11 145.978C296.393 146.153 296.779 146.302 297.268 146.426C297.762 146.549 298.289 146.611 298.85 146.611ZM298.943 142.134C298.325 142.119 297.805 141.882 297.383 141.424C296.967 140.961 296.758 140.281 296.758 139.386C296.758 139 296.799 138.642 296.882 138.313C296.969 137.984 297.098 137.685 297.268 137.418C297.438 137.15 297.667 136.942 297.955 136.792C298.248 136.638 298.585 136.561 298.966 136.561C299.347 136.561 299.673 136.633 299.946 136.777C300.224 136.921 300.44 137.127 300.595 137.395C300.754 137.657 300.87 137.953 300.942 138.282C301.014 138.612 301.05 138.985 301.05 139.401C301.045 140.323 300.849 141.007 300.463 141.455C300.077 141.902 299.571 142.129 298.943 142.134ZM308.244 143.346C309.366 143.346 310.313 143.006 311.085 142.327C311.255 142.188 311.34 142.021 311.34 141.825C311.34 141.671 311.286 141.535 311.177 141.416C311.075 141.298 310.951 141.239 310.807 141.239C310.709 141.239 310.611 141.272 310.514 141.339C309.726 141.895 309.011 142.173 308.368 142.173C307.673 142.167 307.117 141.972 306.7 141.586C306.289 141.195 306.065 140.59 306.029 139.772H311.093C311.268 139.772 311.394 139.713 311.471 139.594C311.553 139.471 311.594 139.317 311.594 139.131C311.584 138.622 311.507 138.151 311.363 137.719C311.219 137.281 311.008 136.89 310.73 136.545C310.457 136.195 310.092 135.92 309.634 135.719C309.181 135.519 308.658 135.418 308.067 135.418C307.485 135.418 306.955 135.524 306.477 135.735C305.998 135.946 305.604 136.232 305.296 136.592C304.987 136.952 304.747 137.366 304.578 137.835C304.413 138.298 304.331 138.789 304.331 139.309C304.331 140.554 304.688 141.537 305.404 142.258C306.124 142.973 307.071 143.336 308.244 143.346ZM306.044 138.753C306.07 138.475 306.129 138.21 306.222 137.958C306.32 137.706 306.451 137.474 306.615 137.263C306.78 137.052 306.994 136.882 307.256 136.754C307.519 136.625 307.812 136.561 308.136 136.561C308.764 136.561 309.243 136.769 309.572 137.186C309.901 137.603 310.089 138.125 310.135 138.753H306.044ZM314.08 143.238C314.311 143.238 314.512 143.168 314.682 143.029C314.857 142.885 314.944 142.687 314.944 142.435V138.838C314.944 138.467 315.001 138.154 315.114 137.896C315.227 137.639 315.389 137.443 315.6 137.31C315.811 137.171 316.04 137.073 316.287 137.016C316.54 136.96 316.828 136.931 317.152 136.931C317.322 136.931 317.456 136.864 317.553 136.731C317.651 136.597 317.7 136.437 317.7 136.252C317.7 136.159 317.687 136.069 317.661 135.982C317.636 135.894 317.597 135.817 317.546 135.75C317.494 135.678 317.427 135.622 317.345 135.581C317.263 135.539 317.17 135.519 317.067 135.519C316.568 135.519 316.118 135.681 315.716 136.005C315.32 136.329 315.055 136.731 314.921 137.209L314.944 136.252C314.949 136.026 314.87 135.848 314.705 135.719C314.54 135.591 314.342 135.527 314.111 135.527C313.961 135.527 313.823 135.555 313.694 135.611C313.565 135.663 313.457 135.75 313.37 135.874C313.287 135.992 313.246 136.136 313.246 136.306V142.435C313.246 142.692 313.328 142.89 313.493 143.029C313.658 143.168 313.853 143.238 314.08 143.238ZM319.923 143.238C320.155 143.238 320.355 143.163 320.525 143.014C320.7 142.86 320.788 142.654 320.788 142.396V136.368C320.788 136.105 320.703 135.9 320.533 135.75C320.368 135.601 320.173 135.527 319.946 135.527C319.715 135.527 319.514 135.601 319.344 135.75C319.174 135.9 319.089 136.105 319.089 136.368V142.396C319.089 142.664 319.169 142.872 319.329 143.022C319.493 143.166 319.692 143.238 319.923 143.238ZM319.931 133.913C320.24 133.913 320.487 133.826 320.672 133.651C320.862 133.471 320.958 133.234 320.958 132.941C320.958 132.652 320.865 132.418 320.68 132.238C320.494 132.058 320.247 131.968 319.939 131.968C319.63 131.968 319.38 132.058 319.19 132.238C319.005 132.418 318.912 132.652 318.912 132.941C318.912 133.234 319.005 133.471 319.19 133.651C319.38 133.826 319.627 133.913 319.931 133.913ZM325.589 143.346C326.17 143.346 326.68 143.233 327.117 143.006C327.56 142.78 327.889 142.453 328.105 142.026V142.474C328.105 142.716 328.188 142.903 328.352 143.037C328.517 143.171 328.713 143.238 328.939 143.238C329.171 143.238 329.371 143.168 329.541 143.029C329.711 142.89 329.796 142.695 329.796 142.443V136.337C329.796 136.08 329.713 135.882 329.549 135.743C329.384 135.599 329.186 135.527 328.954 135.527C328.723 135.527 328.522 135.599 328.352 135.743C328.188 135.887 328.105 136.085 328.105 136.337V139.841C328.095 140.552 327.889 141.123 327.488 141.555C327.086 141.982 326.61 142.196 326.06 142.196C325.586 142.196 325.206 142.044 324.917 141.74C324.634 141.432 324.493 140.984 324.493 140.397V136.337C324.493 136.08 324.408 135.882 324.238 135.743C324.073 135.599 323.878 135.527 323.651 135.527C323.42 135.527 323.219 135.599 323.049 135.743C322.885 135.882 322.802 136.08 322.802 136.337V140.382C322.802 140.886 322.877 141.331 323.026 141.717C323.175 142.103 323.379 142.414 323.636 142.651C323.898 142.883 324.194 143.058 324.524 143.176C324.853 143.289 325.208 143.346 325.589 143.346ZM332.799 143.238C333.03 143.238 333.231 143.168 333.401 143.029C333.576 142.885 333.663 142.685 333.663 142.427V138.869C333.663 138.159 333.846 137.598 334.211 137.186C334.576 136.769 335.065 136.561 335.678 136.561C336.172 136.561 336.555 136.713 336.828 137.016C337.101 137.32 337.237 137.778 337.237 138.39V142.42C337.237 142.677 337.319 142.878 337.484 143.022C337.649 143.166 337.847 143.238 338.078 143.238C338.31 143.238 338.508 143.166 338.673 143.022C338.843 142.878 338.927 142.677 338.927 142.42V139.023C338.927 138.251 339.115 137.649 339.491 137.217C339.872 136.78 340.361 136.561 340.958 136.561C341.457 136.561 341.84 136.71 342.108 137.009C342.38 137.302 342.517 137.744 342.517 138.336V142.427C342.517 142.685 342.599 142.885 342.764 143.029C342.929 143.168 343.127 143.238 343.358 143.238C343.59 143.238 343.79 143.168 343.96 143.029C344.13 142.885 344.215 142.685 344.215 142.427V138.367C344.215 137.379 343.953 136.641 343.428 136.152C342.903 135.663 342.216 135.418 341.367 135.418C340.729 135.418 340.175 135.563 339.707 135.851C339.244 136.139 338.897 136.571 338.665 137.148C338.506 136.633 338.202 136.216 337.754 135.897C337.312 135.578 336.766 135.418 336.118 135.418C334.975 135.418 334.157 135.879 333.663 136.8V136.268C333.663 136.036 333.578 135.856 333.408 135.727C333.239 135.593 333.04 135.527 332.814 135.527C332.582 135.527 332.382 135.599 332.212 135.743C332.042 135.882 331.957 136.075 331.957 136.322V142.427C331.957 142.685 332.04 142.885 332.204 143.029C332.374 143.168 332.572 143.238 332.799 143.238ZM290.359 161.249C290.359 160.904 290.305 160.572 290.197 160.253C290.089 159.934 289.929 159.646 289.718 159.388C289.513 159.126 289.268 158.899 288.985 158.709C288.707 158.514 288.386 158.362 288.02 158.254C287.66 158.146 287.277 158.092 286.87 158.092C286.217 158.092 285.643 158.174 285.149 158.339C284.655 158.503 284.15 158.74 283.636 159.049C283.584 159.08 283.538 159.113 283.497 159.149C283.461 159.18 283.427 159.213 283.397 159.249C283.371 159.285 283.348 159.324 283.327 159.365C283.312 159.406 283.299 159.448 283.288 159.489C283.283 159.525 283.281 159.566 283.281 159.612C283.281 159.808 283.358 159.99 283.512 160.16C283.672 160.325 283.844 160.407 284.03 160.407C284.112 160.407 284.189 160.389 284.261 160.353C284.307 160.327 284.454 160.243 284.701 160.098C284.948 159.954 285.128 159.857 285.241 159.805C285.36 159.754 285.555 159.697 285.828 159.635C286.101 159.574 286.394 159.543 286.708 159.543C287.233 159.543 287.675 159.713 288.036 160.052C288.401 160.392 288.584 160.832 288.584 161.372C288.584 162.005 288.224 162.682 287.503 163.402L283.505 167.424C283.237 167.697 283.103 167.99 283.103 168.304C283.103 168.566 283.198 168.788 283.389 168.968C283.584 169.148 283.844 169.238 284.168 169.238H289.58C289.785 169.238 289.945 169.166 290.058 169.022C290.171 168.878 290.228 168.71 290.228 168.52C290.228 168.33 290.171 168.165 290.058 168.026C289.945 167.887 289.785 167.818 289.58 167.818H285.141L288.522 164.653C289.165 164.076 289.631 163.513 289.919 162.962C290.212 162.406 290.359 161.835 290.359 161.249ZM296.226 167.879C295.968 167.879 295.734 167.836 295.523 167.748C295.312 167.655 295.135 167.535 294.991 167.385C294.846 167.231 294.72 167.04 294.612 166.814C294.504 166.588 294.417 166.356 294.35 166.119C294.288 165.883 294.239 165.615 294.203 165.317C294.167 165.013 294.141 164.73 294.126 164.467C294.116 164.205 294.111 163.919 294.111 163.611C294.111 163.297 294.116 163.009 294.126 162.746C294.141 162.484 294.167 162.206 294.203 161.912C294.239 161.614 294.288 161.349 294.35 161.117C294.417 160.886 294.504 160.659 294.612 160.438C294.72 160.217 294.846 160.034 294.991 159.89C295.135 159.741 295.312 159.622 295.523 159.535C295.734 159.448 295.968 159.404 296.226 159.404C296.529 159.404 296.797 159.46 297.028 159.574C297.265 159.687 297.458 159.849 297.607 160.06C297.757 160.271 297.88 160.502 297.978 160.755C298.081 161.007 298.158 161.303 298.209 161.642C298.261 161.982 298.294 162.304 298.31 162.607C298.33 162.906 298.341 163.24 298.341 163.611C298.341 163.919 298.333 164.205 298.317 164.467C298.307 164.725 298.284 165.005 298.248 165.309C298.212 165.607 298.161 165.875 298.094 166.112C298.032 166.348 297.947 166.582 297.839 166.814C297.731 167.04 297.605 167.228 297.461 167.378C297.317 167.527 297.139 167.648 296.928 167.74C296.717 167.833 296.483 167.879 296.226 167.879ZM296.226 169.408C296.833 169.408 297.371 169.3 297.839 169.083C298.312 168.867 298.698 168.579 298.997 168.219C299.3 167.859 299.547 167.426 299.738 166.922C299.933 166.413 300.07 165.89 300.147 165.355C300.224 164.815 300.263 164.233 300.263 163.611C300.263 162.983 300.224 162.401 300.147 161.866C300.07 161.326 299.933 160.806 299.738 160.307C299.542 159.808 299.295 159.383 298.997 159.033C298.698 158.683 298.312 158.403 297.839 158.192C297.371 157.981 296.833 157.875 296.226 157.875C295.618 157.875 295.078 157.981 294.605 158.192C294.136 158.403 293.75 158.683 293.447 159.033C293.148 159.383 292.901 159.808 292.706 160.307C292.51 160.806 292.374 161.326 292.297 161.866C292.219 162.401 292.181 162.983 292.181 163.611C292.181 164.233 292.219 164.815 292.297 165.355C292.374 165.89 292.51 166.413 292.706 166.922C292.901 167.426 293.148 167.859 293.447 168.219C293.745 168.579 294.131 168.867 294.605 169.083C295.078 169.3 295.618 169.408 296.226 169.408ZM303.281 169.261C303.579 169.261 303.824 169.166 304.014 168.975C304.205 168.785 304.3 168.561 304.3 168.304C304.3 168.036 304.202 167.81 304.006 167.625C303.811 167.439 303.569 167.347 303.281 167.347C302.977 167.347 302.73 167.442 302.54 167.632C302.349 167.823 302.254 168.047 302.254 168.304C302.254 168.566 302.352 168.793 302.548 168.983C302.743 169.168 302.988 169.261 303.281 169.261ZM310.336 167.879C310.079 167.879 309.845 167.836 309.634 167.748C309.423 167.655 309.245 167.535 309.101 167.385C308.957 167.231 308.831 167.04 308.723 166.814C308.615 166.588 308.527 166.356 308.46 166.119C308.399 165.883 308.35 165.615 308.314 165.317C308.278 165.013 308.252 164.73 308.236 164.467C308.226 164.205 308.221 163.919 308.221 163.611C308.221 163.297 308.226 163.009 308.236 162.746C308.252 162.484 308.278 162.206 308.314 161.912C308.35 161.614 308.399 161.349 308.46 161.117C308.527 160.886 308.615 160.659 308.723 160.438C308.831 160.217 308.957 160.034 309.101 159.89C309.245 159.741 309.423 159.622 309.634 159.535C309.845 159.448 310.079 159.404 310.336 159.404C310.64 159.404 310.907 159.46 311.139 159.574C311.376 159.687 311.569 159.849 311.718 160.06C311.867 160.271 311.991 160.502 312.088 160.755C312.191 161.007 312.268 161.303 312.32 161.642C312.371 161.982 312.405 162.304 312.42 162.607C312.441 162.906 312.451 163.24 312.451 163.611C312.451 163.919 312.443 164.205 312.428 164.467C312.418 164.725 312.394 165.005 312.358 165.309C312.322 165.607 312.271 165.875 312.204 166.112C312.142 166.348 312.057 166.582 311.949 166.814C311.841 167.04 311.715 167.228 311.571 167.378C311.427 167.527 311.249 167.648 311.039 167.74C310.828 167.833 310.593 167.879 310.336 167.879ZM310.336 169.408C310.943 169.408 311.481 169.3 311.949 169.083C312.423 168.867 312.809 168.579 313.107 168.219C313.411 167.859 313.658 167.426 313.848 166.922C314.044 166.413 314.18 165.89 314.257 165.355C314.335 164.815 314.373 164.233 314.373 163.611C314.373 162.983 314.335 162.401 314.257 161.866C314.18 161.326 314.044 160.806 313.848 160.307C313.653 159.808 313.406 159.383 313.107 159.033C312.809 158.683 312.423 158.403 311.949 158.192C311.481 157.981 310.943 157.875 310.336 157.875C309.729 157.875 309.189 157.981 308.715 158.192C308.247 158.403 307.861 158.683 307.557 159.033C307.259 159.383 307.012 159.808 306.816 160.307C306.621 160.806 306.484 161.326 306.407 161.866C306.33 162.401 306.291 162.983 306.291 163.611C306.291 164.233 306.33 164.815 306.407 165.355C306.484 165.89 306.621 166.413 306.816 166.922C307.012 167.426 307.259 167.859 307.557 168.219C307.856 168.579 308.242 168.867 308.715 169.083C309.189 169.3 309.729 169.408 310.336 169.408ZM319.861 169.755C320.036 169.755 320.204 169.616 320.363 169.338L326.191 158.948C326.294 158.743 326.345 158.591 326.345 158.493C326.345 158.364 326.297 158.251 326.199 158.153C326.106 158.056 325.998 158.007 325.875 158.007C325.679 158.007 325.522 158.112 325.404 158.323L319.491 168.89C319.388 169.076 319.336 169.204 319.336 169.276C319.336 169.41 319.388 169.523 319.491 169.616C319.599 169.709 319.722 169.755 319.861 169.755ZM319.213 163.464C318.745 163.464 318.402 163.274 318.186 162.893C317.97 162.507 317.862 161.992 317.862 161.349C317.862 160.711 317.97 160.201 318.186 159.821C318.408 159.435 318.75 159.242 319.213 159.242C319.681 159.242 320.023 159.435 320.24 159.821C320.461 160.201 320.572 160.711 320.572 161.349C320.572 161.987 320.461 162.499 320.24 162.885C320.023 163.271 319.681 163.464 319.213 163.464ZM319.213 164.46C320.031 164.46 320.687 164.166 321.181 163.58C321.681 162.993 321.93 162.25 321.93 161.349C321.93 161.045 321.899 160.749 321.837 160.461C321.781 160.173 321.683 159.893 321.544 159.62C321.405 159.347 321.233 159.11 321.027 158.91C320.821 158.704 320.561 158.542 320.247 158.423C319.939 158.3 319.594 158.238 319.213 158.238C318.39 158.238 317.731 158.534 317.237 159.126C316.748 159.713 316.504 160.454 316.504 161.349C316.504 162.291 316.743 163.045 317.221 163.611C317.705 164.177 318.369 164.46 319.213 164.46ZM326.909 168.481C326.008 168.481 325.558 167.779 325.558 166.374C325.558 165.736 325.666 165.227 325.882 164.846C326.098 164.46 326.441 164.267 326.909 164.267C327.228 164.267 327.49 164.365 327.696 164.56C327.907 164.756 328.054 165.005 328.136 165.309C328.219 165.612 328.26 165.968 328.26 166.374C328.26 167.017 328.149 167.529 327.928 167.91C327.712 168.291 327.372 168.481 326.909 168.481ZM326.909 169.493C327.737 169.493 328.396 169.197 328.885 168.605C329.374 168.013 329.618 167.269 329.618 166.374C329.618 166.07 329.587 165.777 329.526 165.494C329.469 165.206 329.371 164.925 329.232 164.653C329.093 164.38 328.921 164.143 328.715 163.943C328.514 163.742 328.257 163.58 327.943 163.456C327.634 163.333 327.29 163.271 326.909 163.271C326.086 163.271 325.427 163.564 324.933 164.151C324.444 164.738 324.2 165.479 324.2 166.374C324.2 167.311 324.441 168.065 324.925 168.636C325.409 169.207 326.07 169.493 326.909 169.493Z" fill="#0C9072"/>
<path d="M267.896 295.416C268.159 295.416 268.383 295.336 268.568 295.177C268.758 295.012 268.854 294.783 268.854 294.49V290.854H271.1C272.433 290.854 273.457 290.599 274.172 290.09C274.887 289.575 275.245 288.739 275.245 287.581C275.245 286.439 274.903 285.61 274.218 285.095C273.539 284.581 272.556 284.324 271.27 284.324H267.912C267.644 284.324 267.415 284.419 267.225 284.609C267.034 284.794 266.939 285.018 266.939 285.281V294.49C266.939 294.783 267.034 295.012 267.225 295.177C267.415 295.336 267.639 295.416 267.896 295.416ZM268.854 289.395V285.844H271.1C271.882 285.844 272.453 285.965 272.813 286.207C273.179 286.444 273.362 286.902 273.362 287.581C273.362 288.271 273.174 288.747 272.798 289.009C272.428 289.266 271.843 289.395 271.046 289.395H268.854ZM279.313 295.516C279.894 295.516 280.404 295.403 280.841 295.177C281.284 294.95 281.613 294.623 281.829 294.196V294.644C281.829 294.886 281.912 295.074 282.076 295.207C282.241 295.341 282.437 295.408 282.663 295.408C282.895 295.408 283.095 295.339 283.265 295.2C283.435 295.061 283.52 294.865 283.52 294.613V288.507C283.52 288.25 283.437 288.052 283.273 287.913C283.108 287.769 282.91 287.697 282.678 287.697C282.447 287.697 282.246 287.769 282.076 287.913C281.912 288.057 281.829 288.255 281.829 288.507V292.012C281.819 292.722 281.613 293.293 281.212 293.725C280.81 294.152 280.334 294.366 279.784 294.366C279.31 294.366 278.93 294.214 278.641 293.911C278.358 293.602 278.217 293.154 278.217 292.567V288.507C278.217 288.25 278.132 288.052 277.962 287.913C277.797 287.769 277.602 287.697 277.375 287.697C277.144 287.697 276.943 287.769 276.773 287.913C276.609 288.052 276.526 288.25 276.526 288.507V292.552C276.526 293.056 276.601 293.501 276.75 293.887C276.899 294.273 277.103 294.585 277.36 294.821C277.622 295.053 277.918 295.228 278.248 295.346C278.577 295.46 278.932 295.516 279.313 295.516ZM289.95 295.516C290.48 295.516 290.958 295.408 291.386 295.192C291.813 294.971 292.163 294.675 292.435 294.304C292.708 293.934 292.916 293.509 293.061 293.031C293.21 292.547 293.284 292.037 293.284 291.502C293.284 290.334 292.976 289.39 292.358 288.669C291.741 287.949 290.902 287.589 289.842 287.589C288.71 287.589 287.889 288.013 287.379 288.862V285.119C287.379 284.872 287.294 284.679 287.125 284.54C286.96 284.401 286.762 284.331 286.53 284.331C286.299 284.331 286.098 284.401 285.928 284.54C285.763 284.679 285.681 284.872 285.681 285.119V294.59C285.681 294.842 285.766 295.04 285.936 295.184C286.111 295.328 286.312 295.4 286.538 295.4C286.795 295.4 286.999 295.333 287.148 295.2C287.302 295.066 287.379 294.863 287.379 294.59V294.165C287.884 295.066 288.74 295.516 289.95 295.516ZM289.564 294.366C288.771 294.366 288.21 294.127 287.881 293.648C287.552 293.164 287.387 292.457 287.387 291.525C287.387 291.16 287.426 290.818 287.503 290.499C287.585 290.175 287.706 289.879 287.866 289.611C288.03 289.338 288.254 289.125 288.537 288.97C288.825 288.811 289.157 288.731 289.533 288.731C289.909 288.731 290.235 288.813 290.513 288.978C290.791 289.143 291.005 289.367 291.154 289.65C291.308 289.928 291.419 290.221 291.486 290.53C291.558 290.838 291.594 291.165 291.594 291.51C291.594 291.772 291.573 292.03 291.532 292.282C291.496 292.529 291.429 292.781 291.332 293.038C291.234 293.296 291.11 293.522 290.961 293.718C290.817 293.908 290.624 294.065 290.382 294.188C290.14 294.307 289.867 294.366 289.564 294.366ZM295.886 295.408C296.117 295.408 296.318 295.333 296.488 295.184C296.663 295.03 296.75 294.824 296.75 294.567V285.173C296.75 284.915 296.665 284.712 296.496 284.563C296.326 284.408 296.128 284.331 295.901 284.331C295.67 284.331 295.469 284.406 295.299 284.555C295.134 284.704 295.052 284.91 295.052 285.173V294.567C295.052 294.834 295.132 295.043 295.291 295.192C295.456 295.336 295.654 295.408 295.886 295.408ZM299.799 295.408C300.031 295.408 300.232 295.333 300.401 295.184C300.576 295.03 300.664 294.824 300.664 294.567V288.538C300.664 288.276 300.579 288.07 300.409 287.921C300.244 287.771 300.049 287.697 299.822 287.697C299.591 287.697 299.39 287.771 299.22 287.921C299.051 288.07 298.966 288.276 298.966 288.538V294.567C298.966 294.834 299.045 295.043 299.205 295.192C299.37 295.336 299.568 295.408 299.799 295.408ZM299.807 286.083C300.116 286.083 300.363 285.996 300.548 285.821C300.738 285.641 300.834 285.404 300.834 285.111C300.834 284.823 300.741 284.589 300.556 284.408C300.371 284.228 300.124 284.138 299.815 284.138C299.506 284.138 299.256 284.228 299.066 284.408C298.881 284.589 298.788 284.823 298.788 285.111C298.788 285.404 298.881 285.641 299.066 285.821C299.256 285.996 299.503 286.083 299.807 286.083ZM306.067 295.516C307.112 295.516 307.899 295.287 308.429 294.829C308.614 294.67 308.707 294.495 308.707 294.304C308.707 294.258 308.702 294.214 308.692 294.173C308.681 294.127 308.663 294.086 308.638 294.05C308.617 294.008 308.591 293.972 308.56 293.941C308.53 293.911 308.496 293.885 308.46 293.864C308.424 293.844 308.383 293.828 308.337 293.818C308.295 293.803 308.252 293.795 308.205 293.795C308.144 293.795 308.079 293.805 308.012 293.826C307.951 293.846 307.889 293.88 307.827 293.926C307.421 294.219 306.878 294.366 306.198 294.366C305.504 294.366 304.958 294.106 304.562 293.586C304.171 293.067 303.975 292.385 303.975 291.541C303.975 290.702 304.179 290.023 304.585 289.503C304.992 288.983 305.545 288.723 306.245 288.723C306.744 288.723 307.22 288.847 307.673 289.094C307.729 289.125 307.786 289.148 307.843 289.163C307.904 289.179 307.964 289.187 308.02 289.187C308.082 289.187 308.141 289.179 308.198 289.163C308.254 289.148 308.303 289.125 308.344 289.094C308.391 289.063 308.429 289.027 308.46 288.986C308.496 288.945 308.522 288.901 308.537 288.855C308.558 288.803 308.568 288.749 308.568 288.692C308.568 288.636 308.555 288.579 308.53 288.523C308.509 288.466 308.473 288.409 308.422 288.353C308.375 288.291 308.316 288.234 308.244 288.183C307.678 287.787 306.965 287.589 306.106 287.589C305.54 287.589 305.015 287.694 304.531 287.905C304.053 288.116 303.649 288.402 303.319 288.762C302.995 289.122 302.74 289.544 302.555 290.028C302.375 290.506 302.285 291.013 302.285 291.549C302.285 292.279 302.434 292.943 302.733 293.54C303.036 294.137 303.479 294.616 304.06 294.976C304.642 295.336 305.311 295.516 306.067 295.516ZM269.502 321.431C269.739 321.431 269.947 321.357 270.127 321.207C270.307 321.058 270.397 320.852 270.397 320.59V319.108H271.385C271.596 319.108 271.759 319.043 271.872 318.915C271.99 318.781 272.049 318.624 272.049 318.444C272.049 318.259 271.99 318.099 271.872 317.965C271.759 317.832 271.596 317.765 271.385 317.765H270.405V311.628C270.405 311.191 270.279 310.866 270.027 310.655C269.78 310.439 269.466 310.331 269.085 310.331C268.761 310.331 268.473 310.406 268.221 310.555C267.968 310.699 267.739 310.936 267.534 311.265L263.527 317.711C263.502 317.752 263.479 317.796 263.458 317.842C263.443 317.888 263.43 317.937 263.419 317.989C263.414 318.04 263.412 318.091 263.412 318.143C263.412 318.39 263.491 318.614 263.651 318.814C263.816 319.01 264.027 319.108 264.284 319.108H268.583V320.59C268.583 320.852 268.676 321.058 268.861 321.207C269.047 321.357 269.26 321.431 269.502 321.431ZM265.249 317.765L268.583 312.246V317.765H265.249ZM276.912 320.05C276.655 320.05 276.421 320.006 276.21 319.918C275.999 319.826 275.821 319.705 275.677 319.556C275.533 319.401 275.407 319.211 275.299 318.984C275.191 318.758 275.103 318.526 275.037 318.29C274.975 318.053 274.926 317.785 274.89 317.487C274.854 317.183 274.828 316.9 274.813 316.638C274.802 316.375 274.797 316.09 274.797 315.781C274.797 315.467 274.802 315.179 274.813 314.916C274.828 314.654 274.854 314.376 274.89 314.083C274.926 313.784 274.975 313.519 275.037 313.288C275.103 313.056 275.191 312.83 275.299 312.608C275.407 312.387 275.533 312.204 275.677 312.06C275.821 311.911 275.999 311.793 276.21 311.705C276.421 311.618 276.655 311.574 276.912 311.574C277.216 311.574 277.484 311.631 277.715 311.744C277.952 311.857 278.145 312.019 278.294 312.23C278.443 312.441 278.567 312.673 278.665 312.925C278.767 313.177 278.845 313.473 278.896 313.813C278.948 314.152 278.981 314.474 278.996 314.777C279.017 315.076 279.027 315.41 279.027 315.781C279.027 316.09 279.02 316.375 279.004 316.638C278.994 316.895 278.971 317.175 278.935 317.479C278.899 317.778 278.847 318.045 278.78 318.282C278.719 318.519 278.634 318.753 278.526 318.984C278.418 319.211 278.291 319.399 278.147 319.548C278.003 319.697 277.826 319.818 277.615 319.911C277.404 320.003 277.17 320.05 276.912 320.05ZM276.912 321.578C277.52 321.578 278.057 321.47 278.526 321.254C278.999 321.038 279.385 320.749 279.683 320.389C279.987 320.029 280.234 319.597 280.424 319.092C280.62 318.583 280.756 318.061 280.834 317.525C280.911 316.985 280.949 316.404 280.949 315.781C280.949 315.153 280.911 314.572 280.834 314.036C280.756 313.496 280.62 312.976 280.424 312.477C280.229 311.978 279.982 311.553 279.683 311.203C279.385 310.854 278.999 310.573 278.526 310.362C278.057 310.151 277.52 310.046 276.912 310.046C276.305 310.046 275.765 310.151 275.291 310.362C274.823 310.573 274.437 310.854 274.133 311.203C273.835 311.553 273.588 311.978 273.392 312.477C273.197 312.976 273.06 313.496 272.983 314.036C272.906 314.572 272.868 315.153 272.868 315.781C272.868 316.404 272.906 316.985 272.983 317.525C273.06 318.061 273.197 318.583 273.392 319.092C273.588 319.597 273.835 320.029 274.133 320.389C274.432 320.749 274.818 321.038 275.291 321.254C275.765 321.47 276.305 321.578 276.912 321.578ZM283.968 321.431C284.266 321.431 284.51 321.336 284.701 321.146C284.891 320.955 284.986 320.731 284.986 320.474C284.986 320.206 284.889 319.98 284.693 319.795C284.498 319.61 284.256 319.517 283.968 319.517C283.664 319.517 283.417 319.612 283.226 319.803C283.036 319.993 282.941 320.217 282.941 320.474C282.941 320.737 283.039 320.963 283.234 321.153C283.43 321.339 283.674 321.431 283.968 321.431ZM291.023 320.05C290.765 320.05 290.531 320.006 290.32 319.918C290.109 319.826 289.932 319.705 289.788 319.556C289.644 319.401 289.518 319.211 289.409 318.984C289.301 318.758 289.214 318.526 289.147 318.29C289.085 318.053 289.036 317.785 289 317.487C288.964 317.183 288.939 316.9 288.923 316.638C288.913 316.375 288.908 316.09 288.908 315.781C288.908 315.467 288.913 315.179 288.923 314.916C288.939 314.654 288.964 314.376 289 314.083C289.036 313.784 289.085 313.519 289.147 313.288C289.214 313.056 289.301 312.83 289.409 312.608C289.518 312.387 289.644 312.204 289.788 312.06C289.932 311.911 290.109 311.793 290.32 311.705C290.531 311.618 290.765 311.574 291.023 311.574C291.326 311.574 291.594 311.631 291.826 311.744C292.062 311.857 292.255 312.019 292.404 312.23C292.554 312.441 292.677 312.673 292.775 312.925C292.878 313.177 292.955 313.473 293.007 313.813C293.058 314.152 293.091 314.474 293.107 314.777C293.127 315.076 293.138 315.41 293.138 315.781C293.138 316.09 293.13 316.375 293.115 316.638C293.104 316.895 293.081 317.175 293.045 317.479C293.009 317.778 292.958 318.045 292.891 318.282C292.829 318.519 292.744 318.753 292.636 318.984C292.528 319.211 292.402 319.399 292.258 319.548C292.114 319.697 291.936 319.818 291.725 319.911C291.514 320.003 291.28 320.05 291.023 320.05ZM291.023 321.578C291.63 321.578 292.168 321.47 292.636 321.254C293.109 321.038 293.495 320.749 293.794 320.389C294.098 320.029 294.345 319.597 294.535 319.092C294.73 318.583 294.867 318.061 294.944 317.525C295.021 316.985 295.06 316.404 295.06 315.781C295.06 315.153 295.021 314.572 294.944 314.036C294.867 313.496 294.73 312.976 294.535 312.477C294.339 311.978 294.092 311.553 293.794 311.203C293.495 310.854 293.109 310.573 292.636 310.362C292.168 310.151 291.63 310.046 291.023 310.046C290.416 310.046 289.875 310.151 289.402 310.362C288.933 310.573 288.548 310.854 288.244 311.203C287.945 311.553 287.698 311.978 287.503 312.477C287.307 312.976 287.171 313.496 287.094 314.036C287.017 314.572 286.978 315.153 286.978 315.781C286.978 316.404 287.017 316.985 287.094 317.525C287.171 318.061 287.307 318.583 287.503 319.092C287.698 319.597 287.945 320.029 288.244 320.389C288.542 320.749 288.928 321.038 289.402 321.254C289.875 321.47 290.416 321.578 291.023 321.578ZM300.548 321.925C300.723 321.925 300.89 321.786 301.05 321.508L306.878 311.119C306.981 310.913 307.032 310.761 307.032 310.663C307.032 310.534 306.983 310.421 306.885 310.324C306.793 310.226 306.685 310.177 306.561 310.177C306.366 310.177 306.209 310.282 306.09 310.493L300.178 321.061C300.075 321.246 300.023 321.375 300.023 321.447C300.023 321.58 300.075 321.694 300.178 321.786C300.286 321.879 300.409 321.925 300.548 321.925ZM299.9 315.634C299.431 315.634 299.089 315.444 298.873 315.063C298.657 314.677 298.549 314.162 298.549 313.519C298.549 312.881 298.657 312.372 298.873 311.991C299.094 311.605 299.437 311.412 299.9 311.412C300.368 311.412 300.71 311.605 300.926 311.991C301.148 312.372 301.258 312.881 301.258 313.519C301.258 314.157 301.148 314.669 300.926 315.055C300.71 315.441 300.368 315.634 299.9 315.634ZM299.9 316.63C300.718 316.63 301.374 316.337 301.868 315.75C302.367 315.163 302.617 314.42 302.617 313.519C302.617 313.216 302.586 312.92 302.524 312.632C302.468 312.343 302.37 312.063 302.231 311.79C302.092 311.517 301.919 311.281 301.714 311.08C301.508 310.874 301.248 310.712 300.934 310.594C300.625 310.47 300.28 310.408 299.9 310.408C299.076 310.408 298.418 310.704 297.924 311.296C297.435 311.883 297.19 312.624 297.19 313.519C297.19 314.461 297.43 315.215 297.908 315.781C298.392 316.347 299.056 316.63 299.9 316.63ZM307.596 320.652C306.695 320.652 306.245 319.949 306.245 318.544C306.245 317.906 306.353 317.397 306.569 317.016C306.785 316.63 307.127 316.437 307.596 316.437C307.915 316.437 308.177 316.535 308.383 316.73C308.594 316.926 308.741 317.175 308.823 317.479C308.905 317.783 308.946 318.138 308.946 318.544C308.946 319.188 308.836 319.7 308.614 320.08C308.398 320.461 308.059 320.652 307.596 320.652ZM307.596 321.663C308.424 321.663 309.083 321.367 309.572 320.775C310.061 320.183 310.305 319.44 310.305 318.544C310.305 318.241 310.274 317.947 310.212 317.664C310.156 317.376 310.058 317.096 309.919 316.823C309.78 316.55 309.608 316.313 309.402 316.113C309.201 315.912 308.944 315.75 308.63 315.627C308.321 315.503 307.976 315.441 307.596 315.441C306.772 315.441 306.114 315.735 305.619 316.321C305.131 316.908 304.886 317.649 304.886 318.544C304.886 319.481 305.128 320.235 305.612 320.806C306.096 321.377 306.757 321.663 307.596 321.663Z" fill="#6E7D92"/>
<path d="M113.747 206.473H119.544C119.77 206.473 119.948 206.398 120.076 206.249C120.205 206.094 120.269 205.919 120.269 205.724C120.269 205.518 120.205 205.338 120.076 205.184C119.948 205.029 119.77 204.952 119.544 204.952H114.719V201.54H119.081C119.307 201.54 119.485 201.465 119.613 201.316C119.747 201.162 119.814 200.987 119.814 200.791C119.814 200.591 119.75 200.418 119.621 200.274C119.497 200.125 119.317 200.05 119.081 200.05H114.719V196.916H119.366C119.593 196.916 119.77 196.839 119.899 196.685C120.027 196.53 120.092 196.353 120.092 196.152C120.092 195.952 120.027 195.774 119.899 195.62C119.77 195.465 119.593 195.388 119.366 195.388H113.716C113.464 195.388 113.248 195.483 113.067 195.674C112.892 195.859 112.805 196.075 112.805 196.322V205.546C112.805 205.793 112.9 206.009 113.091 206.195C113.281 206.38 113.5 206.473 113.747 206.473ZM123.071 206.473C123.303 206.473 123.501 206.401 123.666 206.256C123.836 206.112 123.92 205.914 123.92 205.662V202.15C123.926 201.445 124.126 200.876 124.523 200.444C124.919 200.012 125.392 199.796 125.943 199.796C126.416 199.796 126.8 199.95 127.093 200.259C127.386 200.568 127.533 201.013 127.533 201.594V205.662C127.533 205.919 127.615 206.12 127.78 206.264C127.945 206.403 128.14 206.473 128.367 206.473C128.598 206.473 128.799 206.403 128.969 206.264C129.139 206.12 129.223 205.919 129.223 205.662V201.61C129.223 201.105 129.149 200.66 129 200.274C128.85 199.888 128.645 199.579 128.382 199.348C128.12 199.116 127.821 198.944 127.487 198.831C127.157 198.712 126.802 198.653 126.421 198.653C125.835 198.653 125.325 198.766 124.893 198.993C124.461 199.214 124.137 199.538 123.92 199.965V199.533C123.92 199.291 123.838 199.103 123.673 198.97C123.509 198.831 123.311 198.761 123.079 198.761C122.847 198.761 122.647 198.833 122.477 198.977C122.307 199.116 122.222 199.309 122.222 199.556V205.662C122.222 205.919 122.305 206.12 122.469 206.264C122.639 206.403 122.84 206.473 123.071 206.473ZM134.025 206.55C134.05 206.55 134.081 206.55 134.117 206.55C134.158 206.55 134.197 206.55 134.233 206.55C134.269 206.55 134.3 206.55 134.326 206.55C134.439 206.55 134.534 206.547 134.611 206.542C134.689 206.542 134.776 206.539 134.874 206.534C134.972 206.529 135.056 206.519 135.129 206.503C135.201 206.488 135.273 206.47 135.345 206.449C135.422 206.429 135.486 206.401 135.538 206.365C135.589 206.329 135.635 206.287 135.677 206.241C135.718 206.195 135.749 206.141 135.769 206.079C135.79 206.012 135.8 205.937 135.8 205.855C135.8 205.742 135.774 205.636 135.723 205.539C135.677 205.441 135.602 205.361 135.499 205.299C135.401 205.232 135.283 205.199 135.144 205.199C135.123 205.199 135.105 205.199 135.09 205.199L134.526 205.238H134.457C134.246 205.238 134.076 205.181 133.948 205.068C133.819 204.949 133.729 204.79 133.677 204.589C133.626 204.383 133.6 204.126 133.6 203.817V199.935H134.951C135.152 199.935 135.301 199.886 135.399 199.788C135.496 199.685 135.545 199.554 135.545 199.394C135.545 199.235 135.494 199.103 135.391 199.001C135.293 198.892 135.147 198.838 134.951 198.838H133.6V196.646C133.6 196.43 133.541 196.271 133.423 196.168C133.309 196.06 133.16 196.006 132.975 196.006C132.748 196.006 132.558 196.075 132.404 196.214C132.254 196.348 132.167 196.525 132.141 196.747L131.91 198.838H131.037C130.842 198.838 130.693 198.89 130.59 198.993C130.487 199.096 130.435 199.224 130.435 199.379C130.435 199.533 130.489 199.664 130.597 199.772C130.705 199.881 130.857 199.935 131.053 199.935H131.91V204.219C131.91 204.955 132.098 205.528 132.473 205.94C132.854 206.347 133.371 206.55 134.025 206.55ZM140.702 206.581C141.824 206.581 142.77 206.241 143.542 205.562C143.712 205.423 143.797 205.256 143.797 205.06C143.797 204.906 143.743 204.769 143.635 204.651C143.532 204.533 143.409 204.473 143.264 204.473C143.167 204.473 143.069 204.507 142.971 204.574C142.184 205.129 141.468 205.407 140.825 205.407C140.13 205.402 139.575 205.207 139.158 204.821C138.746 204.43 138.522 203.825 138.486 203.007H143.55C143.725 203.007 143.851 202.948 143.928 202.829C144.011 202.706 144.052 202.551 144.052 202.366C144.041 201.857 143.964 201.386 143.82 200.953C143.676 200.516 143.465 200.125 143.187 199.78C142.914 199.43 142.549 199.155 142.091 198.954C141.638 198.754 141.116 198.653 140.524 198.653C139.943 198.653 139.413 198.759 138.934 198.97C138.455 199.181 138.062 199.466 137.753 199.826C137.444 200.187 137.205 200.601 137.035 201.069C136.87 201.532 136.788 202.024 136.788 202.544C136.788 203.789 137.146 204.772 137.861 205.492C138.582 206.208 139.528 206.57 140.702 206.581ZM138.502 201.988C138.527 201.71 138.587 201.445 138.679 201.193C138.777 200.941 138.908 200.709 139.073 200.498C139.238 200.287 139.451 200.117 139.714 199.989C139.976 199.86 140.269 199.796 140.594 199.796C141.221 199.796 141.7 200.004 142.029 200.421C142.359 200.838 142.547 201.36 142.593 201.988H138.502ZM146.537 206.473C146.769 206.473 146.97 206.403 147.139 206.264C147.314 206.12 147.402 205.922 147.402 205.67V202.073C147.402 201.702 147.458 201.388 147.572 201.131C147.685 200.874 147.847 200.678 148.058 200.544C148.269 200.405 148.498 200.308 148.745 200.251C148.997 200.194 149.285 200.166 149.609 200.166C149.779 200.166 149.913 200.099 150.011 199.965C150.109 199.832 150.158 199.672 150.158 199.487C150.158 199.394 150.145 199.304 150.119 199.217C150.093 199.129 150.055 199.052 150.003 198.985C149.952 198.913 149.885 198.856 149.802 198.815C149.72 198.774 149.627 198.754 149.525 198.754C149.025 198.754 148.575 198.916 148.174 199.24C147.777 199.564 147.512 199.965 147.379 200.444L147.402 199.487C147.407 199.26 147.327 199.083 147.163 198.954C146.998 198.826 146.8 198.761 146.568 198.761C146.419 198.761 146.28 198.79 146.151 198.846C146.023 198.898 145.915 198.985 145.827 199.109C145.745 199.227 145.704 199.371 145.704 199.541V205.67C145.704 205.927 145.786 206.125 145.951 206.264C146.115 206.403 146.311 206.473 146.537 206.473ZM152.357 209.414C152.589 209.414 152.787 209.344 152.952 209.205C153.122 209.066 153.207 208.873 153.207 208.626V205.299C153.716 206.154 154.537 206.581 155.669 206.581C156.729 206.581 157.568 206.22 158.185 205.5C158.803 204.78 159.112 203.835 159.112 202.667C159.112 202.132 159.037 201.625 158.888 201.146C158.744 200.663 158.535 200.236 158.263 199.865C157.99 199.495 157.64 199.201 157.213 198.985C156.786 198.764 156.307 198.653 155.777 198.653C154.568 198.653 153.711 199.103 153.207 200.004V199.572C153.207 199.299 153.129 199.096 152.975 198.962C152.826 198.828 152.622 198.761 152.365 198.761C152.139 198.761 151.938 198.836 151.763 198.985C151.593 199.129 151.508 199.327 151.508 199.579V208.626C151.508 208.873 151.591 209.066 151.755 209.205C151.925 209.344 152.126 209.414 152.357 209.414ZM155.36 205.431C154.985 205.431 154.653 205.353 154.364 205.199C154.081 205.039 153.858 204.826 153.693 204.558C153.533 204.291 153.412 203.997 153.33 203.678C153.253 203.354 153.214 203.009 153.214 202.644C153.214 201.718 153.379 201.013 153.708 200.529C154.038 200.04 154.599 199.796 155.391 199.796C155.695 199.796 155.967 199.857 156.209 199.981C156.451 200.104 156.644 200.264 156.788 200.459C156.937 200.65 157.061 200.874 157.159 201.131C157.257 201.388 157.323 201.643 157.359 201.895C157.401 202.147 157.421 202.402 157.421 202.659C157.421 203.004 157.385 203.331 157.313 203.64C157.246 203.948 157.136 204.242 156.981 204.52C156.832 204.798 156.618 205.019 156.341 205.184C156.063 205.348 155.736 205.431 155.36 205.431ZM161.682 206.473C161.914 206.473 162.114 206.403 162.284 206.264C162.459 206.12 162.547 205.922 162.547 205.67V202.073C162.547 201.702 162.603 201.388 162.716 201.131C162.83 200.874 162.992 200.678 163.203 200.544C163.414 200.405 163.643 200.308 163.89 200.251C164.142 200.194 164.43 200.166 164.754 200.166C164.924 200.166 165.058 200.099 165.156 199.965C165.253 199.832 165.302 199.672 165.302 199.487C165.302 199.394 165.289 199.304 165.264 199.217C165.238 199.129 165.199 199.052 165.148 198.985C165.096 198.913 165.03 198.856 164.947 198.815C164.865 198.774 164.772 198.754 164.669 198.754C164.17 198.754 163.72 198.916 163.319 199.24C162.922 199.564 162.657 199.965 162.523 200.444L162.547 199.487C162.552 199.26 162.472 199.083 162.307 198.954C162.143 198.826 161.945 198.761 161.713 198.761C161.564 198.761 161.425 198.79 161.296 198.846C161.167 198.898 161.059 198.985 160.972 199.109C160.89 199.227 160.848 199.371 160.848 199.541V205.67C160.848 205.927 160.931 206.125 161.095 206.264C161.26 206.403 161.456 206.473 161.682 206.473ZM167.525 206.473C167.757 206.473 167.958 206.398 168.128 206.249C168.302 206.094 168.39 205.889 168.39 205.631V199.603C168.39 199.34 168.305 199.134 168.135 198.985C167.971 198.836 167.775 198.761 167.549 198.761C167.317 198.761 167.116 198.836 166.946 198.985C166.777 199.134 166.692 199.34 166.692 199.603V205.631C166.692 205.899 166.772 206.107 166.931 206.256C167.096 206.401 167.294 206.473 167.525 206.473ZM167.533 197.148C167.842 197.148 168.089 197.06 168.274 196.886C168.465 196.705 168.56 196.469 168.56 196.175C168.56 195.887 168.467 195.653 168.282 195.473C168.097 195.293 167.85 195.203 167.541 195.203C167.232 195.203 166.983 195.293 166.792 195.473C166.607 195.653 166.514 195.887 166.514 196.175C166.514 196.469 166.607 196.705 166.792 196.886C166.983 197.06 167.23 197.148 167.533 197.148ZM170.451 205.739C171.058 206.172 171.799 206.444 172.674 206.558C172.921 206.588 173.165 206.604 173.407 206.604C173.85 206.604 174.256 206.555 174.627 206.457C175.003 206.359 175.329 206.215 175.607 206.025C175.885 205.829 176.101 205.577 176.256 205.268C176.415 204.955 176.495 204.599 176.495 204.203C176.495 203.611 176.315 203.138 175.955 202.783C175.594 202.428 175.01 202.15 174.202 201.949L172.952 201.64C172.468 201.522 172.147 201.404 171.987 201.285C171.828 201.162 171.748 200.961 171.748 200.683C171.748 200.462 171.825 200.279 171.979 200.135C172.134 199.991 172.327 199.891 172.558 199.834C172.79 199.772 173.055 199.742 173.353 199.742C173.497 199.742 173.644 199.752 173.793 199.772C173.943 199.788 174.069 199.806 174.172 199.826C174.28 199.847 174.406 199.878 174.55 199.919C174.694 199.96 174.794 199.991 174.851 200.012C174.907 200.032 175 200.068 175.129 200.12C175.257 200.166 175.324 200.189 175.329 200.189C175.381 200.205 175.427 200.218 175.468 200.228C175.515 200.238 175.561 200.243 175.607 200.243C175.71 200.243 175.8 200.22 175.877 200.174C175.96 200.122 176.022 200.058 176.063 199.981C176.104 199.904 176.124 199.821 176.124 199.734C176.124 199.492 176.001 199.312 175.754 199.194C174.992 198.808 174.161 198.615 173.261 198.615C172.123 198.615 171.282 198.874 170.737 199.394C170.366 199.76 170.181 200.215 170.181 200.76C170.181 200.966 170.199 201.154 170.235 201.324C170.276 201.489 170.327 201.635 170.389 201.764C170.456 201.887 170.546 202.003 170.659 202.111C170.778 202.214 170.896 202.302 171.014 202.374C171.133 202.446 171.285 202.518 171.47 202.59C171.66 202.662 171.838 202.724 172.002 202.775C172.167 202.821 172.376 202.878 172.628 202.945L173.901 203.269C174.303 203.372 174.596 203.508 174.781 203.678C174.967 203.843 175.059 204.054 175.059 204.311C175.059 204.579 174.974 204.805 174.805 204.991C174.635 205.171 174.421 205.299 174.164 205.376C173.907 205.449 173.616 205.485 173.292 205.485C172.993 205.485 172.697 205.449 172.404 205.376C172.111 205.299 171.876 205.22 171.701 205.137C171.526 205.055 171.336 204.952 171.13 204.828C171.002 204.756 170.876 204.72 170.752 204.72C170.721 204.72 170.69 204.723 170.659 204.728C170.628 204.733 170.598 204.741 170.567 204.751C170.541 204.762 170.515 204.774 170.49 204.79C170.464 204.8 170.438 204.816 170.412 204.836C170.392 204.852 170.371 204.87 170.351 204.89C170.33 204.911 170.312 204.934 170.297 204.96C170.281 204.98 170.266 205.003 170.25 205.029C170.24 205.055 170.23 205.081 170.219 205.106C170.214 205.132 170.209 205.16 170.204 205.191C170.199 205.217 170.196 205.245 170.196 205.276C170.196 205.461 170.281 205.616 170.451 205.739ZM181.69 206.581C182.812 206.581 183.759 206.241 184.531 205.562C184.7 205.423 184.785 205.256 184.785 205.06C184.785 204.906 184.731 204.769 184.623 204.651C184.52 204.533 184.397 204.473 184.253 204.473C184.155 204.473 184.057 204.507 183.959 204.574C183.172 205.129 182.457 205.407 181.813 205.407C181.119 205.402 180.563 205.207 180.146 204.821C179.734 204.43 179.511 203.825 179.475 203.007H184.538C184.713 203.007 184.839 202.948 184.916 202.829C184.999 202.706 185.04 202.551 185.04 202.366C185.03 201.857 184.952 201.386 184.808 200.953C184.664 200.516 184.453 200.125 184.175 199.78C183.903 199.43 183.537 199.155 183.079 198.954C182.626 198.754 182.104 198.653 181.512 198.653C180.931 198.653 180.401 198.759 179.922 198.97C179.444 199.181 179.05 199.466 178.741 199.826C178.432 200.187 178.193 200.601 178.023 201.069C177.859 201.532 177.776 202.024 177.776 202.544C177.776 203.789 178.134 204.772 178.849 205.492C179.57 206.208 180.517 206.57 181.69 206.581ZM179.49 201.988C179.516 201.71 179.575 201.445 179.668 201.193C179.765 200.941 179.897 200.709 180.061 200.498C180.226 200.287 180.439 200.117 180.702 199.989C180.964 199.86 181.258 199.796 181.582 199.796C182.21 199.796 182.688 200.004 183.018 200.421C183.347 200.838 183.535 201.36 183.581 201.988H179.49ZM130.682 232.496C130.919 232.496 131.127 232.421 131.308 232.272C131.488 232.123 131.578 231.917 131.578 231.654V230.172H132.566C132.777 230.172 132.939 230.108 133.052 229.979C133.17 229.846 133.23 229.689 133.23 229.508C133.23 229.323 133.17 229.164 133.052 229.03C132.939 228.896 132.777 228.829 132.566 228.829H131.585V222.693C131.585 222.255 131.459 221.931 131.207 221.72C130.96 221.504 130.646 221.396 130.266 221.396C129.941 221.396 129.653 221.47 129.401 221.62C129.149 221.764 128.92 222 128.714 222.33L124.708 228.775C124.682 228.816 124.659 228.86 124.638 228.906C124.623 228.953 124.61 229.002 124.6 229.053C124.595 229.105 124.592 229.156 124.592 229.207C124.592 229.454 124.672 229.678 124.831 229.879C124.996 230.075 125.207 230.172 125.464 230.172H129.764V231.654C129.764 231.917 129.856 232.123 130.042 232.272C130.227 232.421 130.44 232.496 130.682 232.496ZM126.429 228.829L129.764 223.31V228.829H126.429ZM138.093 231.114C137.835 231.114 137.601 231.07 137.39 230.983C137.179 230.89 137.002 230.769 136.858 230.62C136.714 230.466 136.587 230.275 136.479 230.049C136.371 229.822 136.284 229.591 136.217 229.354C136.155 229.117 136.106 228.85 136.07 228.551C136.034 228.248 136.008 227.965 135.993 227.702C135.983 227.44 135.978 227.154 135.978 226.845C135.978 226.531 135.983 226.243 135.993 225.981C136.008 225.718 136.034 225.441 136.07 225.147C136.106 224.849 136.155 224.584 136.217 224.352C136.284 224.121 136.371 223.894 136.479 223.673C136.587 223.452 136.714 223.269 136.858 223.125C137.002 222.976 137.179 222.857 137.39 222.77C137.601 222.682 137.835 222.639 138.093 222.639C138.396 222.639 138.664 222.695 138.895 222.808C139.132 222.922 139.325 223.084 139.474 223.295C139.624 223.506 139.747 223.737 139.845 223.989C139.948 224.242 140.025 224.537 140.076 224.877C140.128 225.217 140.161 225.538 140.177 225.842C140.197 226.14 140.208 226.475 140.208 226.845C140.208 227.154 140.2 227.44 140.185 227.702C140.174 227.96 140.151 228.24 140.115 228.544C140.079 228.842 140.028 229.11 139.961 229.346C139.899 229.583 139.814 229.817 139.706 230.049C139.598 230.275 139.472 230.463 139.328 230.612C139.184 230.762 139.006 230.882 138.795 230.975C138.584 231.068 138.35 231.114 138.093 231.114ZM138.093 232.642C138.7 232.642 139.238 232.534 139.706 232.318C140.179 232.102 140.565 231.814 140.864 231.454C141.167 231.093 141.414 230.661 141.605 230.157C141.8 229.647 141.937 229.125 142.014 228.59C142.091 228.05 142.13 227.468 142.13 226.845C142.13 226.218 142.091 225.636 142.014 225.101C141.937 224.561 141.8 224.041 141.605 223.542C141.409 223.042 141.162 222.618 140.864 222.268C140.565 221.918 140.179 221.638 139.706 221.427C139.238 221.216 138.7 221.11 138.093 221.11C137.485 221.11 136.945 221.216 136.472 221.427C136.003 221.638 135.617 221.918 135.314 222.268C135.015 222.618 134.768 223.042 134.573 223.542C134.377 224.041 134.241 224.561 134.164 225.101C134.086 225.636 134.048 226.218 134.048 226.845C134.048 227.468 134.086 228.05 134.164 228.59C134.241 229.125 134.377 229.647 134.573 230.157C134.768 230.661 135.015 231.093 135.314 231.454C135.612 231.814 135.998 232.102 136.472 232.318C136.945 232.534 137.485 232.642 138.093 232.642ZM145.148 232.496C145.446 232.496 145.691 232.401 145.881 232.21C146.072 232.02 146.167 231.796 146.167 231.539C146.167 231.271 146.069 231.045 145.873 230.859C145.678 230.674 145.436 230.581 145.148 230.581C144.844 230.581 144.597 230.677 144.407 230.867C144.216 231.057 144.121 231.281 144.121 231.539C144.121 231.801 144.219 232.027 144.415 232.218C144.61 232.403 144.855 232.496 145.148 232.496ZM152.203 231.114C151.946 231.114 151.712 231.07 151.501 230.983C151.29 230.89 151.112 230.769 150.968 230.62C150.824 230.466 150.698 230.275 150.59 230.049C150.482 229.822 150.394 229.591 150.327 229.354C150.266 229.117 150.217 228.85 150.181 228.551C150.145 228.248 150.119 227.965 150.104 227.702C150.093 227.44 150.088 227.154 150.088 226.845C150.088 226.531 150.093 226.243 150.104 225.981C150.119 225.718 150.145 225.441 150.181 225.147C150.217 224.849 150.266 224.584 150.327 224.352C150.394 224.121 150.482 223.894 150.59 223.673C150.698 223.452 150.824 223.269 150.968 223.125C151.112 222.976 151.29 222.857 151.501 222.77C151.712 222.682 151.946 222.639 152.203 222.639C152.507 222.639 152.774 222.695 153.006 222.808C153.243 222.922 153.436 223.084 153.585 223.295C153.734 223.506 153.858 223.737 153.955 223.989C154.058 224.242 154.135 224.537 154.187 224.877C154.238 225.217 154.272 225.538 154.287 225.842C154.308 226.14 154.318 226.475 154.318 226.845C154.318 227.154 154.31 227.44 154.295 227.702C154.285 227.96 154.262 228.24 154.225 228.544C154.189 228.842 154.138 229.11 154.071 229.346C154.009 229.583 153.924 229.817 153.816 230.049C153.708 230.275 153.582 230.463 153.438 230.612C153.294 230.762 153.117 230.882 152.906 230.975C152.695 231.068 152.46 231.114 152.203 231.114ZM152.203 232.642C152.81 232.642 153.348 232.534 153.816 232.318C154.29 232.102 154.676 231.814 154.974 231.454C155.278 231.093 155.525 230.661 155.715 230.157C155.911 229.647 156.047 229.125 156.124 228.59C156.202 228.05 156.24 227.468 156.24 226.845C156.24 226.218 156.202 225.636 156.124 225.101C156.047 224.561 155.911 224.041 155.715 223.542C155.52 223.042 155.273 222.618 154.974 222.268C154.676 221.918 154.29 221.638 153.816 221.427C153.348 221.216 152.81 221.11 152.203 221.11C151.596 221.11 151.056 221.216 150.582 221.427C150.114 221.638 149.728 221.918 149.424 222.268C149.126 222.618 148.879 223.042 148.683 223.542C148.488 224.041 148.351 224.561 148.274 225.101C148.197 225.636 148.158 226.218 148.158 226.845C148.158 227.468 148.197 228.05 148.274 228.59C148.351 229.125 148.488 229.647 148.683 230.157C148.879 230.661 149.126 231.093 149.424 231.454C149.723 231.814 150.109 232.102 150.582 232.318C151.056 232.534 151.596 232.642 152.203 232.642ZM161.728 232.99C161.903 232.99 162.071 232.851 162.23 232.573L168.058 222.183C168.161 221.977 168.212 221.825 168.212 221.728C168.212 221.599 168.164 221.486 168.066 221.388C167.973 221.29 167.865 221.241 167.742 221.241C167.546 221.241 167.389 221.347 167.271 221.558L161.358 232.125C161.255 232.31 161.204 232.439 161.204 232.511C161.204 232.645 161.255 232.758 161.358 232.851C161.466 232.943 161.589 232.99 161.728 232.99ZM161.08 226.699C160.612 226.699 160.27 226.508 160.053 226.128C159.837 225.742 159.729 225.227 159.729 224.584C159.729 223.946 159.837 223.436 160.053 223.055C160.275 222.669 160.617 222.476 161.08 222.476C161.548 222.476 161.891 222.669 162.107 223.055C162.328 223.436 162.439 223.946 162.439 224.584C162.439 225.222 162.328 225.734 162.107 226.12C161.891 226.506 161.548 226.699 161.08 226.699ZM161.08 227.694C161.898 227.694 162.554 227.401 163.048 226.815C163.548 226.228 163.797 225.484 163.797 224.584C163.797 224.28 163.766 223.984 163.704 223.696C163.648 223.408 163.55 223.127 163.411 222.855C163.272 222.582 163.1 222.345 162.894 222.144C162.688 221.939 162.428 221.777 162.114 221.658C161.806 221.535 161.461 221.473 161.08 221.473C160.257 221.473 159.598 221.769 159.104 222.361C158.615 222.947 158.371 223.688 158.371 224.584C158.371 225.525 158.61 226.279 159.088 226.845C159.572 227.411 160.236 227.694 161.08 227.694ZM168.776 231.716C167.875 231.716 167.425 231.014 167.425 229.609C167.425 228.971 167.533 228.461 167.749 228.08C167.965 227.694 168.308 227.502 168.776 227.502C169.095 227.502 169.357 227.599 169.563 227.795C169.774 227.99 169.921 228.24 170.003 228.544C170.086 228.847 170.127 229.202 170.127 229.609C170.127 230.252 170.016 230.764 169.795 231.145C169.579 231.526 169.239 231.716 168.776 231.716ZM168.776 232.727C169.604 232.727 170.263 232.431 170.752 231.84C171.241 231.248 171.485 230.504 171.485 229.609C171.485 229.305 171.454 229.012 171.393 228.729C171.336 228.441 171.238 228.16 171.099 227.887C170.96 227.615 170.788 227.378 170.582 227.177C170.381 226.977 170.124 226.815 169.81 226.691C169.502 226.568 169.157 226.506 168.776 226.506C167.953 226.506 167.294 226.799 166.8 227.386C166.311 227.972 166.067 228.713 166.067 229.609C166.067 230.545 166.308 231.299 166.792 231.871C167.276 232.442 167.937 232.727 168.776 232.727Z" fill="#CADCF6"/>
<defs>
<filter id="filter0_d" x="0.356647" y="0.891241" width="466.287" height="466.287" filterUnits="userSpaceOnUse" color-interpolation-filters="sRGB">
<feFlood flood-opacity="0" result="BackgroundImageFix"/>
<feColorMatrix in="SourceAlpha" type="matrix" values="0 0 0 0 0 0 0 0 0 0 0 0 0 0 0 0 0 0 127 0"/>
<feOffset dy="6.53459"/>
<feGaussianBlur stdDeviation="18.3217"/>
<feColorMatrix type="matrix" values="0 0 0 0 0.745098 0 0 0 0 0.815686 0 0 0 0 0.913725 0 0 0 0.3 0"/>
<feBlend mode="normal" in2="BackgroundImageFix" result="effect1_dropShadow"/>
<feBlend mode="normal" in="SourceGraphic" in2="effect1_dropShadow" result="shape"/>
</filter>
<filter id="filter1_d" x="229.166" y="34.7773" width="201.276" height="211.519" filterUnits="userSpaceOnUse" color-interpolation-filters="sRGB">
<feFlood flood-opacity="0" result="BackgroundImageFix"/>
<feColorMatrix in="SourceAlpha" type="matrix" values="0 0 0 0 0 0 0 0 0 0 0 0 0 0 0 0 0 0 127 0"/>
<feOffset dy="3.61161"/>
<feGaussianBlur stdDeviation="5.61767"/>
<feColorMatrix type="matrix" values="0 0 0 0 0.798338 0 0 0 0 0.975296 0 0 0 0 0.945803 0 0 0 1 0"/>
<feBlend mode="normal" in2="BackgroundImageFix" result="effect1_dropShadow"/>
<feBlend mode="normal" in="SourceGraphic" in2="effect1_dropShadow" result="shape"/>
</filter>
<filter id="filter2_d" x="-29.9587" y="16.2285" width="271.558" height="368.456" filterUnits="userSpaceOnUse" color-interpolation-filters="sRGB">
<feFlood flood-opacity="0" result="BackgroundImageFix"/>
<feColorMatrix in="SourceAlpha" type="matrix" values="0 0 0 0 0 0 0 0 0 0 0 0 0 0 0 0 0 0 127 0"/>
<feOffset dy="2.5505"/>
<feGaussianBlur stdDeviation="4.51451"/>
<feColorMatrix type="matrix" values="0 0 0 0 0.686024 0 0 0 0 0.769779 0 0 0 0 0.887796 0 0 0 1 0"/>
<feBlend mode="normal" in2="BackgroundImageFix" result="effect1_dropShadow"/>
<feBlend mode="normal" in="SourceGraphic" in2="effect1_dropShadow" result="shape"/>
</filter>
</defs>
</svg>
