<svg width="1920" height="471" viewBox="0 0 1920 471" fill="none" xmlns="http://www.w3.org/2000/svg">
<path fill-rule="evenodd" clip-rule="evenodd" d="M-15 134.269L65.7512 166.478C146.502 198.686 308.005 263.95 468.498 247.846C630 231.742 791.502 134.269 953.005 85.1091C1113.5 36.7965 1275 36.7965 1436.5 60.529C1598 85.1091 1758.5 134.269 1839.25 158.002L1920 182.582V475H1839.25C1758.5 475 1598 475 1436.5 475C1275 475 1113.5 475 953.005 475C791.502 475 630 475 468.498 475C308.005 475 146.502 475 65.7512 475H-15V134.269Z" fill="#203060"/>
<path fill-rule="evenodd" clip-rule="evenodd" d="M-1 89.2693L79.1669 121.478C159.334 153.686 319.668 218.95 479 202.846C639.333 186.742 799.667 89.2693 960.001 40.1091C1119.33 -8.20347 1279.67 -8.20347 1440 15.529C1600.33 40.1091 1759.67 89.2692 1839.83 113.002L1920 137.582V430H1839.83C1759.67 430 1600.33 430 1440 430C1279.67 430 1119.33 430 960.001 430C799.667 430 639.333 430 479 430C319.668 430 159.334 430 79.1669 430H-1V89.2693Z" fill="#203060" fill-opacity="0.3"/>
<rect x="1908.75" y="170.293" width="273.286" height="35.649" rx="17.8245" transform="rotate(144.68 1908.75 170.293)" fill="url(#paint0_linear)" fill-opacity="0.29"/>
<rect x="1478.47" y="441.76" width="210.545" height="35.649" rx="17.8245" transform="rotate(-36.7059 1478.47 441.76)" fill="url(#paint1_linear)" fill-opacity="0.29"/>
<rect x="1350.52" y="446.428" width="348.433" height="35.649" rx="17.8245" transform="rotate(-36.0058 1350.52 446.428)" fill="url(#paint2_linear)" fill-opacity="0.29"/>
<rect x="1811.1" y="160.347" width="172.675" height="35.649" rx="17.8245" transform="rotate(145.537 1811.1 160.347)" fill="url(#paint3_linear)" fill-opacity="0.29"/>
<rect x="1609.58" y="431.173" width="237.103" height="35.649" rx="17.8245" transform="rotate(-35.9185 1609.58 431.173)" fill="url(#paint4_linear)" fill-opacity="0.29"/>
<rect x="1985.23" y="207.629" width="178.389" height="35.649" rx="17.8245" transform="rotate(145.624 1985.23 207.629)" fill="url(#paint5_linear)" fill-opacity="0.29"/>
<rect x="1218.42" y="448.995" width="331.647" height="35.649" rx="17.8245" transform="rotate(-35.9185 1218.42 448.995)" fill="url(#paint6_linear)" fill-opacity="0.29"/>
<rect x="1691.82" y="155.622" width="203.274" height="35.649" rx="17.8245" transform="rotate(145.686 1691.82 155.622)" fill="url(#paint7_linear)" fill-opacity="0.29"/>
<defs>
<linearGradient id="paint0_linear" x1="2187.37" y1="182.087" x2="1916.12" y2="181.691" gradientUnits="userSpaceOnUse">
<stop stop-color="#35FFDD"/>
<stop offset="1" stop-color="#5364A1" stop-opacity="0"/>
</linearGradient>
<linearGradient id="paint1_linear" x1="1693.13" y1="453.555" x2="1484.15" y2="453.319" gradientUnits="userSpaceOnUse">
<stop stop-color="#35FFDD"/>
<stop offset="1" stop-color="#5364A1" stop-opacity="0"/>
</linearGradient>
<linearGradient id="paint2_linear" x1="1705.75" y1="458.223" x2="1359.91" y2="457.579" gradientUnits="userSpaceOnUse">
<stop stop-color="#35FFDD"/>
<stop offset="1" stop-color="#5364A1" stop-opacity="0"/>
</linearGradient>
<linearGradient id="paint3_linear" x1="1987.14" y1="172.141" x2="1815.75" y2="171.983" gradientUnits="userSpaceOnUse">
<stop stop-color="#35FFDD"/>
<stop offset="1" stop-color="#5364A1" stop-opacity="0"/>
</linearGradient>
<linearGradient id="paint4_linear" x1="1851.31" y1="442.968" x2="1615.97" y2="442.669" gradientUnits="userSpaceOnUse">
<stop stop-color="#35FFDD"/>
<stop offset="1" stop-color="#5364A1" stop-opacity="0"/>
</linearGradient>
<linearGradient id="paint5_linear" x1="2167.1" y1="219.423" x2="1990.04" y2="219.254" gradientUnits="userSpaceOnUse">
<stop stop-color="#35FFDD"/>
<stop offset="1" stop-color="#5364A1" stop-opacity="0"/>
</linearGradient>
<linearGradient id="paint6_linear" x1="1556.54" y1="460.789" x2="1227.36" y2="460.205" gradientUnits="userSpaceOnUse">
<stop stop-color="#35FFDD"/>
<stop offset="1" stop-color="#5364A1" stop-opacity="0"/>
</linearGradient>
<linearGradient id="paint7_linear" x1="1899.07" y1="167.416" x2="1697.3" y2="167.197" gradientUnits="userSpaceOnUse">
<stop stop-color="#35FFDD"/>
<stop offset="1" stop-color="#5364A1" stop-opacity="0"/>
</linearGradient>
</defs>
</svg>
