<svg width="32" height="26" viewBox="0 0 32 26" fill="none" xmlns="http://www.w3.org/2000/svg">
<path d="M29.8395 0.171916L1.49387 10.763C-0.440765 11.515 -0.42929 12.5603 1.14124 13.0264L8.21073 15.164L10.9157 23.1978C11.2445 24.0771 11.0824 24.4259 12.0356 24.4259C12.7712 24.4259 13.0975 24.101 13.5072 23.7133C13.7677 23.4663 15.3145 22.0094 17.0417 20.3827L24.3953 25.646C25.7485 26.3692 26.7255 25.9945 27.0625 24.4285L31.8895 2.39277C32.3837 0.473346 31.1342 -0.397293 29.8395 0.171916ZM9.32021 14.6729L25.2549 4.93391C26.0504 4.46657 26.7797 4.71783 26.1809 5.23279L12.5366 17.1584L12.0054 22.6476L9.32021 14.6729Z" fill="#203060"/>
</svg>
