<svg width="20" height="17" viewBox="0 0 20 17" fill="none" xmlns="http://www.w3.org/2000/svg">
<path d="M2.36924 3.46821C2.39405 3.20688 2.29895 2.94554 2.11701 2.76837L0.252222 0.358781V0H6.0492L10.5313 10.5287L14.4718 0H20V0.358781L18.404 1.99765C18.2675 2.10839 18.1972 2.29442 18.2262 2.47603V14.524C18.1972 14.7056 18.2675 14.8916 18.404 15.0023L19.9628 16.6412V17H12.1191V16.6412L13.7358 14.9625C13.8929 14.7942 13.8929 14.741 13.8929 14.4841V4.74831L9.39839 16.969H8.79057L3.56419 4.74831V12.9382C3.51871 13.2837 3.62621 13.6292 3.85363 13.8773L5.9541 16.6058V16.9646H-7.88649e-09V16.6102L2.10048 13.8773C2.32375 13.6292 2.42712 13.2793 2.36924 12.9382V3.46821Z" fill="#203060"/>
</svg>
