<svg width="32" height="32" viewBox="0 0 32 32" fill="none" xmlns="http://www.w3.org/2000/svg">
<path d="M5.26398 16.0004C5.26398 10.0794 10.0799 5.26503 15.9992 5.26503C21.9193 5.26503 26.7344 10.0811 26.7344 16.0004C26.7344 21.9207 21.9184 26.735 15.9992 26.735C10.0799 26.7367 5.26398 21.9206 5.26398 16.0004V16.0004ZM28 16.0004C28 9.38294 22.6164 4 16 4C9.38282 4 4 9.38388 4 16.0004C4 22.6162 9.38362 28 16 28C22.6164 28.0018 28 22.6178 28 16.0004Z" fill="#C6CAD1"/>
<path d="M20.3869 15.1635H16.8287V11.6133C16.8287 11.2746 16.349 11 16.011 11C15.6723 11 15.1934 11.2746 15.1934 11.6133V15.1635H11.6138C11.2751 15.1635 11 15.6419 11 15.9806C11 16.3193 11.2751 16.7978 11.6138 16.7978H15.1934V20.3867C15.1934 20.7254 15.6723 21 16.011 21C16.349 21 16.8287 20.7254 16.8287 20.3867V16.7978H20.3869C20.7258 16.7978 21 16.3193 21 15.9806C21 15.6419 20.7266 15.1635 20.3869 15.1635Z" fill="#203060"/>
</svg>
