<svg width="278" height="278" viewBox="0 0 278 278" fill="none" xmlns="http://www.w3.org/2000/svg">
<mask id="mask0" mask-type="alpha" maskUnits="userSpaceOnUse" x="0" y="0" width="278" height="278">
<circle cx="138.651" cy="138.651" r="138.651" fill="#C4C4C4"/>
</mask>
<g mask="url(#mask0)">
<g filter="url(#filter0_d)">
<path d="M144.477 139.248V-2.8476C144.477 -5.29501 146.631 -7.18271 149.058 -6.86059L184.018 -2.21898C184.446 -2.16209 184.863 -2.03694 185.252 -1.84829L224.997 17.431C225.329 17.5924 225.638 17.7986 225.915 18.0439L265.092 52.7686C265.508 53.1372 265.843 53.5874 266.077 54.0913L285.999 96.9363C287.038 99.1705 285.857 101.807 283.498 102.519L149.483 142.966C146.989 143.719 144.477 141.852 144.477 139.248Z" fill="#50E6C5"/>
</g>
<path d="M58.2559 263.321L140.583 154.678C142.357 152.339 144.821 150.616 147.628 149.756L286.157 107.278L324.362 206.459L137.891 304.122L58.2559 263.321Z" fill="#C4D0E1"/>
<g filter="url(#filter1_d)">
<path d="M138.262 144.97V-15.9442L62.6627 -22.5259L-21.4763 -4.2996L-62.918 128.854L55.0042 255.553L136.978 148.754C137.811 147.669 138.262 146.339 138.262 144.97Z" fill="#7D93B2"/>
</g>
</g>
<path d="M166.902 74.1512C166.718 74.1512 166.57 74.0992 166.458 73.9952C166.354 73.8912 166.302 73.7512 166.302 73.5752V66.2552C166.302 66.0712 166.358 65.9232 166.47 65.8112C166.582 65.6912 166.73 65.6312 166.914 65.6312C167.106 65.6312 167.258 65.6872 167.37 65.7992C167.482 65.9112 167.538 66.0632 167.538 66.2552V73.1192H171.186C171.37 73.1192 171.51 73.1632 171.606 73.2512C171.71 73.3392 171.762 73.4672 171.762 73.6352C171.762 73.8032 171.71 73.9312 171.606 74.0192C171.51 74.1072 171.37 74.1512 171.186 74.1512H166.902ZM177.281 72.6752C177.393 72.6752 177.485 72.7192 177.557 72.8072C177.629 72.8952 177.665 73.0072 177.665 73.1432C177.665 73.3752 177.521 73.5712 177.233 73.7312C176.953 73.8912 176.645 74.0152 176.309 74.1032C175.981 74.1912 175.665 74.2352 175.361 74.2352C174.433 74.2352 173.701 73.9672 173.165 73.4312C172.629 72.8872 172.361 72.1472 172.361 71.2112C172.361 70.6112 172.477 70.0792 172.709 69.6152C172.949 69.1512 173.281 68.7912 173.705 68.5352C174.137 68.2792 174.625 68.1512 175.169 68.1512C175.953 68.1512 176.573 68.4032 177.029 68.9072C177.485 69.4112 177.713 70.0912 177.713 70.9472C177.713 71.2672 177.569 71.4272 177.281 71.4272H173.573C173.653 72.6672 174.249 73.2872 175.361 73.2872C175.657 73.2872 175.913 73.2472 176.129 73.1672C176.345 73.0872 176.573 72.9832 176.813 72.8552C176.837 72.8392 176.901 72.8072 177.005 72.7592C177.117 72.7032 177.209 72.6752 177.281 72.6752ZM175.193 69.0392C174.729 69.0392 174.357 69.1872 174.077 69.4832C173.797 69.7792 173.629 70.1952 173.573 70.7312H176.669C176.645 70.1872 176.505 69.7712 176.249 69.4832C176.001 69.1872 175.649 69.0392 175.193 69.0392ZM183.837 65.6312C184.021 65.6312 184.169 65.6832 184.281 65.7872C184.393 65.8912 184.449 66.0312 184.449 66.2072V73.6232C184.449 73.8072 184.393 73.9512 184.281 74.0552C184.177 74.1592 184.033 74.2112 183.849 74.2112C183.665 74.2112 183.517 74.1592 183.405 74.0552C183.301 73.9512 183.249 73.8072 183.249 73.6232V73.1432C183.073 73.4952 182.817 73.7672 182.481 73.9592C182.145 74.1432 181.757 74.2352 181.317 74.2352C180.813 74.2352 180.361 74.1072 179.961 73.8512C179.569 73.5952 179.261 73.2352 179.037 72.7712C178.821 72.3072 178.713 71.7752 178.713 71.1752C178.713 70.5672 178.821 70.0352 179.037 69.5792C179.261 69.1232 179.569 68.7712 179.961 68.5232C180.353 68.2752 180.805 68.1512 181.317 68.1512C181.757 68.1512 182.141 68.2472 182.469 68.4392C182.805 68.6232 183.061 68.8872 183.237 69.2312V66.1832C183.237 66.0152 183.289 65.8832 183.393 65.7872C183.505 65.6832 183.653 65.6312 183.837 65.6312ZM181.605 73.2752C182.125 73.2752 182.529 73.0952 182.817 72.7352C183.105 72.3752 183.249 71.8632 183.249 71.1992C183.249 70.5352 183.105 70.0232 182.817 69.6632C182.537 69.3032 182.133 69.1232 181.605 69.1232C181.077 69.1232 180.665 69.3032 180.369 69.6632C180.081 70.0152 179.937 70.5192 179.937 71.1752C179.937 71.8312 180.085 72.3472 180.381 72.7232C180.677 73.0912 181.085 73.2752 181.605 73.2752ZM190.987 68.1752C191.171 68.1752 191.315 68.2312 191.419 68.3432C191.531 68.4472 191.587 68.5872 191.587 68.7632V73.6832C191.587 74.5792 191.347 75.2552 190.867 75.7112C190.395 76.1672 189.695 76.3952 188.767 76.3952C187.903 76.3952 187.183 76.2312 186.607 75.9032C186.311 75.7352 186.163 75.5352 186.163 75.3032C186.163 75.1672 186.199 75.0552 186.271 74.9672C186.351 74.8792 186.447 74.8352 186.559 74.8352C186.663 74.8352 186.827 74.8952 187.051 75.0152C187.339 75.1512 187.607 75.2552 187.855 75.3272C188.103 75.4072 188.399 75.4472 188.743 75.4472C189.847 75.4472 190.399 74.8912 190.399 73.7792V72.8552C190.231 73.2072 189.975 73.4832 189.631 73.6832C189.287 73.8752 188.887 73.9712 188.431 73.9712C187.919 73.9712 187.463 73.8512 187.063 73.6112C186.663 73.3712 186.351 73.0312 186.127 72.5912C185.911 72.1512 185.803 71.6432 185.803 71.0672C185.803 70.4912 185.915 69.9832 186.139 69.5432C186.363 69.1032 186.671 68.7632 187.063 68.5232C187.463 68.2752 187.919 68.1512 188.431 68.1512C188.879 68.1512 189.271 68.2472 189.607 68.4392C189.951 68.6312 190.211 68.9032 190.387 69.2552V68.7512C190.387 68.5752 190.439 68.4352 190.543 68.3312C190.655 68.2272 190.803 68.1752 190.987 68.1752ZM188.719 73.0112C189.239 73.0112 189.647 72.8392 189.943 72.4952C190.239 72.1512 190.387 71.6752 190.387 71.0672C190.387 70.4672 190.239 69.9952 189.943 69.6512C189.655 69.2992 189.247 69.1232 188.719 69.1232C188.191 69.1232 187.775 69.2952 187.471 69.6392C187.175 69.9832 187.027 70.4592 187.027 71.0672C187.027 71.6752 187.179 72.1512 187.483 72.4952C187.787 72.8392 188.199 73.0112 188.719 73.0112ZM197.86 72.6752C197.972 72.6752 198.064 72.7192 198.136 72.8072C198.208 72.8952 198.244 73.0072 198.244 73.1432C198.244 73.3752 198.1 73.5712 197.812 73.7312C197.532 73.8912 197.224 74.0152 196.888 74.1032C196.56 74.1912 196.244 74.2352 195.94 74.2352C195.012 74.2352 194.28 73.9672 193.744 73.4312C193.208 72.8872 192.94 72.1472 192.94 71.2112C192.94 70.6112 193.056 70.0792 193.288 69.6152C193.528 69.1512 193.86 68.7912 194.284 68.5352C194.716 68.2792 195.204 68.1512 195.748 68.1512C196.532 68.1512 197.152 68.4032 197.608 68.9072C198.064 69.4112 198.292 70.0912 198.292 70.9472C198.292 71.2672 198.148 71.4272 197.86 71.4272H194.152C194.232 72.6672 194.828 73.2872 195.94 73.2872C196.236 73.2872 196.492 73.2472 196.708 73.1672C196.924 73.0872 197.152 72.9832 197.392 72.8552C197.416 72.8392 197.48 72.8072 197.584 72.7592C197.696 72.7032 197.788 72.6752 197.86 72.6752ZM195.772 69.0392C195.308 69.0392 194.936 69.1872 194.656 69.4832C194.376 69.7792 194.208 70.1952 194.152 70.7312H197.248C197.224 70.1872 197.084 69.7712 196.828 69.4832C196.58 69.1872 196.228 69.0392 195.772 69.0392ZM202.699 68.1752C203.083 68.1512 203.275 68.3152 203.275 68.6672C203.275 68.8432 203.231 68.9752 203.143 69.0632C203.055 69.1512 202.903 69.2032 202.687 69.2192L202.327 69.2552C201.823 69.3032 201.447 69.4792 201.199 69.7832C200.959 70.0872 200.839 70.4552 200.839 70.8872V73.6352C200.839 73.8272 200.783 73.9712 200.671 74.0672C200.559 74.1632 200.415 74.2112 200.239 74.2112C200.063 74.2112 199.915 74.1632 199.795 74.0672C199.683 73.9712 199.627 73.8272 199.627 73.6352V68.7512C199.627 68.5672 199.683 68.4272 199.795 68.3312C199.915 68.2272 200.063 68.1752 200.239 68.1752C200.399 68.1752 200.531 68.2272 200.635 68.3312C200.747 68.4272 200.803 68.5632 200.803 68.7392V69.3152C200.963 68.9632 201.195 68.6952 201.499 68.5112C201.803 68.3272 202.147 68.2192 202.531 68.1872L202.699 68.1752ZM204.634 74.2112C204.458 74.2112 204.31 74.1632 204.19 74.0672C204.078 73.9712 204.022 73.8272 204.022 73.6352V68.7632C204.022 68.5712 204.078 68.4272 204.19 68.3312C204.31 68.2272 204.458 68.1752 204.634 68.1752C204.81 68.1752 204.954 68.2272 205.066 68.3312C205.178 68.4272 205.234 68.5712 205.234 68.7632V73.6352C205.234 73.8272 205.178 73.9712 205.066 74.0672C204.954 74.1632 204.81 74.2112 204.634 74.2112ZM204.634 66.9992C204.402 66.9992 204.218 66.9352 204.082 66.8072C203.946 66.6792 203.878 66.5112 203.878 66.3032C203.878 66.0952 203.946 65.9312 204.082 65.8112C204.218 65.6832 204.402 65.6192 204.634 65.6192C204.858 65.6192 205.038 65.6832 205.174 65.8112C205.318 65.9312 205.39 66.0952 205.39 66.3032C205.39 66.5112 205.322 66.6792 205.186 66.8072C205.05 66.9352 204.866 66.9992 204.634 66.9992ZM211.464 68.1752C211.648 68.1752 211.792 68.2272 211.896 68.3312C212.008 68.4352 212.064 68.5792 212.064 68.7632V73.6472C212.064 73.8152 212.008 73.9512 211.896 74.0552C211.784 74.1592 211.636 74.2112 211.452 74.2112C211.284 74.2112 211.148 74.1632 211.044 74.0672C210.94 73.9632 210.888 73.8272 210.888 73.6592V73.2032C210.704 73.5392 210.448 73.7952 210.12 73.9712C209.8 74.1472 209.44 74.2352 209.04 74.2352C207.616 74.2352 206.904 73.4512 206.904 71.8832V68.7632C206.904 68.5792 206.956 68.4352 207.06 68.3312C207.172 68.2272 207.324 68.1752 207.516 68.1752C207.7 68.1752 207.844 68.2272 207.948 68.3312C208.06 68.4352 208.116 68.5792 208.116 68.7632V71.8712C208.116 72.3432 208.212 72.6912 208.404 72.9152C208.596 73.1392 208.892 73.2512 209.292 73.2512C209.764 73.2512 210.14 73.0992 210.42 72.7952C210.708 72.4912 210.852 72.0872 210.852 71.5832V68.7632C210.852 68.5872 210.908 68.4472 211.02 68.3432C211.132 68.2312 211.28 68.1752 211.464 68.1752ZM220.48 68.1512C221.792 68.1512 222.448 68.9392 222.448 70.5152V73.6352C222.448 73.8192 222.392 73.9632 222.28 74.0672C222.168 74.1632 222.02 74.2112 221.836 74.2112C221.66 74.2112 221.516 74.1632 221.404 74.0672C221.292 73.9632 221.236 73.8192 221.236 73.6352V70.5272C221.236 70.0392 221.148 69.6872 220.972 69.4712C220.796 69.2472 220.52 69.1352 220.144 69.1352C219.704 69.1352 219.356 69.2872 219.1 69.5912C218.844 69.8872 218.716 70.2952 218.716 70.8152V73.6352C218.716 73.8192 218.66 73.9632 218.548 74.0672C218.436 74.1632 218.288 74.2112 218.104 74.2112C217.928 74.2112 217.784 74.1632 217.672 74.0672C217.56 73.9632 217.504 73.8192 217.504 73.6352V70.5272C217.504 70.0392 217.416 69.6872 217.24 69.4712C217.064 69.2472 216.788 69.1352 216.412 69.1352C215.972 69.1352 215.62 69.2872 215.356 69.5912C215.1 69.8872 214.972 70.2952 214.972 70.8152V73.6352C214.972 73.8192 214.916 73.9632 214.804 74.0672C214.692 74.1632 214.548 74.2112 214.372 74.2112C214.196 74.2112 214.048 74.1632 213.928 74.0672C213.816 73.9632 213.76 73.8192 213.76 73.6352V68.7512C213.76 68.5752 213.82 68.4352 213.94 68.3312C214.06 68.2272 214.204 68.1752 214.372 68.1752C214.54 68.1752 214.676 68.2272 214.78 68.3312C214.892 68.4272 214.948 68.5632 214.948 68.7392V69.1832C215.124 68.8472 215.368 68.5912 215.68 68.4152C215.992 68.2392 216.352 68.1512 216.76 68.1512C217.208 68.1512 217.576 68.2432 217.864 68.4272C218.16 68.6112 218.38 68.8952 218.524 69.2792C218.7 68.9352 218.96 68.6632 219.304 68.4632C219.648 68.2552 220.04 68.1512 220.48 68.1512ZM182.487 94.1312C182.679 94.1312 182.823 94.1752 182.919 94.2632C183.023 94.3512 183.075 94.4752 183.075 94.6352C183.075 94.9792 182.879 95.1512 182.487 95.1512H177.855C177.679 95.1512 177.539 95.1032 177.435 95.0072C177.339 94.9032 177.291 94.7752 177.291 94.6232C177.291 94.4392 177.363 94.2712 177.507 94.1192L180.327 91.0352C180.703 90.6272 180.975 90.2552 181.143 89.9192C181.311 89.5832 181.395 89.2512 181.395 88.9232C181.395 88.4992 181.271 88.1752 181.023 87.9512C180.783 87.7192 180.439 87.6032 179.991 87.6032C179.311 87.6032 178.635 87.8632 177.963 88.3832C177.875 88.4392 177.799 88.4832 177.735 88.5152C177.679 88.5392 177.619 88.5512 177.555 88.5512C177.443 88.5512 177.347 88.4992 177.267 88.3952C177.187 88.2912 177.147 88.1672 177.147 88.0232C177.147 87.8232 177.227 87.6632 177.387 87.5432C177.723 87.2552 178.127 87.0272 178.599 86.8592C179.071 86.6832 179.547 86.5952 180.027 86.5952C180.819 86.5952 181.447 86.7992 181.911 87.2072C182.383 87.6072 182.619 88.1512 182.619 88.8392C182.619 89.3272 182.511 89.7912 182.295 90.2312C182.087 90.6712 181.735 91.1632 181.239 91.7072L178.971 94.1312H182.487ZM187.246 95.2472C186.262 95.2472 185.51 94.8792 184.99 94.1432C184.478 93.4072 184.222 92.3352 184.222 90.9272C184.222 89.5112 184.478 88.4352 184.99 87.6992C185.51 86.9632 186.262 86.5952 187.246 86.5952C188.23 86.5952 188.978 86.9632 189.49 87.6992C190.01 88.4272 190.27 89.4992 190.27 90.9152C190.27 92.3312 190.01 93.4072 189.49 94.1432C188.978 94.8792 188.23 95.2472 187.246 95.2472ZM187.246 94.2512C187.862 94.2512 188.314 93.9832 188.602 93.4472C188.89 92.9112 189.034 92.0672 189.034 90.9152C189.034 89.7632 188.89 88.9232 188.602 88.3952C188.314 87.8592 187.862 87.5912 187.246 87.5912C186.63 87.5912 186.178 87.8592 185.89 88.3952C185.602 88.9232 185.458 89.7632 185.458 90.9152C185.458 92.0592 185.602 92.9032 185.89 93.4472C186.178 93.9832 186.63 94.2512 187.246 94.2512ZM192.27 95.2112C192.054 95.2112 191.87 95.1392 191.718 94.9952C191.574 94.8512 191.502 94.6672 191.502 94.4432C191.502 94.2192 191.574 94.0352 191.718 93.8912C191.87 93.7392 192.054 93.6632 192.27 93.6632C192.486 93.6632 192.666 93.7392 192.81 93.8912C192.954 94.0352 193.026 94.2192 193.026 94.4432C193.026 94.6672 192.954 94.8512 192.81 94.9952C192.666 95.1392 192.486 95.2112 192.27 95.2112ZM197.301 95.2472C196.317 95.2472 195.565 94.8792 195.045 94.1432C194.533 93.4072 194.277 92.3352 194.277 90.9272C194.277 89.5112 194.533 88.4352 195.045 87.6992C195.565 86.9632 196.317 86.5952 197.301 86.5952C198.285 86.5952 199.033 86.9632 199.545 87.6992C200.065 88.4272 200.325 89.4992 200.325 90.9152C200.325 92.3312 200.065 93.4072 199.545 94.1432C199.033 94.8792 198.285 95.2472 197.301 95.2472ZM197.301 94.2512C197.917 94.2512 198.369 93.9832 198.657 93.4472C198.945 92.9112 199.089 92.0672 199.089 90.9152C199.089 89.7632 198.945 88.9232 198.657 88.3952C198.369 87.8592 197.917 87.5912 197.301 87.5912C196.685 87.5912 196.233 87.8592 195.945 88.3952C195.657 88.9232 195.513 89.7632 195.513 90.9152C195.513 92.0592 195.657 92.9032 195.945 93.4472C196.233 93.9832 196.685 94.2512 197.301 94.2512ZM204.688 95.0432C204.576 95.2512 204.42 95.3552 204.22 95.3552C204.1 95.3552 203.992 95.3112 203.896 95.2232C203.808 95.1352 203.764 95.0232 203.764 94.8872C203.764 94.7752 203.796 94.6672 203.86 94.5632L208.348 86.7992C208.468 86.5912 208.628 86.4872 208.828 86.4872C208.948 86.4872 209.052 86.5312 209.14 86.6192C209.236 86.7072 209.284 86.8192 209.284 86.9552C209.284 87.0672 209.252 87.1752 209.188 87.2792L204.688 95.0432ZM203.572 91.7552C202.924 91.7552 202.416 91.5352 202.048 91.0952C201.68 90.6552 201.496 90.0112 201.496 89.1632C201.496 88.3152 201.68 87.6752 202.048 87.2432C202.416 86.8032 202.924 86.5832 203.572 86.5832C204.228 86.5832 204.74 86.8032 205.108 87.2432C205.476 87.6752 205.66 88.3152 205.66 89.1632C205.66 90.0192 205.476 90.6672 205.108 91.1072C204.74 91.5392 204.228 91.7552 203.572 91.7552ZM203.572 90.9392C203.924 90.9392 204.184 90.7992 204.352 90.5192C204.52 90.2312 204.604 89.7792 204.604 89.1632C204.604 88.5552 204.52 88.1112 204.352 87.8312C204.184 87.5512 203.924 87.4112 203.572 87.4112C203.22 87.4112 202.96 87.5512 202.792 87.8312C202.632 88.1032 202.552 88.5472 202.552 89.1632C202.552 89.7792 202.632 90.2312 202.792 90.5192C202.96 90.7992 203.22 90.9392 203.572 90.9392ZM209.464 95.2352C208.808 95.2352 208.296 95.0192 207.928 94.5872C207.56 94.1472 207.376 93.4992 207.376 92.6432C207.376 91.7952 207.56 91.1552 207.928 90.7232C208.296 90.2832 208.808 90.0632 209.464 90.0632C210.112 90.0632 210.62 90.2832 210.988 90.7232C211.364 91.1552 211.552 91.7952 211.552 92.6432C211.552 93.4912 211.368 94.1352 211 94.5752C210.632 95.0152 210.12 95.2352 209.464 95.2352ZM209.464 94.4192C209.816 94.4192 210.072 94.2792 210.232 93.9992C210.4 93.7112 210.484 93.2592 210.484 92.6432C210.484 92.0352 210.4 91.5912 210.232 91.3112C210.064 91.0232 209.808 90.8792 209.464 90.8792C209.112 90.8792 208.852 91.0192 208.684 91.2992C208.516 91.5792 208.432 92.0272 208.432 92.6432C208.432 93.2592 208.516 93.7112 208.684 93.9992C208.852 94.2792 209.112 94.4192 209.464 94.4192Z" fill="#0C9072"/>
<path d="M165.748 200.211C165.564 200.211 165.416 200.155 165.304 200.043C165.192 199.931 165.136 199.779 165.136 199.587V192.291C165.136 192.107 165.188 191.963 165.292 191.859C165.404 191.747 165.556 191.691 165.748 191.691H168.64C169.536 191.691 170.232 191.911 170.728 192.351C171.224 192.791 171.472 193.415 171.472 194.223C171.472 195.023 171.224 195.647 170.728 196.095C170.232 196.543 169.536 196.767 168.64 196.767H166.372V199.587C166.372 199.779 166.316 199.931 166.204 200.043C166.1 200.155 165.948 200.211 165.748 200.211ZM168.508 195.771C169.692 195.771 170.284 195.255 170.284 194.223C170.284 193.199 169.692 192.687 168.508 192.687H166.372V195.771H168.508ZM177.274 194.175C177.458 194.175 177.602 194.227 177.706 194.331C177.818 194.435 177.874 194.579 177.874 194.763V199.647C177.874 199.815 177.818 199.951 177.706 200.055C177.594 200.159 177.446 200.211 177.262 200.211C177.094 200.211 176.958 200.163 176.854 200.067C176.75 199.963 176.698 199.827 176.698 199.659V199.203C176.514 199.539 176.258 199.795 175.93 199.971C175.61 200.147 175.25 200.235 174.85 200.235C173.426 200.235 172.714 199.451 172.714 197.883V194.763C172.714 194.579 172.766 194.435 172.87 194.331C172.982 194.227 173.134 194.175 173.326 194.175C173.51 194.175 173.654 194.227 173.758 194.331C173.87 194.435 173.926 194.579 173.926 194.763V197.871C173.926 198.343 174.022 198.691 174.214 198.915C174.406 199.139 174.702 199.251 175.102 199.251C175.574 199.251 175.95 199.099 176.23 198.795C176.518 198.491 176.662 198.087 176.662 197.583V194.763C176.662 194.587 176.718 194.447 176.83 194.343C176.942 194.231 177.09 194.175 177.274 194.175ZM182.714 194.151C183.226 194.151 183.678 194.275 184.07 194.523C184.462 194.771 184.766 195.123 184.982 195.579C185.206 196.035 185.318 196.567 185.318 197.175C185.318 197.775 185.206 198.307 184.982 198.771C184.766 199.235 184.458 199.595 184.058 199.851C183.666 200.107 183.218 200.235 182.714 200.235C182.274 200.235 181.886 200.143 181.55 199.959C181.214 199.767 180.958 199.495 180.782 199.143V199.623C180.782 199.799 180.726 199.943 180.614 200.055C180.51 200.159 180.366 200.211 180.182 200.211C179.998 200.211 179.85 200.159 179.738 200.055C179.626 199.943 179.57 199.799 179.57 199.623V192.207C179.57 192.031 179.626 191.891 179.738 191.787C179.858 191.683 180.01 191.631 180.194 191.631C180.37 191.631 180.51 191.683 180.614 191.787C180.726 191.883 180.782 192.015 180.782 192.183V195.255C180.958 194.903 181.214 194.631 181.55 194.439C181.886 194.247 182.274 194.151 182.714 194.151ZM182.426 199.275C182.946 199.275 183.35 199.091 183.638 198.723C183.934 198.355 184.082 197.839 184.082 197.175C184.082 196.519 183.938 196.015 183.65 195.663C183.362 195.303 182.954 195.123 182.426 195.123C181.898 195.123 181.49 195.303 181.202 195.663C180.922 196.023 180.782 196.535 180.782 197.199C180.782 197.863 180.922 198.375 181.202 198.735C181.49 199.095 181.898 199.275 182.426 199.275ZM187.272 200.211C187.096 200.211 186.948 200.163 186.828 200.067C186.716 199.971 186.66 199.827 186.66 199.635V192.219C186.66 192.027 186.716 191.883 186.828 191.787C186.948 191.683 187.096 191.631 187.272 191.631C187.448 191.631 187.592 191.683 187.704 191.787C187.816 191.883 187.872 192.027 187.872 192.219V199.635C187.872 199.827 187.816 199.971 187.704 200.067C187.592 200.163 187.448 200.211 187.272 200.211ZM190.179 200.211C190.003 200.211 189.855 200.163 189.735 200.067C189.623 199.971 189.567 199.827 189.567 199.635V194.763C189.567 194.571 189.623 194.427 189.735 194.331C189.855 194.227 190.003 194.175 190.179 194.175C190.355 194.175 190.499 194.227 190.611 194.331C190.723 194.427 190.779 194.571 190.779 194.763V199.635C190.779 199.827 190.723 199.971 190.611 200.067C190.499 200.163 190.355 200.211 190.179 200.211ZM190.179 192.999C189.947 192.999 189.763 192.935 189.627 192.807C189.491 192.679 189.423 192.511 189.423 192.303C189.423 192.095 189.491 191.931 189.627 191.811C189.763 191.683 189.947 191.619 190.179 191.619C190.403 191.619 190.583 191.683 190.719 191.811C190.863 191.931 190.935 192.095 190.935 192.303C190.935 192.511 190.867 192.679 190.731 192.807C190.595 192.935 190.411 192.999 190.179 192.999ZM194.981 200.235C194.413 200.235 193.913 200.111 193.481 199.863C193.057 199.615 192.725 199.263 192.485 198.807C192.253 198.351 192.137 197.823 192.137 197.223C192.137 196.615 192.257 196.079 192.497 195.615C192.745 195.151 193.089 194.791 193.529 194.535C193.969 194.279 194.473 194.151 195.041 194.151C195.345 194.151 195.649 194.195 195.953 194.283C196.265 194.371 196.541 194.491 196.781 194.643C197.037 194.819 197.165 195.023 197.165 195.255C197.165 195.391 197.129 195.507 197.057 195.603C196.985 195.691 196.893 195.735 196.781 195.735C196.709 195.735 196.637 195.719 196.565 195.687C196.493 195.647 196.401 195.591 196.289 195.519C196.089 195.391 195.901 195.295 195.725 195.231C195.557 195.159 195.353 195.123 195.113 195.123C194.569 195.123 194.145 195.307 193.841 195.675C193.545 196.043 193.397 196.555 193.397 197.211C193.397 197.867 193.545 198.375 193.841 198.735C194.137 199.087 194.557 199.263 195.101 199.263C195.341 199.263 195.553 199.227 195.737 199.155C195.921 199.083 196.109 198.987 196.301 198.867C196.389 198.811 196.477 198.763 196.565 198.723C196.653 198.683 196.733 198.663 196.805 198.663C196.917 198.663 197.009 198.711 197.081 198.807C197.153 198.895 197.189 199.007 197.189 199.143C197.189 199.255 197.157 199.359 197.093 199.455C197.037 199.543 196.937 199.635 196.793 199.731C196.553 199.891 196.273 200.015 195.953 200.103C195.633 200.191 195.309 200.235 194.981 200.235ZM169.299 218.415C169.691 218.415 169.887 218.579 169.887 218.907C169.887 219.235 169.691 219.399 169.299 219.399H168.531V220.587C168.531 220.787 168.475 220.943 168.363 221.055C168.251 221.159 168.103 221.211 167.919 221.211C167.743 221.211 167.599 221.159 167.487 221.055C167.375 220.943 167.319 220.787 167.319 220.587V219.399H163.947C163.771 219.399 163.635 219.351 163.539 219.255C163.443 219.159 163.395 219.035 163.395 218.883C163.395 218.723 163.447 218.567 163.551 218.415L167.379 212.907C167.507 212.723 167.687 212.631 167.919 212.631C168.087 212.631 168.231 212.687 168.351 212.799C168.471 212.903 168.531 213.055 168.531 213.255V218.415H169.299ZM167.319 218.415V214.671L164.727 218.415H167.319ZM173.746 221.247C172.762 221.247 172.01 220.879 171.49 220.143C170.978 219.407 170.722 218.335 170.722 216.927C170.722 215.511 170.978 214.435 171.49 213.699C172.01 212.963 172.762 212.595 173.746 212.595C174.73 212.595 175.478 212.963 175.99 213.699C176.51 214.427 176.77 215.499 176.77 216.915C176.77 218.331 176.51 219.407 175.99 220.143C175.478 220.879 174.73 221.247 173.746 221.247ZM173.746 220.251C174.362 220.251 174.814 219.983 175.102 219.447C175.39 218.911 175.534 218.067 175.534 216.915C175.534 215.763 175.39 214.923 175.102 214.395C174.814 213.859 174.362 213.591 173.746 213.591C173.13 213.591 172.678 213.859 172.39 214.395C172.102 214.923 171.958 215.763 171.958 216.915C171.958 218.059 172.102 218.903 172.39 219.447C172.678 219.983 173.13 220.251 173.746 220.251ZM178.77 221.211C178.554 221.211 178.37 221.139 178.218 220.995C178.074 220.851 178.002 220.667 178.002 220.443C178.002 220.219 178.074 220.035 178.218 219.891C178.37 219.739 178.554 219.663 178.77 219.663C178.986 219.663 179.166 219.739 179.31 219.891C179.454 220.035 179.526 220.219 179.526 220.443C179.526 220.667 179.454 220.851 179.31 220.995C179.166 221.139 178.986 221.211 178.77 221.211ZM183.801 221.247C182.817 221.247 182.065 220.879 181.545 220.143C181.033 219.407 180.777 218.335 180.777 216.927C180.777 215.511 181.033 214.435 181.545 213.699C182.065 212.963 182.817 212.595 183.801 212.595C184.785 212.595 185.533 212.963 186.045 213.699C186.565 214.427 186.825 215.499 186.825 216.915C186.825 218.331 186.565 219.407 186.045 220.143C185.533 220.879 184.785 221.247 183.801 221.247ZM183.801 220.251C184.417 220.251 184.869 219.983 185.157 219.447C185.445 218.911 185.589 218.067 185.589 216.915C185.589 215.763 185.445 214.923 185.157 214.395C184.869 213.859 184.417 213.591 183.801 213.591C183.185 213.591 182.733 213.859 182.445 214.395C182.157 214.923 182.013 215.763 182.013 216.915C182.013 218.059 182.157 218.903 182.445 219.447C182.733 219.983 183.185 220.251 183.801 220.251ZM191.188 221.043C191.076 221.251 190.92 221.355 190.72 221.355C190.6 221.355 190.492 221.311 190.396 221.223C190.308 221.135 190.264 221.023 190.264 220.887C190.264 220.775 190.296 220.667 190.36 220.563L194.848 212.799C194.968 212.591 195.128 212.487 195.328 212.487C195.448 212.487 195.552 212.531 195.64 212.619C195.736 212.707 195.784 212.819 195.784 212.955C195.784 213.067 195.752 213.175 195.688 213.279L191.188 221.043ZM190.072 217.755C189.424 217.755 188.916 217.535 188.548 217.095C188.18 216.655 187.996 216.011 187.996 215.163C187.996 214.315 188.18 213.675 188.548 213.243C188.916 212.803 189.424 212.583 190.072 212.583C190.728 212.583 191.24 212.803 191.608 213.243C191.976 213.675 192.16 214.315 192.16 215.163C192.16 216.019 191.976 216.667 191.608 217.107C191.24 217.539 190.728 217.755 190.072 217.755ZM190.072 216.939C190.424 216.939 190.684 216.799 190.852 216.519C191.02 216.231 191.104 215.779 191.104 215.163C191.104 214.555 191.02 214.111 190.852 213.831C190.684 213.551 190.424 213.411 190.072 213.411C189.72 213.411 189.46 213.551 189.292 213.831C189.132 214.103 189.052 214.547 189.052 215.163C189.052 215.779 189.132 216.231 189.292 216.519C189.46 216.799 189.72 216.939 190.072 216.939ZM195.964 221.235C195.308 221.235 194.796 221.019 194.428 220.587C194.06 220.147 193.876 219.499 193.876 218.643C193.876 217.795 194.06 217.155 194.428 216.723C194.796 216.283 195.308 216.063 195.964 216.063C196.612 216.063 197.12 216.283 197.488 216.723C197.864 217.155 198.052 217.795 198.052 218.643C198.052 219.491 197.868 220.135 197.5 220.575C197.132 221.015 196.62 221.235 195.964 221.235ZM195.964 220.419C196.316 220.419 196.572 220.279 196.732 219.999C196.9 219.711 196.984 219.259 196.984 218.643C196.984 218.035 196.9 217.591 196.732 217.311C196.564 217.023 196.308 216.879 195.964 216.879C195.612 216.879 195.352 217.019 195.184 217.299C195.016 217.579 194.932 218.027 194.932 218.643C194.932 219.259 195.016 219.711 195.184 219.999C195.352 220.279 195.612 220.419 195.964 220.419Z" fill="#6E7D92"/>
<path d="M41.1683 123.151C40.9763 123.151 40.8243 123.099 40.7123 122.995C40.6083 122.883 40.5563 122.735 40.5563 122.551V115.291C40.5563 115.107 40.6083 114.963 40.7123 114.859C40.8243 114.747 40.9763 114.691 41.1683 114.691H45.5843C45.7683 114.691 45.9083 114.735 46.0043 114.823C46.1083 114.911 46.1603 115.035 46.1603 115.195C46.1603 115.355 46.1083 115.479 46.0043 115.567C45.9083 115.647 45.7683 115.687 45.5843 115.687H41.7683V118.351H45.3443C45.5283 118.351 45.6683 118.395 45.7643 118.483C45.8683 118.571 45.9203 118.695 45.9203 118.855C45.9203 119.015 45.8683 119.139 45.7643 119.227C45.6683 119.315 45.5283 119.359 45.3443 119.359H41.7683V122.155H45.5843C45.9683 122.155 46.1603 122.319 46.1603 122.647C46.1603 122.807 46.1083 122.931 46.0043 123.019C45.9083 123.107 45.7683 123.151 45.5843 123.151H41.1683ZM50.5878 117.151C51.9878 117.151 52.6878 117.939 52.6878 119.515V122.635C52.6878 122.819 52.6318 122.963 52.5198 123.067C52.4158 123.163 52.2678 123.211 52.0758 123.211C51.8918 123.211 51.7438 123.159 51.6318 123.055C51.5278 122.951 51.4758 122.811 51.4758 122.635V119.575C51.4758 119.079 51.3758 118.715 51.1758 118.483C50.9838 118.251 50.6798 118.135 50.2638 118.135C49.7758 118.135 49.3838 118.287 49.0878 118.591C48.7918 118.895 48.6438 119.303 48.6438 119.815V122.635C48.6438 122.811 48.5878 122.951 48.4758 123.055C48.3718 123.159 48.2278 123.211 48.0438 123.211C47.8598 123.211 47.7118 123.159 47.5998 123.055C47.4878 122.951 47.4318 122.811 47.4318 122.635V117.751C47.4318 117.583 47.4878 117.447 47.5998 117.343C47.7198 117.231 47.8678 117.175 48.0438 117.175C48.2198 117.175 48.3598 117.227 48.4638 117.331C48.5678 117.435 48.6198 117.571 48.6198 117.739V118.231C48.8118 117.879 49.0798 117.611 49.4238 117.427C49.7678 117.243 50.1558 117.151 50.5878 117.151ZM57.2139 122.287C57.3899 122.303 57.5139 122.351 57.5859 122.431C57.6659 122.503 57.7059 122.607 57.7059 122.743C57.7059 122.903 57.6419 123.027 57.5139 123.115C57.3939 123.195 57.2139 123.227 56.9739 123.211L56.6499 123.187C56.0019 123.139 55.5179 122.943 55.1979 122.599C54.8779 122.247 54.7179 121.731 54.7179 121.051V118.231H53.9979C53.6459 118.231 53.4699 118.075 53.4699 117.763C53.4699 117.619 53.5139 117.507 53.6019 117.427C53.6979 117.339 53.8299 117.295 53.9979 117.295H54.7179V116.059C54.7179 115.875 54.7699 115.731 54.8739 115.627C54.9859 115.523 55.1339 115.471 55.3179 115.471C55.5019 115.471 55.6499 115.523 55.7619 115.627C55.8739 115.731 55.9299 115.875 55.9299 116.059V117.295H57.1179C57.2859 117.295 57.4139 117.339 57.5019 117.427C57.5979 117.507 57.6459 117.619 57.6459 117.763C57.6459 117.915 57.5979 118.031 57.5019 118.111C57.4139 118.191 57.2859 118.231 57.1179 118.231H55.9299V121.135C55.9299 121.511 56.0059 121.787 56.1579 121.963C56.3179 122.139 56.5579 122.239 56.8779 122.263L57.2139 122.287ZM63.1603 121.675C63.2723 121.675 63.3643 121.719 63.4363 121.807C63.5083 121.895 63.5443 122.007 63.5443 122.143C63.5443 122.375 63.4003 122.571 63.1123 122.731C62.8323 122.891 62.5243 123.015 62.1883 123.103C61.8603 123.191 61.5443 123.235 61.2403 123.235C60.3123 123.235 59.5803 122.967 59.0443 122.431C58.5083 121.887 58.2403 121.147 58.2403 120.211C58.2403 119.611 58.3563 119.079 58.5883 118.615C58.8283 118.151 59.1603 117.791 59.5843 117.535C60.0163 117.279 60.5043 117.151 61.0483 117.151C61.8323 117.151 62.4523 117.403 62.9083 117.907C63.3643 118.411 63.5923 119.091 63.5923 119.947C63.5923 120.267 63.4483 120.427 63.1603 120.427H59.4523C59.5323 121.667 60.1283 122.287 61.2403 122.287C61.5363 122.287 61.7923 122.247 62.0083 122.167C62.2243 122.087 62.4523 121.983 62.6923 121.855C62.7163 121.839 62.7803 121.807 62.8843 121.759C62.9963 121.703 63.0883 121.675 63.1603 121.675ZM61.0723 118.039C60.6083 118.039 60.2363 118.187 59.9563 118.483C59.6763 118.779 59.5083 119.195 59.4523 119.731H62.5483C62.5243 119.187 62.3843 118.771 62.1283 118.483C61.8803 118.187 61.5283 118.039 61.0723 118.039ZM67.9999 117.175C68.3839 117.151 68.5759 117.315 68.5759 117.667C68.5759 117.843 68.5319 117.975 68.4439 118.063C68.3559 118.151 68.2039 118.203 67.9879 118.219L67.6279 118.255C67.1239 118.303 66.7479 118.479 66.4999 118.783C66.2599 119.087 66.1399 119.455 66.1399 119.887V122.635C66.1399 122.827 66.0839 122.971 65.9719 123.067C65.8599 123.163 65.7159 123.211 65.5399 123.211C65.3639 123.211 65.2159 123.163 65.0959 123.067C64.9839 122.971 64.9279 122.827 64.9279 122.635V117.751C64.9279 117.567 64.9839 117.427 65.0959 117.331C65.2159 117.227 65.3639 117.175 65.5399 117.175C65.6999 117.175 65.8319 117.227 65.9359 117.331C66.0479 117.427 66.1039 117.563 66.1039 117.739V118.315C66.2639 117.963 66.4959 117.695 66.7999 117.511C67.1039 117.327 67.4479 117.219 67.8319 117.187L67.9999 117.175ZM72.4664 117.151C72.9704 117.151 73.4184 117.279 73.8104 117.535C74.2104 117.791 74.5184 118.151 74.7344 118.615C74.9584 119.079 75.0704 119.615 75.0704 120.223C75.0704 120.823 74.9624 121.351 74.7464 121.807C74.5304 122.263 74.2224 122.615 73.8224 122.863C73.4304 123.111 72.9784 123.235 72.4664 123.235C72.0264 123.235 71.6384 123.143 71.3024 122.959C70.9664 122.767 70.7104 122.495 70.5344 122.143V124.819C70.5344 124.987 70.4784 125.119 70.3664 125.215C70.2624 125.319 70.1224 125.371 69.9464 125.371C69.7624 125.371 69.6104 125.319 69.4904 125.215C69.3784 125.111 69.3224 124.971 69.3224 124.795V117.763C69.3224 117.587 69.3784 117.447 69.4904 117.343C69.6024 117.231 69.7504 117.175 69.9344 117.175C70.1104 117.175 70.2544 117.231 70.3664 117.343C70.4784 117.447 70.5344 117.587 70.5344 117.763V118.255C70.7104 117.903 70.9664 117.631 71.3024 117.439C71.6384 117.247 72.0264 117.151 72.4664 117.151ZM72.1784 122.275C72.7064 122.275 73.1144 122.099 73.4024 121.747C73.6904 121.387 73.8344 120.879 73.8344 120.223C73.8344 119.559 73.6864 119.043 73.3904 118.675C73.1024 118.307 72.6984 118.123 72.1784 118.123C71.6504 118.123 71.2424 118.303 70.9544 118.663C70.6744 119.023 70.5344 119.535 70.5344 120.199C70.5344 120.863 70.6744 121.375 70.9544 121.735C71.2424 122.095 71.6504 122.275 72.1784 122.275ZM79.4843 117.175C79.8683 117.151 80.0603 117.315 80.0603 117.667C80.0603 117.843 80.0163 117.975 79.9283 118.063C79.8403 118.151 79.6883 118.203 79.4723 118.219L79.1123 118.255C78.6083 118.303 78.2323 118.479 77.9843 118.783C77.7443 119.087 77.6243 119.455 77.6243 119.887V122.635C77.6243 122.827 77.5683 122.971 77.4563 123.067C77.3443 123.163 77.2003 123.211 77.0243 123.211C76.8483 123.211 76.7003 123.163 76.5803 123.067C76.4683 122.971 76.4123 122.827 76.4123 122.635V117.751C76.4123 117.567 76.4683 117.427 76.5803 117.331C76.7003 117.227 76.8483 117.175 77.0243 117.175C77.1843 117.175 77.3163 117.227 77.4203 117.331C77.5323 117.427 77.5883 117.563 77.5883 117.739V118.315C77.7483 117.963 77.9803 117.695 78.2843 117.511C78.5883 117.327 78.9323 117.219 79.3163 117.187L79.4843 117.175ZM81.4188 123.211C81.2428 123.211 81.0948 123.163 80.9748 123.067C80.8628 122.971 80.8068 122.827 80.8068 122.635V117.763C80.8068 117.571 80.8628 117.427 80.9748 117.331C81.0948 117.227 81.2428 117.175 81.4188 117.175C81.5948 117.175 81.7388 117.227 81.8508 117.331C81.9628 117.427 82.0188 117.571 82.0188 117.763V122.635C82.0188 122.827 81.9628 122.971 81.8508 123.067C81.7388 123.163 81.5948 123.211 81.4188 123.211ZM81.4188 115.999C81.1868 115.999 81.0028 115.935 80.8668 115.807C80.7308 115.679 80.6628 115.511 80.6628 115.303C80.6628 115.095 80.7308 114.931 80.8668 114.811C81.0028 114.683 81.1868 114.619 81.4188 114.619C81.6428 114.619 81.8228 114.683 81.9588 114.811C82.1028 114.931 82.1748 115.095 82.1748 115.303C82.1748 115.511 82.1068 115.679 81.9708 115.807C81.8348 115.935 81.6508 115.999 81.4188 115.999ZM85.753 123.235C84.937 123.235 84.269 123.067 83.749 122.731C83.605 122.643 83.501 122.551 83.437 122.455C83.381 122.359 83.353 122.251 83.353 122.131C83.353 122.003 83.389 121.895 83.461 121.807C83.533 121.719 83.625 121.675 83.737 121.675C83.841 121.675 84.005 121.739 84.229 121.867C84.469 121.995 84.701 122.099 84.925 122.179C85.157 122.259 85.445 122.299 85.789 122.299C86.173 122.299 86.473 122.231 86.689 122.095C86.905 121.959 87.013 121.767 87.013 121.519C87.013 121.359 86.969 121.231 86.881 121.135C86.801 121.039 86.657 120.955 86.449 120.883C86.241 120.803 85.933 120.719 85.525 120.631C84.821 120.479 84.313 120.275 84.001 120.019C83.697 119.755 83.545 119.399 83.545 118.951C83.545 118.607 83.645 118.299 83.845 118.027C84.045 117.747 84.321 117.531 84.673 117.379C85.025 117.227 85.425 117.151 85.873 117.151C86.193 117.151 86.505 117.195 86.809 117.283C87.113 117.363 87.381 117.483 87.613 117.643C87.877 117.819 88.009 118.023 88.009 118.255C88.009 118.383 87.969 118.491 87.889 118.579C87.817 118.667 87.729 118.711 87.625 118.711C87.553 118.711 87.481 118.695 87.409 118.663C87.337 118.631 87.241 118.579 87.121 118.507C86.905 118.379 86.701 118.279 86.509 118.207C86.325 118.135 86.093 118.099 85.813 118.099C85.477 118.099 85.205 118.171 84.997 118.315C84.797 118.459 84.697 118.655 84.697 118.903C84.697 119.127 84.789 119.303 84.973 119.431C85.165 119.551 85.521 119.667 86.041 119.779C86.577 119.891 86.997 120.019 87.301 120.163C87.605 120.307 87.821 120.487 87.949 120.703C88.085 120.911 88.153 121.179 88.153 121.507C88.153 122.027 87.933 122.447 87.493 122.767C87.061 123.079 86.481 123.235 85.753 123.235ZM94.0861 121.675C94.1981 121.675 94.2901 121.719 94.3621 121.807C94.4341 121.895 94.4701 122.007 94.4701 122.143C94.4701 122.375 94.3261 122.571 94.0381 122.731C93.7581 122.891 93.4501 123.015 93.1141 123.103C92.7861 123.191 92.4701 123.235 92.1661 123.235C91.2381 123.235 90.5061 122.967 89.9701 122.431C89.4341 121.887 89.1661 121.147 89.1661 120.211C89.1661 119.611 89.2821 119.079 89.5141 118.615C89.7541 118.151 90.0861 117.791 90.5101 117.535C90.9421 117.279 91.4301 117.151 91.9741 117.151C92.7581 117.151 93.3781 117.403 93.8341 117.907C94.2901 118.411 94.5181 119.091 94.5181 119.947C94.5181 120.267 94.3741 120.427 94.0861 120.427H90.3781C90.4581 121.667 91.0541 122.287 92.1661 122.287C92.4621 122.287 92.7181 122.247 92.9341 122.167C93.1501 122.087 93.3781 121.983 93.6181 121.855C93.6421 121.839 93.7061 121.807 93.8101 121.759C93.9221 121.703 94.0141 121.675 94.0861 121.675ZM91.9981 118.039C91.5341 118.039 91.1621 118.187 90.8821 118.483C90.6021 118.779 90.4341 119.195 90.3781 119.731H93.4741C93.4501 119.187 93.3101 118.771 93.0541 118.483C92.8061 118.187 92.4541 118.039 91.9981 118.039ZM55.7992 141.415C56.1912 141.415 56.3872 141.579 56.3872 141.907C56.3872 142.235 56.1912 142.399 55.7992 142.399H55.0312V143.587C55.0312 143.787 54.9752 143.943 54.8632 144.055C54.7512 144.159 54.6032 144.211 54.4192 144.211C54.2432 144.211 54.0992 144.159 53.9872 144.055C53.8752 143.943 53.8192 143.787 53.8192 143.587V142.399H50.4472C50.2712 142.399 50.1352 142.351 50.0392 142.255C49.9432 142.159 49.8952 142.035 49.8952 141.883C49.8952 141.723 49.9472 141.567 50.0512 141.415L53.8792 135.907C54.0072 135.723 54.1872 135.631 54.4192 135.631C54.5872 135.631 54.7312 135.687 54.8512 135.799C54.9712 135.903 55.0312 136.055 55.0312 136.255V141.415H55.7992ZM53.8192 141.415V137.671L51.2272 141.415H53.8192ZM60.2465 144.247C59.2625 144.247 58.5105 143.879 57.9905 143.143C57.4785 142.407 57.2225 141.335 57.2225 139.927C57.2225 138.511 57.4785 137.435 57.9905 136.699C58.5105 135.963 59.2625 135.595 60.2465 135.595C61.2305 135.595 61.9785 135.963 62.4905 136.699C63.0105 137.427 63.2705 138.499 63.2705 139.915C63.2705 141.331 63.0105 142.407 62.4905 143.143C61.9785 143.879 61.2305 144.247 60.2465 144.247ZM60.2465 143.251C60.8625 143.251 61.3145 142.983 61.6025 142.447C61.8905 141.911 62.0345 141.067 62.0345 139.915C62.0345 138.763 61.8905 137.923 61.6025 137.395C61.3145 136.859 60.8625 136.591 60.2465 136.591C59.6305 136.591 59.1785 136.859 58.8905 137.395C58.6025 137.923 58.4585 138.763 58.4585 139.915C58.4585 141.059 58.6025 141.903 58.8905 142.447C59.1785 142.983 59.6305 143.251 60.2465 143.251ZM65.2698 144.211C65.0538 144.211 64.8698 144.139 64.7178 143.995C64.5738 143.851 64.5018 143.667 64.5018 143.443C64.5018 143.219 64.5738 143.035 64.7178 142.891C64.8698 142.739 65.0538 142.663 65.2698 142.663C65.4858 142.663 65.6658 142.739 65.8098 142.891C65.9538 143.035 66.0258 143.219 66.0258 143.443C66.0258 143.667 65.9538 143.851 65.8098 143.995C65.6658 144.139 65.4858 144.211 65.2698 144.211ZM70.3012 144.247C69.3172 144.247 68.5652 143.879 68.0452 143.143C67.5332 142.407 67.2772 141.335 67.2772 139.927C67.2772 138.511 67.5332 137.435 68.0452 136.699C68.5652 135.963 69.3172 135.595 70.3012 135.595C71.2852 135.595 72.0332 135.963 72.5452 136.699C73.0652 137.427 73.3252 138.499 73.3252 139.915C73.3252 141.331 73.0652 142.407 72.5452 143.143C72.0332 143.879 71.2852 144.247 70.3012 144.247ZM70.3012 143.251C70.9172 143.251 71.3692 142.983 71.6572 142.447C71.9452 141.911 72.0892 141.067 72.0892 139.915C72.0892 138.763 71.9452 137.923 71.6572 137.395C71.3692 136.859 70.9172 136.591 70.3012 136.591C69.6852 136.591 69.2332 136.859 68.9452 137.395C68.6572 137.923 68.5132 138.763 68.5132 139.915C68.5132 141.059 68.6572 141.903 68.9452 142.447C69.2332 142.983 69.6852 143.251 70.3012 143.251ZM77.6885 144.043C77.5765 144.251 77.4205 144.355 77.2205 144.355C77.1005 144.355 76.9925 144.311 76.8965 144.223C76.8085 144.135 76.7645 144.023 76.7645 143.887C76.7645 143.775 76.7965 143.667 76.8605 143.563L81.3485 135.799C81.4685 135.591 81.6285 135.487 81.8285 135.487C81.9485 135.487 82.0525 135.531 82.1405 135.619C82.2365 135.707 82.2845 135.819 82.2845 135.955C82.2845 136.067 82.2525 136.175 82.1885 136.279L77.6885 144.043ZM76.5725 140.755C75.9245 140.755 75.4165 140.535 75.0485 140.095C74.6805 139.655 74.4965 139.011 74.4965 138.163C74.4965 137.315 74.6805 136.675 75.0485 136.243C75.4165 135.803 75.9245 135.583 76.5725 135.583C77.2285 135.583 77.7405 135.803 78.1085 136.243C78.4765 136.675 78.6605 137.315 78.6605 138.163C78.6605 139.019 78.4765 139.667 78.1085 140.107C77.7405 140.539 77.2285 140.755 76.5725 140.755ZM76.5725 139.939C76.9245 139.939 77.1845 139.799 77.3525 139.519C77.5205 139.231 77.6045 138.779 77.6045 138.163C77.6045 137.555 77.5205 137.111 77.3525 136.831C77.1845 136.551 76.9245 136.411 76.5725 136.411C76.2205 136.411 75.9605 136.551 75.7925 136.831C75.6325 137.103 75.5525 137.547 75.5525 138.163C75.5525 138.779 75.6325 139.231 75.7925 139.519C75.9605 139.799 76.2205 139.939 76.5725 139.939ZM82.4645 144.235C81.8085 144.235 81.2965 144.019 80.9285 143.587C80.5605 143.147 80.3765 142.499 80.3765 141.643C80.3765 140.795 80.5605 140.155 80.9285 139.723C81.2965 139.283 81.8085 139.063 82.4645 139.063C83.1125 139.063 83.6205 139.283 83.9885 139.723C84.3645 140.155 84.5525 140.795 84.5525 141.643C84.5525 142.491 84.3685 143.135 84.0005 143.575C83.6325 144.015 83.1205 144.235 82.4645 144.235ZM82.4645 143.419C82.8165 143.419 83.0725 143.279 83.2325 142.999C83.4005 142.711 83.4845 142.259 83.4845 141.643C83.4845 141.035 83.4005 140.591 83.2325 140.311C83.0645 140.023 82.8085 139.879 82.4645 139.879C82.1125 139.879 81.8525 140.019 81.6845 140.299C81.5165 140.579 81.4325 141.027 81.4325 141.643C81.4325 142.259 81.5165 142.711 81.6845 142.999C81.8525 143.279 82.1125 143.419 82.4645 143.419Z" fill="#CADCF6"/>
<defs>
<filter id="filter0_d" x="135.56" y="-8.67978" width="159.735" height="167.864" filterUnits="userSpaceOnUse" color-interpolation-filters="sRGB">
<feFlood flood-opacity="0" result="BackgroundImageFix"/>
<feColorMatrix in="SourceAlpha" type="matrix" values="0 0 0 0 0 0 0 0 0 0 0 0 0 0 0 0 0 0 127 0"/>
<feOffset dy="7.13318"/>
<feGaussianBlur stdDeviation="4.45824"/>
<feColorMatrix type="matrix" values="0 0 0 0 0.798338 0 0 0 0 0.975296 0 0 0 0 0.945803 0 0 0 1 0"/>
<feBlend mode="normal" in2="BackgroundImageFix" result="effect1_dropShadow"/>
<feBlend mode="normal" in="SourceGraphic" in2="effect1_dropShadow" result="shape"/>
</filter>
<filter id="filter1_d" x="-73.0385" y="-30.6224" width="221.421" height="298.32" filterUnits="userSpaceOnUse" color-interpolation-filters="sRGB">
<feFlood flood-opacity="0" result="BackgroundImageFix"/>
<feColorMatrix in="SourceAlpha" type="matrix" values="0 0 0 0 0 0 0 0 0 0 0 0 0 0 0 0 0 0 127 0"/>
<feOffset dy="2.02411"/>
<feGaussianBlur stdDeviation="5.06026"/>
<feColorMatrix type="matrix" values="0 0 0 0 0.686024 0 0 0 0 0.769779 0 0 0 0 0.887796 0 0 0 1 0"/>
<feBlend mode="normal" in2="BackgroundImageFix" result="effect1_dropShadow"/>
<feBlend mode="normal" in="SourceGraphic" in2="effect1_dropShadow" result="shape"/>
</filter>
</defs>
</svg>
