<svg width="239" height="72" viewBox="0 0 239 72" fill="none" xmlns="http://www.w3.org/2000/svg">
<path d="M102.059 44C102.496 44 102.855 43.8555 103.137 43.5664C103.426 43.2773 103.57 42.875 103.57 42.3594V28.7539C103.57 28.2383 103.43 27.8359 103.148 27.5469C102.867 27.2578 102.512 27.1133 102.082 27.1133C101.652 27.1133 101.301 27.2578 101.027 27.5469C100.754 27.8359 100.617 28.2383 100.617 28.7539V42.3594C100.617 42.8828 100.75 43.2891 101.016 43.5781C101.289 43.8594 101.637 44 102.059 44ZM106.078 38.0117C106.078 39.9414 106.633 41.4453 107.742 42.5234C108.859 43.6016 110.344 44.1406 112.195 44.1406C113.844 44.1406 115.285 43.6211 116.52 42.582C116.77 42.3633 116.895 42.0977 116.895 41.7852C116.895 41.5117 116.801 41.2656 116.613 41.0469C116.426 40.8281 116.211 40.7188 115.969 40.7188C115.805 40.7188 115.652 40.7734 115.512 40.8828C114.41 41.6719 113.375 42.0664 112.406 42.0664C110.273 42.0664 109.145 40.9648 109.02 38.7617H116.426C116.707 38.7617 116.918 38.668 117.059 38.4805C117.199 38.293 117.27 38.0469 117.27 37.7422C117.262 36.9688 117.148 36.25 116.93 35.5859C116.711 34.9219 116.387 34.3242 115.957 33.793C115.535 33.2617 114.973 32.8477 114.27 32.5508C113.574 32.2461 112.773 32.0938 111.867 32.0938C110.688 32.0938 109.652 32.3672 108.762 32.9141C107.871 33.4609 107.199 34.1797 106.746 35.0703C106.301 35.9531 106.078 36.9336 106.078 38.0117ZM109.043 37.1094C109.113 36.2578 109.395 35.5312 109.887 34.9297C110.387 34.3281 111.074 34.0273 111.949 34.0273C112.848 34.0273 113.523 34.3164 113.977 34.8945C114.438 35.4727 114.699 36.2109 114.762 37.1094H109.043ZM124.043 44.1641C125.879 44.1641 127.172 43.4883 127.922 42.1367V42.5469C127.922 43.0234 128.051 43.3867 128.309 43.6367C128.566 43.8789 128.918 44 129.363 44C129.785 44 130.137 43.8516 130.418 43.5547C130.707 43.25 130.852 42.8438 130.852 42.3359V28.6836C130.852 28.1758 130.715 27.7852 130.441 27.5117C130.176 27.2305 129.828 27.0898 129.398 27.0898C128.961 27.0898 128.602 27.2305 128.32 27.5117C128.047 27.7852 127.91 28.1758 127.91 28.6836V33.9922C127.152 32.7422 125.918 32.1172 124.207 32.1172C122.621 32.1172 121.352 32.6484 120.398 33.7109C119.445 34.7734 118.969 36.2266 118.969 38.0703C118.969 39.2188 119.164 40.2539 119.555 41.1758C119.953 42.0898 120.539 42.8164 121.312 43.3555C122.094 43.8945 123.004 44.1641 124.043 44.1641ZM124.805 42.1953C124.266 42.1953 123.797 42.0703 123.398 41.8203C123 41.5625 122.695 41.2227 122.484 40.8008C122.273 40.3789 122.117 39.9453 122.016 39.5C121.922 39.0469 121.875 38.5781 121.875 38.0938C121.875 37.5703 121.926 37.082 122.027 36.6289C122.137 36.1758 122.301 35.7578 122.52 35.375C122.738 34.9844 123.043 34.6758 123.434 34.4492C123.832 34.2227 124.297 34.1094 124.828 34.1094C125.531 34.1094 126.117 34.2969 126.586 34.6719C127.062 35.0469 127.398 35.5273 127.594 36.1133C127.797 36.6914 127.898 37.3594 127.898 38.1172C127.898 39.4609 127.66 40.4766 127.184 41.1641C126.715 41.8516 125.922 42.1953 124.805 42.1953ZM142.383 43.8477C142.383 44.957 142.078 45.7812 141.469 46.3203C140.859 46.8672 140.008 47.1406 138.914 47.1406C138.602 47.1406 138.281 47.1133 137.953 47.0586C137.633 47.0039 137.391 46.9531 137.227 46.9062C137.062 46.8594 136.805 46.7734 136.453 46.6484C136.102 46.5312 135.891 46.4609 135.82 46.4375C135.695 46.3906 135.57 46.3672 135.445 46.3672C135.172 46.3672 134.945 46.4688 134.766 46.6719C134.586 46.875 134.496 47.1094 134.496 47.375C134.496 47.75 134.676 48.0469 135.035 48.2656C135.457 48.5234 136.047 48.7383 136.805 48.9102C137.57 49.0898 138.371 49.1797 139.207 49.1797C141.051 49.1797 142.508 48.6953 143.578 47.7266C144.656 46.7578 145.195 45.3477 145.195 43.4961V33.8867C145.195 33.3711 145.062 32.9688 144.797 32.6797C144.539 32.3906 144.207 32.2461 143.801 32.2461C143.441 32.2461 143.133 32.3555 142.875 32.5742C142.625 32.7852 142.48 33.0898 142.441 33.4883V34.0273C142.051 33.4023 141.586 32.9258 141.047 32.5977C140.508 32.2695 139.766 32.1055 138.82 32.1055C137.125 32.1055 135.781 32.6719 134.789 33.8047C133.805 34.9297 133.312 36.3945 133.312 38.1992C133.312 39.9883 133.82 41.4062 134.836 42.4531C135.852 43.4922 137.203 44.0117 138.891 44.0117C140.555 44.0117 141.719 43.3828 142.383 42.125V43.8477ZM139.418 42.0547C138.527 42.0391 137.785 41.7031 137.191 41.0469C136.605 40.3828 136.312 39.4062 136.312 38.1172C136.312 37.6719 136.348 37.2578 136.418 36.875C136.488 36.4844 136.602 36.1172 136.758 35.7734C136.914 35.4219 137.109 35.125 137.344 34.8828C137.578 34.6328 137.871 34.4375 138.223 34.2969C138.574 34.1484 138.969 34.0742 139.406 34.0742C141.391 34.0742 142.383 35.4297 142.383 38.1406C142.383 39.4766 142.113 40.4609 141.574 41.0938C141.035 41.7188 140.316 42.0391 139.418 42.0547ZM147.609 38.0117C147.609 39.9414 148.164 41.4453 149.273 42.5234C150.391 43.6016 151.875 44.1406 153.727 44.1406C155.375 44.1406 156.816 43.6211 158.051 42.582C158.301 42.3633 158.426 42.0977 158.426 41.7852C158.426 41.5117 158.332 41.2656 158.145 41.0469C157.957 40.8281 157.742 40.7188 157.5 40.7188C157.336 40.7188 157.184 40.7734 157.043 40.8828C155.941 41.6719 154.906 42.0664 153.938 42.0664C151.805 42.0664 150.676 40.9648 150.551 38.7617H157.957C158.238 38.7617 158.449 38.668 158.59 38.4805C158.73 38.293 158.801 38.0469 158.801 37.7422C158.793 36.9688 158.68 36.25 158.461 35.5859C158.242 34.9219 157.918 34.3242 157.488 33.793C157.066 33.2617 156.504 32.8477 155.801 32.5508C155.105 32.2461 154.305 32.0938 153.398 32.0938C152.219 32.0938 151.184 32.3672 150.293 32.9141C149.402 33.4609 148.73 34.1797 148.277 35.0703C147.832 35.9531 147.609 36.9336 147.609 38.0117ZM150.574 37.1094C150.645 36.2578 150.926 35.5312 151.418 34.9297C151.918 34.3281 152.605 34.0273 153.48 34.0273C154.379 34.0273 155.055 34.3164 155.508 34.8945C155.969 35.4727 156.23 36.2109 156.293 37.1094H150.574ZM162.586 44C163.023 44 163.379 43.8633 163.652 43.5898C163.934 43.3164 164.074 42.9258 164.074 42.418V37.4727C164.074 36.918 164.164 36.4492 164.344 36.0664C164.523 35.6836 164.777 35.3984 165.105 35.2109C165.434 35.0234 165.773 34.8945 166.125 34.8242C166.484 34.7461 166.895 34.707 167.355 34.707C167.66 34.707 167.902 34.582 168.082 34.332C168.262 34.082 168.352 33.793 168.352 33.4648C168.352 33.1211 168.254 32.8281 168.059 32.5859C167.863 32.3438 167.586 32.2227 167.227 32.2227C166.492 32.2227 165.828 32.4766 165.234 32.9844C164.648 33.4844 164.25 34.0859 164.039 34.7891L164.074 33.582C164.082 33.168 163.938 32.8438 163.641 32.6094C163.352 32.3672 163.008 32.2461 162.609 32.2461C162.203 32.2461 161.852 32.3711 161.555 32.6211C161.266 32.8633 161.121 33.207 161.121 33.6523V42.3945C161.121 42.9102 161.258 43.3086 161.531 43.5898C161.812 43.8633 162.164 44 162.586 44ZM171.738 44C172.168 44 172.52 43.8555 172.793 43.5664C173.074 43.2773 173.215 42.875 173.215 42.3594V33.8984C173.215 33.375 173.074 32.9688 172.793 32.6797C172.52 32.3906 172.168 32.2461 171.738 32.2461C171.309 32.2461 170.957 32.3906 170.684 32.6797C170.41 32.9688 170.273 33.375 170.273 33.8984V42.3594C170.273 42.8828 170.41 43.2891 170.684 43.5781C170.957 43.8594 171.309 44 171.738 44ZM171.738 29.9023C172.246 29.9023 172.656 29.7539 172.969 29.457C173.289 29.1523 173.449 28.7578 173.449 28.2734C173.449 27.7891 173.293 27.3984 172.98 27.1016C172.668 26.8047 172.258 26.6562 171.75 26.6562C171.234 26.6562 170.816 26.8047 170.496 27.1016C170.184 27.3984 170.027 27.7891 170.027 28.2734C170.027 28.7578 170.184 29.1523 170.496 29.457C170.816 29.7539 171.23 29.9023 171.738 29.9023ZM180.328 44.1406C182.18 44.1406 183.457 43.4688 184.16 42.125V42.5586C184.16 43.0195 184.297 43.375 184.57 43.625C184.844 43.875 185.191 44 185.613 44C186.043 44 186.398 43.8711 186.68 43.6133C186.961 43.3555 187.102 42.9922 187.102 42.5234V33.875C187.102 33.3594 186.965 32.9609 186.691 32.6797C186.418 32.3906 186.066 32.2461 185.637 32.2461C185.207 32.2461 184.852 32.3906 184.57 32.6797C184.297 32.9609 184.16 33.3594 184.16 33.875V38.7969C184.16 39.7891 183.871 40.5938 183.293 41.2109C182.723 41.8281 182.043 42.1367 181.254 42.1367C180.613 42.1367 180.086 41.9258 179.672 41.5039C179.258 41.0742 179.051 40.457 179.051 39.6523V33.875C179.051 33.3594 178.914 32.9609 178.641 32.6797C178.367 32.3906 178.023 32.2461 177.609 32.2461C177.172 32.2461 176.812 32.3906 176.531 32.6797C176.25 32.9609 176.109 33.3594 176.109 33.875V39.6523C176.109 40.3945 176.223 41.0586 176.449 41.6445C176.684 42.2305 177 42.7031 177.398 43.0625C177.797 43.4141 178.242 43.6836 178.734 43.8711C179.234 44.0508 179.766 44.1406 180.328 44.1406ZM191.648 44C192.086 44 192.445 43.8594 192.727 43.5781C193.016 43.2969 193.16 42.8984 193.16 42.3828V37.2266C193.16 36.2578 193.418 35.4922 193.934 34.9297C194.449 34.3672 195.137 34.0859 195.996 34.0859C196.691 34.0859 197.23 34.3008 197.613 34.7305C198.004 35.1602 198.199 35.7969 198.199 36.6406V42.3828C198.199 42.8906 198.336 43.2891 198.609 43.5781C198.891 43.8594 199.238 44 199.652 44C200.09 44 200.445 43.8594 200.719 43.5781C201 43.2891 201.141 42.8906 201.141 42.3828V37.5195C201.141 36.4492 201.406 35.6094 201.938 35C202.469 34.3906 203.156 34.0859 204 34.0859C204.688 34.0859 205.227 34.2969 205.617 34.7188C206.008 35.1406 206.203 35.7578 206.203 36.5703V42.3828C206.203 42.8984 206.34 43.2969 206.613 43.5781C206.887 43.8594 207.234 44 207.656 44C208.094 44 208.449 43.8594 208.723 43.5781C209.004 43.2969 209.145 42.8984 209.145 42.3828V36.5469C209.145 35.0781 208.754 33.9688 207.973 33.2188C207.191 32.4688 206.16 32.0938 204.879 32.0938C202.855 32.0938 201.48 32.9492 200.754 34.6602C200.504 33.8633 200.047 33.2383 199.383 32.7852C198.719 32.3242 197.898 32.0938 196.922 32.0938C195.141 32.0938 193.887 32.8047 193.16 34.2266V33.6406C193.16 33.2031 193.016 32.8633 192.727 32.6211C192.445 32.3711 192.098 32.2461 191.684 32.2461C191.246 32.2461 190.891 32.3828 190.617 32.6562C190.344 32.9297 190.207 33.3164 190.207 33.8164V42.3828C190.207 42.8984 190.344 43.2969 190.617 43.5781C190.891 43.8594 191.234 44 191.648 44ZM214.277 44.0469C214.762 44.0469 215.164 43.8867 215.484 43.5664C215.805 43.2383 215.965 42.8477 215.965 42.3945C215.965 41.9258 215.801 41.5352 215.473 41.2227C215.145 40.9102 214.746 40.7539 214.277 40.7539C213.785 40.7539 213.379 40.918 213.059 41.2461C212.746 41.5664 212.59 41.9492 212.59 42.3945C212.59 42.8555 212.75 43.2461 213.07 43.5664C213.391 43.8867 213.793 44.0469 214.277 44.0469ZM221.027 44C221.457 44 221.809 43.8555 222.082 43.5664C222.363 43.2773 222.504 42.875 222.504 42.3594V33.8984C222.504 33.375 222.363 32.9688 222.082 32.6797C221.809 32.3906 221.457 32.2461 221.027 32.2461C220.598 32.2461 220.246 32.3906 219.973 32.6797C219.699 32.9688 219.562 33.375 219.562 33.8984V42.3594C219.562 42.8828 219.699 43.2891 219.973 43.5781C220.246 43.8594 220.598 44 221.027 44ZM221.027 29.9023C221.535 29.9023 221.945 29.7539 222.258 29.457C222.578 29.1523 222.738 28.7578 222.738 28.2734C222.738 27.7891 222.582 27.3984 222.27 27.1016C221.957 26.8047 221.547 26.6562 221.039 26.6562C220.523 26.6562 220.105 26.8047 219.785 27.1016C219.473 27.3984 219.316 27.7891 219.316 28.2734C219.316 28.7578 219.473 29.1523 219.785 29.457C220.105 29.7539 220.52 29.9023 221.027 29.9023ZM231.023 42.1367C230.016 42.1367 229.23 41.7852 228.668 41.082C228.105 40.3789 227.824 39.3945 227.824 38.1289C227.824 36.8477 228.102 35.8555 228.656 35.1523C229.219 34.4414 230.008 34.0859 231.023 34.0859C232.039 34.0859 232.828 34.4414 233.391 35.1523C233.953 35.8633 234.234 36.8555 234.234 38.1289C234.234 39.3945 233.953 40.3789 233.391 41.082C232.828 41.7852 232.039 42.1367 231.023 42.1367ZM231.023 44.1406C231.852 44.1406 232.609 44.0273 233.297 43.8008C233.984 43.5742 234.562 43.2734 235.031 42.8984C235.508 42.5156 235.906 42.0664 236.227 41.5508C236.555 41.0273 236.793 40.4805 236.941 39.9102C237.098 39.3398 237.176 38.7461 237.176 38.1289C237.176 37.4805 237.094 36.8594 236.93 36.2656C236.773 35.6719 236.527 35.1211 236.191 34.6133C235.855 34.0977 235.449 33.6562 234.973 33.2891C234.496 32.9141 233.918 32.6211 233.238 32.4102C232.566 32.1914 231.828 32.082 231.023 32.082C230.203 32.082 229.449 32.1953 228.762 32.4219C228.082 32.6406 227.504 32.9414 227.027 33.3242C226.559 33.707 226.16 34.1562 225.832 34.6719C225.504 35.1875 225.262 35.7383 225.105 36.3242C224.957 36.9023 224.883 37.5039 224.883 38.1289C224.883 38.918 225.008 39.6641 225.258 40.3672C225.508 41.0703 225.871 41.707 226.348 42.2773C226.832 42.8477 227.477 43.3008 228.281 43.6367C229.086 43.9727 230 44.1406 231.023 44.1406Z" fill="#203060"/>
<path d="M31.8063 16L17.5 37L30.4515 56.1936" stroke="#203060" stroke-width="4.51613" stroke-linecap="round" stroke-linejoin="round"/>
<path d="M8.32227 26.8387H24.5803" stroke="#203060" stroke-width="3.6129" stroke-linecap="round" stroke-linejoin="round"/>
<path d="M8.32227 46.7097H22.7739" stroke="#203060" stroke-width="3.6129" stroke-linecap="round" stroke-linejoin="round"/>
<path d="M2 36.7742H16.4516" stroke="#203060" stroke-width="3.6129" stroke-linecap="round" stroke-linejoin="round"/>
<path d="M54.0003 16L68.3066 37L55.3551 56.1936" stroke="#203060" stroke-width="4.51613" stroke-linecap="round" stroke-linejoin="round"/>
<path d="M77.4844 26.8387H61.2263" stroke="#203060" stroke-width="3.6129" stroke-linecap="round" stroke-linejoin="round"/>
<path d="M77.4844 46.7097H63.0328" stroke="#203060" stroke-width="3.6129" stroke-linecap="round" stroke-linejoin="round"/>
<path d="M83.8066 36.7742H69.355" stroke="#203060" stroke-width="3.6129" stroke-linecap="round" stroke-linejoin="round"/>
<path d="M38 27V46H50" stroke="#203060" stroke-width="3.6129" stroke-linecap="round" stroke-linejoin="round"/>
</svg>
