<svg width="237" height="65" viewBox="0 0 237 65" fill="none" xmlns="http://www.w3.org/2000/svg">
<path d="M100.789 39.4062H98.207L97.6211 41H97.1172L99.2695 35.3125H99.7266L101.879 41H101.379L100.789 39.4062ZM98.3555 38.9961H100.637L99.4961 35.8984L98.3555 38.9961ZM107.864 41V35.3125H109.544C110.153 35.3125 110.615 35.4388 110.93 35.6914C111.246 35.9414 111.403 36.3112 111.403 36.8008C111.403 37.0951 111.322 37.3516 111.161 37.5703C111.002 37.7865 110.783 37.9414 110.505 38.0352C110.835 38.1081 111.101 38.2708 111.302 38.5234C111.505 38.776 111.606 39.0677 111.606 39.3984C111.606 39.901 111.443 40.2943 111.118 40.5781C110.795 40.8594 110.345 41 109.766 41H107.864ZM108.345 38.2656V40.5938H109.786C110.197 40.5938 110.523 40.4896 110.762 40.2812C111.005 40.0703 111.126 39.7786 111.126 39.4062C111.126 39.0547 111.01 38.7773 110.778 38.5742C110.549 38.3685 110.231 38.2656 109.825 38.2656H108.345ZM108.345 37.8633H109.657C110.058 37.8555 110.368 37.7617 110.587 37.582C110.808 37.3997 110.919 37.1354 110.919 36.7891C110.919 36.4245 110.804 36.1562 110.575 35.9844C110.348 35.8099 110.005 35.7227 109.544 35.7227H108.345V37.8633ZM114.855 40.5938H117.663V41H114.37V35.3125H114.855V40.5938ZM124.134 38.4648C124.134 38.9883 124.043 39.4479 123.861 39.8438C123.681 40.2396 123.423 40.5443 123.087 40.7578C122.752 40.9714 122.364 41.0781 121.923 41.0781C121.259 41.0781 120.723 40.8411 120.314 40.3672C119.905 39.8906 119.701 39.2487 119.701 38.4414V37.8555C119.701 37.3372 119.792 36.8789 119.974 36.4805C120.159 36.0794 120.42 35.7721 120.755 35.5586C121.091 35.3424 121.478 35.2344 121.916 35.2344C122.353 35.2344 122.739 35.3398 123.072 35.5508C123.408 35.7617 123.667 36.0599 123.849 36.4453C124.032 36.8307 124.127 37.2773 124.134 37.7852V38.4648ZM123.654 37.8477C123.654 37.1628 123.499 36.6263 123.189 36.2383C122.879 35.8503 122.455 35.6562 121.916 35.6562C121.387 35.6562 120.965 35.8516 120.65 36.2422C120.337 36.6302 120.181 37.1732 120.181 37.8711V38.4648C120.181 39.1393 120.337 39.6745 120.65 40.0703C120.962 40.4635 121.387 40.6602 121.923 40.6602C122.468 40.6602 122.892 40.4661 123.197 40.0781C123.502 39.6875 123.654 39.1445 123.654 38.4492V37.8477ZM130.973 39.2266C130.908 39.8255 130.693 40.2839 130.328 40.6016C129.966 40.9193 129.483 41.0781 128.879 41.0781C128.457 41.0781 128.083 40.9727 127.758 40.7617C127.435 40.5508 127.185 40.2526 127.008 39.8672C126.831 39.4792 126.741 39.0365 126.738 38.5391V37.8008C126.738 37.2956 126.827 36.8477 127.004 36.457C127.181 36.0664 127.435 35.7656 127.766 35.5547C128.099 35.3411 128.482 35.2344 128.914 35.2344C129.523 35.2344 130.004 35.3997 130.355 35.7305C130.71 36.0586 130.915 36.513 130.973 37.0938H130.488C130.368 36.1276 129.844 35.6445 128.914 35.6445C128.398 35.6445 127.987 35.8372 127.68 36.2227C127.375 36.6081 127.223 37.1406 127.223 37.8203V38.5156C127.223 39.1719 127.371 39.6953 127.668 40.0859C127.967 40.4766 128.371 40.6719 128.879 40.6719C129.382 40.6719 129.76 40.5521 130.016 40.3125C130.271 40.0703 130.428 39.7083 130.488 39.2266H130.973ZM135.022 38.1758L134.221 38.9648V41H133.741V35.3125H134.221V38.3789L137.135 35.3125H137.741L135.358 37.8438L137.924 41H137.338L135.022 38.1758ZM144.417 40.5938H147.226V41H143.933V35.3125H144.417V40.5938ZM152.892 38.2734H150.232V40.5938H153.291V41H149.752V35.3125H153.271V35.7227H150.232V37.8672H152.892V38.2734ZM155.906 41V35.3125H157.496C157.962 35.3125 158.38 35.4193 158.75 35.6328C159.12 35.8438 159.408 36.1471 159.613 36.543C159.822 36.9388 159.926 37.3893 159.926 37.8945V38.418C159.926 38.9258 159.823 39.3763 159.617 39.7695C159.411 40.1628 159.121 40.4661 158.746 40.6797C158.374 40.8932 157.945 41 157.461 41H155.906ZM156.387 35.7227V40.5938H157.465C158.064 40.5938 158.544 40.3958 158.906 40C159.268 39.6016 159.449 39.0638 159.449 38.3867V37.8867C159.449 37.2331 159.271 36.7096 158.914 36.3164C158.557 35.9232 158.087 35.7253 157.504 35.7227H156.387ZM166.854 40.3242C166.687 40.5612 166.426 40.7461 166.069 40.8789C165.715 41.0117 165.317 41.0781 164.877 41.0781C164.432 41.0781 164.036 40.9714 163.69 40.7578C163.343 40.5443 163.075 40.2422 162.885 39.8516C162.695 39.4609 162.599 39.013 162.596 38.5078V37.7891C162.596 37 162.795 36.3776 163.194 35.9219C163.592 35.4635 164.127 35.2344 164.799 35.2344C165.385 35.2344 165.857 35.3841 166.213 35.6836C166.57 35.9805 166.782 36.3906 166.85 36.9141H166.37C166.299 36.4974 166.129 36.1823 165.858 35.9688C165.59 35.7526 165.238 35.6445 164.803 35.6445C164.272 35.6445 163.851 35.8333 163.541 36.2109C163.232 36.5885 163.077 37.1211 163.077 37.8086V38.4805C163.077 38.9128 163.149 39.2956 163.295 39.6289C163.444 39.9596 163.655 40.2161 163.928 40.3984C164.204 40.5807 164.521 40.6719 164.877 40.6719C165.291 40.6719 165.647 40.6068 165.944 40.4766C166.136 40.3906 166.28 40.2904 166.373 40.1758V38.707H164.846V38.3008H166.854V40.3242ZM172.958 38.2734H170.298V40.5938H173.356V41H169.817V35.3125H173.337V35.7227H170.298V37.8672H172.958V38.2734ZM178.097 38.6328H176.445V41H175.96V35.3125H177.808C178.415 35.3125 178.889 35.4596 179.23 35.7539C179.571 36.0482 179.741 36.4596 179.741 36.9883C179.741 37.3529 179.635 37.6745 179.421 37.9531C179.208 38.2318 178.921 38.4245 178.562 38.5312L179.984 40.9492V41H179.472L178.097 38.6328ZM176.445 38.2227H177.917C178.321 38.2227 178.645 38.1081 178.89 37.8789C179.135 37.6497 179.257 37.3529 179.257 36.9883C179.257 36.5872 179.129 36.276 178.874 36.0547C178.619 35.8333 178.261 35.7227 177.8 35.7227H176.445V38.2227ZM190.223 39.2266C190.158 39.8255 189.943 40.2839 189.578 40.6016C189.216 40.9193 188.733 41.0781 188.129 41.0781C187.707 41.0781 187.333 40.9727 187.008 40.7617C186.685 40.5508 186.435 40.2526 186.258 39.8672C186.081 39.4792 185.991 39.0365 185.988 38.5391V37.8008C185.988 37.2956 186.077 36.8477 186.254 36.457C186.431 36.0664 186.685 35.7656 187.016 35.5547C187.349 35.3411 187.732 35.2344 188.164 35.2344C188.773 35.2344 189.254 35.3997 189.605 35.7305C189.96 36.0586 190.165 36.513 190.223 37.0938H189.738C189.618 36.1276 189.094 35.6445 188.164 35.6445C187.648 35.6445 187.237 35.8372 186.93 36.2227C186.625 36.6081 186.473 37.1406 186.473 37.8203V38.5156C186.473 39.1719 186.621 39.6953 186.918 40.0859C187.217 40.4766 187.621 40.6719 188.129 40.6719C188.632 40.6719 189.01 40.5521 189.266 40.3125C189.521 40.0703 189.678 39.7083 189.738 39.2266H190.223ZM197.194 38.4648C197.194 38.9883 197.103 39.4479 196.92 39.8438C196.741 40.2396 196.483 40.5443 196.147 40.7578C195.811 40.9714 195.423 41.0781 194.983 41.0781C194.319 41.0781 193.782 40.8411 193.373 40.3672C192.965 39.8906 192.76 39.2487 192.76 38.4414V37.8555C192.76 37.3372 192.851 36.8789 193.034 36.4805C193.218 36.0794 193.479 35.7721 193.815 35.5586C194.151 35.3424 194.537 35.2344 194.975 35.2344C195.412 35.2344 195.798 35.3398 196.131 35.5508C196.467 35.7617 196.726 36.0599 196.909 36.4453C197.091 36.8307 197.186 37.2773 197.194 37.7852V38.4648ZM196.713 37.8477C196.713 37.1628 196.558 36.6263 196.248 36.2383C195.939 35.8503 195.514 35.6562 194.975 35.6562C194.446 35.6562 194.024 35.8516 193.709 36.2422C193.397 36.6302 193.241 37.1732 193.241 37.8711V38.4648C193.241 39.1393 193.397 39.6745 193.709 40.0703C194.022 40.4635 194.446 40.6602 194.983 40.6602C195.527 40.6602 195.952 40.4661 196.256 40.0781C196.561 39.6875 196.713 39.1445 196.713 38.4492V37.8477ZM200.641 35.3125L202.739 40.332L204.845 35.3125H205.485V41H205.005V38.5234L205.044 35.9844L202.927 41H202.555L200.446 36.0039L200.485 38.5078V41H200.005V35.3125H200.641ZM209.007 38.6836V41H208.527V35.3125H210.464C211.055 35.3125 211.521 35.4635 211.863 35.7656C212.206 36.0677 212.378 36.4831 212.378 37.0117C212.378 37.5456 212.213 37.9583 211.882 38.25C211.554 38.5391 211.077 38.6836 210.452 38.6836H209.007ZM209.007 38.2773H210.464C210.93 38.2773 211.286 38.1667 211.53 37.9453C211.775 37.724 211.898 37.4154 211.898 37.0195C211.898 36.6263 211.775 36.3138 211.53 36.082C211.288 35.8477 210.943 35.7279 210.495 35.7227H209.007V38.2773ZM217.588 39.4062H215.005L214.42 41H213.916L216.068 35.3125H216.525L218.677 41H218.177L217.588 39.4062ZM215.154 38.9961H217.435L216.295 35.8984L215.154 38.9961ZM225.352 41H224.871L221.602 36.1328V41H221.117V35.3125H221.602L224.875 40.1836V35.3125H225.352V41ZM229.955 38.4141L231.694 35.3125H232.248L230.194 38.8594V41H229.713V38.8594L227.663 35.3125H228.233L229.955 38.4141Z" fill="white"/>
<path d="M100.059 24C100.496 24 100.855 23.8555 101.137 23.5664C101.426 23.2773 101.57 22.875 101.57 22.3594V8.75391C101.57 8.23828 101.43 7.83594 101.148 7.54688C100.867 7.25781 100.512 7.11328 100.082 7.11328C99.6523 7.11328 99.3008 7.25781 99.0273 7.54688C98.7539 7.83594 98.6172 8.23828 98.6172 8.75391V22.3594C98.6172 22.8828 98.75 23.2891 99.0156 23.5781C99.2891 23.8594 99.6367 24 100.059 24ZM104.078 18.0117C104.078 19.9414 104.633 21.4453 105.742 22.5234C106.859 23.6016 108.344 24.1406 110.195 24.1406C111.844 24.1406 113.285 23.6211 114.52 22.582C114.77 22.3633 114.895 22.0977 114.895 21.7852C114.895 21.5117 114.801 21.2656 114.613 21.0469C114.426 20.8281 114.211 20.7188 113.969 20.7188C113.805 20.7188 113.652 20.7734 113.512 20.8828C112.41 21.6719 111.375 22.0664 110.406 22.0664C108.273 22.0664 107.145 20.9648 107.02 18.7617H114.426C114.707 18.7617 114.918 18.668 115.059 18.4805C115.199 18.293 115.27 18.0469 115.27 17.7422C115.262 16.9688 115.148 16.25 114.93 15.5859C114.711 14.9219 114.387 14.3242 113.957 13.793C113.535 13.2617 112.973 12.8477 112.27 12.5508C111.574 12.2461 110.773 12.0938 109.867 12.0938C108.688 12.0938 107.652 12.3672 106.762 12.9141C105.871 13.4609 105.199 14.1797 104.746 15.0703C104.301 15.9531 104.078 16.9336 104.078 18.0117ZM107.043 17.1094C107.113 16.2578 107.395 15.5312 107.887 14.9297C108.387 14.3281 109.074 14.0273 109.949 14.0273C110.848 14.0273 111.523 14.3164 111.977 14.8945C112.438 15.4727 112.699 16.2109 112.762 17.1094H107.043ZM122.043 24.1641C123.879 24.1641 125.172 23.4883 125.922 22.1367V22.5469C125.922 23.0234 126.051 23.3867 126.309 23.6367C126.566 23.8789 126.918 24 127.363 24C127.785 24 128.137 23.8516 128.418 23.5547C128.707 23.25 128.852 22.8438 128.852 22.3359V8.68359C128.852 8.17578 128.715 7.78516 128.441 7.51172C128.176 7.23047 127.828 7.08984 127.398 7.08984C126.961 7.08984 126.602 7.23047 126.32 7.51172C126.047 7.78516 125.91 8.17578 125.91 8.68359V13.9922C125.152 12.7422 123.918 12.1172 122.207 12.1172C120.621 12.1172 119.352 12.6484 118.398 13.7109C117.445 14.7734 116.969 16.2266 116.969 18.0703C116.969 19.2188 117.164 20.2539 117.555 21.1758C117.953 22.0898 118.539 22.8164 119.312 23.3555C120.094 23.8945 121.004 24.1641 122.043 24.1641ZM122.805 22.1953C122.266 22.1953 121.797 22.0703 121.398 21.8203C121 21.5625 120.695 21.2227 120.484 20.8008C120.273 20.3789 120.117 19.9453 120.016 19.5C119.922 19.0469 119.875 18.5781 119.875 18.0938C119.875 17.5703 119.926 17.082 120.027 16.6289C120.137 16.1758 120.301 15.7578 120.52 15.375C120.738 14.9844 121.043 14.6758 121.434 14.4492C121.832 14.2227 122.297 14.1094 122.828 14.1094C123.531 14.1094 124.117 14.2969 124.586 14.6719C125.062 15.0469 125.398 15.5273 125.594 16.1133C125.797 16.6914 125.898 17.3594 125.898 18.1172C125.898 19.4609 125.66 20.4766 125.184 21.1641C124.715 21.8516 123.922 22.1953 122.805 22.1953ZM140.383 23.8477C140.383 24.957 140.078 25.7812 139.469 26.3203C138.859 26.8672 138.008 27.1406 136.914 27.1406C136.602 27.1406 136.281 27.1133 135.953 27.0586C135.633 27.0039 135.391 26.9531 135.227 26.9062C135.062 26.8594 134.805 26.7734 134.453 26.6484C134.102 26.5312 133.891 26.4609 133.82 26.4375C133.695 26.3906 133.57 26.3672 133.445 26.3672C133.172 26.3672 132.945 26.4688 132.766 26.6719C132.586 26.875 132.496 27.1094 132.496 27.375C132.496 27.75 132.676 28.0469 133.035 28.2656C133.457 28.5234 134.047 28.7383 134.805 28.9102C135.57 29.0898 136.371 29.1797 137.207 29.1797C139.051 29.1797 140.508 28.6953 141.578 27.7266C142.656 26.7578 143.195 25.3477 143.195 23.4961V13.8867C143.195 13.3711 143.062 12.9688 142.797 12.6797C142.539 12.3906 142.207 12.2461 141.801 12.2461C141.441 12.2461 141.133 12.3555 140.875 12.5742C140.625 12.7852 140.48 13.0898 140.441 13.4883V14.0273C140.051 13.4023 139.586 12.9258 139.047 12.5977C138.508 12.2695 137.766 12.1055 136.82 12.1055C135.125 12.1055 133.781 12.6719 132.789 13.8047C131.805 14.9297 131.312 16.3945 131.312 18.1992C131.312 19.9883 131.82 21.4062 132.836 22.4531C133.852 23.4922 135.203 24.0117 136.891 24.0117C138.555 24.0117 139.719 23.3828 140.383 22.125V23.8477ZM137.418 22.0547C136.527 22.0391 135.785 21.7031 135.191 21.0469C134.605 20.3828 134.312 19.4062 134.312 18.1172C134.312 17.6719 134.348 17.2578 134.418 16.875C134.488 16.4844 134.602 16.1172 134.758 15.7734C134.914 15.4219 135.109 15.125 135.344 14.8828C135.578 14.6328 135.871 14.4375 136.223 14.2969C136.574 14.1484 136.969 14.0742 137.406 14.0742C139.391 14.0742 140.383 15.4297 140.383 18.1406C140.383 19.4766 140.113 20.4609 139.574 21.0938C139.035 21.7188 138.316 22.0391 137.418 22.0547ZM145.609 18.0117C145.609 19.9414 146.164 21.4453 147.273 22.5234C148.391 23.6016 149.875 24.1406 151.727 24.1406C153.375 24.1406 154.816 23.6211 156.051 22.582C156.301 22.3633 156.426 22.0977 156.426 21.7852C156.426 21.5117 156.332 21.2656 156.145 21.0469C155.957 20.8281 155.742 20.7188 155.5 20.7188C155.336 20.7188 155.184 20.7734 155.043 20.8828C153.941 21.6719 152.906 22.0664 151.938 22.0664C149.805 22.0664 148.676 20.9648 148.551 18.7617H155.957C156.238 18.7617 156.449 18.668 156.59 18.4805C156.73 18.293 156.801 18.0469 156.801 17.7422C156.793 16.9688 156.68 16.25 156.461 15.5859C156.242 14.9219 155.918 14.3242 155.488 13.793C155.066 13.2617 154.504 12.8477 153.801 12.5508C153.105 12.2461 152.305 12.0938 151.398 12.0938C150.219 12.0938 149.184 12.3672 148.293 12.9141C147.402 13.4609 146.73 14.1797 146.277 15.0703C145.832 15.9531 145.609 16.9336 145.609 18.0117ZM148.574 17.1094C148.645 16.2578 148.926 15.5312 149.418 14.9297C149.918 14.3281 150.605 14.0273 151.48 14.0273C152.379 14.0273 153.055 14.3164 153.508 14.8945C153.969 15.4727 154.23 16.2109 154.293 17.1094H148.574ZM160.586 24C161.023 24 161.379 23.8633 161.652 23.5898C161.934 23.3164 162.074 22.9258 162.074 22.418V17.4727C162.074 16.918 162.164 16.4492 162.344 16.0664C162.523 15.6836 162.777 15.3984 163.105 15.2109C163.434 15.0234 163.773 14.8945 164.125 14.8242C164.484 14.7461 164.895 14.707 165.355 14.707C165.66 14.707 165.902 14.582 166.082 14.332C166.262 14.082 166.352 13.793 166.352 13.4648C166.352 13.1211 166.254 12.8281 166.059 12.5859C165.863 12.3438 165.586 12.2227 165.227 12.2227C164.492 12.2227 163.828 12.4766 163.234 12.9844C162.648 13.4844 162.25 14.0859 162.039 14.7891L162.074 13.582C162.082 13.168 161.938 12.8438 161.641 12.6094C161.352 12.3672 161.008 12.2461 160.609 12.2461C160.203 12.2461 159.852 12.3711 159.555 12.6211C159.266 12.8633 159.121 13.207 159.121 13.6523V22.3945C159.121 22.9102 159.258 23.3086 159.531 23.5898C159.812 23.8633 160.164 24 160.586 24ZM169.738 24C170.168 24 170.52 23.8555 170.793 23.5664C171.074 23.2773 171.215 22.875 171.215 22.3594V13.8984C171.215 13.375 171.074 12.9688 170.793 12.6797C170.52 12.3906 170.168 12.2461 169.738 12.2461C169.309 12.2461 168.957 12.3906 168.684 12.6797C168.41 12.9688 168.273 13.375 168.273 13.8984V22.3594C168.273 22.8828 168.41 23.2891 168.684 23.5781C168.957 23.8594 169.309 24 169.738 24ZM169.738 9.90234C170.246 9.90234 170.656 9.75391 170.969 9.45703C171.289 9.15234 171.449 8.75781 171.449 8.27344C171.449 7.78906 171.293 7.39844 170.98 7.10156C170.668 6.80469 170.258 6.65625 169.75 6.65625C169.234 6.65625 168.816 6.80469 168.496 7.10156C168.184 7.39844 168.027 7.78906 168.027 8.27344C168.027 8.75781 168.184 9.15234 168.496 9.45703C168.816 9.75391 169.23 9.90234 169.738 9.90234ZM178.328 24.1406C180.18 24.1406 181.457 23.4688 182.16 22.125V22.5586C182.16 23.0195 182.297 23.375 182.57 23.625C182.844 23.875 183.191 24 183.613 24C184.043 24 184.398 23.8711 184.68 23.6133C184.961 23.3555 185.102 22.9922 185.102 22.5234V13.875C185.102 13.3594 184.965 12.9609 184.691 12.6797C184.418 12.3906 184.066 12.2461 183.637 12.2461C183.207 12.2461 182.852 12.3906 182.57 12.6797C182.297 12.9609 182.16 13.3594 182.16 13.875V18.7969C182.16 19.7891 181.871 20.5938 181.293 21.2109C180.723 21.8281 180.043 22.1367 179.254 22.1367C178.613 22.1367 178.086 21.9258 177.672 21.5039C177.258 21.0742 177.051 20.457 177.051 19.6523V13.875C177.051 13.3594 176.914 12.9609 176.641 12.6797C176.367 12.3906 176.023 12.2461 175.609 12.2461C175.172 12.2461 174.812 12.3906 174.531 12.6797C174.25 12.9609 174.109 13.3594 174.109 13.875V19.6523C174.109 20.3945 174.223 21.0586 174.449 21.6445C174.684 22.2305 175 22.7031 175.398 23.0625C175.797 23.4141 176.242 23.6836 176.734 23.8711C177.234 24.0508 177.766 24.1406 178.328 24.1406ZM189.648 24C190.086 24 190.445 23.8594 190.727 23.5781C191.016 23.2969 191.16 22.8984 191.16 22.3828V17.2266C191.16 16.2578 191.418 15.4922 191.934 14.9297C192.449 14.3672 193.137 14.0859 193.996 14.0859C194.691 14.0859 195.23 14.3008 195.613 14.7305C196.004 15.1602 196.199 15.7969 196.199 16.6406V22.3828C196.199 22.8906 196.336 23.2891 196.609 23.5781C196.891 23.8594 197.238 24 197.652 24C198.09 24 198.445 23.8594 198.719 23.5781C199 23.2891 199.141 22.8906 199.141 22.3828V17.5195C199.141 16.4492 199.406 15.6094 199.938 15C200.469 14.3906 201.156 14.0859 202 14.0859C202.688 14.0859 203.227 14.2969 203.617 14.7188C204.008 15.1406 204.203 15.7578 204.203 16.5703V22.3828C204.203 22.8984 204.34 23.2969 204.613 23.5781C204.887 23.8594 205.234 24 205.656 24C206.094 24 206.449 23.8594 206.723 23.5781C207.004 23.2969 207.145 22.8984 207.145 22.3828V16.5469C207.145 15.0781 206.754 13.9688 205.973 13.2188C205.191 12.4688 204.16 12.0938 202.879 12.0938C200.855 12.0938 199.48 12.9492 198.754 14.6602C198.504 13.8633 198.047 13.2383 197.383 12.7852C196.719 12.3242 195.898 12.0938 194.922 12.0938C193.141 12.0938 191.887 12.8047 191.16 14.2266V13.6406C191.16 13.2031 191.016 12.8633 190.727 12.6211C190.445 12.3711 190.098 12.2461 189.684 12.2461C189.246 12.2461 188.891 12.3828 188.617 12.6562C188.344 12.9297 188.207 13.3164 188.207 13.8164V22.3828C188.207 22.8984 188.344 23.2969 188.617 23.5781C188.891 23.8594 189.234 24 189.648 24ZM212.277 24.0469C212.762 24.0469 213.164 23.8867 213.484 23.5664C213.805 23.2383 213.965 22.8477 213.965 22.3945C213.965 21.9258 213.801 21.5352 213.473 21.2227C213.145 20.9102 212.746 20.7539 212.277 20.7539C211.785 20.7539 211.379 20.918 211.059 21.2461C210.746 21.5664 210.59 21.9492 210.59 22.3945C210.59 22.8555 210.75 23.2461 211.07 23.5664C211.391 23.8867 211.793 24.0469 212.277 24.0469ZM219.027 24C219.457 24 219.809 23.8555 220.082 23.5664C220.363 23.2773 220.504 22.875 220.504 22.3594V13.8984C220.504 13.375 220.363 12.9688 220.082 12.6797C219.809 12.3906 219.457 12.2461 219.027 12.2461C218.598 12.2461 218.246 12.3906 217.973 12.6797C217.699 12.9688 217.562 13.375 217.562 13.8984V22.3594C217.562 22.8828 217.699 23.2891 217.973 23.5781C218.246 23.8594 218.598 24 219.027 24ZM219.027 9.90234C219.535 9.90234 219.945 9.75391 220.258 9.45703C220.578 9.15234 220.738 8.75781 220.738 8.27344C220.738 7.78906 220.582 7.39844 220.27 7.10156C219.957 6.80469 219.547 6.65625 219.039 6.65625C218.523 6.65625 218.105 6.80469 217.785 7.10156C217.473 7.39844 217.316 7.78906 217.316 8.27344C217.316 8.75781 217.473 9.15234 217.785 9.45703C218.105 9.75391 218.52 9.90234 219.027 9.90234ZM229.023 22.1367C228.016 22.1367 227.23 21.7852 226.668 21.082C226.105 20.3789 225.824 19.3945 225.824 18.1289C225.824 16.8477 226.102 15.8555 226.656 15.1523C227.219 14.4414 228.008 14.0859 229.023 14.0859C230.039 14.0859 230.828 14.4414 231.391 15.1523C231.953 15.8633 232.234 16.8555 232.234 18.1289C232.234 19.3945 231.953 20.3789 231.391 21.082C230.828 21.7852 230.039 22.1367 229.023 22.1367ZM229.023 24.1406C229.852 24.1406 230.609 24.0273 231.297 23.8008C231.984 23.5742 232.562 23.2734 233.031 22.8984C233.508 22.5156 233.906 22.0664 234.227 21.5508C234.555 21.0273 234.793 20.4805 234.941 19.9102C235.098 19.3398 235.176 18.7461 235.176 18.1289C235.176 17.4805 235.094 16.8594 234.93 16.2656C234.773 15.6719 234.527 15.1211 234.191 14.6133C233.855 14.0977 233.449 13.6562 232.973 13.2891C232.496 12.9141 231.918 12.6211 231.238 12.4102C230.566 12.1914 229.828 12.082 229.023 12.082C228.203 12.082 227.449 12.1953 226.762 12.4219C226.082 12.6406 225.504 12.9414 225.027 13.3242C224.559 13.707 224.16 14.1562 223.832 14.6719C223.504 15.1875 223.262 15.7383 223.105 16.3242C222.957 16.9023 222.883 17.5039 222.883 18.1289C222.883 18.918 223.008 19.6641 223.258 20.3672C223.508 21.0703 223.871 21.707 224.348 22.2773C224.832 22.8477 225.477 23.3008 226.281 23.6367C227.086 23.9727 228 24.1406 229.023 24.1406Z" fill="white"/>
<path d="M31.8063 3L17.5 24L30.4515 43.1936" stroke="white" stroke-width="4.51613" stroke-linecap="round" stroke-linejoin="round"/>
<path d="M8.32251 13.8387H24.5806" stroke="white" stroke-width="3.6129" stroke-linecap="round" stroke-linejoin="round"/>
<path d="M8.32251 33.7097H22.7741" stroke="white" stroke-width="3.6129" stroke-linecap="round" stroke-linejoin="round"/>
<path d="M2 23.7742L16.4516 23.7742" stroke="white" stroke-width="3.6129" stroke-linecap="round" stroke-linejoin="round"/>
<path d="M54 3L68.3064 24L55.3549 43.1936" stroke="white" stroke-width="4.51613" stroke-linecap="round" stroke-linejoin="round"/>
<path d="M77.4839 13.8387H61.2258" stroke="white" stroke-width="3.6129" stroke-linecap="round" stroke-linejoin="round"/>
<path d="M77.4839 33.7097H63.0323" stroke="white" stroke-width="3.6129" stroke-linecap="round" stroke-linejoin="round"/>
<path d="M83.8064 23.7742L69.3548 23.7742" stroke="white" stroke-width="3.6129" stroke-linecap="round" stroke-linejoin="round"/>
<path d="M38 14V33H50" stroke="white" stroke-width="3.6129" stroke-linecap="round" stroke-linejoin="round"/>
</svg>
