<svg width="32" height="32" viewBox="0 0 32 32" fill="none" xmlns="http://www.w3.org/2000/svg">
<path fill-rule="evenodd" clip-rule="evenodd" d="M4 0C1.79086 0 0 1.79086 0 4V28C0 30.2091 1.79086 32 4 32H28C30.2091 32 32 30.2091 32 28V4C32 1.79086 30.2091 0 28 0H4ZM8.4068 11.1935C8.58344 11.3524 8.67417 11.5861 8.65009 11.8229V20.3403C8.70228 20.647 8.60593 20.961 8.38914 21.185L6.36498 23.6403V23.9647H12.1042V23.6403L10.0801 21.185C9.86249 20.9618 9.75972 20.6494 9.80147 20.3403V12.9743L14.8398 23.9647H15.4243L19.7512 12.9743V21.7342C19.7512 21.9678 19.7512 22.0128 19.5987 22.1653L18.0418 23.6764V24H25.5989V23.6764L24.0966 22.2015C23.9641 22.1003 23.8983 21.9341 23.9256 21.7703V10.9325C23.8983 10.7679 23.9641 10.6017 24.0966 10.5005L25.635 9.02558V8.702H20.3093L16.5131 18.1724L12.195 8.702H6.60827V9.02558L8.4068 11.1935Z" fill="#BEC9D8"/>
</svg>
