<svg width="22" height="18" viewBox="0 0 22 18" fill="none" xmlns="http://www.w3.org/2000/svg">
<path d="M20.5147 0.119018L1.02704 7.45134C-0.303026 7.97192 -0.295137 8.6956 0.784603 9.01829L5.64488 10.4981L7.50453 16.06C7.73061 16.6688 7.61917 16.9102 8.27446 16.9102C8.78018 16.9102 9.00452 16.6853 9.28618 16.4169C9.46529 16.2459 10.5287 15.2373 11.7162 14.1111L16.7718 17.7549C17.7021 18.2556 18.3738 17.9962 18.6054 16.9121L21.9241 1.65653C22.2638 0.327701 21.4047 -0.275049 20.5147 0.119018ZM6.40764 10.1581L17.3627 3.41579C17.9096 3.09224 18.4111 3.26619 17.9994 3.6227L8.61894 11.8789L8.2537 15.6791L6.40764 10.1581Z" fill="#203060"/>
</svg>
