<svg width="32" height="32" viewBox="0 0 32 32" fill="none" xmlns="http://www.w3.org/2000/svg">
<path fill-rule="evenodd" clip-rule="evenodd" d="M4 0H28C30.2091 0 32 1.79086 32 4V28C32 30.2091 30.2091 32 28 32H4C1.79086 32 0 30.2091 0 28V4C0 1.79086 1.79086 0 4 0ZM5.93367 14.7739L23.6497 8.1082C24.4589 7.74996 25.2398 8.29791 24.931 9.50594L21.914 23.3746C21.7034 24.3602 21.0928 24.596 20.2471 24.1408L15.6511 20.8283L15.5676 20.9074C14.5221 21.899 13.6006 22.773 13.442 22.9245L13.425 22.9406C13.1768 23.1774 12.9718 23.3729 12.5222 23.3729C12.0556 23.3729 12.0166 23.2382 11.9229 22.9139C11.897 22.8242 11.8668 22.7199 11.8223 22.6L10.1317 17.5438L5.71328 16.1984C4.73169 15.9051 4.72452 15.2472 5.93367 14.7739ZM20.7843 11.1053L10.8251 17.2347L12.5034 22.2537L12.8354 18.799L21.3631 11.2934C21.7373 10.9693 21.2815 10.8111 20.7843 11.1053Z" fill="#BEC9D8"/>
</svg>
