<svg width="92" height="91" viewBox="0 0 92 91" fill="none" xmlns="http://www.w3.org/2000/svg">
<ellipse cx="46" cy="45.1165" rx="46" ry="45.1165" fill="white"/>
<path d="M53.884 30.4047C52.8432 30.4047 52 31.4272 52 32.6893V36.0398C53.1763 37.5097 54.1682 39.1941 54.9456 41.0382C55.546 40.6343 56.0165 39.9541 56.0165 39.1439V32.6916C56.0165 31.4272 54.923 30.4047 53.884 30.4047ZM69.9444 30.4047C68.9036 30.4047 68.0604 31.4272 68.0604 32.6893V68.8375C68.0604 70.102 68.9036 71.1222 69.9444 71.1222C70.9852 71.1222 72.0787 70.0997 72.0787 68.8375V32.6893C72.0769 31.4272 70.9833 30.4047 69.9444 30.4047ZM61.9133 30.4047C60.8724 30.4047 60.0292 31.4272 60.0292 32.6893V54.2304C60.0292 55.4948 60.8724 56.515 61.9133 56.515C62.9541 56.515 64.0476 55.4925 64.0476 54.2304V32.6893C64.0457 31.4272 62.9522 30.4047 61.9133 30.4047Z" fill="url(#paint0_linear)"/>
<path d="M34.5 63.2126C44.0131 63.2126 51.75 55.6451 51.75 46.2795C51.75 36.914 44.0131 29.3464 34.5 29.3464C24.9869 29.3464 17.25 36.914 17.25 46.2795C17.25 55.6451 24.9869 63.2126 34.5 63.2126Z" stroke="#7D93B3" stroke-width="1.5" stroke-miterlimit="10" stroke-linecap="round" stroke-linejoin="round"/>
<path d="M33.5732 39.8521C33.7763 39.8521 33.9794 39.8521 34.1825 39.8521C35.672 40.0115 36.6875 41.1275 36.6875 42.7217C36.6875 43.2797 37.0937 43.758 37.5677 43.758C38.0416 43.758 38.3124 43.2797 38.3124 42.7217C38.3124 40.2507 37.2968 38.3376 34.5887 37.9391V36.3448C34.5887 35.7869 34.3856 35.3086 33.9117 35.3086C33.4378 35.3086 33.2347 35.7869 33.2347 36.3448V37.9391C31.2036 38.4173 29.5111 40.5695 29.5111 43.1203C29.5111 45.7507 31.0682 47.4247 33.5732 47.5841C33.7763 47.5841 33.9117 47.5841 34.2502 47.5841C35.4012 47.6638 36.6875 48.1421 36.6875 50.0551C36.6875 51.7291 35.6043 53.1639 34.1825 53.3233C33.9794 53.3233 33.7763 53.3233 33.5732 53.3233C32.0838 53.1639 31.0682 52.0479 31.0682 50.4537C31.0682 49.8957 30.662 49.4174 30.1881 49.4174C29.7142 49.4174 29.4434 49.8957 29.4434 50.4537C29.4434 52.9247 31.1359 54.8378 33.167 55.2364V56.8306C33.167 57.3886 33.3701 57.8668 33.844 57.8668C34.3179 57.8668 34.521 57.3886 34.521 56.8306V55.2364C36.5521 54.7581 38.2447 52.6059 38.2447 50.0551C38.2447 47.4247 36.6875 45.7507 34.1825 45.5913C33.9794 45.5913 33.844 45.5913 33.5055 45.5913C32.3546 45.5116 31.0682 45.0333 31.0682 43.1203C31.0682 41.4463 32.1515 40.0115 33.5732 39.8521Z" fill="#50E6C5"/>
<defs>
<linearGradient id="paint0_linear" x1="62.0394" y1="30.4047" x2="62.0326" y2="71.0702" gradientUnits="userSpaceOnUse">
<stop stop-color="#50E6C5"/>
<stop offset="1" stop-color="#00DDAC" stop-opacity="0"/>
</linearGradient>
</defs>
</svg>
