<svg width="92" height="92" viewBox="0 0 92 92" fill="none" xmlns="http://www.w3.org/2000/svg">
<circle cx="46" cy="46" r="46" fill="white"/>
<path d="M24 38.5882C24 37.6136 24.7901 36.8235 25.7647 36.8235H62.2353C63.2099 36.8235 64 37.6136 64 38.5882V63.8823C64 64.8569 63.2099 65.647 62.2353 65.647H35.4578C29.1298 65.647 24 60.5172 24 54.1892V38.5882Z" stroke="#7D93B3" stroke-width="1.5" stroke-miterlimit="10" stroke-linecap="round" stroke-linejoin="round"/>
<path d="M27.2734 41.3503C27.2734 40.7005 27.8002 40.1738 28.4499 40.1738H59.3792C60.0289 40.1738 60.5556 40.7006 60.5556 41.3503V60.8119C60.5556 61.4616 60.0289 61.9883 59.3792 61.9883H36.0032C31.1819 61.9883 27.2734 58.0799 27.2734 53.2586V41.3503Z" fill="url(#paint0_linear)"/>
<path d="M25.7393 36.6957C28.1204 35.8708 46.7035 31.2383 57.6998 28.5355C58.8113 28.2623 59.8821 29.1045 59.8821 30.2491V36.8235" stroke="#7D93B3" stroke-width="1.30435" stroke-miterlimit="10" stroke-linecap="round" stroke-linejoin="round"/>
<path d="M51.6465 50.9411C51.6465 48.667 53.49 46.8235 55.7641 46.8235H63.9994V55.0588H55.7641C53.49 55.0588 51.6465 53.2152 51.6465 50.9411V50.9411Z" stroke="#7D93B3" stroke-width="1.30435" stroke-miterlimit="10" stroke-linecap="round" stroke-linejoin="round"/>
<path d="M54.8818 50.9412H56.3524" stroke="#7D93B3" stroke-width="1.47059" stroke-miterlimit="10" stroke-linecap="round" stroke-linejoin="round"/>
<defs>
<linearGradient id="paint0_linear" x1="43.9145" y1="40.1738" x2="43.9134" y2="61.9605" gradientUnits="userSpaceOnUse">
<stop stop-color="#50E6C5"/>
<stop offset="1" stop-color="#00DDAC" stop-opacity="0"/>
</linearGradient>
</defs>
</svg>
