<svg width="553" height="553" viewBox="0 0 553 553" fill="none" xmlns="http://www.w3.org/2000/svg">
<g filter="url(#filter0_d)">
<circle cx="276.5" cy="266.5" r="220.5" fill="white"/>
</g>
<mask id="mask0" mask-type="alpha" maskUnits="userSpaceOnUse" x="82" y="71" width="388" height="388">
<circle cx="276.014" cy="264.618" r="193.497" fill="#C4C4C4"/>
</mask>
<g mask="url(#mask0)">
<g filter="url(#filter1_d)">
<path d="M284.144 265.45V67.1462C284.144 63.7307 287.151 61.0963 290.537 61.5458L339.326 68.0235C339.924 68.1029 340.505 68.2776 341.048 68.5408L396.515 95.4465C396.979 95.6717 397.411 95.9595 397.797 96.3017L452.471 144.763C453.051 145.277 453.519 145.905 453.846 146.608L481.648 206.402C483.098 209.52 481.449 213.199 478.157 214.192L291.13 270.639C287.65 271.689 284.144 269.085 284.144 265.45Z" fill="#50E6C5"/>
</g>
<path d="M163.815 438.603L278.709 286.985C281.184 283.719 284.624 281.316 288.541 280.114L481.868 220.834L535.185 359.248L274.952 495.543L163.815 438.603Z" fill="#C4D0E1"/>
<g filter="url(#filter2_d)">
<path d="M275.47 273.436V48.869L169.966 39.6837L52.5437 65.1198L-5.29102 250.945L159.278 427.763L273.677 278.717C274.84 277.202 275.47 275.346 275.47 273.436Z" fill="#7D93B2"/>
</g>
</g>
<path d="M317.271 173.241H323.401C323.657 173.241 323.857 173.158 323.999 172.993C324.142 172.822 324.213 172.625 324.213 172.403C324.213 172.181 324.139 171.984 323.991 171.813C323.848 171.642 323.652 171.557 323.401 171.557H318.314V162.007C318.314 161.682 318.211 161.431 318.006 161.255C317.801 161.072 317.553 160.981 317.262 160.981C316.972 160.981 316.721 161.072 316.51 161.255C316.299 161.431 316.194 161.682 316.194 162.007V172.181C316.194 172.471 316.299 172.722 316.51 172.933C316.727 173.138 316.98 173.241 317.271 173.241ZM329.342 173.36C330.585 173.36 331.634 172.984 332.489 172.232C332.677 172.078 332.771 171.893 332.771 171.676C332.771 171.505 332.711 171.354 332.591 171.223C332.477 171.092 332.34 171.026 332.181 171.026C332.072 171.026 331.964 171.064 331.856 171.138C330.984 171.753 330.192 172.061 329.479 172.061C328.71 172.055 328.094 171.839 327.633 171.411C327.177 170.978 326.929 170.308 326.889 169.402H332.497C332.691 169.402 332.83 169.337 332.916 169.206C333.007 169.069 333.053 168.898 333.053 168.693C333.041 168.128 332.956 167.607 332.796 167.128C332.637 166.644 332.403 166.21 332.095 165.829C331.793 165.441 331.389 165.136 330.881 164.914C330.38 164.692 329.801 164.58 329.146 164.58C328.502 164.58 327.915 164.697 327.385 164.931C326.855 165.165 326.419 165.481 326.077 165.88C325.735 166.279 325.47 166.738 325.282 167.256C325.099 167.769 325.008 168.314 325.008 168.889C325.008 170.268 325.404 171.357 326.196 172.155C326.994 172.947 328.043 173.349 329.342 173.36ZM326.906 168.274C326.934 167.966 327 167.672 327.103 167.393C327.211 167.114 327.356 166.857 327.539 166.624C327.721 166.39 327.957 166.202 328.248 166.059C328.539 165.917 328.864 165.846 329.223 165.846C329.918 165.846 330.448 166.077 330.813 166.538C331.178 167 331.386 167.578 331.437 168.274H326.906ZM338.054 173.36C339.399 173.36 340.351 172.862 340.909 171.864V172.335C340.909 172.933 341.217 173.232 341.833 173.232C342.089 173.232 342.312 173.152 342.5 172.993C342.688 172.833 342.782 172.614 342.782 172.335V161.845C342.782 161.571 342.691 161.357 342.508 161.204C342.326 161.05 342.106 160.973 341.85 160.973C341.593 160.973 341.371 161.05 341.183 161.204C341.001 161.357 340.909 161.571 340.909 161.845V165.991C340.345 165.051 339.436 164.58 338.182 164.58C337.008 164.58 336.076 164.979 335.387 165.777C334.703 166.575 334.361 167.621 334.361 168.915C334.361 169.508 334.441 170.072 334.6 170.608C334.765 171.138 334.999 171.608 335.301 172.018C335.603 172.429 335.991 172.756 336.464 173.001C336.937 173.241 337.467 173.36 338.054 173.36ZM338.481 172.087C338.145 172.087 337.843 172.021 337.575 171.89C337.307 171.753 337.091 171.579 336.926 171.368C336.766 171.152 336.632 170.901 336.524 170.616C336.415 170.331 336.338 170.052 336.293 169.778C336.253 169.499 336.233 169.214 336.233 168.923C336.233 168.627 336.256 168.339 336.301 168.06C336.347 167.781 336.424 167.504 336.532 167.231C336.646 166.957 336.789 166.721 336.96 166.521C337.131 166.316 337.347 166.153 337.609 166.034C337.877 165.908 338.179 165.846 338.516 165.846C338.937 165.846 339.305 165.934 339.619 166.111C339.938 166.282 340.186 166.518 340.362 166.82C340.545 167.117 340.679 167.444 340.764 167.803C340.855 168.157 340.901 168.536 340.901 168.94C340.901 169.972 340.716 170.756 340.345 171.292C339.98 171.822 339.359 172.087 338.481 172.087ZM348.877 176.977C350.171 176.977 351.2 176.655 351.964 176.011C352.733 175.367 353.118 174.398 353.118 173.104V165.589C353.118 165.31 353.029 165.093 352.853 164.939C352.676 164.78 352.471 164.7 352.237 164.7C352.021 164.7 351.827 164.766 351.656 164.897C351.49 165.022 351.394 165.199 351.365 165.427V166C351.171 165.698 350.969 165.45 350.758 165.256C350.553 165.062 350.271 164.902 349.912 164.777C349.553 164.646 349.131 164.58 348.646 164.58C347.837 164.58 347.13 164.774 346.526 165.162C345.922 165.549 345.463 166.077 345.15 166.743C344.842 167.41 344.688 168.171 344.688 169.026C344.688 170.297 345.05 171.317 345.774 172.087C346.498 172.856 347.472 173.241 348.698 173.241C349.929 173.241 350.804 172.765 351.322 171.813V173.241C351.322 174.022 351.091 174.629 350.63 175.062C350.174 175.495 349.544 175.711 348.74 175.711C348.49 175.711 348.236 175.689 347.98 175.643C347.729 175.603 347.535 175.56 347.398 175.515C347.261 175.475 347.071 175.409 346.825 175.318C346.586 175.227 346.432 175.17 346.364 175.147C346.335 175.136 346.304 175.124 346.27 175.113C346.241 175.107 346.213 175.102 346.184 175.096C346.161 175.096 346.136 175.096 346.107 175.096C345.993 175.096 345.891 175.124 345.8 175.181C345.708 175.244 345.637 175.321 345.586 175.412C345.54 175.509 345.517 175.609 345.517 175.711C345.517 175.82 345.543 175.922 345.594 176.019C345.651 176.122 345.734 176.207 345.842 176.276C346.156 176.469 346.583 176.635 347.125 176.772C347.672 176.908 348.256 176.977 348.877 176.977ZM348.98 172.018C348.296 172.001 347.72 171.739 347.253 171.232C346.791 170.719 346.56 169.966 346.56 168.975C346.56 168.547 346.606 168.151 346.697 167.786C346.794 167.422 346.937 167.091 347.125 166.795C347.313 166.498 347.566 166.267 347.886 166.102C348.21 165.931 348.584 165.846 349.005 165.846C349.427 165.846 349.789 165.925 350.091 166.085C350.399 166.245 350.638 166.473 350.809 166.769C350.986 167.06 351.114 167.387 351.194 167.752C351.274 168.117 351.314 168.53 351.314 168.992C351.308 170.012 351.091 170.77 350.664 171.266C350.237 171.762 349.675 172.012 348.98 172.018ZM359.282 173.36C360.524 173.36 361.573 172.984 362.428 172.232C362.616 172.078 362.71 171.893 362.71 171.676C362.71 171.505 362.65 171.354 362.53 171.223C362.416 171.092 362.279 171.026 362.12 171.026C362.012 171.026 361.903 171.064 361.795 171.138C360.923 171.753 360.131 172.061 359.418 172.061C358.649 172.055 358.033 171.839 357.572 171.411C357.116 170.978 356.868 170.308 356.828 169.402H362.436C362.63 169.402 362.77 169.337 362.855 169.206C362.946 169.069 362.992 168.898 362.992 168.693C362.981 168.128 362.895 167.607 362.735 167.128C362.576 166.644 362.342 166.21 362.034 165.829C361.732 165.441 361.328 165.136 360.82 164.914C360.319 164.692 359.74 164.58 359.085 164.58C358.441 164.58 357.854 164.697 357.324 164.931C356.794 165.165 356.358 165.481 356.016 165.88C355.674 166.279 355.409 166.738 355.221 167.256C355.038 167.769 354.947 168.314 354.947 168.889C354.947 170.268 355.343 171.357 356.135 172.155C356.933 172.947 357.982 173.349 359.282 173.36ZM356.845 168.274C356.874 167.966 356.939 167.672 357.042 167.393C357.15 167.114 357.295 166.857 357.478 166.624C357.66 166.39 357.897 166.202 358.187 166.059C358.478 165.917 358.803 165.846 359.162 165.846C359.857 165.846 360.387 166.077 360.752 166.538C361.117 167 361.325 167.578 361.376 168.274H356.845ZM365.745 173.241C366.001 173.241 366.224 173.164 366.412 173.01C366.605 172.85 366.702 172.631 366.702 172.352V168.368C366.702 167.957 366.765 167.61 366.89 167.325C367.016 167.04 367.195 166.823 367.429 166.675C367.663 166.521 367.916 166.413 368.19 166.35C368.469 166.287 368.788 166.256 369.147 166.256C369.335 166.256 369.484 166.182 369.592 166.034C369.7 165.886 369.754 165.709 369.754 165.504C369.754 165.401 369.74 165.301 369.712 165.205C369.683 165.108 369.64 165.022 369.583 164.948C369.526 164.868 369.452 164.806 369.361 164.76C369.27 164.714 369.167 164.692 369.053 164.692C368.5 164.692 368.002 164.871 367.557 165.23C367.118 165.589 366.825 166.034 366.677 166.564L366.702 165.504C366.708 165.253 366.62 165.056 366.437 164.914C366.255 164.771 366.035 164.7 365.779 164.7C365.614 164.7 365.46 164.731 365.317 164.794C365.175 164.851 365.055 164.948 364.958 165.085C364.867 165.216 364.821 165.375 364.821 165.564V172.352C364.821 172.637 364.913 172.856 365.095 173.01C365.277 173.164 365.494 173.241 365.745 173.241ZM372.216 173.241C372.473 173.241 372.695 173.158 372.883 172.993C373.077 172.822 373.174 172.594 373.174 172.309V165.632C373.174 165.341 373.08 165.113 372.892 164.948C372.709 164.783 372.493 164.7 372.242 164.7C371.986 164.7 371.763 164.783 371.575 164.948C371.387 165.113 371.293 165.341 371.293 165.632V172.309C371.293 172.605 371.382 172.836 371.558 173.001C371.741 173.161 371.96 173.241 372.216 173.241ZM372.225 162.913C372.567 162.913 372.841 162.816 373.046 162.623C373.257 162.423 373.362 162.161 373.362 161.836C373.362 161.517 373.259 161.258 373.054 161.058C372.849 160.859 372.576 160.759 372.234 160.759C371.892 160.759 371.615 160.859 371.404 161.058C371.199 161.258 371.097 161.517 371.097 161.836C371.097 162.161 371.199 162.423 371.404 162.623C371.615 162.816 371.889 162.913 372.225 162.913ZM378.492 173.36C379.136 173.36 379.7 173.235 380.184 172.984C380.674 172.733 381.039 172.372 381.279 171.899V172.394C381.279 172.662 381.37 172.87 381.552 173.018C381.735 173.167 381.951 173.241 382.202 173.241C382.458 173.241 382.681 173.164 382.869 173.01C383.057 172.856 383.151 172.639 383.151 172.36V165.598C383.151 165.313 383.06 165.093 382.877 164.939C382.695 164.78 382.475 164.7 382.219 164.7C381.963 164.7 381.74 164.78 381.552 164.939C381.37 165.099 381.279 165.318 381.279 165.598V169.479C381.267 170.266 381.039 170.898 380.595 171.377C380.15 171.85 379.623 172.087 379.013 172.087C378.489 172.087 378.067 171.918 377.748 171.582C377.434 171.24 377.278 170.744 377.278 170.095V165.598C377.278 165.313 377.184 165.093 376.995 164.939C376.813 164.78 376.596 164.7 376.346 164.7C376.089 164.7 375.867 164.78 375.679 164.939C375.497 165.093 375.405 165.313 375.405 165.598V170.078C375.405 170.636 375.488 171.129 375.653 171.557C375.819 171.984 376.044 172.329 376.329 172.591C376.619 172.847 376.947 173.041 377.312 173.172C377.677 173.298 378.07 173.36 378.492 173.36ZM386.476 173.241C386.733 173.241 386.955 173.164 387.143 173.01C387.337 172.85 387.434 172.628 387.434 172.343V168.402C387.434 167.615 387.636 166.994 388.041 166.538C388.446 166.077 388.987 165.846 389.665 165.846C390.212 165.846 390.637 166.014 390.939 166.35C391.241 166.686 391.392 167.194 391.392 167.872V172.335C391.392 172.619 391.483 172.842 391.666 173.001C391.848 173.161 392.068 173.241 392.324 173.241C392.581 173.241 392.8 173.161 392.982 173.001C393.17 172.842 393.265 172.619 393.265 172.335V168.573C393.265 167.718 393.473 167.051 393.889 166.572C394.31 166.088 394.852 165.846 395.513 165.846C396.066 165.846 396.49 166.011 396.787 166.342C397.089 166.666 397.24 167.157 397.24 167.812V172.343C397.24 172.628 397.331 172.85 397.513 173.01C397.696 173.164 397.915 173.241 398.172 173.241C398.428 173.241 398.65 173.164 398.839 173.01C399.027 172.85 399.121 172.628 399.121 172.343V167.846C399.121 166.752 398.83 165.934 398.249 165.393C397.667 164.851 396.906 164.58 395.966 164.58C395.259 164.58 394.647 164.74 394.128 165.059C393.615 165.378 393.23 165.857 392.974 166.495C392.797 165.925 392.461 165.464 391.965 165.11C391.475 164.757 390.871 164.58 390.153 164.58C388.887 164.58 387.981 165.091 387.434 166.111V165.521C387.434 165.264 387.34 165.065 387.152 164.922C386.964 164.774 386.744 164.7 386.494 164.7C386.237 164.7 386.015 164.78 385.827 164.939C385.639 165.093 385.545 165.307 385.545 165.581V172.343C385.545 172.628 385.636 172.85 385.818 173.01C386.006 173.164 386.226 173.241 386.476 173.241ZM339.473 193.392C339.473 193.01 339.413 192.643 339.294 192.289C339.174 191.936 338.997 191.617 338.764 191.332C338.536 191.041 338.265 190.791 337.951 190.58C337.644 190.363 337.287 190.195 336.883 190.075C336.484 189.956 336.059 189.896 335.609 189.896C334.885 189.896 334.25 189.987 333.702 190.169C333.155 190.352 332.597 190.614 332.027 190.956C331.97 190.99 331.919 191.027 331.873 191.067C331.833 191.101 331.796 191.138 331.762 191.178C331.733 191.218 331.708 191.261 331.685 191.306C331.668 191.352 331.654 191.398 331.642 191.443C331.636 191.483 331.634 191.529 331.634 191.58C331.634 191.796 331.719 191.999 331.89 192.187C332.067 192.369 332.258 192.46 332.463 192.46C332.554 192.46 332.64 192.441 332.719 192.401C332.771 192.372 332.933 192.278 333.207 192.119C333.48 191.959 333.68 191.851 333.805 191.794C333.936 191.737 334.153 191.674 334.455 191.606C334.757 191.537 335.082 191.503 335.429 191.503C336.011 191.503 336.501 191.691 336.9 192.067C337.305 192.443 337.507 192.931 337.507 193.529C337.507 194.23 337.108 194.98 336.31 195.778L331.882 200.232C331.585 200.534 331.437 200.859 331.437 201.206C331.437 201.497 331.542 201.742 331.753 201.942C331.97 202.141 332.258 202.241 332.617 202.241H338.61C338.838 202.241 339.014 202.161 339.14 202.001C339.265 201.842 339.328 201.657 339.328 201.446C339.328 201.235 339.265 201.052 339.14 200.899C339.014 200.745 338.838 200.668 338.61 200.668H333.694L337.438 197.163C338.151 196.524 338.667 195.9 338.986 195.29C339.311 194.675 339.473 194.042 339.473 193.392ZM345.971 200.736C345.686 200.736 345.426 200.688 345.193 200.591C344.959 200.488 344.762 200.354 344.603 200.189C344.443 200.018 344.303 199.807 344.184 199.556C344.064 199.306 343.967 199.049 343.893 198.787C343.825 198.525 343.771 198.228 343.731 197.898C343.691 197.561 343.662 197.248 343.645 196.957C343.634 196.667 343.628 196.35 343.628 196.008C343.628 195.661 343.634 195.342 343.645 195.051C343.662 194.76 343.691 194.452 343.731 194.128C343.771 193.797 343.825 193.503 343.893 193.247C343.967 192.991 344.064 192.74 344.184 192.495C344.303 192.25 344.443 192.047 344.603 191.888C344.762 191.722 344.959 191.591 345.193 191.494C345.426 191.398 345.686 191.349 345.971 191.349C346.307 191.349 346.603 191.412 346.86 191.537C347.122 191.663 347.336 191.842 347.501 192.076C347.666 192.309 347.803 192.566 347.911 192.845C348.025 193.124 348.111 193.452 348.168 193.828C348.225 194.205 348.262 194.561 348.279 194.897C348.302 195.228 348.313 195.598 348.313 196.008C348.313 196.35 348.304 196.667 348.287 196.957C348.276 197.242 348.25 197.553 348.21 197.889C348.171 198.22 348.114 198.516 348.039 198.778C347.971 199.04 347.877 199.3 347.757 199.556C347.638 199.807 347.498 200.015 347.338 200.18C347.179 200.346 346.982 200.48 346.749 200.582C346.515 200.685 346.256 200.736 345.971 200.736ZM345.971 202.429C346.643 202.429 347.239 202.309 347.757 202.07C348.282 201.83 348.709 201.511 349.04 201.112C349.376 200.713 349.65 200.235 349.86 199.676C350.077 199.112 350.228 198.533 350.314 197.94C350.399 197.342 350.442 196.698 350.442 196.008C350.442 195.313 350.399 194.669 350.314 194.076C350.228 193.478 350.077 192.902 349.86 192.349C349.644 191.796 349.37 191.326 349.04 190.939C348.709 190.551 348.282 190.241 347.757 190.007C347.239 189.773 346.643 189.656 345.971 189.656C345.298 189.656 344.7 189.773 344.175 190.007C343.657 190.241 343.229 190.551 342.893 190.939C342.562 191.326 342.289 191.796 342.072 192.349C341.856 192.902 341.705 193.478 341.619 194.076C341.534 194.669 341.491 195.313 341.491 196.008C341.491 196.698 341.534 197.342 341.619 197.94C341.705 198.533 341.856 199.112 342.072 199.676C342.289 200.235 342.562 200.713 342.893 201.112C343.223 201.511 343.651 201.83 344.175 202.07C344.7 202.309 345.298 202.429 345.971 202.429ZM353.784 202.266C354.115 202.266 354.386 202.161 354.597 201.95C354.808 201.739 354.913 201.491 354.913 201.206C354.913 200.91 354.805 200.659 354.588 200.454C354.372 200.249 354.104 200.146 353.784 200.146C353.448 200.146 353.175 200.252 352.964 200.462C352.753 200.673 352.647 200.921 352.647 201.206C352.647 201.497 352.756 201.748 352.972 201.959C353.189 202.164 353.46 202.266 353.784 202.266ZM361.598 200.736C361.313 200.736 361.054 200.688 360.82 200.591C360.587 200.488 360.39 200.354 360.231 200.189C360.071 200.018 359.931 199.807 359.812 199.556C359.692 199.306 359.595 199.049 359.521 198.787C359.453 198.525 359.398 198.228 359.359 197.898C359.319 197.561 359.29 197.248 359.273 196.957C359.262 196.667 359.256 196.35 359.256 196.008C359.256 195.661 359.262 195.342 359.273 195.051C359.29 194.76 359.319 194.452 359.359 194.128C359.398 193.797 359.453 193.503 359.521 193.247C359.595 192.991 359.692 192.74 359.812 192.495C359.931 192.25 360.071 192.047 360.231 191.888C360.39 191.722 360.587 191.591 360.82 191.494C361.054 191.398 361.313 191.349 361.598 191.349C361.935 191.349 362.231 191.412 362.488 191.537C362.75 191.663 362.963 191.842 363.129 192.076C363.294 192.309 363.431 192.566 363.539 192.845C363.653 193.124 363.739 193.452 363.796 193.828C363.853 194.205 363.89 194.561 363.907 194.897C363.929 195.228 363.941 195.598 363.941 196.008C363.941 196.35 363.932 196.667 363.915 196.957C363.904 197.242 363.878 197.553 363.838 197.889C363.798 198.22 363.741 198.516 363.667 198.778C363.599 199.04 363.505 199.3 363.385 199.556C363.265 199.807 363.126 200.015 362.966 200.18C362.807 200.346 362.61 200.48 362.376 200.582C362.143 200.685 361.883 200.736 361.598 200.736ZM361.598 202.429C362.271 202.429 362.867 202.309 363.385 202.07C363.91 201.83 364.337 201.511 364.668 201.112C365.004 200.713 365.277 200.235 365.488 199.676C365.705 199.112 365.856 198.533 365.941 197.94C366.027 197.342 366.07 196.698 366.07 196.008C366.07 195.313 366.027 194.669 365.941 194.076C365.856 193.478 365.705 192.902 365.488 192.349C365.272 191.796 364.998 191.326 364.668 190.939C364.337 190.551 363.91 190.241 363.385 190.007C362.867 189.773 362.271 189.656 361.598 189.656C360.926 189.656 360.327 189.773 359.803 190.007C359.284 190.241 358.857 190.551 358.521 190.939C358.19 191.326 357.917 191.796 357.7 192.349C357.483 192.902 357.332 193.478 357.247 194.076C357.161 194.669 357.119 195.313 357.119 196.008C357.119 196.698 357.161 197.342 357.247 197.94C357.332 198.533 357.483 199.112 357.7 199.676C357.917 200.235 358.19 200.713 358.521 201.112C358.851 201.511 359.279 201.83 359.803 202.07C360.327 202.309 360.926 202.429 361.598 202.429ZM372.148 202.814C372.342 202.814 372.527 202.66 372.704 202.352L379.158 190.845C379.272 190.617 379.329 190.449 379.329 190.34C379.329 190.198 379.275 190.072 379.167 189.964C379.064 189.856 378.945 189.802 378.808 189.802C378.591 189.802 378.417 189.919 378.286 190.152L371.738 201.856C371.624 202.061 371.567 202.204 371.567 202.283C371.567 202.432 371.624 202.557 371.738 202.66C371.857 202.762 371.994 202.814 372.148 202.814ZM371.43 195.846C370.911 195.846 370.532 195.635 370.293 195.213C370.054 194.786 369.934 194.216 369.934 193.503C369.934 192.797 370.054 192.233 370.293 191.811C370.538 191.383 370.917 191.17 371.43 191.17C371.949 191.17 372.328 191.383 372.567 191.811C372.812 192.233 372.935 192.797 372.935 193.503C372.935 194.21 372.812 194.777 372.567 195.205C372.328 195.632 371.949 195.846 371.43 195.846ZM371.43 196.949C372.336 196.949 373.063 196.624 373.61 195.974C374.163 195.324 374.439 194.501 374.439 193.503C374.439 193.167 374.405 192.839 374.337 192.52C374.274 192.201 374.166 191.891 374.012 191.588C373.858 191.286 373.667 191.024 373.439 190.802C373.211 190.574 372.923 190.394 372.576 190.263C372.234 190.127 371.852 190.058 371.43 190.058C370.518 190.058 369.789 190.386 369.241 191.041C368.7 191.691 368.429 192.512 368.429 193.503C368.429 194.546 368.694 195.381 369.224 196.008C369.76 196.635 370.495 196.949 371.43 196.949ZM379.953 201.403C378.956 201.403 378.457 200.625 378.457 199.069C378.457 198.362 378.577 197.798 378.816 197.376C379.056 196.949 379.435 196.735 379.953 196.735C380.307 196.735 380.598 196.843 380.825 197.06C381.059 197.277 381.222 197.553 381.313 197.889C381.404 198.225 381.45 198.619 381.45 199.069C381.45 199.781 381.327 200.349 381.082 200.77C380.843 201.192 380.466 201.403 379.953 201.403ZM379.953 202.523C380.871 202.523 381.601 202.195 382.142 201.54C382.684 200.884 382.954 200.061 382.954 199.069C382.954 198.733 382.92 198.408 382.852 198.094C382.789 197.775 382.681 197.465 382.527 197.163C382.373 196.86 382.182 196.598 381.954 196.376C381.732 196.154 381.447 195.974 381.099 195.837C380.757 195.701 380.375 195.632 379.953 195.632C379.042 195.632 378.312 195.957 377.765 196.607C377.223 197.257 376.953 198.077 376.953 199.069C376.953 200.106 377.221 200.941 377.756 201.574C378.292 202.207 379.024 202.523 379.953 202.523Z" fill="#0C9072"/>
<path d="M314.596 341.676C314.887 341.676 315.134 341.588 315.34 341.411C315.551 341.229 315.656 340.975 315.656 340.65V336.623H318.144C319.62 336.623 320.754 336.341 321.546 335.777C322.339 335.207 322.735 334.281 322.735 332.999C322.735 331.733 322.356 330.816 321.598 330.246C320.845 329.676 319.757 329.391 318.332 329.391H314.613C314.317 329.391 314.063 329.496 313.852 329.707C313.641 329.912 313.536 330.16 313.536 330.451V340.65C313.536 340.975 313.641 341.229 313.852 341.411C314.063 341.588 314.311 341.676 314.596 341.676ZM315.656 335.008V331.075H318.144C319.01 331.075 319.643 331.209 320.042 331.477C320.446 331.739 320.649 332.246 320.649 332.999C320.649 333.762 320.441 334.29 320.025 334.58C319.614 334.865 318.967 335.008 318.084 335.008H315.656ZM327.24 341.787C327.884 341.787 328.448 341.662 328.933 341.411C329.423 341.16 329.788 340.798 330.027 340.325V340.821C330.027 341.089 330.118 341.297 330.301 341.445C330.483 341.593 330.7 341.667 330.95 341.667C331.207 341.667 331.429 341.591 331.617 341.437C331.805 341.283 331.899 341.066 331.899 340.787V334.025C331.899 333.74 331.808 333.52 331.626 333.366C331.443 333.207 331.224 333.127 330.968 333.127C330.711 333.127 330.489 333.207 330.301 333.366C330.118 333.526 330.027 333.745 330.027 334.025V337.906C330.016 338.692 329.788 339.325 329.343 339.804C328.899 340.277 328.371 340.513 327.762 340.513C327.237 340.513 326.815 340.345 326.496 340.009C326.183 339.667 326.026 339.171 326.026 338.521V334.025C326.026 333.74 325.932 333.52 325.744 333.366C325.562 333.207 325.345 333.127 325.094 333.127C324.838 333.127 324.615 333.207 324.427 333.366C324.245 333.52 324.154 333.74 324.154 334.025V338.504C324.154 339.063 324.236 339.556 324.402 339.983C324.567 340.411 324.792 340.756 325.077 341.018C325.368 341.274 325.696 341.468 326.06 341.599C326.425 341.724 326.818 341.787 327.24 341.787ZM339.021 341.787C339.608 341.787 340.138 341.667 340.611 341.428C341.084 341.183 341.472 340.855 341.774 340.445C342.076 340.035 342.307 339.564 342.466 339.034C342.631 338.499 342.714 337.934 342.714 337.342C342.714 336.048 342.372 335.002 341.688 334.204C341.004 333.406 340.075 333.007 338.901 333.007C337.647 333.007 336.738 333.477 336.174 334.418V330.271C336.174 329.998 336.08 329.784 335.892 329.63C335.709 329.476 335.49 329.399 335.234 329.399C334.977 329.399 334.755 329.476 334.567 329.63C334.384 329.784 334.293 329.998 334.293 330.271V340.761C334.293 341.041 334.387 341.26 334.575 341.42C334.769 341.579 334.991 341.659 335.242 341.659C335.527 341.659 335.752 341.585 335.917 341.437C336.088 341.288 336.174 341.063 336.174 340.761V340.291C336.733 341.288 337.681 341.787 339.021 341.787ZM338.593 340.513C337.716 340.513 337.094 340.248 336.73 339.718C336.365 339.183 336.183 338.399 336.183 337.367C336.183 336.963 336.225 336.584 336.311 336.23C336.402 335.871 336.536 335.543 336.713 335.247C336.895 334.945 337.143 334.708 337.456 334.537C337.776 334.361 338.143 334.272 338.559 334.272C338.975 334.272 339.337 334.364 339.645 334.546C339.953 334.728 340.189 334.976 340.355 335.29C340.525 335.598 340.648 335.922 340.722 336.264C340.802 336.606 340.842 336.968 340.842 337.35C340.842 337.641 340.819 337.926 340.773 338.205C340.734 338.479 340.659 338.758 340.551 339.043C340.443 339.328 340.306 339.579 340.141 339.795C339.981 340.006 339.767 340.18 339.5 340.317C339.232 340.448 338.93 340.513 338.593 340.513ZM345.595 341.667C345.852 341.667 346.074 341.585 346.262 341.42C346.456 341.249 346.553 341.021 346.553 340.736V330.331C346.553 330.046 346.459 329.821 346.271 329.656C346.082 329.485 345.863 329.399 345.612 329.399C345.356 329.399 345.133 329.482 344.945 329.647C344.763 329.813 344.672 330.041 344.672 330.331V340.736C344.672 341.032 344.76 341.263 344.937 341.428C345.119 341.588 345.339 341.667 345.595 341.667ZM349.93 341.667C350.186 341.667 350.408 341.585 350.596 341.42C350.79 341.249 350.887 341.021 350.887 340.736V334.059C350.887 333.768 350.793 333.54 350.605 333.375C350.423 333.21 350.206 333.127 349.955 333.127C349.699 333.127 349.476 333.21 349.288 333.375C349.1 333.54 349.006 333.768 349.006 334.059V340.736C349.006 341.032 349.095 341.263 349.271 341.428C349.454 341.588 349.673 341.667 349.93 341.667ZM349.938 331.34C350.28 331.34 350.554 331.243 350.759 331.049C350.97 330.85 351.075 330.588 351.075 330.263C351.075 329.944 350.973 329.684 350.767 329.485C350.562 329.285 350.289 329.186 349.947 329.186C349.605 329.186 349.328 329.285 349.117 329.485C348.912 329.684 348.81 329.944 348.81 330.263C348.81 330.588 348.912 330.85 349.117 331.049C349.328 331.243 349.602 331.34 349.938 331.34ZM356.871 341.787C358.028 341.787 358.9 341.534 359.488 341.026C359.693 340.85 359.795 340.656 359.795 340.445C359.795 340.394 359.79 340.345 359.778 340.3C359.767 340.248 359.747 340.203 359.718 340.163C359.696 340.117 359.667 340.077 359.633 340.043C359.599 340.009 359.562 339.98 359.522 339.958C359.482 339.935 359.436 339.918 359.385 339.906C359.339 339.889 359.291 339.881 359.24 339.881C359.171 339.881 359.1 339.892 359.026 339.915C358.957 339.938 358.889 339.975 358.821 340.026C358.37 340.351 357.769 340.513 357.017 340.513C356.247 340.513 355.643 340.226 355.204 339.65C354.771 339.074 354.555 338.319 354.555 337.384C354.555 336.455 354.78 335.703 355.23 335.127C355.68 334.552 356.293 334.264 357.068 334.264C357.621 334.264 358.148 334.401 358.65 334.674C358.712 334.708 358.775 334.734 358.838 334.751C358.906 334.768 358.972 334.777 359.034 334.777C359.103 334.777 359.168 334.768 359.231 334.751C359.294 334.734 359.348 334.708 359.393 334.674C359.445 334.64 359.488 334.6 359.522 334.555C359.562 334.509 359.59 334.461 359.607 334.409C359.63 334.352 359.641 334.292 359.641 334.23C359.641 334.167 359.627 334.104 359.599 334.042C359.576 333.979 359.536 333.916 359.479 333.854C359.428 333.785 359.362 333.722 359.282 333.665C358.655 333.227 357.866 333.007 356.914 333.007C356.287 333.007 355.706 333.124 355.17 333.358C354.64 333.591 354.193 333.908 353.828 334.307C353.469 334.706 353.187 335.173 352.982 335.709C352.782 336.239 352.682 336.8 352.682 337.393C352.682 338.202 352.848 338.937 353.178 339.599C353.515 340.26 354.005 340.79 354.649 341.189C355.293 341.588 356.034 341.787 356.871 341.787ZM316.374 370.693C316.636 370.693 316.867 370.61 317.067 370.445C317.266 370.28 317.366 370.052 317.366 369.761V368.12H318.46C318.694 368.12 318.873 368.049 318.999 367.906C319.13 367.758 319.195 367.584 319.195 367.385C319.195 367.179 319.13 367.003 318.999 366.855C318.873 366.706 318.694 366.632 318.46 366.632H317.374V359.836C317.374 359.351 317.235 358.992 316.955 358.758C316.682 358.519 316.334 358.399 315.912 358.399C315.553 358.399 315.234 358.482 314.955 358.647C314.676 358.807 314.422 359.069 314.194 359.434L309.757 366.572C309.729 366.618 309.703 366.666 309.68 366.718C309.663 366.769 309.649 366.823 309.637 366.88C309.632 366.937 309.629 366.994 309.629 367.051C309.629 367.325 309.717 367.573 309.894 367.795C310.076 368.012 310.31 368.12 310.595 368.12H315.357V369.761C315.357 370.052 315.459 370.28 315.665 370.445C315.87 370.61 316.106 370.693 316.374 370.693ZM311.664 366.632L315.357 360.52V366.632H311.664ZM324.581 369.163C324.296 369.163 324.037 369.114 323.803 369.017C323.57 368.915 323.373 368.781 323.213 368.616C323.054 368.445 322.914 368.234 322.795 367.983C322.675 367.732 322.578 367.476 322.504 367.214C322.435 366.951 322.381 366.655 322.341 366.325C322.302 365.988 322.273 365.675 322.256 365.384C322.245 365.093 322.239 364.777 322.239 364.435C322.239 364.087 322.245 363.768 322.256 363.478C322.273 363.187 322.302 362.879 322.341 362.554C322.381 362.224 322.435 361.93 322.504 361.674C322.578 361.417 322.675 361.167 322.795 360.921C322.914 360.676 323.054 360.474 323.213 360.314C323.373 360.149 323.57 360.018 323.803 359.921C324.037 359.824 324.296 359.776 324.581 359.776C324.918 359.776 325.214 359.839 325.47 359.964C325.733 360.089 325.946 360.269 326.112 360.503C326.277 360.736 326.414 360.993 326.522 361.272C326.636 361.551 326.721 361.879 326.778 362.255C326.835 362.631 326.872 362.987 326.89 363.324C326.912 363.654 326.924 364.025 326.924 364.435C326.924 364.777 326.915 365.093 326.898 365.384C326.887 365.669 326.861 365.98 326.821 366.316C326.781 366.647 326.724 366.943 326.65 367.205C326.582 367.467 326.488 367.727 326.368 367.983C326.248 368.234 326.109 368.442 325.949 368.607C325.79 368.772 325.593 368.906 325.359 369.009C325.126 369.112 324.866 369.163 324.581 369.163ZM324.581 370.856C325.254 370.856 325.849 370.736 326.368 370.496C326.892 370.257 327.32 369.938 327.65 369.539C327.987 369.14 328.26 368.661 328.471 368.103C328.688 367.538 328.839 366.96 328.924 366.367C329.01 365.769 329.053 365.125 329.053 364.435C329.053 363.74 329.01 363.096 328.924 362.503C328.839 361.905 328.688 361.329 328.471 360.776C328.255 360.223 327.981 359.753 327.65 359.365C327.32 358.978 326.892 358.667 326.368 358.434C325.849 358.2 325.254 358.083 324.581 358.083C323.909 358.083 323.31 358.2 322.786 358.434C322.267 358.667 321.84 358.978 321.504 359.365C321.173 359.753 320.899 360.223 320.683 360.776C320.466 361.329 320.315 361.905 320.23 362.503C320.144 363.096 320.102 363.74 320.102 364.435C320.102 365.125 320.144 365.769 320.23 366.367C320.315 366.96 320.466 367.538 320.683 368.103C320.899 368.661 321.173 369.14 321.504 369.539C321.834 369.938 322.262 370.257 322.786 370.496C323.31 370.736 323.909 370.856 324.581 370.856ZM332.395 370.693C332.726 370.693 332.997 370.588 333.207 370.377C333.418 370.166 333.524 369.918 333.524 369.633C333.524 369.337 333.415 369.086 333.199 368.881C332.982 368.676 332.714 368.573 332.395 368.573C332.059 368.573 331.785 368.678 331.575 368.889C331.364 369.1 331.258 369.348 331.258 369.633C331.258 369.924 331.366 370.174 331.583 370.385C331.8 370.591 332.07 370.693 332.395 370.693ZM340.209 369.163C339.924 369.163 339.665 369.114 339.431 369.017C339.198 368.915 339.001 368.781 338.841 368.616C338.682 368.445 338.542 368.234 338.422 367.983C338.303 367.732 338.206 367.476 338.132 367.214C338.063 366.951 338.009 366.655 337.969 366.325C337.929 365.988 337.901 365.675 337.884 365.384C337.872 365.093 337.867 364.777 337.867 364.435C337.867 364.087 337.872 363.768 337.884 363.478C337.901 363.187 337.929 362.879 337.969 362.554C338.009 362.224 338.063 361.93 338.132 361.674C338.206 361.417 338.303 361.167 338.422 360.921C338.542 360.676 338.682 360.474 338.841 360.314C339.001 360.149 339.198 360.018 339.431 359.921C339.665 359.824 339.924 359.776 340.209 359.776C340.545 359.776 340.842 359.839 341.098 359.964C341.36 360.089 341.574 360.269 341.739 360.503C341.905 360.736 342.042 360.993 342.15 361.272C342.264 361.551 342.349 361.879 342.406 362.255C342.463 362.631 342.5 362.987 342.517 363.324C342.54 363.654 342.552 364.025 342.552 364.435C342.552 364.777 342.543 365.093 342.526 365.384C342.515 365.669 342.489 365.98 342.449 366.316C342.409 366.647 342.352 366.943 342.278 367.205C342.21 367.467 342.116 367.727 341.996 367.983C341.876 368.234 341.737 368.442 341.577 368.607C341.417 368.772 341.221 368.906 340.987 369.009C340.753 369.112 340.494 369.163 340.209 369.163ZM340.209 370.856C340.882 370.856 341.477 370.736 341.996 370.496C342.52 370.257 342.948 369.938 343.278 369.539C343.615 369.14 343.888 368.661 344.099 368.103C344.316 367.538 344.467 366.96 344.552 366.367C344.638 365.769 344.68 365.125 344.68 364.435C344.68 363.74 344.638 363.096 344.552 362.503C344.467 361.905 344.316 361.329 344.099 360.776C343.882 360.223 343.609 359.753 343.278 359.365C342.948 358.978 342.52 358.667 341.996 358.434C341.477 358.2 340.882 358.083 340.209 358.083C339.537 358.083 338.938 358.2 338.414 358.434C337.895 358.667 337.468 358.978 337.131 359.365C336.801 359.753 336.527 360.223 336.311 360.776C336.094 361.329 335.943 361.905 335.858 362.503C335.772 363.096 335.729 363.74 335.729 364.435C335.729 365.125 335.772 365.769 335.858 366.367C335.943 366.96 336.094 367.538 336.311 368.103C336.527 368.661 336.801 369.14 337.131 369.539C337.462 369.938 337.889 370.257 338.414 370.496C338.938 370.736 339.537 370.856 340.209 370.856ZM350.759 371.24C350.953 371.24 351.138 371.086 351.315 370.779L357.769 359.271C357.883 359.043 357.94 358.875 357.94 358.767C357.94 358.625 357.886 358.499 357.778 358.391C357.675 358.283 357.555 358.228 357.419 358.228C357.202 358.228 357.028 358.345 356.897 358.579L350.348 370.283C350.234 370.488 350.177 370.63 350.177 370.71C350.177 370.858 350.234 370.984 350.348 371.086C350.468 371.189 350.605 371.24 350.759 371.24ZM350.041 364.273C349.522 364.273 349.143 364.062 348.904 363.64C348.664 363.213 348.545 362.643 348.545 361.93C348.545 361.224 348.664 360.659 348.904 360.238C349.149 359.81 349.528 359.596 350.041 359.596C350.559 359.596 350.938 359.81 351.178 360.238C351.423 360.659 351.545 361.224 351.545 361.93C351.545 362.637 351.423 363.204 351.178 363.632C350.938 364.059 350.559 364.273 350.041 364.273ZM350.041 365.376C350.947 365.376 351.674 365.051 352.221 364.401C352.774 363.751 353.05 362.928 353.05 361.93C353.05 361.594 353.016 361.266 352.947 360.947C352.885 360.628 352.776 360.317 352.623 360.015C352.469 359.713 352.278 359.451 352.05 359.229C351.822 359.001 351.534 358.821 351.186 358.69C350.844 358.553 350.462 358.485 350.041 358.485C349.129 358.485 348.399 358.813 347.852 359.468C347.311 360.118 347.04 360.939 347.04 361.93C347.04 362.973 347.305 363.808 347.835 364.435C348.371 365.062 349.106 365.376 350.041 365.376ZM358.564 369.83C357.567 369.83 357.068 369.052 357.068 367.496C357.068 366.789 357.188 366.225 357.427 365.803C357.667 365.376 358.046 365.162 358.564 365.162C358.918 365.162 359.208 365.27 359.436 365.487C359.67 365.703 359.832 365.98 359.924 366.316C360.015 366.652 360.06 367.045 360.06 367.496C360.06 368.208 359.938 368.775 359.693 369.197C359.453 369.619 359.077 369.83 358.564 369.83ZM358.564 370.95C359.482 370.95 360.211 370.622 360.753 369.966C361.294 369.311 361.565 368.487 361.565 367.496C361.565 367.159 361.531 366.835 361.462 366.521C361.4 366.202 361.291 365.891 361.138 365.589C360.984 365.287 360.793 365.025 360.565 364.803C360.342 364.58 360.057 364.401 359.71 364.264C359.368 364.127 358.986 364.059 358.564 364.059C357.652 364.059 356.923 364.384 356.376 365.034C355.834 365.683 355.563 366.504 355.563 367.496C355.563 368.533 355.831 369.368 356.367 370.001C356.903 370.633 357.635 370.95 358.564 370.95Z" fill="#6E7D92"/>
<path d="M143.869 243.275H150.289C150.54 243.275 150.737 243.193 150.879 243.027C151.022 242.856 151.093 242.663 151.093 242.446C151.093 242.218 151.022 242.019 150.879 241.848C150.737 241.677 150.54 241.591 150.289 241.591H144.946V237.812H149.776C150.027 237.812 150.224 237.73 150.366 237.565C150.514 237.394 150.588 237.2 150.588 236.983C150.588 236.761 150.517 236.57 150.375 236.41C150.238 236.245 150.038 236.162 149.776 236.162H144.946V232.692H150.092C150.343 232.692 150.54 232.606 150.682 232.435C150.825 232.264 150.896 232.067 150.896 231.845C150.896 231.623 150.825 231.426 150.682 231.255C150.54 231.084 150.343 230.999 150.092 230.999H143.835C143.555 230.999 143.316 231.104 143.116 231.315C142.923 231.52 142.826 231.76 142.826 232.033V242.249C142.826 242.523 142.931 242.762 143.142 242.968C143.353 243.173 143.595 243.275 143.869 243.275ZM154.196 243.275C154.453 243.275 154.672 243.196 154.854 243.036C155.042 242.876 155.137 242.657 155.137 242.378V238.488C155.142 237.707 155.364 237.077 155.803 236.598C156.242 236.12 156.767 235.88 157.376 235.88C157.901 235.88 158.325 236.051 158.65 236.393C158.975 236.735 159.138 237.228 159.138 237.872V242.378C159.138 242.663 159.229 242.885 159.411 243.045C159.593 243.198 159.81 243.275 160.061 243.275C160.317 243.275 160.54 243.198 160.728 243.045C160.916 242.885 161.01 242.663 161.01 242.378V237.889C161.01 237.331 160.927 236.838 160.762 236.41C160.597 235.983 160.369 235.641 160.078 235.385C159.787 235.128 159.457 234.937 159.086 234.812C158.721 234.681 158.328 234.615 157.906 234.615C157.257 234.615 156.692 234.74 156.214 234.991C155.735 235.236 155.376 235.595 155.137 236.068V235.59C155.137 235.322 155.045 235.114 154.863 234.966C154.681 234.812 154.461 234.735 154.205 234.735C153.948 234.735 153.726 234.815 153.538 234.974C153.35 235.128 153.256 235.342 153.256 235.615V242.378C153.256 242.663 153.347 242.885 153.529 243.045C153.717 243.198 153.94 243.275 154.196 243.275ZM166.327 243.361C166.356 243.361 166.39 243.361 166.43 243.361C166.476 243.361 166.518 243.361 166.558 243.361C166.598 243.361 166.632 243.361 166.661 243.361C166.786 243.361 166.892 243.358 166.977 243.352C167.063 243.352 167.159 243.349 167.268 243.344C167.376 243.338 167.47 243.327 167.55 243.31C167.63 243.292 167.709 243.273 167.789 243.25C167.875 243.227 167.946 243.196 168.003 243.156C168.06 243.116 168.111 243.07 168.157 243.019C168.202 242.968 168.237 242.908 168.259 242.839C168.282 242.765 168.294 242.683 168.294 242.591C168.294 242.466 168.265 242.349 168.208 242.241C168.157 242.133 168.074 242.044 167.96 241.976C167.852 241.902 167.721 241.865 167.567 241.865C167.544 241.865 167.524 241.865 167.507 241.865L166.883 241.908H166.806C166.572 241.908 166.384 241.845 166.242 241.719C166.099 241.588 166 241.412 165.943 241.189C165.886 240.961 165.857 240.676 165.857 240.334V236.034H167.353C167.576 236.034 167.741 235.98 167.849 235.872C167.957 235.758 168.012 235.612 168.012 235.436C168.012 235.259 167.955 235.114 167.841 235C167.732 234.88 167.57 234.82 167.353 234.82H165.857V232.392C165.857 232.153 165.792 231.976 165.661 231.862C165.535 231.743 165.37 231.683 165.165 231.683C164.914 231.683 164.703 231.76 164.532 231.914C164.367 232.062 164.27 232.258 164.241 232.503L163.985 234.82H163.019C162.802 234.82 162.637 234.877 162.523 234.991C162.409 235.105 162.352 235.248 162.352 235.419C162.352 235.59 162.412 235.735 162.532 235.855C162.651 235.974 162.819 236.034 163.036 236.034H163.985V240.779C163.985 241.594 164.193 242.23 164.609 242.685C165.031 243.136 165.604 243.361 166.327 243.361ZM173.722 243.395C174.965 243.395 176.014 243.019 176.868 242.267C177.057 242.113 177.151 241.927 177.151 241.711C177.151 241.54 177.091 241.389 176.971 241.258C176.857 241.127 176.72 241.061 176.561 241.061C176.452 241.061 176.344 241.098 176.236 241.172C175.364 241.788 174.572 242.096 173.859 242.096C173.09 242.09 172.474 241.873 172.013 241.446C171.557 241.013 171.309 240.343 171.269 239.437H176.877C177.071 239.437 177.21 239.371 177.296 239.24C177.387 239.103 177.433 238.932 177.433 238.727C177.421 238.163 177.336 237.641 177.176 237.163C177.017 236.678 176.783 236.245 176.475 235.863C176.173 235.476 175.768 235.171 175.261 234.949C174.76 234.726 174.181 234.615 173.526 234.615C172.882 234.615 172.295 234.732 171.765 234.966C171.235 235.199 170.799 235.516 170.457 235.915C170.115 236.314 169.85 236.772 169.662 237.291C169.479 237.804 169.388 238.348 169.388 238.924C169.388 240.303 169.784 241.392 170.576 242.19C171.374 242.982 172.423 243.384 173.722 243.395ZM171.286 238.308C171.314 238.001 171.38 237.707 171.483 237.428C171.591 237.148 171.736 236.892 171.919 236.658C172.101 236.425 172.337 236.237 172.628 236.094C172.919 235.952 173.244 235.88 173.603 235.88C174.298 235.88 174.828 236.111 175.193 236.573C175.558 237.035 175.766 237.613 175.817 238.308H171.286ZM180.186 243.275C180.442 243.275 180.664 243.198 180.852 243.045C181.046 242.885 181.143 242.666 181.143 242.386V238.402C181.143 237.992 181.206 237.644 181.331 237.359C181.457 237.074 181.636 236.858 181.87 236.71C182.103 236.556 182.357 236.447 182.631 236.385C182.91 236.322 183.229 236.291 183.588 236.291C183.776 236.291 183.924 236.217 184.033 236.068C184.141 235.92 184.195 235.744 184.195 235.538C184.195 235.436 184.181 235.336 184.152 235.239C184.124 235.142 184.081 235.057 184.024 234.983C183.967 234.903 183.893 234.84 183.802 234.795C183.711 234.749 183.608 234.726 183.494 234.726C182.941 234.726 182.443 234.906 181.998 235.265C181.559 235.624 181.266 236.068 181.117 236.598L181.143 235.538C181.149 235.288 181.06 235.091 180.878 234.949C180.696 234.806 180.476 234.735 180.22 234.735C180.054 234.735 179.901 234.766 179.758 234.829C179.616 234.886 179.496 234.983 179.399 235.119C179.308 235.251 179.262 235.41 179.262 235.598V242.386C179.262 242.671 179.353 242.891 179.536 243.045C179.718 243.198 179.935 243.275 180.186 243.275ZM186.632 246.533C186.888 246.533 187.108 246.456 187.29 246.302C187.478 246.148 187.572 245.934 187.572 245.661V241.976C188.136 242.922 189.045 243.395 190.299 243.395C191.473 243.395 192.402 242.996 193.086 242.198C193.77 241.4 194.112 240.354 194.112 239.061C194.112 238.468 194.029 237.907 193.864 237.376C193.705 236.841 193.474 236.368 193.172 235.957C192.87 235.547 192.482 235.222 192.009 234.983C191.536 234.738 191.006 234.615 190.419 234.615C189.08 234.615 188.131 235.114 187.572 236.111V235.632C187.572 235.33 187.487 235.105 187.316 234.957C187.15 234.809 186.925 234.735 186.64 234.735C186.389 234.735 186.167 234.817 185.973 234.983C185.785 235.142 185.691 235.362 185.691 235.641V245.661C185.691 245.934 185.782 246.148 185.965 246.302C186.153 246.456 186.375 246.533 186.632 246.533ZM189.957 242.121C189.541 242.121 189.174 242.036 188.854 241.865C188.541 241.688 188.293 241.452 188.111 241.155C187.934 240.859 187.8 240.534 187.709 240.181C187.623 239.822 187.581 239.44 187.581 239.035C187.581 238.009 187.763 237.228 188.128 236.693C188.492 236.151 189.114 235.88 189.991 235.88C190.328 235.88 190.63 235.949 190.898 236.086C191.166 236.222 191.379 236.399 191.539 236.616C191.704 236.826 191.841 237.074 191.949 237.359C192.057 237.644 192.132 237.926 192.171 238.206C192.217 238.485 192.24 238.767 192.24 239.052C192.24 239.434 192.2 239.796 192.12 240.138C192.046 240.48 191.924 240.805 191.753 241.112C191.587 241.42 191.351 241.665 191.043 241.848C190.735 242.03 190.373 242.121 189.957 242.121ZM196.959 243.275C197.215 243.275 197.438 243.198 197.626 243.045C197.82 242.885 197.917 242.666 197.917 242.386V238.402C197.917 237.992 197.979 237.644 198.105 237.359C198.23 237.074 198.41 236.858 198.643 236.71C198.877 236.556 199.13 236.447 199.404 236.385C199.683 236.322 200.003 236.291 200.362 236.291C200.55 236.291 200.698 236.217 200.806 236.068C200.914 235.92 200.969 235.744 200.969 235.538C200.969 235.436 200.954 235.336 200.926 235.239C200.897 235.142 200.855 235.057 200.798 234.983C200.741 234.903 200.666 234.84 200.575 234.795C200.484 234.749 200.382 234.726 200.268 234.726C199.715 234.726 199.216 234.906 198.771 235.265C198.333 235.624 198.039 236.068 197.891 236.598L197.917 235.538C197.922 235.288 197.834 235.091 197.651 234.949C197.469 234.806 197.25 234.735 196.993 234.735C196.828 234.735 196.674 234.766 196.532 234.829C196.389 234.886 196.269 234.983 196.172 235.119C196.081 235.251 196.036 235.41 196.036 235.598V242.386C196.036 242.671 196.127 242.891 196.309 243.045C196.492 243.198 196.708 243.275 196.959 243.275ZM203.431 243.275C203.687 243.275 203.909 243.193 204.098 243.027C204.291 242.856 204.388 242.629 204.388 242.344V235.667C204.388 235.376 204.294 235.148 204.106 234.983C203.924 234.817 203.707 234.735 203.456 234.735C203.2 234.735 202.978 234.817 202.79 234.983C202.601 235.148 202.507 235.376 202.507 235.667V242.344C202.507 242.64 202.596 242.871 202.772 243.036C202.955 243.196 203.174 243.275 203.431 243.275ZM203.439 232.948C203.781 232.948 204.055 232.851 204.26 232.657C204.471 232.458 204.576 232.196 204.576 231.871C204.576 231.552 204.474 231.292 204.269 231.093C204.063 230.893 203.79 230.794 203.448 230.794C203.106 230.794 202.829 230.893 202.619 231.093C202.413 231.292 202.311 231.552 202.311 231.871C202.311 232.196 202.413 232.458 202.619 232.657C202.829 232.851 203.103 232.948 203.439 232.948ZM206.671 242.463C207.343 242.942 208.164 243.244 209.133 243.369C209.407 243.404 209.677 243.421 209.945 243.421C210.435 243.421 210.886 243.367 211.296 243.258C211.712 243.15 212.074 242.99 212.382 242.78C212.689 242.563 212.929 242.284 213.1 241.942C213.277 241.594 213.365 241.201 213.365 240.762C213.365 240.107 213.165 239.582 212.766 239.189C212.367 238.796 211.721 238.488 210.826 238.266L209.441 237.924C208.905 237.793 208.549 237.661 208.372 237.53C208.195 237.394 208.107 237.171 208.107 236.864C208.107 236.618 208.193 236.416 208.364 236.257C208.535 236.097 208.748 235.986 209.005 235.923C209.261 235.855 209.555 235.821 209.885 235.821C210.045 235.821 210.207 235.832 210.373 235.855C210.538 235.872 210.678 235.892 210.792 235.915C210.911 235.937 211.051 235.972 211.21 236.017C211.37 236.063 211.481 236.097 211.544 236.12C211.607 236.143 211.709 236.182 211.852 236.239C211.994 236.291 212.068 236.316 212.074 236.316C212.131 236.333 212.182 236.348 212.228 236.359C212.279 236.371 212.33 236.376 212.382 236.376C212.496 236.376 212.595 236.351 212.681 236.299C212.772 236.242 212.841 236.171 212.886 236.086C212.932 236 212.954 235.909 212.954 235.812C212.954 235.544 212.818 235.345 212.544 235.214C211.701 234.786 210.78 234.572 209.783 234.572C208.523 234.572 207.591 234.86 206.987 235.436C206.577 235.84 206.372 236.345 206.372 236.949C206.372 237.177 206.392 237.385 206.431 237.573C206.477 237.755 206.534 237.918 206.602 238.06C206.677 238.197 206.776 238.325 206.902 238.445C207.033 238.559 207.164 238.656 207.295 238.736C207.426 238.816 207.594 238.895 207.799 238.975C208.01 239.055 208.207 239.123 208.389 239.18C208.572 239.232 208.802 239.294 209.082 239.368L210.492 239.727C210.937 239.841 211.262 239.993 211.467 240.181C211.672 240.363 211.775 240.597 211.775 240.882C211.775 241.178 211.681 241.429 211.493 241.634C211.305 241.833 211.068 241.976 210.783 242.061C210.498 242.141 210.176 242.181 209.817 242.181C209.486 242.181 209.159 242.141 208.834 242.061C208.509 241.976 208.25 241.888 208.056 241.796C207.862 241.705 207.651 241.591 207.423 241.454C207.281 241.375 207.141 241.335 207.004 241.335C206.97 241.335 206.936 241.338 206.902 241.343C206.867 241.349 206.833 241.358 206.799 241.369C206.771 241.38 206.742 241.395 206.714 241.412C206.685 241.423 206.657 241.44 206.628 241.463C206.605 241.48 206.583 241.5 206.56 241.523C206.537 241.546 206.517 241.571 206.5 241.6C206.483 241.623 206.466 241.648 206.449 241.677C206.437 241.705 206.426 241.734 206.414 241.762C206.409 241.791 206.403 241.822 206.397 241.856C206.392 241.885 206.389 241.916 206.389 241.95C206.389 242.155 206.483 242.326 206.671 242.463ZM219.118 243.395C220.361 243.395 221.41 243.019 222.265 242.267C222.453 242.113 222.547 241.927 222.547 241.711C222.547 241.54 222.487 241.389 222.367 241.258C222.253 241.127 222.116 241.061 221.957 241.061C221.848 241.061 221.74 241.098 221.632 241.172C220.76 241.788 219.968 242.096 219.255 242.096C218.486 242.09 217.87 241.873 217.409 241.446C216.953 241.013 216.705 240.343 216.665 239.437H222.273C222.467 239.437 222.606 239.371 222.692 239.24C222.783 239.103 222.829 238.932 222.829 238.727C222.817 238.163 222.732 237.641 222.572 237.163C222.413 236.678 222.179 236.245 221.871 235.863C221.569 235.476 221.165 235.171 220.657 234.949C220.156 234.726 219.577 234.615 218.922 234.615C218.278 234.615 217.691 234.732 217.161 234.966C216.631 235.199 216.195 235.516 215.853 235.915C215.511 236.314 215.246 236.772 215.058 237.291C214.875 237.804 214.784 238.348 214.784 238.924C214.784 240.303 215.18 241.392 215.972 242.19C216.77 242.982 217.819 243.384 219.118 243.395ZM216.682 238.308C216.71 238.001 216.776 237.707 216.879 237.428C216.987 237.148 217.132 236.892 217.315 236.658C217.497 236.425 217.733 236.237 218.024 236.094C218.315 235.952 218.64 235.88 218.999 235.88C219.694 235.88 220.224 236.111 220.589 236.573C220.954 237.035 221.162 237.613 221.213 238.308H216.682ZM162.626 272.301C162.888 272.301 163.119 272.218 163.318 272.053C163.518 271.888 163.617 271.66 163.617 271.369V269.728H164.712C164.945 269.728 165.125 269.656 165.25 269.514C165.381 269.366 165.447 269.192 165.447 268.993C165.447 268.787 165.381 268.611 165.25 268.462C165.125 268.314 164.945 268.24 164.712 268.24H163.626V261.444C163.626 260.959 163.486 260.6 163.207 260.366C162.933 260.127 162.586 260.007 162.164 260.007C161.805 260.007 161.486 260.09 161.206 260.255C160.927 260.415 160.674 260.677 160.446 261.042L156.009 268.18C155.98 268.226 155.954 268.274 155.932 268.326C155.914 268.377 155.9 268.431 155.889 268.488C155.883 268.545 155.88 268.602 155.88 268.659C155.88 268.933 155.969 269.181 156.145 269.403C156.328 269.619 156.561 269.728 156.846 269.728H161.608V271.369C161.608 271.66 161.711 271.888 161.916 272.053C162.121 272.218 162.358 272.301 162.626 272.301ZM157.915 268.24L161.608 262.128V268.24H157.915ZM170.833 270.771C170.548 270.771 170.288 270.722 170.055 270.625C169.821 270.523 169.624 270.389 169.465 270.224C169.305 270.053 169.166 269.842 169.046 269.591C168.926 269.34 168.829 269.084 168.755 268.822C168.687 268.559 168.633 268.263 168.593 267.932C168.553 267.596 168.524 267.283 168.507 266.992C168.496 266.701 168.49 266.385 168.49 266.043C168.49 265.695 168.496 265.376 168.507 265.086C168.524 264.795 168.553 264.487 168.593 264.162C168.633 263.832 168.687 263.538 168.755 263.282C168.829 263.025 168.926 262.774 169.046 262.529C169.166 262.284 169.305 262.082 169.465 261.922C169.624 261.757 169.821 261.626 170.055 261.529C170.288 261.432 170.548 261.384 170.833 261.384C171.169 261.384 171.465 261.446 171.722 261.572C171.984 261.697 172.198 261.877 172.363 262.11C172.528 262.344 172.665 262.601 172.773 262.88C172.887 263.159 172.973 263.487 173.03 263.863C173.087 264.239 173.124 264.595 173.141 264.932C173.164 265.262 173.175 265.633 173.175 266.043C173.175 266.385 173.167 266.701 173.15 266.992C173.138 267.277 173.113 267.588 173.073 267.924C173.033 268.254 172.976 268.551 172.902 268.813C172.833 269.075 172.739 269.334 172.62 269.591C172.5 269.842 172.36 270.05 172.201 270.215C172.041 270.38 171.844 270.514 171.611 270.617C171.377 270.719 171.118 270.771 170.833 270.771ZM170.833 272.463C171.505 272.463 172.101 272.344 172.62 272.104C173.144 271.865 173.571 271.546 173.902 271.147C174.238 270.748 174.512 270.269 174.723 269.711C174.939 269.146 175.09 268.568 175.176 267.975C175.261 267.377 175.304 266.733 175.304 266.043C175.304 265.348 175.261 264.704 175.176 264.111C175.09 263.512 174.939 262.937 174.723 262.384C174.506 261.831 174.232 261.361 173.902 260.973C173.571 260.586 173.144 260.275 172.62 260.042C172.101 259.808 171.505 259.691 170.833 259.691C170.16 259.691 169.562 259.808 169.037 260.042C168.519 260.275 168.091 260.586 167.755 260.973C167.425 261.361 167.151 261.831 166.934 262.384C166.718 262.937 166.567 263.512 166.481 264.111C166.396 264.704 166.353 265.348 166.353 266.043C166.353 266.733 166.396 267.377 166.481 267.975C166.567 268.568 166.718 269.146 166.934 269.711C167.151 270.269 167.425 270.748 167.755 271.147C168.086 271.546 168.513 271.865 169.037 272.104C169.562 272.344 170.16 272.463 170.833 272.463ZM178.647 272.301C178.977 272.301 179.248 272.196 179.459 271.985C179.67 271.774 179.775 271.526 179.775 271.241C179.775 270.945 179.667 270.694 179.45 270.489C179.234 270.283 178.966 270.181 178.647 270.181C178.31 270.181 178.037 270.286 177.826 270.497C177.615 270.708 177.51 270.956 177.51 271.241C177.51 271.532 177.618 271.782 177.835 271.993C178.051 272.198 178.322 272.301 178.647 272.301ZM186.461 270.771C186.176 270.771 185.916 270.722 185.683 270.625C185.449 270.523 185.252 270.389 185.093 270.224C184.933 270.053 184.794 269.842 184.674 269.591C184.554 269.34 184.457 269.084 184.383 268.822C184.315 268.559 184.261 268.263 184.221 267.932C184.181 267.596 184.152 267.283 184.135 266.992C184.124 266.701 184.118 266.385 184.118 266.043C184.118 265.695 184.124 265.376 184.135 265.086C184.152 264.795 184.181 264.487 184.221 264.162C184.261 263.832 184.315 263.538 184.383 263.282C184.457 263.025 184.554 262.774 184.674 262.529C184.794 262.284 184.933 262.082 185.093 261.922C185.252 261.757 185.449 261.626 185.683 261.529C185.916 261.432 186.176 261.384 186.461 261.384C186.797 261.384 187.093 261.446 187.35 261.572C187.612 261.697 187.826 261.877 187.991 262.11C188.156 262.344 188.293 262.601 188.401 262.88C188.515 263.159 188.601 263.487 188.658 263.863C188.715 264.239 188.752 264.595 188.769 264.932C188.792 265.262 188.803 265.633 188.803 266.043C188.803 266.385 188.795 266.701 188.777 266.992C188.766 267.277 188.74 267.588 188.701 267.924C188.661 268.254 188.604 268.551 188.53 268.813C188.461 269.075 188.367 269.334 188.247 269.591C188.128 269.842 187.988 270.05 187.829 270.215C187.669 270.38 187.472 270.514 187.239 270.617C187.005 270.719 186.746 270.771 186.461 270.771ZM186.461 272.463C187.133 272.463 187.729 272.344 188.247 272.104C188.772 271.865 189.199 271.546 189.53 271.147C189.866 270.748 190.14 270.269 190.351 269.711C190.567 269.146 190.718 268.568 190.804 267.975C190.889 267.377 190.932 266.733 190.932 266.043C190.932 265.348 190.889 264.704 190.804 264.111C190.718 263.512 190.567 262.937 190.351 262.384C190.134 261.831 189.86 261.361 189.53 260.973C189.199 260.586 188.772 260.275 188.247 260.042C187.729 259.808 187.133 259.691 186.461 259.691C185.788 259.691 185.19 259.808 184.665 260.042C184.147 260.275 183.719 260.586 183.383 260.973C183.052 261.361 182.779 261.831 182.562 262.384C182.346 262.937 182.195 263.512 182.109 264.111C182.024 264.704 181.981 265.348 181.981 266.043C181.981 266.733 182.024 267.377 182.109 267.975C182.195 268.568 182.346 269.146 182.562 269.711C182.779 270.269 183.052 270.748 183.383 271.147C183.714 271.546 184.141 271.865 184.665 272.104C185.19 272.344 185.788 272.463 186.461 272.463ZM197.01 272.848C197.204 272.848 197.389 272.694 197.566 272.387L204.021 260.879C204.135 260.651 204.192 260.483 204.192 260.375C204.192 260.232 204.137 260.107 204.029 259.999C203.927 259.891 203.807 259.836 203.67 259.836C203.454 259.836 203.28 259.953 203.149 260.187L196.6 271.891C196.486 272.096 196.429 272.238 196.429 272.318C196.429 272.466 196.486 272.592 196.6 272.694C196.72 272.797 196.856 272.848 197.01 272.848ZM196.292 265.881C195.774 265.881 195.395 265.67 195.155 265.248C194.916 264.821 194.796 264.251 194.796 263.538C194.796 262.831 194.916 262.267 195.155 261.845C195.4 261.418 195.779 261.204 196.292 261.204C196.811 261.204 197.19 261.418 197.429 261.845C197.674 262.267 197.797 262.831 197.797 263.538C197.797 264.245 197.674 264.812 197.429 265.239C197.19 265.667 196.811 265.881 196.292 265.881ZM196.292 266.983C197.198 266.983 197.925 266.659 198.472 266.009C199.025 265.359 199.301 264.536 199.301 263.538C199.301 263.202 199.267 262.874 199.199 262.555C199.136 262.236 199.028 261.925 198.874 261.623C198.72 261.321 198.529 261.059 198.301 260.837C198.073 260.609 197.785 260.429 197.438 260.298C197.096 260.161 196.714 260.093 196.292 260.093C195.38 260.093 194.651 260.421 194.104 261.076C193.562 261.726 193.291 262.546 193.291 263.538C193.291 264.581 193.556 265.416 194.086 266.043C194.622 266.67 195.357 266.983 196.292 266.983ZM204.816 271.438C203.818 271.438 203.32 270.66 203.32 269.104C203.32 268.397 203.439 267.833 203.679 267.411C203.918 266.983 204.297 266.77 204.816 266.77C205.169 266.77 205.46 266.878 205.688 267.095C205.921 267.311 206.084 267.588 206.175 267.924C206.266 268.26 206.312 268.653 206.312 269.104C206.312 269.816 206.189 270.383 205.944 270.805C205.705 271.227 205.329 271.438 204.816 271.438ZM204.816 272.558C205.733 272.558 206.463 272.23 207.004 271.574C207.546 270.919 207.816 270.095 207.816 269.104C207.816 268.767 207.782 268.443 207.714 268.129C207.651 267.81 207.543 267.499 207.389 267.197C207.235 266.895 207.044 266.633 206.816 266.411C206.594 266.188 206.309 266.009 205.961 265.872C205.619 265.735 205.237 265.667 204.816 265.667C203.904 265.667 203.174 265.992 202.627 266.641C202.086 267.291 201.815 268.112 201.815 269.104C201.815 270.141 202.083 270.976 202.619 271.609C203.154 272.241 203.887 272.558 204.816 272.558Z" fill="#CADCF6"/>
<defs>
<filter id="filter0_d" x="0.177216" y="0.13207" width="552.646" height="552.646" filterUnits="userSpaceOnUse" color-interpolation-filters="sRGB">
<feFlood flood-opacity="0" result="BackgroundImageFix"/>
<feColorMatrix in="SourceAlpha" type="matrix" values="0 0 0 0 0 0 0 0 0 0 0 0 0 0 0 0 0 0 127 0"/>
<feOffset dy="9.95485"/>
<feGaussianBlur stdDeviation="27.9114"/>
<feColorMatrix type="matrix" values="0 0 0 0 0.745098 0 0 0 0 0.815686 0 0 0 0 0.913725 0 0 0 0.3 0"/>
<feBlend mode="normal" in2="BackgroundImageFix" result="effect1_dropShadow"/>
<feBlend mode="normal" in="SourceGraphic" in2="effect1_dropShadow" result="shape"/>
</filter>
<filter id="filter1_d" x="271.7" y="53.0522" width="222.921" height="234.265" filterUnits="userSpaceOnUse" color-interpolation-filters="sRGB">
<feFlood flood-opacity="0" result="BackgroundImageFix"/>
<feColorMatrix in="SourceAlpha" type="matrix" values="0 0 0 0 0 0 0 0 0 0 0 0 0 0 0 0 0 0 127 0"/>
<feOffset dy="4"/>
<feGaussianBlur stdDeviation="6.22178"/>
<feColorMatrix type="matrix" values="0 0 0 0 0.798338 0 0 0 0 0.975296 0 0 0 0 0.945803 0 0 0 1 0"/>
<feBlend mode="normal" in2="BackgroundImageFix" result="effect1_dropShadow"/>
<feBlend mode="normal" in="SourceGraphic" in2="effect1_dropShadow" result="shape"/>
</filter>
<filter id="filter2_d" x="-19.4149" y="28.3846" width="309.009" height="416.327" filterUnits="userSpaceOnUse" color-interpolation-filters="sRGB">
<feFlood flood-opacity="0" result="BackgroundImageFix"/>
<feColorMatrix in="SourceAlpha" type="matrix" values="0 0 0 0 0 0 0 0 0 0 0 0 0 0 0 0 0 0 127 0"/>
<feOffset dy="2.82478"/>
<feGaussianBlur stdDeviation="7.06195"/>
<feColorMatrix type="matrix" values="0 0 0 0 0.686024 0 0 0 0 0.769779 0 0 0 0 0.887796 0 0 0 1 0"/>
<feBlend mode="normal" in2="BackgroundImageFix" result="effect1_dropShadow"/>
<feBlend mode="normal" in="SourceGraphic" in2="effect1_dropShadow" result="shape"/>
</filter>
</defs>
</svg>
