<svg width="92" height="92" viewBox="0 0 92 92" fill="none" xmlns="http://www.w3.org/2000/svg">
<circle cx="46" cy="46" r="46" fill="white"/>
<path d="M20 30.8918C19.5858 30.8918 19.25 31.2276 19.25 31.6418V54.6418C19.25 61.6835 24.9584 67.3918 32 67.3918H70C70.4142 67.3918 70.75 67.0561 70.75 66.6418V31.6418C70.75 31.2276 70.4142 30.8918 70 30.8918H20Z" stroke="#7D93B3" stroke-width="1.5" stroke-miterlimit="10" stroke-linecap="round" stroke-linejoin="round"/>
<path d="M20 38.1418H71" stroke="#7D93B3" stroke-width="1.5" stroke-miterlimit="10"/>
<circle cx="24" cy="34.6418" r="1" fill="#38E0C4"/>
<circle cx="28" cy="34.6418" r="1" fill="#38E0C4"/>
<circle cx="32" cy="34.6418" r="1" fill="#38E0C4"/>
<path d="M28.2368 53.8919L25.8585 55.5451C25.3207 55.9189 25 56.5324 25 57.1873V60.6419H66V56.858C66 56.3949 65.8394 55.9463 65.5455 55.5885L55.9369 43.8911C55.1737 42.962 53.7691 42.9115 52.9412 43.7834L44.5243 52.647C43.8442 53.3631 42.7433 53.4757 41.9324 52.912L36.4771 49.1198C35.7494 48.614 34.7756 48.6474 34.0842 49.2019L28.2368 53.8919Z" fill="url(#paint0_linear)"/>
<defs>
<linearGradient id="paint0_linear" x1="45.5" y1="42.1418" x2="45.4993" y2="60.6183" gradientUnits="userSpaceOnUse">
<stop stop-color="#50E6C5"/>
<stop offset="1" stop-color="#00DDAC" stop-opacity="0"/>
</linearGradient>
</defs>
</svg>
