<svg width="523" height="524" viewBox="0 0 523 524" fill="none" xmlns="http://www.w3.org/2000/svg">
<g filter="url(#filter0_d)">
<circle cx="261.5" cy="252.5" r="208.5" fill="white"/>
</g>
<mask id="mask0" mask-type="alpha" maskUnits="userSpaceOnUse" x="67" y="57" width="388" height="388">
<circle cx="261.014" cy="250.618" r="193.497" fill="#C4C4C4"/>
</mask>
<g mask="url(#mask0)">
<g filter="url(#filter1_d)">
<path d="M269.144 251.45V53.1462C269.144 49.7307 272.151 47.0963 275.537 47.5458L324.326 54.0235C324.924 54.1029 325.505 54.2776 326.048 54.5408L381.515 81.4465C381.979 81.6717 382.411 81.9595 382.797 82.3017L437.471 130.763C438.051 131.277 438.519 131.905 438.846 132.608L466.648 192.402C468.098 195.52 466.449 199.199 463.157 200.192L276.13 256.639C272.65 257.689 269.144 255.085 269.144 251.45Z" fill="#50E6C5"/>
</g>
<path d="M148.815 424.603L263.709 272.985C266.184 269.719 269.624 267.316 273.541 266.114L466.868 206.834L520.185 345.248L259.952 481.543L148.815 424.603Z" fill="#C4D0E1"/>
<g filter="url(#filter2_d)">
<path d="M260.47 259.436V34.869L154.966 25.6837L37.5437 51.1198L-20.291 236.945L144.278 413.763L258.677 264.717C259.84 263.202 260.47 261.346 260.47 259.436Z" fill="#7D93B2"/>
</g>
</g>
<path d="M302.271 159.241H308.401C308.657 159.241 308.857 159.158 308.999 158.993C309.142 158.822 309.213 158.625 309.213 158.403C309.213 158.181 309.139 157.984 308.991 157.813C308.848 157.642 308.652 157.557 308.401 157.557H303.314V148.007C303.314 147.682 303.211 147.431 303.006 147.255C302.801 147.072 302.553 146.981 302.262 146.981C301.972 146.981 301.721 147.072 301.51 147.255C301.299 147.431 301.194 147.682 301.194 148.007V158.181C301.194 158.471 301.299 158.722 301.51 158.933C301.727 159.138 301.98 159.241 302.271 159.241ZM314.342 159.36C315.585 159.36 316.634 158.984 317.489 158.232C317.677 158.078 317.771 157.893 317.771 157.676C317.771 157.505 317.711 157.354 317.591 157.223C317.477 157.092 317.34 157.026 317.181 157.026C317.072 157.026 316.964 157.064 316.856 157.138C315.984 157.753 315.192 158.061 314.479 158.061C313.71 158.055 313.094 157.839 312.633 157.411C312.177 156.978 311.929 156.308 311.889 155.402H317.497C317.691 155.402 317.83 155.337 317.916 155.206C318.007 155.069 318.053 154.898 318.053 154.693C318.041 154.128 317.956 153.607 317.796 153.128C317.637 152.644 317.403 152.21 317.095 151.829C316.793 151.441 316.389 151.136 315.881 150.914C315.38 150.692 314.801 150.58 314.146 150.58C313.502 150.58 312.915 150.697 312.385 150.931C311.855 151.165 311.419 151.481 311.077 151.88C310.735 152.279 310.47 152.738 310.282 153.256C310.099 153.769 310.008 154.314 310.008 154.889C310.008 156.268 310.404 157.357 311.196 158.155C311.994 158.947 313.043 159.349 314.342 159.36ZM311.906 154.274C311.934 153.966 312 153.672 312.103 153.393C312.211 153.114 312.356 152.857 312.539 152.624C312.721 152.39 312.957 152.202 313.248 152.059C313.539 151.917 313.864 151.846 314.223 151.846C314.918 151.846 315.448 152.077 315.813 152.538C316.178 153 316.386 153.578 316.437 154.274H311.906ZM323.054 159.36C324.399 159.36 325.351 158.862 325.909 157.864V158.335C325.909 158.933 326.217 159.232 326.833 159.232C327.089 159.232 327.312 159.152 327.5 158.993C327.688 158.833 327.782 158.614 327.782 158.335V147.845C327.782 147.571 327.691 147.357 327.508 147.204C327.326 147.05 327.106 146.973 326.85 146.973C326.593 146.973 326.371 147.05 326.183 147.204C326.001 147.357 325.909 147.571 325.909 147.845V151.991C325.345 151.051 324.436 150.58 323.182 150.58C322.008 150.58 321.076 150.979 320.387 151.777C319.703 152.575 319.361 153.621 319.361 154.915C319.361 155.508 319.441 156.072 319.6 156.608C319.765 157.138 319.999 157.608 320.301 158.018C320.603 158.429 320.991 158.756 321.464 159.001C321.937 159.241 322.467 159.36 323.054 159.36ZM323.481 158.087C323.145 158.087 322.843 158.021 322.575 157.89C322.307 157.753 322.091 157.579 321.926 157.368C321.766 157.152 321.632 156.901 321.524 156.616C321.415 156.331 321.338 156.052 321.293 155.778C321.253 155.499 321.233 155.214 321.233 154.923C321.233 154.627 321.256 154.339 321.301 154.06C321.347 153.781 321.424 153.504 321.532 153.231C321.646 152.957 321.789 152.721 321.96 152.521C322.131 152.316 322.347 152.153 322.609 152.034C322.877 151.908 323.179 151.846 323.516 151.846C323.937 151.846 324.305 151.934 324.619 152.111C324.938 152.282 325.186 152.518 325.362 152.82C325.545 153.117 325.679 153.444 325.764 153.803C325.855 154.157 325.901 154.536 325.901 154.94C325.901 155.972 325.716 156.756 325.345 157.292C324.98 157.822 324.359 158.087 323.481 158.087ZM333.877 162.977C335.171 162.977 336.2 162.655 336.964 162.011C337.733 161.367 338.118 160.398 338.118 159.104V151.589C338.118 151.31 338.029 151.093 337.853 150.939C337.676 150.78 337.471 150.7 337.237 150.7C337.021 150.7 336.827 150.766 336.656 150.897C336.49 151.022 336.394 151.199 336.365 151.427V152C336.171 151.698 335.969 151.45 335.758 151.256C335.553 151.062 335.271 150.902 334.912 150.777C334.553 150.646 334.131 150.58 333.646 150.58C332.837 150.58 332.13 150.774 331.526 151.162C330.922 151.549 330.463 152.077 330.15 152.743C329.842 153.41 329.688 154.171 329.688 155.026C329.688 156.297 330.05 157.317 330.774 158.087C331.498 158.856 332.472 159.241 333.698 159.241C334.929 159.241 335.804 158.765 336.322 157.813V159.241C336.322 160.022 336.091 160.629 335.63 161.062C335.174 161.495 334.544 161.711 333.74 161.711C333.49 161.711 333.236 161.689 332.98 161.643C332.729 161.603 332.535 161.56 332.398 161.515C332.261 161.475 332.071 161.409 331.825 161.318C331.586 161.227 331.432 161.17 331.364 161.147C331.335 161.136 331.304 161.124 331.27 161.113C331.241 161.107 331.213 161.102 331.184 161.096C331.161 161.096 331.136 161.096 331.107 161.096C330.993 161.096 330.891 161.124 330.8 161.181C330.708 161.244 330.637 161.321 330.586 161.412C330.54 161.509 330.517 161.609 330.517 161.711C330.517 161.82 330.543 161.922 330.594 162.019C330.651 162.122 330.734 162.207 330.842 162.276C331.156 162.469 331.583 162.635 332.125 162.772C332.672 162.908 333.256 162.977 333.877 162.977ZM333.98 158.018C333.296 158.001 332.72 157.739 332.253 157.232C331.791 156.719 331.56 155.966 331.56 154.975C331.56 154.547 331.606 154.151 331.697 153.786C331.794 153.422 331.937 153.091 332.125 152.795C332.313 152.498 332.566 152.267 332.886 152.102C333.21 151.931 333.584 151.846 334.005 151.846C334.427 151.846 334.789 151.925 335.091 152.085C335.399 152.245 335.638 152.473 335.809 152.769C335.986 153.06 336.114 153.387 336.194 153.752C336.274 154.117 336.314 154.53 336.314 154.992C336.308 156.012 336.091 156.77 335.664 157.266C335.237 157.762 334.675 158.012 333.98 158.018ZM344.282 159.36C345.524 159.36 346.573 158.984 347.428 158.232C347.616 158.078 347.71 157.893 347.71 157.676C347.71 157.505 347.65 157.354 347.53 157.223C347.416 157.092 347.279 157.026 347.12 157.026C347.012 157.026 346.903 157.064 346.795 157.138C345.923 157.753 345.131 158.061 344.418 158.061C343.649 158.055 343.033 157.839 342.572 157.411C342.116 156.978 341.868 156.308 341.828 155.402H347.436C347.63 155.402 347.77 155.337 347.855 155.206C347.946 155.069 347.992 154.898 347.992 154.693C347.981 154.128 347.895 153.607 347.735 153.128C347.576 152.644 347.342 152.21 347.034 151.829C346.732 151.441 346.328 151.136 345.82 150.914C345.319 150.692 344.74 150.58 344.085 150.58C343.441 150.58 342.854 150.697 342.324 150.931C341.794 151.165 341.358 151.481 341.016 151.88C340.674 152.279 340.409 152.738 340.221 153.256C340.038 153.769 339.947 154.314 339.947 154.889C339.947 156.268 340.343 157.357 341.135 158.155C341.933 158.947 342.982 159.349 344.282 159.36ZM341.845 154.274C341.874 153.966 341.939 153.672 342.042 153.393C342.15 153.114 342.295 152.857 342.478 152.624C342.66 152.39 342.897 152.202 343.187 152.059C343.478 151.917 343.803 151.846 344.162 151.846C344.857 151.846 345.387 152.077 345.752 152.538C346.117 153 346.325 153.578 346.376 154.274H341.845ZM350.745 159.241C351.001 159.241 351.224 159.164 351.412 159.01C351.605 158.85 351.702 158.631 351.702 158.352V154.368C351.702 153.957 351.765 153.61 351.89 153.325C352.016 153.04 352.195 152.823 352.429 152.675C352.663 152.521 352.916 152.413 353.19 152.35C353.469 152.287 353.788 152.256 354.147 152.256C354.335 152.256 354.484 152.182 354.592 152.034C354.7 151.886 354.754 151.709 354.754 151.504C354.754 151.401 354.74 151.301 354.712 151.205C354.683 151.108 354.64 151.022 354.583 150.948C354.526 150.868 354.452 150.806 354.361 150.76C354.27 150.714 354.167 150.692 354.053 150.692C353.5 150.692 353.002 150.871 352.557 151.23C352.118 151.589 351.825 152.034 351.677 152.564L351.702 151.504C351.708 151.253 351.62 151.056 351.437 150.914C351.255 150.771 351.035 150.7 350.779 150.7C350.614 150.7 350.46 150.731 350.317 150.794C350.175 150.851 350.055 150.948 349.958 151.085C349.867 151.216 349.821 151.375 349.821 151.564V158.352C349.821 158.637 349.913 158.856 350.095 159.01C350.277 159.164 350.494 159.241 350.745 159.241ZM357.216 159.241C357.473 159.241 357.695 159.158 357.883 158.993C358.077 158.822 358.174 158.594 358.174 158.309V151.632C358.174 151.341 358.08 151.113 357.892 150.948C357.709 150.783 357.493 150.7 357.242 150.7C356.986 150.7 356.763 150.783 356.575 150.948C356.387 151.113 356.293 151.341 356.293 151.632V158.309C356.293 158.605 356.382 158.836 356.558 159.001C356.741 159.161 356.96 159.241 357.216 159.241ZM357.225 148.913C357.567 148.913 357.841 148.816 358.046 148.623C358.257 148.423 358.362 148.161 358.362 147.836C358.362 147.517 358.259 147.258 358.054 147.058C357.849 146.859 357.576 146.759 357.234 146.759C356.892 146.759 356.615 146.859 356.404 147.058C356.199 147.258 356.097 147.517 356.097 147.836C356.097 148.161 356.199 148.423 356.404 148.623C356.615 148.816 356.889 148.913 357.225 148.913ZM363.492 159.36C364.136 159.36 364.7 159.235 365.184 158.984C365.674 158.733 366.039 158.372 366.279 157.899V158.394C366.279 158.662 366.37 158.87 366.552 159.018C366.735 159.167 366.951 159.241 367.202 159.241C367.458 159.241 367.681 159.164 367.869 159.01C368.057 158.856 368.151 158.639 368.151 158.36V151.598C368.151 151.313 368.06 151.093 367.877 150.939C367.695 150.78 367.475 150.7 367.219 150.7C366.963 150.7 366.74 150.78 366.552 150.939C366.37 151.099 366.279 151.318 366.279 151.598V155.479C366.267 156.266 366.039 156.898 365.595 157.377C365.15 157.85 364.623 158.087 364.013 158.087C363.489 158.087 363.067 157.918 362.748 157.582C362.434 157.24 362.278 156.744 362.278 156.095V151.598C362.278 151.313 362.184 151.093 361.995 150.939C361.813 150.78 361.596 150.7 361.346 150.7C361.089 150.7 360.867 150.78 360.679 150.939C360.497 151.093 360.405 151.313 360.405 151.598V156.078C360.405 156.636 360.488 157.129 360.653 157.557C360.819 157.984 361.044 158.329 361.329 158.591C361.619 158.847 361.947 159.041 362.312 159.172C362.677 159.298 363.07 159.36 363.492 159.36ZM371.476 159.241C371.733 159.241 371.955 159.164 372.143 159.01C372.337 158.85 372.434 158.628 372.434 158.343V154.402C372.434 153.615 372.636 152.994 373.041 152.538C373.446 152.077 373.987 151.846 374.665 151.846C375.212 151.846 375.637 152.014 375.939 152.35C376.241 152.686 376.392 153.194 376.392 153.872V158.335C376.392 158.619 376.483 158.842 376.666 159.001C376.848 159.161 377.068 159.241 377.324 159.241C377.581 159.241 377.8 159.161 377.982 159.001C378.17 158.842 378.265 158.619 378.265 158.335V154.573C378.265 153.718 378.473 153.051 378.889 152.572C379.31 152.088 379.852 151.846 380.513 151.846C381.066 151.846 381.49 152.011 381.787 152.342C382.089 152.666 382.24 153.157 382.24 153.812V158.343C382.24 158.628 382.331 158.85 382.513 159.01C382.696 159.164 382.915 159.241 383.172 159.241C383.428 159.241 383.65 159.164 383.839 159.01C384.027 158.85 384.121 158.628 384.121 158.343V153.846C384.121 152.752 383.83 151.934 383.249 151.393C382.667 150.851 381.906 150.58 380.966 150.58C380.259 150.58 379.647 150.74 379.128 151.059C378.615 151.378 378.23 151.857 377.974 152.495C377.797 151.925 377.461 151.464 376.965 151.11C376.475 150.757 375.871 150.58 375.153 150.58C373.887 150.58 372.981 151.091 372.434 152.111V151.521C372.434 151.264 372.34 151.065 372.152 150.922C371.964 150.774 371.744 150.7 371.494 150.7C371.237 150.7 371.015 150.78 370.827 150.939C370.639 151.093 370.545 151.307 370.545 151.581V158.343C370.545 158.628 370.636 158.85 370.818 159.01C371.006 159.164 371.226 159.241 371.476 159.241ZM324.473 179.392C324.473 179.01 324.413 178.643 324.294 178.289C324.174 177.936 323.997 177.617 323.764 177.332C323.536 177.041 323.265 176.791 322.951 176.58C322.644 176.363 322.287 176.195 321.883 176.075C321.484 175.956 321.059 175.896 320.609 175.896C319.885 175.896 319.25 175.987 318.702 176.169C318.155 176.352 317.597 176.614 317.027 176.956C316.97 176.99 316.919 177.027 316.873 177.067C316.833 177.101 316.796 177.138 316.762 177.178C316.733 177.218 316.708 177.261 316.685 177.306C316.668 177.352 316.654 177.398 316.642 177.443C316.636 177.483 316.634 177.529 316.634 177.58C316.634 177.796 316.719 177.999 316.89 178.187C317.067 178.369 317.258 178.46 317.463 178.46C317.554 178.46 317.64 178.441 317.719 178.401C317.771 178.372 317.933 178.278 318.207 178.119C318.48 177.959 318.68 177.851 318.805 177.794C318.936 177.737 319.153 177.674 319.455 177.606C319.757 177.537 320.082 177.503 320.429 177.503C321.011 177.503 321.501 177.691 321.9 178.067C322.305 178.443 322.507 178.931 322.507 179.529C322.507 180.23 322.108 180.98 321.31 181.778L316.882 186.232C316.585 186.534 316.437 186.859 316.437 187.206C316.437 187.497 316.542 187.742 316.753 187.942C316.97 188.141 317.258 188.241 317.617 188.241H323.61C323.838 188.241 324.014 188.161 324.14 188.001C324.265 187.842 324.328 187.657 324.328 187.446C324.328 187.235 324.265 187.052 324.14 186.899C324.014 186.745 323.838 186.668 323.61 186.668H318.694L322.438 183.163C323.151 182.524 323.667 181.9 323.986 181.29C324.311 180.675 324.473 180.042 324.473 179.392ZM330.971 186.736C330.686 186.736 330.426 186.688 330.193 186.591C329.959 186.488 329.762 186.354 329.603 186.189C329.443 186.018 329.303 185.807 329.184 185.556C329.064 185.306 328.967 185.049 328.893 184.787C328.825 184.525 328.771 184.228 328.731 183.898C328.691 183.561 328.662 183.248 328.645 182.957C328.634 182.667 328.628 182.35 328.628 182.008C328.628 181.661 328.634 181.342 328.645 181.051C328.662 180.76 328.691 180.452 328.731 180.128C328.771 179.797 328.825 179.503 328.893 179.247C328.967 178.991 329.064 178.74 329.184 178.495C329.303 178.25 329.443 178.047 329.603 177.888C329.762 177.722 329.959 177.591 330.193 177.494C330.426 177.398 330.686 177.349 330.971 177.349C331.307 177.349 331.603 177.412 331.86 177.537C332.122 177.663 332.336 177.842 332.501 178.076C332.666 178.309 332.803 178.566 332.911 178.845C333.025 179.124 333.111 179.452 333.168 179.828C333.225 180.205 333.262 180.561 333.279 180.897C333.302 181.228 333.313 181.598 333.313 182.008C333.313 182.35 333.304 182.667 333.287 182.957C333.276 183.242 333.25 183.553 333.21 183.889C333.171 184.22 333.114 184.516 333.039 184.778C332.971 185.04 332.877 185.3 332.757 185.556C332.638 185.807 332.498 186.015 332.338 186.18C332.179 186.346 331.982 186.48 331.749 186.582C331.515 186.685 331.256 186.736 330.971 186.736ZM330.971 188.429C331.643 188.429 332.239 188.309 332.757 188.07C333.282 187.83 333.709 187.511 334.04 187.112C334.376 186.713 334.65 186.235 334.86 185.676C335.077 185.112 335.228 184.533 335.314 183.94C335.399 183.342 335.442 182.698 335.442 182.008C335.442 181.313 335.399 180.669 335.314 180.076C335.228 179.478 335.077 178.902 334.86 178.349C334.644 177.796 334.37 177.326 334.04 176.939C333.709 176.551 333.282 176.241 332.757 176.007C332.239 175.773 331.643 175.656 330.971 175.656C330.298 175.656 329.7 175.773 329.175 176.007C328.657 176.241 328.229 176.551 327.893 176.939C327.562 177.326 327.289 177.796 327.072 178.349C326.856 178.902 326.705 179.478 326.619 180.076C326.534 180.669 326.491 181.313 326.491 182.008C326.491 182.698 326.534 183.342 326.619 183.94C326.705 184.533 326.856 185.112 327.072 185.676C327.289 186.235 327.562 186.713 327.893 187.112C328.223 187.511 328.651 187.83 329.175 188.07C329.7 188.309 330.298 188.429 330.971 188.429ZM338.784 188.266C339.115 188.266 339.386 188.161 339.597 187.95C339.808 187.739 339.913 187.491 339.913 187.206C339.913 186.91 339.805 186.659 339.588 186.454C339.372 186.249 339.104 186.146 338.784 186.146C338.448 186.146 338.175 186.252 337.964 186.462C337.753 186.673 337.647 186.921 337.647 187.206C337.647 187.497 337.756 187.748 337.972 187.959C338.189 188.164 338.46 188.266 338.784 188.266ZM346.598 186.736C346.313 186.736 346.054 186.688 345.82 186.591C345.587 186.488 345.39 186.354 345.231 186.189C345.071 186.018 344.931 185.807 344.812 185.556C344.692 185.306 344.595 185.049 344.521 184.787C344.453 184.525 344.398 184.228 344.359 183.898C344.319 183.561 344.29 183.248 344.273 182.957C344.262 182.667 344.256 182.35 344.256 182.008C344.256 181.661 344.262 181.342 344.273 181.051C344.29 180.76 344.319 180.452 344.359 180.128C344.398 179.797 344.453 179.503 344.521 179.247C344.595 178.991 344.692 178.74 344.812 178.495C344.931 178.25 345.071 178.047 345.231 177.888C345.39 177.722 345.587 177.591 345.82 177.494C346.054 177.398 346.313 177.349 346.598 177.349C346.935 177.349 347.231 177.412 347.488 177.537C347.75 177.663 347.963 177.842 348.129 178.076C348.294 178.309 348.431 178.566 348.539 178.845C348.653 179.124 348.739 179.452 348.796 179.828C348.853 180.205 348.89 180.561 348.907 180.897C348.929 181.228 348.941 181.598 348.941 182.008C348.941 182.35 348.932 182.667 348.915 182.957C348.904 183.242 348.878 183.553 348.838 183.889C348.798 184.22 348.741 184.516 348.667 184.778C348.599 185.04 348.505 185.3 348.385 185.556C348.265 185.807 348.126 186.015 347.966 186.18C347.807 186.346 347.61 186.48 347.376 186.582C347.143 186.685 346.883 186.736 346.598 186.736ZM346.598 188.429C347.271 188.429 347.867 188.309 348.385 188.07C348.91 187.83 349.337 187.511 349.668 187.112C350.004 186.713 350.277 186.235 350.488 185.676C350.705 185.112 350.856 184.533 350.941 183.94C351.027 183.342 351.07 182.698 351.07 182.008C351.07 181.313 351.027 180.669 350.941 180.076C350.856 179.478 350.705 178.902 350.488 178.349C350.272 177.796 349.998 177.326 349.668 176.939C349.337 176.551 348.91 176.241 348.385 176.007C347.867 175.773 347.271 175.656 346.598 175.656C345.926 175.656 345.327 175.773 344.803 176.007C344.284 176.241 343.857 176.551 343.521 176.939C343.19 177.326 342.917 177.796 342.7 178.349C342.483 178.902 342.332 179.478 342.247 180.076C342.161 180.669 342.119 181.313 342.119 182.008C342.119 182.698 342.161 183.342 342.247 183.94C342.332 184.533 342.483 185.112 342.7 185.676C342.917 186.235 343.19 186.713 343.521 187.112C343.851 187.511 344.279 187.83 344.803 188.07C345.327 188.309 345.926 188.429 346.598 188.429ZM357.148 188.814C357.342 188.814 357.527 188.66 357.704 188.352L364.158 176.845C364.272 176.617 364.329 176.449 364.329 176.34C364.329 176.198 364.275 176.072 364.167 175.964C364.064 175.856 363.945 175.802 363.808 175.802C363.591 175.802 363.417 175.919 363.286 176.152L356.738 187.856C356.624 188.061 356.567 188.204 356.567 188.283C356.567 188.432 356.624 188.557 356.738 188.66C356.857 188.762 356.994 188.814 357.148 188.814ZM356.43 181.846C355.911 181.846 355.532 181.635 355.293 181.213C355.054 180.786 354.934 180.216 354.934 179.503C354.934 178.797 355.054 178.233 355.293 177.811C355.538 177.383 355.917 177.17 356.43 177.17C356.949 177.17 357.328 177.383 357.567 177.811C357.812 178.233 357.935 178.797 357.935 179.503C357.935 180.21 357.812 180.777 357.567 181.205C357.328 181.632 356.949 181.846 356.43 181.846ZM356.43 182.949C357.336 182.949 358.063 182.624 358.61 181.974C359.163 181.324 359.439 180.501 359.439 179.503C359.439 179.167 359.405 178.839 359.337 178.52C359.274 178.201 359.166 177.891 359.012 177.588C358.858 177.286 358.667 177.024 358.439 176.802C358.211 176.574 357.923 176.394 357.576 176.263C357.234 176.127 356.852 176.058 356.43 176.058C355.518 176.058 354.789 176.386 354.241 177.041C353.7 177.691 353.429 178.512 353.429 179.503C353.429 180.546 353.694 181.381 354.224 182.008C354.76 182.635 355.495 182.949 356.43 182.949ZM364.953 187.403C363.956 187.403 363.457 186.625 363.457 185.069C363.457 184.362 363.577 183.798 363.816 183.376C364.056 182.949 364.435 182.735 364.953 182.735C365.307 182.735 365.598 182.843 365.825 183.06C366.059 183.277 366.222 183.553 366.313 183.889C366.404 184.225 366.45 184.619 366.45 185.069C366.45 185.781 366.327 186.349 366.082 186.77C365.843 187.192 365.466 187.403 364.953 187.403ZM364.953 188.523C365.871 188.523 366.601 188.195 367.142 187.54C367.684 186.884 367.954 186.061 367.954 185.069C367.954 184.733 367.92 184.408 367.852 184.094C367.789 183.775 367.681 183.465 367.527 183.163C367.373 182.86 367.182 182.598 366.954 182.376C366.732 182.154 366.447 181.974 366.099 181.837C365.757 181.701 365.375 181.632 364.953 181.632C364.042 181.632 363.312 181.957 362.765 182.607C362.223 183.257 361.953 184.077 361.953 185.069C361.953 186.106 362.221 186.941 362.756 187.574C363.292 188.207 364.024 188.523 364.953 188.523Z" fill="#0C9072"/>
<path d="M299.596 327.676C299.887 327.676 300.134 327.588 300.34 327.411C300.551 327.229 300.656 326.975 300.656 326.65V322.623H303.144C304.62 322.623 305.754 322.341 306.546 321.777C307.339 321.207 307.735 320.281 307.735 318.999C307.735 317.733 307.356 316.816 306.598 316.246C305.845 315.676 304.757 315.391 303.332 315.391H299.613C299.317 315.391 299.063 315.496 298.852 315.707C298.641 315.912 298.536 316.16 298.536 316.451V326.65C298.536 326.975 298.641 327.229 298.852 327.411C299.063 327.588 299.311 327.676 299.596 327.676ZM300.656 321.008V317.075H303.144C304.01 317.075 304.643 317.209 305.042 317.477C305.446 317.739 305.649 318.246 305.649 318.999C305.649 319.762 305.441 320.29 305.025 320.58C304.614 320.865 303.967 321.008 303.084 321.008H300.656ZM312.24 327.787C312.884 327.787 313.448 327.662 313.933 327.411C314.423 327.16 314.788 326.798 315.027 326.325V326.821C315.027 327.089 315.118 327.297 315.301 327.445C315.483 327.593 315.7 327.667 315.95 327.667C316.207 327.667 316.429 327.591 316.617 327.437C316.805 327.283 316.899 327.066 316.899 326.787V320.025C316.899 319.74 316.808 319.52 316.626 319.366C316.443 319.207 316.224 319.127 315.968 319.127C315.711 319.127 315.489 319.207 315.301 319.366C315.118 319.526 315.027 319.745 315.027 320.025V323.906C315.016 324.692 314.788 325.325 314.343 325.804C313.899 326.277 313.371 326.513 312.762 326.513C312.237 326.513 311.815 326.345 311.496 326.009C311.183 325.667 311.026 325.171 311.026 324.521V320.025C311.026 319.74 310.932 319.52 310.744 319.366C310.562 319.207 310.345 319.127 310.094 319.127C309.838 319.127 309.615 319.207 309.427 319.366C309.245 319.52 309.154 319.74 309.154 320.025V324.504C309.154 325.063 309.236 325.556 309.402 325.983C309.567 326.411 309.792 326.756 310.077 327.018C310.368 327.274 310.696 327.468 311.06 327.599C311.425 327.724 311.818 327.787 312.24 327.787ZM324.021 327.787C324.608 327.787 325.138 327.667 325.611 327.428C326.084 327.183 326.472 326.855 326.774 326.445C327.076 326.035 327.307 325.564 327.466 325.034C327.631 324.499 327.714 323.934 327.714 323.342C327.714 322.048 327.372 321.002 326.688 320.204C326.004 319.406 325.075 319.007 323.901 319.007C322.647 319.007 321.738 319.477 321.174 320.418V316.271C321.174 315.998 321.08 315.784 320.892 315.63C320.709 315.476 320.49 315.399 320.234 315.399C319.977 315.399 319.755 315.476 319.567 315.63C319.384 315.784 319.293 315.998 319.293 316.271V326.761C319.293 327.041 319.387 327.26 319.575 327.42C319.769 327.579 319.991 327.659 320.242 327.659C320.527 327.659 320.752 327.585 320.917 327.437C321.088 327.288 321.174 327.063 321.174 326.761V326.291C321.733 327.288 322.681 327.787 324.021 327.787ZM323.593 326.513C322.716 326.513 322.094 326.248 321.73 325.718C321.365 325.183 321.183 324.399 321.183 323.367C321.183 322.963 321.225 322.584 321.311 322.23C321.402 321.871 321.536 321.543 321.713 321.247C321.895 320.945 322.143 320.708 322.456 320.537C322.776 320.361 323.143 320.272 323.559 320.272C323.975 320.272 324.337 320.364 324.645 320.546C324.953 320.728 325.189 320.976 325.355 321.29C325.525 321.598 325.648 321.922 325.722 322.264C325.802 322.606 325.842 322.968 325.842 323.35C325.842 323.641 325.819 323.926 325.773 324.205C325.734 324.479 325.659 324.758 325.551 325.043C325.443 325.328 325.306 325.579 325.141 325.795C324.981 326.006 324.767 326.18 324.5 326.317C324.232 326.448 323.93 326.513 323.593 326.513ZM330.595 327.667C330.852 327.667 331.074 327.585 331.262 327.42C331.456 327.249 331.553 327.021 331.553 326.736V316.331C331.553 316.046 331.459 315.821 331.271 315.656C331.082 315.485 330.863 315.399 330.612 315.399C330.356 315.399 330.133 315.482 329.945 315.647C329.763 315.813 329.672 316.041 329.672 316.331V326.736C329.672 327.032 329.76 327.263 329.937 327.428C330.119 327.588 330.339 327.667 330.595 327.667ZM334.93 327.667C335.186 327.667 335.408 327.585 335.596 327.42C335.79 327.249 335.887 327.021 335.887 326.736V320.059C335.887 319.768 335.793 319.54 335.605 319.375C335.423 319.21 335.206 319.127 334.955 319.127C334.699 319.127 334.476 319.21 334.288 319.375C334.1 319.54 334.006 319.768 334.006 320.059V326.736C334.006 327.032 334.095 327.263 334.271 327.428C334.454 327.588 334.673 327.667 334.93 327.667ZM334.938 317.34C335.28 317.34 335.554 317.243 335.759 317.049C335.97 316.85 336.075 316.588 336.075 316.263C336.075 315.944 335.973 315.684 335.767 315.485C335.562 315.285 335.289 315.186 334.947 315.186C334.605 315.186 334.328 315.285 334.117 315.485C333.912 315.684 333.81 315.944 333.81 316.263C333.81 316.588 333.912 316.85 334.117 317.049C334.328 317.243 334.602 317.34 334.938 317.34ZM341.871 327.787C343.028 327.787 343.9 327.534 344.488 327.026C344.693 326.85 344.795 326.656 344.795 326.445C344.795 326.394 344.79 326.345 344.778 326.3C344.767 326.248 344.747 326.203 344.718 326.163C344.696 326.117 344.667 326.077 344.633 326.043C344.599 326.009 344.562 325.98 344.522 325.958C344.482 325.935 344.436 325.918 344.385 325.906C344.339 325.889 344.291 325.881 344.24 325.881C344.171 325.881 344.1 325.892 344.026 325.915C343.957 325.938 343.889 325.975 343.821 326.026C343.37 326.351 342.769 326.513 342.017 326.513C341.247 326.513 340.643 326.226 340.204 325.65C339.771 325.074 339.555 324.319 339.555 323.384C339.555 322.455 339.78 321.703 340.23 321.127C340.68 320.552 341.293 320.264 342.068 320.264C342.621 320.264 343.148 320.401 343.65 320.674C343.712 320.708 343.775 320.734 343.838 320.751C343.906 320.768 343.972 320.777 344.034 320.777C344.103 320.777 344.168 320.768 344.231 320.751C344.294 320.734 344.348 320.708 344.393 320.674C344.445 320.64 344.488 320.6 344.522 320.555C344.562 320.509 344.59 320.461 344.607 320.409C344.63 320.352 344.641 320.292 344.641 320.23C344.641 320.167 344.627 320.104 344.599 320.042C344.576 319.979 344.536 319.916 344.479 319.854C344.428 319.785 344.362 319.722 344.282 319.665C343.655 319.227 342.866 319.007 341.914 319.007C341.287 319.007 340.706 319.124 340.17 319.358C339.64 319.591 339.193 319.908 338.828 320.307C338.469 320.706 338.187 321.173 337.982 321.709C337.782 322.239 337.682 322.8 337.682 323.393C337.682 324.202 337.848 324.937 338.178 325.599C338.515 326.26 339.005 326.79 339.649 327.189C340.293 327.588 341.034 327.787 341.871 327.787ZM301.374 356.693C301.636 356.693 301.867 356.61 302.067 356.445C302.266 356.28 302.366 356.052 302.366 355.761V354.12H303.46C303.694 354.12 303.873 354.049 303.999 353.906C304.13 353.758 304.195 353.584 304.195 353.385C304.195 353.179 304.13 353.003 303.999 352.855C303.873 352.706 303.694 352.632 303.46 352.632H302.374V345.836C302.374 345.351 302.235 344.992 301.955 344.758C301.682 344.519 301.334 344.399 300.912 344.399C300.553 344.399 300.234 344.482 299.955 344.647C299.676 344.807 299.422 345.069 299.194 345.434L294.757 352.572C294.729 352.618 294.703 352.666 294.68 352.718C294.663 352.769 294.649 352.823 294.637 352.88C294.632 352.937 294.629 352.994 294.629 353.051C294.629 353.325 294.717 353.573 294.894 353.795C295.076 354.012 295.31 354.12 295.595 354.12H300.357V355.761C300.357 356.052 300.459 356.28 300.665 356.445C300.87 356.61 301.106 356.693 301.374 356.693ZM296.664 352.632L300.357 346.52V352.632H296.664ZM309.581 355.163C309.296 355.163 309.037 355.114 308.803 355.017C308.57 354.915 308.373 354.781 308.213 354.616C308.054 354.445 307.914 354.234 307.795 353.983C307.675 353.732 307.578 353.476 307.504 353.214C307.435 352.951 307.381 352.655 307.341 352.325C307.302 351.988 307.273 351.675 307.256 351.384C307.245 351.093 307.239 350.777 307.239 350.435C307.239 350.087 307.245 349.768 307.256 349.478C307.273 349.187 307.302 348.879 307.341 348.554C307.381 348.224 307.435 347.93 307.504 347.674C307.578 347.417 307.675 347.167 307.795 346.921C307.914 346.676 308.054 346.474 308.213 346.314C308.373 346.149 308.57 346.018 308.803 345.921C309.037 345.824 309.296 345.776 309.581 345.776C309.918 345.776 310.214 345.839 310.47 345.964C310.733 346.089 310.946 346.269 311.112 346.503C311.277 346.736 311.414 346.993 311.522 347.272C311.636 347.551 311.721 347.879 311.778 348.255C311.835 348.631 311.872 348.987 311.89 349.324C311.912 349.654 311.924 350.025 311.924 350.435C311.924 350.777 311.915 351.093 311.898 351.384C311.887 351.669 311.861 351.98 311.821 352.316C311.781 352.647 311.724 352.943 311.65 353.205C311.582 353.467 311.488 353.727 311.368 353.983C311.248 354.234 311.109 354.442 310.949 354.607C310.79 354.772 310.593 354.906 310.359 355.009C310.126 355.112 309.866 355.163 309.581 355.163ZM309.581 356.856C310.254 356.856 310.849 356.736 311.368 356.496C311.892 356.257 312.32 355.938 312.65 355.539C312.987 355.14 313.26 354.661 313.471 354.103C313.688 353.538 313.839 352.96 313.924 352.367C314.01 351.769 314.053 351.125 314.053 350.435C314.053 349.74 314.01 349.096 313.924 348.503C313.839 347.905 313.688 347.329 313.471 346.776C313.255 346.223 312.981 345.753 312.65 345.365C312.32 344.978 311.892 344.667 311.368 344.434C310.849 344.2 310.254 344.083 309.581 344.083C308.909 344.083 308.31 344.2 307.786 344.434C307.267 344.667 306.84 344.978 306.504 345.365C306.173 345.753 305.899 346.223 305.683 346.776C305.466 347.329 305.315 347.905 305.23 348.503C305.144 349.096 305.102 349.74 305.102 350.435C305.102 351.125 305.144 351.769 305.23 352.367C305.315 352.96 305.466 353.538 305.683 354.103C305.899 354.661 306.173 355.14 306.504 355.539C306.834 355.938 307.262 356.257 307.786 356.496C308.31 356.736 308.909 356.856 309.581 356.856ZM317.395 356.693C317.726 356.693 317.997 356.588 318.207 356.377C318.418 356.166 318.524 355.918 318.524 355.633C318.524 355.337 318.415 355.086 318.199 354.881C317.982 354.676 317.714 354.573 317.395 354.573C317.059 354.573 316.785 354.678 316.575 354.889C316.364 355.1 316.258 355.348 316.258 355.633C316.258 355.924 316.366 356.174 316.583 356.385C316.8 356.591 317.07 356.693 317.395 356.693ZM325.209 355.163C324.924 355.163 324.665 355.114 324.431 355.017C324.198 354.915 324.001 354.781 323.841 354.616C323.682 354.445 323.542 354.234 323.422 353.983C323.303 353.732 323.206 353.476 323.132 353.214C323.063 352.951 323.009 352.655 322.969 352.325C322.929 351.988 322.901 351.675 322.884 351.384C322.872 351.093 322.867 350.777 322.867 350.435C322.867 350.087 322.872 349.768 322.884 349.478C322.901 349.187 322.929 348.879 322.969 348.554C323.009 348.224 323.063 347.93 323.132 347.674C323.206 347.417 323.303 347.167 323.422 346.921C323.542 346.676 323.682 346.474 323.841 346.314C324.001 346.149 324.198 346.018 324.431 345.921C324.665 345.824 324.924 345.776 325.209 345.776C325.545 345.776 325.842 345.839 326.098 345.964C326.36 346.089 326.574 346.269 326.739 346.503C326.905 346.736 327.042 346.993 327.15 347.272C327.264 347.551 327.349 347.879 327.406 348.255C327.463 348.631 327.5 348.987 327.517 349.324C327.54 349.654 327.552 350.025 327.552 350.435C327.552 350.777 327.543 351.093 327.526 351.384C327.515 351.669 327.489 351.98 327.449 352.316C327.409 352.647 327.352 352.943 327.278 353.205C327.21 353.467 327.116 353.727 326.996 353.983C326.876 354.234 326.737 354.442 326.577 354.607C326.417 354.772 326.221 354.906 325.987 355.009C325.753 355.112 325.494 355.163 325.209 355.163ZM325.209 356.856C325.882 356.856 326.477 356.736 326.996 356.496C327.52 356.257 327.948 355.938 328.278 355.539C328.615 355.14 328.888 354.661 329.099 354.103C329.316 353.538 329.467 352.96 329.552 352.367C329.638 351.769 329.68 351.125 329.68 350.435C329.68 349.74 329.638 349.096 329.552 348.503C329.467 347.905 329.316 347.329 329.099 346.776C328.882 346.223 328.609 345.753 328.278 345.365C327.948 344.978 327.52 344.667 326.996 344.434C326.477 344.2 325.882 344.083 325.209 344.083C324.537 344.083 323.938 344.2 323.414 344.434C322.895 344.667 322.468 344.978 322.131 345.365C321.801 345.753 321.527 346.223 321.311 346.776C321.094 347.329 320.943 347.905 320.858 348.503C320.772 349.096 320.729 349.74 320.729 350.435C320.729 351.125 320.772 351.769 320.858 352.367C320.943 352.96 321.094 353.538 321.311 354.103C321.527 354.661 321.801 355.14 322.131 355.539C322.462 355.938 322.889 356.257 323.414 356.496C323.938 356.736 324.537 356.856 325.209 356.856ZM335.759 357.24C335.953 357.24 336.138 357.086 336.315 356.779L342.769 345.271C342.883 345.043 342.94 344.875 342.94 344.767C342.94 344.625 342.886 344.499 342.778 344.391C342.675 344.283 342.555 344.228 342.419 344.228C342.202 344.228 342.028 344.345 341.897 344.579L335.348 356.283C335.234 356.488 335.177 356.63 335.177 356.71C335.177 356.858 335.234 356.984 335.348 357.086C335.468 357.189 335.605 357.24 335.759 357.24ZM335.041 350.273C334.522 350.273 334.143 350.062 333.904 349.64C333.664 349.213 333.545 348.643 333.545 347.93C333.545 347.224 333.664 346.659 333.904 346.238C334.149 345.81 334.528 345.596 335.041 345.596C335.559 345.596 335.938 345.81 336.178 346.238C336.423 346.659 336.545 347.224 336.545 347.93C336.545 348.637 336.423 349.204 336.178 349.632C335.938 350.059 335.559 350.273 335.041 350.273ZM335.041 351.376C335.947 351.376 336.674 351.051 337.221 350.401C337.774 349.751 338.05 348.928 338.05 347.93C338.05 347.594 338.016 347.266 337.947 346.947C337.885 346.628 337.776 346.317 337.623 346.015C337.469 345.713 337.278 345.451 337.05 345.229C336.822 345.001 336.534 344.821 336.186 344.69C335.844 344.553 335.462 344.485 335.041 344.485C334.129 344.485 333.399 344.813 332.852 345.468C332.311 346.118 332.04 346.939 332.04 347.93C332.04 348.973 332.305 349.808 332.835 350.435C333.371 351.062 334.106 351.376 335.041 351.376ZM343.564 355.83C342.567 355.83 342.068 355.052 342.068 353.496C342.068 352.789 342.188 352.225 342.427 351.803C342.667 351.376 343.046 351.162 343.564 351.162C343.918 351.162 344.208 351.27 344.436 351.487C344.67 351.703 344.832 351.98 344.924 352.316C345.015 352.652 345.06 353.045 345.06 353.496C345.06 354.208 344.938 354.775 344.693 355.197C344.453 355.619 344.077 355.83 343.564 355.83ZM343.564 356.95C344.482 356.95 345.211 356.622 345.753 355.966C346.294 355.311 346.565 354.487 346.565 353.496C346.565 353.159 346.531 352.835 346.462 352.521C346.4 352.202 346.291 351.891 346.138 351.589C345.984 351.287 345.793 351.025 345.565 350.803C345.342 350.58 345.057 350.401 344.71 350.264C344.368 350.127 343.986 350.059 343.564 350.059C342.652 350.059 341.923 350.384 341.376 351.034C340.834 351.683 340.563 352.504 340.563 353.496C340.563 354.533 340.831 355.368 341.367 356.001C341.903 356.633 342.635 356.95 343.564 356.95Z" fill="#6E7D92"/>
<path d="M128.869 229.275H135.289C135.54 229.275 135.737 229.193 135.879 229.027C136.022 228.856 136.093 228.663 136.093 228.446C136.093 228.218 136.022 228.019 135.879 227.848C135.737 227.677 135.54 227.591 135.289 227.591H129.946V223.812H134.776C135.027 223.812 135.224 223.73 135.366 223.565C135.514 223.394 135.588 223.2 135.588 222.983C135.588 222.761 135.517 222.57 135.375 222.41C135.238 222.245 135.038 222.162 134.776 222.162H129.946V218.692H135.092C135.343 218.692 135.54 218.606 135.682 218.435C135.825 218.264 135.896 218.067 135.896 217.845C135.896 217.623 135.825 217.426 135.682 217.255C135.54 217.084 135.343 216.999 135.092 216.999H128.835C128.555 216.999 128.316 217.104 128.116 217.315C127.923 217.52 127.826 217.76 127.826 218.033V228.249C127.826 228.523 127.931 228.762 128.142 228.968C128.353 229.173 128.595 229.275 128.869 229.275ZM139.196 229.275C139.453 229.275 139.672 229.196 139.854 229.036C140.042 228.876 140.137 228.657 140.137 228.378V224.488C140.142 223.707 140.364 223.077 140.803 222.598C141.242 222.12 141.767 221.88 142.376 221.88C142.901 221.88 143.325 222.051 143.65 222.393C143.975 222.735 144.138 223.228 144.138 223.872V228.378C144.138 228.663 144.229 228.885 144.411 229.045C144.593 229.198 144.81 229.275 145.061 229.275C145.317 229.275 145.54 229.198 145.728 229.045C145.916 228.885 146.01 228.663 146.01 228.378V223.889C146.01 223.331 145.927 222.838 145.762 222.41C145.597 221.983 145.369 221.641 145.078 221.385C144.787 221.128 144.457 220.937 144.086 220.812C143.721 220.681 143.328 220.615 142.906 220.615C142.257 220.615 141.692 220.74 141.214 220.991C140.735 221.236 140.376 221.595 140.137 222.068V221.59C140.137 221.322 140.045 221.114 139.863 220.966C139.681 220.812 139.461 220.735 139.205 220.735C138.948 220.735 138.726 220.815 138.538 220.974C138.35 221.128 138.256 221.342 138.256 221.615V228.378C138.256 228.663 138.347 228.885 138.529 229.045C138.717 229.198 138.94 229.275 139.196 229.275ZM151.327 229.361C151.356 229.361 151.39 229.361 151.43 229.361C151.476 229.361 151.518 229.361 151.558 229.361C151.598 229.361 151.632 229.361 151.661 229.361C151.786 229.361 151.892 229.358 151.977 229.352C152.063 229.352 152.159 229.349 152.268 229.344C152.376 229.338 152.47 229.327 152.55 229.31C152.63 229.292 152.709 229.273 152.789 229.25C152.875 229.227 152.946 229.196 153.003 229.156C153.06 229.116 153.111 229.07 153.157 229.019C153.202 228.968 153.237 228.908 153.259 228.839C153.282 228.765 153.294 228.683 153.294 228.591C153.294 228.466 153.265 228.349 153.208 228.241C153.157 228.133 153.074 228.044 152.96 227.976C152.852 227.902 152.721 227.865 152.567 227.865C152.544 227.865 152.524 227.865 152.507 227.865L151.883 227.908H151.806C151.572 227.908 151.384 227.845 151.242 227.719C151.099 227.588 151 227.412 150.943 227.189C150.886 226.961 150.857 226.676 150.857 226.334V222.034H152.353C152.576 222.034 152.741 221.98 152.849 221.872C152.957 221.758 153.012 221.612 153.012 221.436C153.012 221.259 152.955 221.114 152.841 221C152.732 220.88 152.57 220.82 152.353 220.82H150.857V218.392C150.857 218.153 150.792 217.976 150.661 217.862C150.535 217.743 150.37 217.683 150.165 217.683C149.914 217.683 149.703 217.76 149.532 217.914C149.367 218.062 149.27 218.258 149.241 218.503L148.985 220.82H148.019C147.802 220.82 147.637 220.877 147.523 220.991C147.409 221.105 147.352 221.248 147.352 221.419C147.352 221.59 147.412 221.735 147.532 221.855C147.651 221.974 147.819 222.034 148.036 222.034H148.985V226.779C148.985 227.594 149.193 228.23 149.609 228.685C150.031 229.136 150.604 229.361 151.327 229.361ZM158.722 229.395C159.965 229.395 161.014 229.019 161.868 228.267C162.057 228.113 162.151 227.927 162.151 227.711C162.151 227.54 162.091 227.389 161.971 227.258C161.857 227.127 161.72 227.061 161.561 227.061C161.452 227.061 161.344 227.098 161.236 227.172C160.364 227.788 159.572 228.096 158.859 228.096C158.09 228.09 157.474 227.873 157.013 227.446C156.557 227.013 156.309 226.343 156.269 225.437H161.877C162.071 225.437 162.21 225.371 162.296 225.24C162.387 225.103 162.433 224.932 162.433 224.727C162.421 224.163 162.336 223.641 162.176 223.163C162.017 222.678 161.783 222.245 161.475 221.863C161.173 221.476 160.768 221.171 160.261 220.949C159.76 220.726 159.181 220.615 158.526 220.615C157.882 220.615 157.295 220.732 156.765 220.966C156.235 221.199 155.799 221.516 155.457 221.915C155.115 222.314 154.85 222.772 154.662 223.291C154.479 223.804 154.388 224.348 154.388 224.924C154.388 226.303 154.784 227.392 155.576 228.19C156.374 228.982 157.423 229.384 158.722 229.395ZM156.286 224.308C156.314 224.001 156.38 223.707 156.483 223.428C156.591 223.148 156.736 222.892 156.919 222.658C157.101 222.425 157.337 222.237 157.628 222.094C157.919 221.952 158.244 221.88 158.603 221.88C159.298 221.88 159.828 222.111 160.193 222.573C160.558 223.035 160.766 223.613 160.817 224.308H156.286ZM165.186 229.275C165.442 229.275 165.664 229.198 165.852 229.045C166.046 228.885 166.143 228.666 166.143 228.386V224.402C166.143 223.992 166.206 223.644 166.331 223.359C166.457 223.074 166.636 222.858 166.87 222.71C167.103 222.556 167.357 222.447 167.631 222.385C167.91 222.322 168.229 222.291 168.588 222.291C168.776 222.291 168.924 222.217 169.033 222.068C169.141 221.92 169.195 221.744 169.195 221.538C169.195 221.436 169.181 221.336 169.152 221.239C169.124 221.142 169.081 221.057 169.024 220.983C168.967 220.903 168.893 220.84 168.802 220.795C168.711 220.749 168.608 220.726 168.494 220.726C167.941 220.726 167.443 220.906 166.998 221.265C166.559 221.624 166.266 222.068 166.117 222.598L166.143 221.538C166.149 221.288 166.06 221.091 165.878 220.949C165.696 220.806 165.476 220.735 165.22 220.735C165.054 220.735 164.901 220.766 164.758 220.829C164.616 220.886 164.496 220.983 164.399 221.119C164.308 221.251 164.262 221.41 164.262 221.598V228.386C164.262 228.671 164.353 228.891 164.536 229.045C164.718 229.198 164.935 229.275 165.186 229.275ZM171.632 232.533C171.888 232.533 172.108 232.456 172.29 232.302C172.478 232.148 172.572 231.934 172.572 231.661V227.976C173.136 228.922 174.045 229.395 175.299 229.395C176.473 229.395 177.402 228.996 178.086 228.198C178.77 227.4 179.112 226.354 179.112 225.061C179.112 224.468 179.029 223.907 178.864 223.376C178.705 222.841 178.474 222.368 178.172 221.957C177.87 221.547 177.482 221.222 177.009 220.983C176.536 220.738 176.006 220.615 175.419 220.615C174.08 220.615 173.131 221.114 172.572 222.111V221.632C172.572 221.33 172.487 221.105 172.316 220.957C172.15 220.809 171.925 220.735 171.64 220.735C171.389 220.735 171.167 220.817 170.973 220.983C170.785 221.142 170.691 221.362 170.691 221.641V231.661C170.691 231.934 170.782 232.148 170.965 232.302C171.153 232.456 171.375 232.533 171.632 232.533ZM174.957 228.121C174.541 228.121 174.174 228.036 173.854 227.865C173.541 227.688 173.293 227.452 173.111 227.155C172.934 226.859 172.8 226.534 172.709 226.181C172.623 225.822 172.581 225.44 172.581 225.035C172.581 224.009 172.763 223.228 173.128 222.693C173.492 222.151 174.114 221.88 174.991 221.88C175.328 221.88 175.63 221.949 175.898 222.086C176.166 222.222 176.379 222.399 176.539 222.616C176.704 222.826 176.841 223.074 176.949 223.359C177.057 223.644 177.132 223.926 177.171 224.206C177.217 224.485 177.24 224.767 177.24 225.052C177.24 225.434 177.2 225.796 177.12 226.138C177.046 226.48 176.924 226.805 176.753 227.112C176.587 227.42 176.351 227.665 176.043 227.848C175.735 228.03 175.373 228.121 174.957 228.121ZM181.959 229.275C182.215 229.275 182.438 229.198 182.626 229.045C182.82 228.885 182.917 228.666 182.917 228.386V224.402C182.917 223.992 182.979 223.644 183.105 223.359C183.23 223.074 183.41 222.858 183.643 222.71C183.877 222.556 184.13 222.447 184.404 222.385C184.683 222.322 185.003 222.291 185.362 222.291C185.55 222.291 185.698 222.217 185.806 222.068C185.914 221.92 185.969 221.744 185.969 221.538C185.969 221.436 185.954 221.336 185.926 221.239C185.897 221.142 185.855 221.057 185.798 220.983C185.741 220.903 185.666 220.84 185.575 220.795C185.484 220.749 185.382 220.726 185.268 220.726C184.715 220.726 184.216 220.906 183.771 221.265C183.333 221.624 183.039 222.068 182.891 222.598L182.917 221.538C182.922 221.288 182.834 221.091 182.651 220.949C182.469 220.806 182.25 220.735 181.993 220.735C181.828 220.735 181.674 220.766 181.532 220.829C181.389 220.886 181.269 220.983 181.172 221.119C181.081 221.251 181.036 221.41 181.036 221.598V228.386C181.036 228.671 181.127 228.891 181.309 229.045C181.492 229.198 181.708 229.275 181.959 229.275ZM188.431 229.275C188.687 229.275 188.909 229.193 189.098 229.027C189.291 228.856 189.388 228.629 189.388 228.344V221.667C189.388 221.376 189.294 221.148 189.106 220.983C188.924 220.817 188.707 220.735 188.456 220.735C188.2 220.735 187.978 220.817 187.79 220.983C187.601 221.148 187.507 221.376 187.507 221.667V228.344C187.507 228.64 187.596 228.871 187.772 229.036C187.955 229.196 188.174 229.275 188.431 229.275ZM188.439 218.948C188.781 218.948 189.055 218.851 189.26 218.657C189.471 218.458 189.576 218.196 189.576 217.871C189.576 217.552 189.474 217.292 189.269 217.093C189.063 216.893 188.79 216.794 188.448 216.794C188.106 216.794 187.829 216.893 187.619 217.093C187.413 217.292 187.311 217.552 187.311 217.871C187.311 218.196 187.413 218.458 187.619 218.657C187.829 218.851 188.103 218.948 188.439 218.948ZM191.671 228.463C192.343 228.942 193.164 229.244 194.133 229.369C194.407 229.404 194.677 229.421 194.945 229.421C195.435 229.421 195.886 229.367 196.296 229.258C196.712 229.15 197.074 228.99 197.382 228.78C197.689 228.563 197.929 228.284 198.1 227.942C198.277 227.594 198.365 227.201 198.365 226.762C198.365 226.107 198.165 225.582 197.766 225.189C197.367 224.796 196.721 224.488 195.826 224.266L194.441 223.924C193.905 223.793 193.549 223.661 193.372 223.53C193.195 223.394 193.107 223.171 193.107 222.864C193.107 222.618 193.193 222.416 193.364 222.257C193.535 222.097 193.748 221.986 194.005 221.923C194.261 221.855 194.555 221.821 194.885 221.821C195.045 221.821 195.207 221.832 195.373 221.855C195.538 221.872 195.678 221.892 195.792 221.915C195.911 221.937 196.051 221.972 196.21 222.017C196.37 222.063 196.481 222.097 196.544 222.12C196.607 222.143 196.709 222.182 196.852 222.239C196.994 222.291 197.068 222.316 197.074 222.316C197.131 222.333 197.182 222.348 197.228 222.359C197.279 222.371 197.33 222.376 197.382 222.376C197.496 222.376 197.595 222.351 197.681 222.299C197.772 222.242 197.841 222.171 197.886 222.086C197.932 222 197.954 221.909 197.954 221.812C197.954 221.544 197.818 221.345 197.544 221.214C196.701 220.786 195.78 220.572 194.783 220.572C193.523 220.572 192.591 220.86 191.987 221.436C191.577 221.84 191.372 222.345 191.372 222.949C191.372 223.177 191.392 223.385 191.431 223.573C191.477 223.755 191.534 223.918 191.602 224.06C191.677 224.197 191.776 224.325 191.902 224.445C192.033 224.559 192.164 224.656 192.295 224.736C192.426 224.816 192.594 224.895 192.799 224.975C193.01 225.055 193.207 225.123 193.389 225.18C193.572 225.232 193.802 225.294 194.082 225.368L195.492 225.727C195.937 225.841 196.262 225.993 196.467 226.181C196.672 226.363 196.775 226.597 196.775 226.882C196.775 227.178 196.681 227.429 196.493 227.634C196.305 227.833 196.068 227.976 195.783 228.061C195.498 228.141 195.176 228.181 194.817 228.181C194.486 228.181 194.159 228.141 193.834 228.061C193.509 227.976 193.25 227.888 193.056 227.796C192.862 227.705 192.651 227.591 192.423 227.454C192.281 227.375 192.141 227.335 192.004 227.335C191.97 227.335 191.936 227.338 191.902 227.343C191.867 227.349 191.833 227.358 191.799 227.369C191.771 227.38 191.742 227.395 191.714 227.412C191.685 227.423 191.657 227.44 191.628 227.463C191.605 227.48 191.583 227.5 191.56 227.523C191.537 227.546 191.517 227.571 191.5 227.6C191.483 227.623 191.466 227.648 191.449 227.677C191.437 227.705 191.426 227.734 191.414 227.762C191.409 227.791 191.403 227.822 191.397 227.856C191.392 227.885 191.389 227.916 191.389 227.95C191.389 228.155 191.483 228.326 191.671 228.463ZM204.118 229.395C205.361 229.395 206.41 229.019 207.265 228.267C207.453 228.113 207.547 227.927 207.547 227.711C207.547 227.54 207.487 227.389 207.367 227.258C207.253 227.127 207.116 227.061 206.957 227.061C206.848 227.061 206.74 227.098 206.632 227.172C205.76 227.788 204.968 228.096 204.255 228.096C203.486 228.09 202.87 227.873 202.409 227.446C201.953 227.013 201.705 226.343 201.665 225.437H207.273C207.467 225.437 207.606 225.371 207.692 225.24C207.783 225.103 207.829 224.932 207.829 224.727C207.817 224.163 207.732 223.641 207.572 223.163C207.413 222.678 207.179 222.245 206.871 221.863C206.569 221.476 206.165 221.171 205.657 220.949C205.156 220.726 204.577 220.615 203.922 220.615C203.278 220.615 202.691 220.732 202.161 220.966C201.631 221.199 201.195 221.516 200.853 221.915C200.511 222.314 200.246 222.772 200.058 223.291C199.875 223.804 199.784 224.348 199.784 224.924C199.784 226.303 200.18 227.392 200.972 228.19C201.77 228.982 202.819 229.384 204.118 229.395ZM201.682 224.308C201.71 224.001 201.776 223.707 201.879 223.428C201.987 223.148 202.132 222.892 202.315 222.658C202.497 222.425 202.733 222.237 203.024 222.094C203.315 221.952 203.64 221.88 203.999 221.88C204.694 221.88 205.224 222.111 205.589 222.573C205.954 223.035 206.162 223.613 206.213 224.308H201.682ZM147.626 258.301C147.888 258.301 148.119 258.218 148.318 258.053C148.518 257.888 148.617 257.66 148.617 257.369V255.728H149.712C149.945 255.728 150.125 255.656 150.25 255.514C150.381 255.366 150.447 255.192 150.447 254.993C150.447 254.787 150.381 254.611 150.25 254.462C150.125 254.314 149.945 254.24 149.712 254.24H148.626V247.444C148.626 246.959 148.486 246.6 148.207 246.366C147.933 246.127 147.586 246.007 147.164 246.007C146.805 246.007 146.486 246.09 146.206 246.255C145.927 246.415 145.674 246.677 145.446 247.042L141.009 254.18C140.98 254.226 140.954 254.274 140.932 254.326C140.914 254.377 140.9 254.431 140.889 254.488C140.883 254.545 140.88 254.602 140.88 254.659C140.88 254.933 140.969 255.181 141.145 255.403C141.328 255.619 141.561 255.728 141.846 255.728H146.608V257.369C146.608 257.66 146.711 257.888 146.916 258.053C147.121 258.218 147.358 258.301 147.626 258.301ZM142.915 254.24L146.608 248.128V254.24H142.915ZM155.833 256.771C155.548 256.771 155.288 256.722 155.055 256.625C154.821 256.523 154.624 256.389 154.465 256.224C154.305 256.053 154.166 255.842 154.046 255.591C153.926 255.34 153.829 255.084 153.755 254.822C153.687 254.559 153.633 254.263 153.593 253.932C153.553 253.596 153.524 253.283 153.507 252.992C153.496 252.701 153.49 252.385 153.49 252.043C153.49 251.695 153.496 251.376 153.507 251.086C153.524 250.795 153.553 250.487 153.593 250.162C153.633 249.832 153.687 249.538 153.755 249.282C153.829 249.025 153.926 248.774 154.046 248.529C154.166 248.284 154.305 248.082 154.465 247.922C154.624 247.757 154.821 247.626 155.055 247.529C155.288 247.432 155.548 247.384 155.833 247.384C156.169 247.384 156.465 247.446 156.722 247.572C156.984 247.697 157.198 247.877 157.363 248.11C157.528 248.344 157.665 248.601 157.773 248.88C157.887 249.159 157.973 249.487 158.03 249.863C158.087 250.239 158.124 250.595 158.141 250.932C158.164 251.262 158.175 251.633 158.175 252.043C158.175 252.385 158.167 252.701 158.15 252.992C158.138 253.277 158.113 253.588 158.073 253.924C158.033 254.254 157.976 254.551 157.902 254.813C157.833 255.075 157.739 255.334 157.62 255.591C157.5 255.842 157.36 256.05 157.201 256.215C157.041 256.38 156.844 256.514 156.611 256.617C156.377 256.719 156.118 256.771 155.833 256.771ZM155.833 258.463C156.505 258.463 157.101 258.344 157.62 258.104C158.144 257.865 158.571 257.546 158.902 257.147C159.238 256.748 159.512 256.269 159.723 255.711C159.939 255.146 160.09 254.568 160.176 253.975C160.261 253.377 160.304 252.733 160.304 252.043C160.304 251.348 160.261 250.704 160.176 250.111C160.09 249.512 159.939 248.937 159.723 248.384C159.506 247.831 159.232 247.361 158.902 246.973C158.571 246.586 158.144 246.275 157.62 246.042C157.101 245.808 156.505 245.691 155.833 245.691C155.16 245.691 154.562 245.808 154.037 246.042C153.519 246.275 153.091 246.586 152.755 246.973C152.425 247.361 152.151 247.831 151.934 248.384C151.718 248.937 151.567 249.512 151.481 250.111C151.396 250.704 151.353 251.348 151.353 252.043C151.353 252.733 151.396 253.377 151.481 253.975C151.567 254.568 151.718 255.146 151.934 255.711C152.151 256.269 152.425 256.748 152.755 257.147C153.086 257.546 153.513 257.865 154.037 258.104C154.562 258.344 155.16 258.463 155.833 258.463ZM163.647 258.301C163.977 258.301 164.248 258.196 164.459 257.985C164.67 257.774 164.775 257.526 164.775 257.241C164.775 256.945 164.667 256.694 164.45 256.489C164.234 256.283 163.966 256.181 163.647 256.181C163.31 256.181 163.037 256.286 162.826 256.497C162.615 256.708 162.51 256.956 162.51 257.241C162.51 257.532 162.618 257.782 162.835 257.993C163.051 258.198 163.322 258.301 163.647 258.301ZM171.461 256.771C171.176 256.771 170.916 256.722 170.683 256.625C170.449 256.523 170.252 256.389 170.093 256.224C169.933 256.053 169.794 255.842 169.674 255.591C169.554 255.34 169.457 255.084 169.383 254.822C169.315 254.559 169.261 254.263 169.221 253.932C169.181 253.596 169.152 253.283 169.135 252.992C169.124 252.701 169.118 252.385 169.118 252.043C169.118 251.695 169.124 251.376 169.135 251.086C169.152 250.795 169.181 250.487 169.221 250.162C169.261 249.832 169.315 249.538 169.383 249.282C169.457 249.025 169.554 248.774 169.674 248.529C169.794 248.284 169.933 248.082 170.093 247.922C170.252 247.757 170.449 247.626 170.683 247.529C170.916 247.432 171.176 247.384 171.461 247.384C171.797 247.384 172.093 247.446 172.35 247.572C172.612 247.697 172.826 247.877 172.991 248.11C173.156 248.344 173.293 248.601 173.401 248.88C173.515 249.159 173.601 249.487 173.658 249.863C173.715 250.239 173.752 250.595 173.769 250.932C173.792 251.262 173.803 251.633 173.803 252.043C173.803 252.385 173.795 252.701 173.777 252.992C173.766 253.277 173.74 253.588 173.701 253.924C173.661 254.254 173.604 254.551 173.53 254.813C173.461 255.075 173.367 255.334 173.247 255.591C173.128 255.842 172.988 256.05 172.829 256.215C172.669 256.38 172.472 256.514 172.239 256.617C172.005 256.719 171.746 256.771 171.461 256.771ZM171.461 258.463C172.133 258.463 172.729 258.344 173.247 258.104C173.772 257.865 174.199 257.546 174.53 257.147C174.866 256.748 175.14 256.269 175.351 255.711C175.567 255.146 175.718 254.568 175.804 253.975C175.889 253.377 175.932 252.733 175.932 252.043C175.932 251.348 175.889 250.704 175.804 250.111C175.718 249.512 175.567 248.937 175.351 248.384C175.134 247.831 174.86 247.361 174.53 246.973C174.199 246.586 173.772 246.275 173.247 246.042C172.729 245.808 172.133 245.691 171.461 245.691C170.788 245.691 170.19 245.808 169.665 246.042C169.147 246.275 168.719 246.586 168.383 246.973C168.052 247.361 167.779 247.831 167.562 248.384C167.346 248.937 167.195 249.512 167.109 250.111C167.024 250.704 166.981 251.348 166.981 252.043C166.981 252.733 167.024 253.377 167.109 253.975C167.195 254.568 167.346 255.146 167.562 255.711C167.779 256.269 168.052 256.748 168.383 257.147C168.714 257.546 169.141 257.865 169.665 258.104C170.19 258.344 170.788 258.463 171.461 258.463ZM182.01 258.848C182.204 258.848 182.389 258.694 182.566 258.387L189.021 246.879C189.135 246.651 189.192 246.483 189.192 246.375C189.192 246.232 189.137 246.107 189.029 245.999C188.927 245.891 188.807 245.836 188.67 245.836C188.454 245.836 188.28 245.953 188.149 246.187L181.6 257.891C181.486 258.096 181.429 258.238 181.429 258.318C181.429 258.466 181.486 258.592 181.6 258.694C181.72 258.797 181.856 258.848 182.01 258.848ZM181.292 251.881C180.774 251.881 180.395 251.67 180.155 251.248C179.916 250.821 179.796 250.251 179.796 249.538C179.796 248.831 179.916 248.267 180.155 247.845C180.4 247.418 180.779 247.204 181.292 247.204C181.811 247.204 182.19 247.418 182.429 247.845C182.674 248.267 182.797 248.831 182.797 249.538C182.797 250.245 182.674 250.812 182.429 251.239C182.19 251.667 181.811 251.881 181.292 251.881ZM181.292 252.983C182.198 252.983 182.925 252.659 183.472 252.009C184.025 251.359 184.301 250.536 184.301 249.538C184.301 249.202 184.267 248.874 184.199 248.555C184.136 248.236 184.028 247.925 183.874 247.623C183.72 247.321 183.529 247.059 183.301 246.837C183.073 246.609 182.785 246.429 182.438 246.298C182.096 246.161 181.714 246.093 181.292 246.093C180.38 246.093 179.651 246.421 179.104 247.076C178.562 247.726 178.291 248.546 178.291 249.538C178.291 250.581 178.556 251.416 179.086 252.043C179.622 252.67 180.357 252.983 181.292 252.983ZM189.816 257.438C188.818 257.438 188.32 256.66 188.32 255.104C188.32 254.397 188.439 253.833 188.679 253.411C188.918 252.983 189.297 252.77 189.816 252.77C190.169 252.77 190.46 252.878 190.688 253.095C190.921 253.311 191.084 253.588 191.175 253.924C191.266 254.26 191.312 254.653 191.312 255.104C191.312 255.816 191.189 256.383 190.944 256.805C190.705 257.227 190.329 257.438 189.816 257.438ZM189.816 258.558C190.733 258.558 191.463 258.23 192.004 257.574C192.546 256.919 192.816 256.095 192.816 255.104C192.816 254.767 192.782 254.443 192.714 254.129C192.651 253.81 192.543 253.499 192.389 253.197C192.235 252.895 192.044 252.633 191.816 252.411C191.594 252.188 191.309 252.009 190.961 251.872C190.619 251.735 190.237 251.667 189.816 251.667C188.904 251.667 188.174 251.992 187.627 252.641C187.086 253.291 186.815 254.112 186.815 255.104C186.815 256.141 187.083 256.976 187.619 257.609C188.154 258.241 188.887 258.558 189.816 258.558Z" fill="#CADCF6"/>
<defs>
<filter id="filter0_d" x="0.215191" y="0.628284" width="522.57" height="522.57" filterUnits="userSpaceOnUse" color-interpolation-filters="sRGB">
<feFlood flood-opacity="0" result="BackgroundImageFix"/>
<feColorMatrix in="SourceAlpha" type="matrix" values="0 0 0 0 0 0 0 0 0 0 0 0 0 0 0 0 0 0 127 0"/>
<feOffset dy="9.41309"/>
<feGaussianBlur stdDeviation="26.3924"/>
<feColorMatrix type="matrix" values="0 0 0 0 0.745098 0 0 0 0 0.815686 0 0 0 0 0.913725 0 0 0 0.3 0"/>
<feBlend mode="normal" in2="BackgroundImageFix" result="effect1_dropShadow"/>
<feBlend mode="normal" in="SourceGraphic" in2="effect1_dropShadow" result="shape"/>
</filter>
<filter id="filter1_d" x="256.7" y="39.0522" width="222.921" height="234.265" filterUnits="userSpaceOnUse" color-interpolation-filters="sRGB">
<feFlood flood-opacity="0" result="BackgroundImageFix"/>
<feColorMatrix in="SourceAlpha" type="matrix" values="0 0 0 0 0 0 0 0 0 0 0 0 0 0 0 0 0 0 127 0"/>
<feOffset dy="4"/>
<feGaussianBlur stdDeviation="6.22178"/>
<feColorMatrix type="matrix" values="0 0 0 0 0.798338 0 0 0 0 0.975296 0 0 0 0 0.945803 0 0 0 1 0"/>
<feBlend mode="normal" in2="BackgroundImageFix" result="effect1_dropShadow"/>
<feBlend mode="normal" in="SourceGraphic" in2="effect1_dropShadow" result="shape"/>
</filter>
<filter id="filter2_d" x="-30.291" y="18.5085" width="300.761" height="408.079" filterUnits="userSpaceOnUse" color-interpolation-filters="sRGB">
<feFlood flood-opacity="0" result="BackgroundImageFix"/>
<feColorMatrix in="SourceAlpha" type="matrix" values="0 0 0 0 0 0 0 0 0 0 0 0 0 0 0 0 0 0 127 0"/>
<feOffset dy="2.82478"/>
<feGaussianBlur stdDeviation="5"/>
<feColorMatrix type="matrix" values="0 0 0 0 0.686024 0 0 0 0 0.769779 0 0 0 0 0.887796 0 0 0 1 0"/>
<feBlend mode="normal" in2="BackgroundImageFix" result="effect1_dropShadow"/>
<feBlend mode="normal" in="SourceGraphic" in2="effect1_dropShadow" result="shape"/>
</filter>
</defs>
</svg>
