<svg width="527" height="572" viewBox="0 0 527 572" fill="none" xmlns="http://www.w3.org/2000/svg">
<g filter="url(#filter0_d)">
<rect x="40" y="33" width="447" height="491" rx="13" fill="white"/>
</g>
<mask id="mask0" mask-type="alpha" maskUnits="userSpaceOnUse" x="123" y="133" width="278" height="278">
<circle cx="261.651" cy="271.651" r="138.651" fill="#C4C4C4"/>
</mask>
<g mask="url(#mask0)">
<g filter="url(#filter1_d)">
<path d="M267.476 272.248V130.152C267.476 127.705 269.631 125.817 272.057 126.139L307.017 130.781C307.446 130.838 307.862 130.963 308.251 131.152L347.996 150.431C348.329 150.592 348.638 150.799 348.915 151.044L388.091 185.769C388.507 186.137 388.843 186.587 389.077 187.091L408.998 229.936C410.037 232.171 408.856 234.807 406.497 235.519L272.482 275.966C269.989 276.719 267.476 274.852 267.476 272.248Z" fill="#50E6C5"/>
</g>
<path d="M181.256 396.321L263.584 287.678C265.357 285.339 267.822 283.616 270.628 282.755L409.158 240.278L447.362 339.459L260.892 437.122L181.256 396.321Z" fill="#C4D0E1"/>
<g filter="url(#filter2_d)">
<path d="M261.262 277.97V117.056L185.662 110.474L101.523 128.7L60.0817 261.854L178.004 388.553L259.977 281.754C260.81 280.669 261.262 279.339 261.262 277.97Z" fill="#7D93B2"/>
</g>
</g>
<path d="M289.902 207.151C289.718 207.151 289.57 207.099 289.458 206.995C289.354 206.891 289.302 206.751 289.302 206.575V199.255C289.302 199.071 289.358 198.923 289.47 198.811C289.582 198.691 289.73 198.631 289.914 198.631C290.106 198.631 290.258 198.687 290.37 198.799C290.482 198.911 290.538 199.063 290.538 199.255V206.119H294.186C294.37 206.119 294.51 206.163 294.606 206.251C294.71 206.339 294.762 206.467 294.762 206.635C294.762 206.803 294.71 206.931 294.606 207.019C294.51 207.107 294.37 207.151 294.186 207.151H289.902ZM300.281 205.675C300.393 205.675 300.485 205.719 300.557 205.807C300.629 205.895 300.665 206.007 300.665 206.143C300.665 206.375 300.521 206.571 300.233 206.731C299.953 206.891 299.645 207.015 299.309 207.103C298.981 207.191 298.665 207.235 298.361 207.235C297.433 207.235 296.701 206.967 296.165 206.431C295.629 205.887 295.361 205.147 295.361 204.211C295.361 203.611 295.477 203.079 295.709 202.615C295.949 202.151 296.281 201.791 296.705 201.535C297.137 201.279 297.625 201.151 298.169 201.151C298.953 201.151 299.573 201.403 300.029 201.907C300.485 202.411 300.713 203.091 300.713 203.947C300.713 204.267 300.569 204.427 300.281 204.427H296.573C296.653 205.667 297.249 206.287 298.361 206.287C298.657 206.287 298.913 206.247 299.129 206.167C299.345 206.087 299.573 205.983 299.813 205.855C299.837 205.839 299.901 205.807 300.005 205.759C300.117 205.703 300.209 205.675 300.281 205.675ZM298.193 202.039C297.729 202.039 297.357 202.187 297.077 202.483C296.797 202.779 296.629 203.195 296.573 203.731H299.669C299.645 203.187 299.505 202.771 299.249 202.483C299.001 202.187 298.649 202.039 298.193 202.039ZM306.837 198.631C307.021 198.631 307.169 198.683 307.281 198.787C307.393 198.891 307.449 199.031 307.449 199.207V206.623C307.449 206.807 307.393 206.951 307.281 207.055C307.177 207.159 307.033 207.211 306.849 207.211C306.665 207.211 306.517 207.159 306.405 207.055C306.301 206.951 306.249 206.807 306.249 206.623V206.143C306.073 206.495 305.817 206.767 305.481 206.959C305.145 207.143 304.757 207.235 304.317 207.235C303.813 207.235 303.361 207.107 302.961 206.851C302.569 206.595 302.261 206.235 302.037 205.771C301.821 205.307 301.713 204.775 301.713 204.175C301.713 203.567 301.821 203.035 302.037 202.579C302.261 202.123 302.569 201.771 302.961 201.523C303.353 201.275 303.805 201.151 304.317 201.151C304.757 201.151 305.141 201.247 305.469 201.439C305.805 201.623 306.061 201.887 306.237 202.231V199.183C306.237 199.015 306.289 198.883 306.393 198.787C306.505 198.683 306.653 198.631 306.837 198.631ZM304.605 206.275C305.125 206.275 305.529 206.095 305.817 205.735C306.105 205.375 306.249 204.863 306.249 204.199C306.249 203.535 306.105 203.023 305.817 202.663C305.537 202.303 305.133 202.123 304.605 202.123C304.077 202.123 303.665 202.303 303.369 202.663C303.081 203.015 302.937 203.519 302.937 204.175C302.937 204.831 303.085 205.347 303.381 205.723C303.677 206.091 304.085 206.275 304.605 206.275ZM313.987 201.175C314.171 201.175 314.315 201.231 314.419 201.343C314.531 201.447 314.587 201.587 314.587 201.763V206.683C314.587 207.579 314.347 208.255 313.867 208.711C313.395 209.167 312.695 209.395 311.767 209.395C310.903 209.395 310.183 209.231 309.607 208.903C309.311 208.735 309.163 208.535 309.163 208.303C309.163 208.167 309.199 208.055 309.271 207.967C309.351 207.879 309.447 207.835 309.559 207.835C309.663 207.835 309.827 207.895 310.051 208.015C310.339 208.151 310.607 208.255 310.855 208.327C311.103 208.407 311.399 208.447 311.743 208.447C312.847 208.447 313.399 207.891 313.399 206.779V205.855C313.231 206.207 312.975 206.483 312.631 206.683C312.287 206.875 311.887 206.971 311.431 206.971C310.919 206.971 310.463 206.851 310.063 206.611C309.663 206.371 309.351 206.031 309.127 205.591C308.911 205.151 308.803 204.643 308.803 204.067C308.803 203.491 308.915 202.983 309.139 202.543C309.363 202.103 309.671 201.763 310.063 201.523C310.463 201.275 310.919 201.151 311.431 201.151C311.879 201.151 312.271 201.247 312.607 201.439C312.951 201.631 313.211 201.903 313.387 202.255V201.751C313.387 201.575 313.439 201.435 313.543 201.331C313.655 201.227 313.803 201.175 313.987 201.175ZM311.719 206.011C312.239 206.011 312.647 205.839 312.943 205.495C313.239 205.151 313.387 204.675 313.387 204.067C313.387 203.467 313.239 202.995 312.943 202.651C312.655 202.299 312.247 202.123 311.719 202.123C311.191 202.123 310.775 202.295 310.471 202.639C310.175 202.983 310.027 203.459 310.027 204.067C310.027 204.675 310.179 205.151 310.483 205.495C310.787 205.839 311.199 206.011 311.719 206.011ZM320.86 205.675C320.972 205.675 321.064 205.719 321.136 205.807C321.208 205.895 321.244 206.007 321.244 206.143C321.244 206.375 321.1 206.571 320.812 206.731C320.532 206.891 320.224 207.015 319.888 207.103C319.56 207.191 319.244 207.235 318.94 207.235C318.012 207.235 317.28 206.967 316.744 206.431C316.208 205.887 315.94 205.147 315.94 204.211C315.94 203.611 316.056 203.079 316.288 202.615C316.528 202.151 316.86 201.791 317.284 201.535C317.716 201.279 318.204 201.151 318.748 201.151C319.532 201.151 320.152 201.403 320.608 201.907C321.064 202.411 321.292 203.091 321.292 203.947C321.292 204.267 321.148 204.427 320.86 204.427H317.152C317.232 205.667 317.828 206.287 318.94 206.287C319.236 206.287 319.492 206.247 319.708 206.167C319.924 206.087 320.152 205.983 320.392 205.855C320.416 205.839 320.48 205.807 320.584 205.759C320.696 205.703 320.788 205.675 320.86 205.675ZM318.772 202.039C318.308 202.039 317.936 202.187 317.656 202.483C317.376 202.779 317.208 203.195 317.152 203.731H320.248C320.224 203.187 320.084 202.771 319.828 202.483C319.58 202.187 319.228 202.039 318.772 202.039ZM325.699 201.175C326.083 201.151 326.275 201.315 326.275 201.667C326.275 201.843 326.231 201.975 326.143 202.063C326.055 202.151 325.903 202.203 325.687 202.219L325.327 202.255C324.823 202.303 324.447 202.479 324.199 202.783C323.959 203.087 323.839 203.455 323.839 203.887V206.635C323.839 206.827 323.783 206.971 323.671 207.067C323.559 207.163 323.415 207.211 323.239 207.211C323.063 207.211 322.915 207.163 322.795 207.067C322.683 206.971 322.627 206.827 322.627 206.635V201.751C322.627 201.567 322.683 201.427 322.795 201.331C322.915 201.227 323.063 201.175 323.239 201.175C323.399 201.175 323.531 201.227 323.635 201.331C323.747 201.427 323.803 201.563 323.803 201.739V202.315C323.963 201.963 324.195 201.695 324.499 201.511C324.803 201.327 325.147 201.219 325.531 201.187L325.699 201.175ZM327.634 207.211C327.458 207.211 327.31 207.163 327.19 207.067C327.078 206.971 327.022 206.827 327.022 206.635V201.763C327.022 201.571 327.078 201.427 327.19 201.331C327.31 201.227 327.458 201.175 327.634 201.175C327.81 201.175 327.954 201.227 328.066 201.331C328.178 201.427 328.234 201.571 328.234 201.763V206.635C328.234 206.827 328.178 206.971 328.066 207.067C327.954 207.163 327.81 207.211 327.634 207.211ZM327.634 199.999C327.402 199.999 327.218 199.935 327.082 199.807C326.946 199.679 326.878 199.511 326.878 199.303C326.878 199.095 326.946 198.931 327.082 198.811C327.218 198.683 327.402 198.619 327.634 198.619C327.858 198.619 328.038 198.683 328.174 198.811C328.318 198.931 328.39 199.095 328.39 199.303C328.39 199.511 328.322 199.679 328.186 199.807C328.05 199.935 327.866 199.999 327.634 199.999ZM334.464 201.175C334.648 201.175 334.792 201.227 334.896 201.331C335.008 201.435 335.064 201.579 335.064 201.763V206.647C335.064 206.815 335.008 206.951 334.896 207.055C334.784 207.159 334.636 207.211 334.452 207.211C334.284 207.211 334.148 207.163 334.044 207.067C333.94 206.963 333.888 206.827 333.888 206.659V206.203C333.704 206.539 333.448 206.795 333.12 206.971C332.8 207.147 332.44 207.235 332.04 207.235C330.616 207.235 329.904 206.451 329.904 204.883V201.763C329.904 201.579 329.956 201.435 330.06 201.331C330.172 201.227 330.324 201.175 330.516 201.175C330.7 201.175 330.844 201.227 330.948 201.331C331.06 201.435 331.116 201.579 331.116 201.763V204.871C331.116 205.343 331.212 205.691 331.404 205.915C331.596 206.139 331.892 206.251 332.292 206.251C332.764 206.251 333.14 206.099 333.42 205.795C333.708 205.491 333.852 205.087 333.852 204.583V201.763C333.852 201.587 333.908 201.447 334.02 201.343C334.132 201.231 334.28 201.175 334.464 201.175ZM343.48 201.151C344.792 201.151 345.448 201.939 345.448 203.515V206.635C345.448 206.819 345.392 206.963 345.28 207.067C345.168 207.163 345.02 207.211 344.836 207.211C344.66 207.211 344.516 207.163 344.404 207.067C344.292 206.963 344.236 206.819 344.236 206.635V203.527C344.236 203.039 344.148 202.687 343.972 202.471C343.796 202.247 343.52 202.135 343.144 202.135C342.704 202.135 342.356 202.287 342.1 202.591C341.844 202.887 341.716 203.295 341.716 203.815V206.635C341.716 206.819 341.66 206.963 341.548 207.067C341.436 207.163 341.288 207.211 341.104 207.211C340.928 207.211 340.784 207.163 340.672 207.067C340.56 206.963 340.504 206.819 340.504 206.635V203.527C340.504 203.039 340.416 202.687 340.24 202.471C340.064 202.247 339.788 202.135 339.412 202.135C338.972 202.135 338.62 202.287 338.356 202.591C338.1 202.887 337.972 203.295 337.972 203.815V206.635C337.972 206.819 337.916 206.963 337.804 207.067C337.692 207.163 337.548 207.211 337.372 207.211C337.196 207.211 337.048 207.163 336.928 207.067C336.816 206.963 336.76 206.819 336.76 206.635V201.751C336.76 201.575 336.82 201.435 336.94 201.331C337.06 201.227 337.204 201.175 337.372 201.175C337.54 201.175 337.676 201.227 337.78 201.331C337.892 201.427 337.948 201.563 337.948 201.739V202.183C338.124 201.847 338.368 201.591 338.68 201.415C338.992 201.239 339.352 201.151 339.76 201.151C340.208 201.151 340.576 201.243 340.864 201.427C341.16 201.611 341.38 201.895 341.524 202.279C341.7 201.935 341.96 201.663 342.304 201.463C342.648 201.255 343.04 201.151 343.48 201.151ZM305.487 227.131C305.679 227.131 305.823 227.175 305.919 227.263C306.023 227.351 306.075 227.475 306.075 227.635C306.075 227.979 305.879 228.151 305.487 228.151H300.855C300.679 228.151 300.539 228.103 300.435 228.007C300.339 227.903 300.291 227.775 300.291 227.623C300.291 227.439 300.363 227.271 300.507 227.119L303.327 224.035C303.703 223.627 303.975 223.255 304.143 222.919C304.311 222.583 304.395 222.251 304.395 221.923C304.395 221.499 304.271 221.175 304.023 220.951C303.783 220.719 303.439 220.603 302.991 220.603C302.311 220.603 301.635 220.863 300.963 221.383C300.875 221.439 300.799 221.483 300.735 221.515C300.679 221.539 300.619 221.551 300.555 221.551C300.443 221.551 300.347 221.499 300.267 221.395C300.187 221.291 300.147 221.167 300.147 221.023C300.147 220.823 300.227 220.663 300.387 220.543C300.723 220.255 301.127 220.027 301.599 219.859C302.071 219.683 302.547 219.595 303.027 219.595C303.819 219.595 304.447 219.799 304.911 220.207C305.383 220.607 305.619 221.151 305.619 221.839C305.619 222.327 305.511 222.791 305.295 223.231C305.087 223.671 304.735 224.163 304.239 224.707L301.971 227.131H305.487ZM310.246 228.247C309.262 228.247 308.51 227.879 307.99 227.143C307.478 226.407 307.222 225.335 307.222 223.927C307.222 222.511 307.478 221.435 307.99 220.699C308.51 219.963 309.262 219.595 310.246 219.595C311.23 219.595 311.978 219.963 312.49 220.699C313.01 221.427 313.27 222.499 313.27 223.915C313.27 225.331 313.01 226.407 312.49 227.143C311.978 227.879 311.23 228.247 310.246 228.247ZM310.246 227.251C310.862 227.251 311.314 226.983 311.602 226.447C311.89 225.911 312.034 225.067 312.034 223.915C312.034 222.763 311.89 221.923 311.602 221.395C311.314 220.859 310.862 220.591 310.246 220.591C309.63 220.591 309.178 220.859 308.89 221.395C308.602 221.923 308.458 222.763 308.458 223.915C308.458 225.059 308.602 225.903 308.89 226.447C309.178 226.983 309.63 227.251 310.246 227.251ZM315.27 228.211C315.054 228.211 314.87 228.139 314.718 227.995C314.574 227.851 314.502 227.667 314.502 227.443C314.502 227.219 314.574 227.035 314.718 226.891C314.87 226.739 315.054 226.663 315.27 226.663C315.486 226.663 315.666 226.739 315.81 226.891C315.954 227.035 316.026 227.219 316.026 227.443C316.026 227.667 315.954 227.851 315.81 227.995C315.666 228.139 315.486 228.211 315.27 228.211ZM320.301 228.247C319.317 228.247 318.565 227.879 318.045 227.143C317.533 226.407 317.277 225.335 317.277 223.927C317.277 222.511 317.533 221.435 318.045 220.699C318.565 219.963 319.317 219.595 320.301 219.595C321.285 219.595 322.033 219.963 322.545 220.699C323.065 221.427 323.325 222.499 323.325 223.915C323.325 225.331 323.065 226.407 322.545 227.143C322.033 227.879 321.285 228.247 320.301 228.247ZM320.301 227.251C320.917 227.251 321.369 226.983 321.657 226.447C321.945 225.911 322.089 225.067 322.089 223.915C322.089 222.763 321.945 221.923 321.657 221.395C321.369 220.859 320.917 220.591 320.301 220.591C319.685 220.591 319.233 220.859 318.945 221.395C318.657 221.923 318.513 222.763 318.513 223.915C318.513 225.059 318.657 225.903 318.945 226.447C319.233 226.983 319.685 227.251 320.301 227.251ZM327.688 228.043C327.576 228.251 327.42 228.355 327.22 228.355C327.1 228.355 326.992 228.311 326.896 228.223C326.808 228.135 326.764 228.023 326.764 227.887C326.764 227.775 326.796 227.667 326.86 227.563L331.348 219.799C331.468 219.591 331.628 219.487 331.828 219.487C331.948 219.487 332.052 219.531 332.14 219.619C332.236 219.707 332.284 219.819 332.284 219.955C332.284 220.067 332.252 220.175 332.188 220.279L327.688 228.043ZM326.572 224.755C325.924 224.755 325.416 224.535 325.048 224.095C324.68 223.655 324.496 223.011 324.496 222.163C324.496 221.315 324.68 220.675 325.048 220.243C325.416 219.803 325.924 219.583 326.572 219.583C327.228 219.583 327.74 219.803 328.108 220.243C328.476 220.675 328.66 221.315 328.66 222.163C328.66 223.019 328.476 223.667 328.108 224.107C327.74 224.539 327.228 224.755 326.572 224.755ZM326.572 223.939C326.924 223.939 327.184 223.799 327.352 223.519C327.52 223.231 327.604 222.779 327.604 222.163C327.604 221.555 327.52 221.111 327.352 220.831C327.184 220.551 326.924 220.411 326.572 220.411C326.22 220.411 325.96 220.551 325.792 220.831C325.632 221.103 325.552 221.547 325.552 222.163C325.552 222.779 325.632 223.231 325.792 223.519C325.96 223.799 326.22 223.939 326.572 223.939ZM332.464 228.235C331.808 228.235 331.296 228.019 330.928 227.587C330.56 227.147 330.376 226.499 330.376 225.643C330.376 224.795 330.56 224.155 330.928 223.723C331.296 223.283 331.808 223.063 332.464 223.063C333.112 223.063 333.62 223.283 333.988 223.723C334.364 224.155 334.552 224.795 334.552 225.643C334.552 226.491 334.368 227.135 334 227.575C333.632 228.015 333.12 228.235 332.464 228.235ZM332.464 227.419C332.816 227.419 333.072 227.279 333.232 226.999C333.4 226.711 333.484 226.259 333.484 225.643C333.484 225.035 333.4 224.591 333.232 224.311C333.064 224.023 332.808 223.879 332.464 223.879C332.112 223.879 331.852 224.019 331.684 224.299C331.516 224.579 331.432 225.027 331.432 225.643C331.432 226.259 331.516 226.711 331.684 226.999C331.852 227.279 332.112 227.419 332.464 227.419Z" fill="#0C9072"/>
<path d="M288.748 333.211C288.564 333.211 288.416 333.155 288.304 333.043C288.192 332.931 288.136 332.779 288.136 332.587V325.291C288.136 325.107 288.188 324.963 288.292 324.859C288.404 324.747 288.556 324.691 288.748 324.691H291.64C292.536 324.691 293.232 324.911 293.728 325.351C294.224 325.791 294.472 326.415 294.472 327.223C294.472 328.023 294.224 328.647 293.728 329.095C293.232 329.543 292.536 329.767 291.64 329.767H289.372V332.587C289.372 332.779 289.316 332.931 289.204 333.043C289.1 333.155 288.948 333.211 288.748 333.211ZM291.508 328.771C292.692 328.771 293.284 328.255 293.284 327.223C293.284 326.199 292.692 325.687 291.508 325.687H289.372V328.771H291.508ZM300.274 327.175C300.458 327.175 300.602 327.227 300.706 327.331C300.818 327.435 300.874 327.579 300.874 327.763V332.647C300.874 332.815 300.818 332.951 300.706 333.055C300.594 333.159 300.446 333.211 300.262 333.211C300.094 333.211 299.958 333.163 299.854 333.067C299.75 332.963 299.698 332.827 299.698 332.659V332.203C299.514 332.539 299.258 332.795 298.93 332.971C298.61 333.147 298.25 333.235 297.85 333.235C296.426 333.235 295.714 332.451 295.714 330.883V327.763C295.714 327.579 295.766 327.435 295.87 327.331C295.982 327.227 296.134 327.175 296.326 327.175C296.51 327.175 296.654 327.227 296.758 327.331C296.87 327.435 296.926 327.579 296.926 327.763V330.871C296.926 331.343 297.022 331.691 297.214 331.915C297.406 332.139 297.702 332.251 298.102 332.251C298.574 332.251 298.95 332.099 299.23 331.795C299.518 331.491 299.662 331.087 299.662 330.583V327.763C299.662 327.587 299.718 327.447 299.83 327.343C299.942 327.231 300.09 327.175 300.274 327.175ZM305.714 327.151C306.226 327.151 306.678 327.275 307.07 327.523C307.462 327.771 307.766 328.123 307.982 328.579C308.206 329.035 308.318 329.567 308.318 330.175C308.318 330.775 308.206 331.307 307.982 331.771C307.766 332.235 307.458 332.595 307.058 332.851C306.666 333.107 306.218 333.235 305.714 333.235C305.274 333.235 304.886 333.143 304.55 332.959C304.214 332.767 303.958 332.495 303.782 332.143V332.623C303.782 332.799 303.726 332.943 303.614 333.055C303.51 333.159 303.366 333.211 303.182 333.211C302.998 333.211 302.85 333.159 302.738 333.055C302.626 332.943 302.57 332.799 302.57 332.623V325.207C302.57 325.031 302.626 324.891 302.738 324.787C302.858 324.683 303.01 324.631 303.194 324.631C303.37 324.631 303.51 324.683 303.614 324.787C303.726 324.883 303.782 325.015 303.782 325.183V328.255C303.958 327.903 304.214 327.631 304.55 327.439C304.886 327.247 305.274 327.151 305.714 327.151ZM305.426 332.275C305.946 332.275 306.35 332.091 306.638 331.723C306.934 331.355 307.082 330.839 307.082 330.175C307.082 329.519 306.938 329.015 306.65 328.663C306.362 328.303 305.954 328.123 305.426 328.123C304.898 328.123 304.49 328.303 304.202 328.663C303.922 329.023 303.782 329.535 303.782 330.199C303.782 330.863 303.922 331.375 304.202 331.735C304.49 332.095 304.898 332.275 305.426 332.275ZM310.272 333.211C310.096 333.211 309.948 333.163 309.828 333.067C309.716 332.971 309.66 332.827 309.66 332.635V325.219C309.66 325.027 309.716 324.883 309.828 324.787C309.948 324.683 310.096 324.631 310.272 324.631C310.448 324.631 310.592 324.683 310.704 324.787C310.816 324.883 310.872 325.027 310.872 325.219V332.635C310.872 332.827 310.816 332.971 310.704 333.067C310.592 333.163 310.448 333.211 310.272 333.211ZM313.179 333.211C313.003 333.211 312.855 333.163 312.735 333.067C312.623 332.971 312.567 332.827 312.567 332.635V327.763C312.567 327.571 312.623 327.427 312.735 327.331C312.855 327.227 313.003 327.175 313.179 327.175C313.355 327.175 313.499 327.227 313.611 327.331C313.723 327.427 313.779 327.571 313.779 327.763V332.635C313.779 332.827 313.723 332.971 313.611 333.067C313.499 333.163 313.355 333.211 313.179 333.211ZM313.179 325.999C312.947 325.999 312.763 325.935 312.627 325.807C312.491 325.679 312.423 325.511 312.423 325.303C312.423 325.095 312.491 324.931 312.627 324.811C312.763 324.683 312.947 324.619 313.179 324.619C313.403 324.619 313.583 324.683 313.719 324.811C313.863 324.931 313.935 325.095 313.935 325.303C313.935 325.511 313.867 325.679 313.731 325.807C313.595 325.935 313.411 325.999 313.179 325.999ZM317.981 333.235C317.413 333.235 316.913 333.111 316.481 332.863C316.057 332.615 315.725 332.263 315.485 331.807C315.253 331.351 315.137 330.823 315.137 330.223C315.137 329.615 315.257 329.079 315.497 328.615C315.745 328.151 316.089 327.791 316.529 327.535C316.969 327.279 317.473 327.151 318.041 327.151C318.345 327.151 318.649 327.195 318.953 327.283C319.265 327.371 319.541 327.491 319.781 327.643C320.037 327.819 320.165 328.023 320.165 328.255C320.165 328.391 320.129 328.507 320.057 328.603C319.985 328.691 319.893 328.735 319.781 328.735C319.709 328.735 319.637 328.719 319.565 328.687C319.493 328.647 319.401 328.591 319.289 328.519C319.089 328.391 318.901 328.295 318.725 328.231C318.557 328.159 318.353 328.123 318.113 328.123C317.569 328.123 317.145 328.307 316.841 328.675C316.545 329.043 316.397 329.555 316.397 330.211C316.397 330.867 316.545 331.375 316.841 331.735C317.137 332.087 317.557 332.263 318.101 332.263C318.341 332.263 318.553 332.227 318.737 332.155C318.921 332.083 319.109 331.987 319.301 331.867C319.389 331.811 319.477 331.763 319.565 331.723C319.653 331.683 319.733 331.663 319.805 331.663C319.917 331.663 320.009 331.711 320.081 331.807C320.153 331.895 320.189 332.007 320.189 332.143C320.189 332.255 320.157 332.359 320.093 332.455C320.037 332.543 319.937 332.635 319.793 332.731C319.553 332.891 319.273 333.015 318.953 333.103C318.633 333.191 318.309 333.235 317.981 333.235ZM292.299 351.415C292.691 351.415 292.887 351.579 292.887 351.907C292.887 352.235 292.691 352.399 292.299 352.399H291.531V353.587C291.531 353.787 291.475 353.943 291.363 354.055C291.251 354.159 291.103 354.211 290.919 354.211C290.743 354.211 290.599 354.159 290.487 354.055C290.375 353.943 290.319 353.787 290.319 353.587V352.399H286.947C286.771 352.399 286.635 352.351 286.539 352.255C286.443 352.159 286.395 352.035 286.395 351.883C286.395 351.723 286.447 351.567 286.551 351.415L290.379 345.907C290.507 345.723 290.687 345.631 290.919 345.631C291.087 345.631 291.231 345.687 291.351 345.799C291.471 345.903 291.531 346.055 291.531 346.255V351.415H292.299ZM290.319 351.415V347.671L287.727 351.415H290.319ZM296.746 354.247C295.762 354.247 295.01 353.879 294.49 353.143C293.978 352.407 293.722 351.335 293.722 349.927C293.722 348.511 293.978 347.435 294.49 346.699C295.01 345.963 295.762 345.595 296.746 345.595C297.73 345.595 298.478 345.963 298.99 346.699C299.51 347.427 299.77 348.499 299.77 349.915C299.77 351.331 299.51 352.407 298.99 353.143C298.478 353.879 297.73 354.247 296.746 354.247ZM296.746 353.251C297.362 353.251 297.814 352.983 298.102 352.447C298.39 351.911 298.534 351.067 298.534 349.915C298.534 348.763 298.39 347.923 298.102 347.395C297.814 346.859 297.362 346.591 296.746 346.591C296.13 346.591 295.678 346.859 295.39 347.395C295.102 347.923 294.958 348.763 294.958 349.915C294.958 351.059 295.102 351.903 295.39 352.447C295.678 352.983 296.13 353.251 296.746 353.251ZM301.77 354.211C301.554 354.211 301.37 354.139 301.218 353.995C301.074 353.851 301.002 353.667 301.002 353.443C301.002 353.219 301.074 353.035 301.218 352.891C301.37 352.739 301.554 352.663 301.77 352.663C301.986 352.663 302.166 352.739 302.31 352.891C302.454 353.035 302.526 353.219 302.526 353.443C302.526 353.667 302.454 353.851 302.31 353.995C302.166 354.139 301.986 354.211 301.77 354.211ZM306.801 354.247C305.817 354.247 305.065 353.879 304.545 353.143C304.033 352.407 303.777 351.335 303.777 349.927C303.777 348.511 304.033 347.435 304.545 346.699C305.065 345.963 305.817 345.595 306.801 345.595C307.785 345.595 308.533 345.963 309.045 346.699C309.565 347.427 309.825 348.499 309.825 349.915C309.825 351.331 309.565 352.407 309.045 353.143C308.533 353.879 307.785 354.247 306.801 354.247ZM306.801 353.251C307.417 353.251 307.869 352.983 308.157 352.447C308.445 351.911 308.589 351.067 308.589 349.915C308.589 348.763 308.445 347.923 308.157 347.395C307.869 346.859 307.417 346.591 306.801 346.591C306.185 346.591 305.733 346.859 305.445 347.395C305.157 347.923 305.013 348.763 305.013 349.915C305.013 351.059 305.157 351.903 305.445 352.447C305.733 352.983 306.185 353.251 306.801 353.251ZM314.188 354.043C314.076 354.251 313.92 354.355 313.72 354.355C313.6 354.355 313.492 354.311 313.396 354.223C313.308 354.135 313.264 354.023 313.264 353.887C313.264 353.775 313.296 353.667 313.36 353.563L317.848 345.799C317.968 345.591 318.128 345.487 318.328 345.487C318.448 345.487 318.552 345.531 318.64 345.619C318.736 345.707 318.784 345.819 318.784 345.955C318.784 346.067 318.752 346.175 318.688 346.279L314.188 354.043ZM313.072 350.755C312.424 350.755 311.916 350.535 311.548 350.095C311.18 349.655 310.996 349.011 310.996 348.163C310.996 347.315 311.18 346.675 311.548 346.243C311.916 345.803 312.424 345.583 313.072 345.583C313.728 345.583 314.24 345.803 314.608 346.243C314.976 346.675 315.16 347.315 315.16 348.163C315.16 349.019 314.976 349.667 314.608 350.107C314.24 350.539 313.728 350.755 313.072 350.755ZM313.072 349.939C313.424 349.939 313.684 349.799 313.852 349.519C314.02 349.231 314.104 348.779 314.104 348.163C314.104 347.555 314.02 347.111 313.852 346.831C313.684 346.551 313.424 346.411 313.072 346.411C312.72 346.411 312.46 346.551 312.292 346.831C312.132 347.103 312.052 347.547 312.052 348.163C312.052 348.779 312.132 349.231 312.292 349.519C312.46 349.799 312.72 349.939 313.072 349.939ZM318.964 354.235C318.308 354.235 317.796 354.019 317.428 353.587C317.06 353.147 316.876 352.499 316.876 351.643C316.876 350.795 317.06 350.155 317.428 349.723C317.796 349.283 318.308 349.063 318.964 349.063C319.612 349.063 320.12 349.283 320.488 349.723C320.864 350.155 321.052 350.795 321.052 351.643C321.052 352.491 320.868 353.135 320.5 353.575C320.132 354.015 319.62 354.235 318.964 354.235ZM318.964 353.419C319.316 353.419 319.572 353.279 319.732 352.999C319.9 352.711 319.984 352.259 319.984 351.643C319.984 351.035 319.9 350.591 319.732 350.311C319.564 350.023 319.308 349.879 318.964 349.879C318.612 349.879 318.352 350.019 318.184 350.299C318.016 350.579 317.932 351.027 317.932 351.643C317.932 352.259 318.016 352.711 318.184 352.999C318.352 353.279 318.612 353.419 318.964 353.419Z" fill="#6E7D92"/>
<path d="M164.168 256.151C163.976 256.151 163.824 256.099 163.712 255.995C163.608 255.883 163.556 255.735 163.556 255.551V248.291C163.556 248.107 163.608 247.963 163.712 247.859C163.824 247.747 163.976 247.691 164.168 247.691H168.584C168.768 247.691 168.908 247.735 169.004 247.823C169.108 247.911 169.16 248.035 169.16 248.195C169.16 248.355 169.108 248.479 169.004 248.567C168.908 248.647 168.768 248.687 168.584 248.687H164.768V251.351H168.344C168.528 251.351 168.668 251.395 168.764 251.483C168.868 251.571 168.92 251.695 168.92 251.855C168.92 252.015 168.868 252.139 168.764 252.227C168.668 252.315 168.528 252.359 168.344 252.359H164.768V255.155H168.584C168.968 255.155 169.16 255.319 169.16 255.647C169.16 255.807 169.108 255.931 169.004 256.019C168.908 256.107 168.768 256.151 168.584 256.151H164.168ZM173.588 250.151C174.988 250.151 175.688 250.939 175.688 252.515V255.635C175.688 255.819 175.632 255.963 175.52 256.067C175.416 256.163 175.268 256.211 175.076 256.211C174.892 256.211 174.744 256.159 174.632 256.055C174.528 255.951 174.476 255.811 174.476 255.635V252.575C174.476 252.079 174.376 251.715 174.176 251.483C173.984 251.251 173.68 251.135 173.264 251.135C172.776 251.135 172.384 251.287 172.088 251.591C171.792 251.895 171.644 252.303 171.644 252.815V255.635C171.644 255.811 171.588 255.951 171.476 256.055C171.372 256.159 171.228 256.211 171.044 256.211C170.86 256.211 170.712 256.159 170.6 256.055C170.488 255.951 170.432 255.811 170.432 255.635V250.751C170.432 250.583 170.488 250.447 170.6 250.343C170.72 250.231 170.868 250.175 171.044 250.175C171.22 250.175 171.36 250.227 171.464 250.331C171.568 250.435 171.62 250.571 171.62 250.739V251.231C171.812 250.879 172.08 250.611 172.424 250.427C172.768 250.243 173.156 250.151 173.588 250.151ZM180.214 255.287C180.39 255.303 180.514 255.351 180.586 255.431C180.666 255.503 180.706 255.607 180.706 255.743C180.706 255.903 180.642 256.027 180.514 256.115C180.394 256.195 180.214 256.227 179.974 256.211L179.65 256.187C179.002 256.139 178.518 255.943 178.198 255.599C177.878 255.247 177.718 254.731 177.718 254.051V251.231H176.998C176.646 251.231 176.47 251.075 176.47 250.763C176.47 250.619 176.514 250.507 176.602 250.427C176.698 250.339 176.83 250.295 176.998 250.295H177.718V249.059C177.718 248.875 177.77 248.731 177.874 248.627C177.986 248.523 178.134 248.471 178.318 248.471C178.502 248.471 178.65 248.523 178.762 248.627C178.874 248.731 178.93 248.875 178.93 249.059V250.295H180.118C180.286 250.295 180.414 250.339 180.502 250.427C180.598 250.507 180.646 250.619 180.646 250.763C180.646 250.915 180.598 251.031 180.502 251.111C180.414 251.191 180.286 251.231 180.118 251.231H178.93V254.135C178.93 254.511 179.006 254.787 179.158 254.963C179.318 255.139 179.558 255.239 179.878 255.263L180.214 255.287ZM186.16 254.675C186.272 254.675 186.364 254.719 186.436 254.807C186.508 254.895 186.544 255.007 186.544 255.143C186.544 255.375 186.4 255.571 186.112 255.731C185.832 255.891 185.524 256.015 185.188 256.103C184.86 256.191 184.544 256.235 184.24 256.235C183.312 256.235 182.58 255.967 182.044 255.431C181.508 254.887 181.24 254.147 181.24 253.211C181.24 252.611 181.356 252.079 181.588 251.615C181.828 251.151 182.16 250.791 182.584 250.535C183.016 250.279 183.504 250.151 184.048 250.151C184.832 250.151 185.452 250.403 185.908 250.907C186.364 251.411 186.592 252.091 186.592 252.947C186.592 253.267 186.448 253.427 186.16 253.427H182.452C182.532 254.667 183.128 255.287 184.24 255.287C184.536 255.287 184.792 255.247 185.008 255.167C185.224 255.087 185.452 254.983 185.692 254.855C185.716 254.839 185.78 254.807 185.884 254.759C185.996 254.703 186.088 254.675 186.16 254.675ZM184.072 251.039C183.608 251.039 183.236 251.187 182.956 251.483C182.676 251.779 182.508 252.195 182.452 252.731H185.548C185.524 252.187 185.384 251.771 185.128 251.483C184.88 251.187 184.528 251.039 184.072 251.039ZM191 250.175C191.384 250.151 191.576 250.315 191.576 250.667C191.576 250.843 191.532 250.975 191.444 251.063C191.356 251.151 191.204 251.203 190.988 251.219L190.628 251.255C190.124 251.303 189.748 251.479 189.5 251.783C189.26 252.087 189.14 252.455 189.14 252.887V255.635C189.14 255.827 189.084 255.971 188.972 256.067C188.86 256.163 188.716 256.211 188.54 256.211C188.364 256.211 188.216 256.163 188.096 256.067C187.984 255.971 187.928 255.827 187.928 255.635V250.751C187.928 250.567 187.984 250.427 188.096 250.331C188.216 250.227 188.364 250.175 188.54 250.175C188.7 250.175 188.832 250.227 188.936 250.331C189.048 250.427 189.104 250.563 189.104 250.739V251.315C189.264 250.963 189.496 250.695 189.8 250.511C190.104 250.327 190.448 250.219 190.832 250.187L191 250.175ZM195.466 250.151C195.97 250.151 196.418 250.279 196.81 250.535C197.21 250.791 197.518 251.151 197.734 251.615C197.958 252.079 198.07 252.615 198.07 253.223C198.07 253.823 197.962 254.351 197.746 254.807C197.53 255.263 197.222 255.615 196.822 255.863C196.43 256.111 195.978 256.235 195.466 256.235C195.026 256.235 194.638 256.143 194.302 255.959C193.966 255.767 193.71 255.495 193.534 255.143V257.819C193.534 257.987 193.478 258.119 193.366 258.215C193.262 258.319 193.122 258.371 192.946 258.371C192.762 258.371 192.61 258.319 192.49 258.215C192.378 258.111 192.322 257.971 192.322 257.795V250.763C192.322 250.587 192.378 250.447 192.49 250.343C192.602 250.231 192.75 250.175 192.934 250.175C193.11 250.175 193.254 250.231 193.366 250.343C193.478 250.447 193.534 250.587 193.534 250.763V251.255C193.71 250.903 193.966 250.631 194.302 250.439C194.638 250.247 195.026 250.151 195.466 250.151ZM195.178 255.275C195.706 255.275 196.114 255.099 196.402 254.747C196.69 254.387 196.834 253.879 196.834 253.223C196.834 252.559 196.686 252.043 196.39 251.675C196.102 251.307 195.698 251.123 195.178 251.123C194.65 251.123 194.242 251.303 193.954 251.663C193.674 252.023 193.534 252.535 193.534 253.199C193.534 253.863 193.674 254.375 193.954 254.735C194.242 255.095 194.65 255.275 195.178 255.275ZM202.484 250.175C202.868 250.151 203.06 250.315 203.06 250.667C203.06 250.843 203.016 250.975 202.928 251.063C202.84 251.151 202.688 251.203 202.472 251.219L202.112 251.255C201.608 251.303 201.232 251.479 200.984 251.783C200.744 252.087 200.624 252.455 200.624 252.887V255.635C200.624 255.827 200.568 255.971 200.456 256.067C200.344 256.163 200.2 256.211 200.024 256.211C199.848 256.211 199.7 256.163 199.58 256.067C199.468 255.971 199.412 255.827 199.412 255.635V250.751C199.412 250.567 199.468 250.427 199.58 250.331C199.7 250.227 199.848 250.175 200.024 250.175C200.184 250.175 200.316 250.227 200.42 250.331C200.532 250.427 200.588 250.563 200.588 250.739V251.315C200.748 250.963 200.98 250.695 201.284 250.511C201.588 250.327 201.932 250.219 202.316 250.187L202.484 250.175ZM204.419 256.211C204.243 256.211 204.095 256.163 203.975 256.067C203.863 255.971 203.807 255.827 203.807 255.635V250.763C203.807 250.571 203.863 250.427 203.975 250.331C204.095 250.227 204.243 250.175 204.419 250.175C204.595 250.175 204.739 250.227 204.851 250.331C204.963 250.427 205.019 250.571 205.019 250.763V255.635C205.019 255.827 204.963 255.971 204.851 256.067C204.739 256.163 204.595 256.211 204.419 256.211ZM204.419 248.999C204.187 248.999 204.003 248.935 203.867 248.807C203.731 248.679 203.663 248.511 203.663 248.303C203.663 248.095 203.731 247.931 203.867 247.811C204.003 247.683 204.187 247.619 204.419 247.619C204.643 247.619 204.823 247.683 204.959 247.811C205.103 247.931 205.175 248.095 205.175 248.303C205.175 248.511 205.107 248.679 204.971 248.807C204.835 248.935 204.651 248.999 204.419 248.999ZM208.753 256.235C207.937 256.235 207.269 256.067 206.749 255.731C206.605 255.643 206.501 255.551 206.437 255.455C206.381 255.359 206.353 255.251 206.353 255.131C206.353 255.003 206.389 254.895 206.461 254.807C206.533 254.719 206.625 254.675 206.737 254.675C206.841 254.675 207.005 254.739 207.229 254.867C207.469 254.995 207.701 255.099 207.925 255.179C208.157 255.259 208.445 255.299 208.789 255.299C209.173 255.299 209.473 255.231 209.689 255.095C209.905 254.959 210.013 254.767 210.013 254.519C210.013 254.359 209.969 254.231 209.881 254.135C209.801 254.039 209.657 253.955 209.449 253.883C209.241 253.803 208.933 253.719 208.525 253.631C207.821 253.479 207.313 253.275 207.001 253.019C206.697 252.755 206.545 252.399 206.545 251.951C206.545 251.607 206.645 251.299 206.845 251.027C207.045 250.747 207.321 250.531 207.673 250.379C208.025 250.227 208.425 250.151 208.873 250.151C209.193 250.151 209.505 250.195 209.809 250.283C210.113 250.363 210.381 250.483 210.613 250.643C210.877 250.819 211.009 251.023 211.009 251.255C211.009 251.383 210.969 251.491 210.889 251.579C210.817 251.667 210.729 251.711 210.625 251.711C210.553 251.711 210.481 251.695 210.409 251.663C210.337 251.631 210.241 251.579 210.121 251.507C209.905 251.379 209.701 251.279 209.509 251.207C209.325 251.135 209.093 251.099 208.813 251.099C208.477 251.099 208.205 251.171 207.997 251.315C207.797 251.459 207.697 251.655 207.697 251.903C207.697 252.127 207.789 252.303 207.973 252.431C208.165 252.551 208.521 252.667 209.041 252.779C209.577 252.891 209.997 253.019 210.301 253.163C210.605 253.307 210.821 253.487 210.949 253.703C211.085 253.911 211.153 254.179 211.153 254.507C211.153 255.027 210.933 255.447 210.493 255.767C210.061 256.079 209.481 256.235 208.753 256.235ZM217.086 254.675C217.198 254.675 217.29 254.719 217.362 254.807C217.434 254.895 217.47 255.007 217.47 255.143C217.47 255.375 217.326 255.571 217.038 255.731C216.758 255.891 216.45 256.015 216.114 256.103C215.786 256.191 215.47 256.235 215.166 256.235C214.238 256.235 213.506 255.967 212.97 255.431C212.434 254.887 212.166 254.147 212.166 253.211C212.166 252.611 212.282 252.079 212.514 251.615C212.754 251.151 213.086 250.791 213.51 250.535C213.942 250.279 214.43 250.151 214.974 250.151C215.758 250.151 216.378 250.403 216.834 250.907C217.29 251.411 217.518 252.091 217.518 252.947C217.518 253.267 217.374 253.427 217.086 253.427H213.378C213.458 254.667 214.054 255.287 215.166 255.287C215.462 255.287 215.718 255.247 215.934 255.167C216.15 255.087 216.378 254.983 216.618 254.855C216.642 254.839 216.706 254.807 216.81 254.759C216.922 254.703 217.014 254.675 217.086 254.675ZM214.998 251.039C214.534 251.039 214.162 251.187 213.882 251.483C213.602 251.779 213.434 252.195 213.378 252.731H216.474C216.45 252.187 216.31 251.771 216.054 251.483C215.806 251.187 215.454 251.039 214.998 251.039ZM178.799 274.415C179.191 274.415 179.387 274.579 179.387 274.907C179.387 275.235 179.191 275.399 178.799 275.399H178.031V276.587C178.031 276.787 177.975 276.943 177.863 277.055C177.751 277.159 177.603 277.211 177.419 277.211C177.243 277.211 177.099 277.159 176.987 277.055C176.875 276.943 176.819 276.787 176.819 276.587V275.399H173.447C173.271 275.399 173.135 275.351 173.039 275.255C172.943 275.159 172.895 275.035 172.895 274.883C172.895 274.723 172.947 274.567 173.051 274.415L176.879 268.907C177.007 268.723 177.187 268.631 177.419 268.631C177.587 268.631 177.731 268.687 177.851 268.799C177.971 268.903 178.031 269.055 178.031 269.255V274.415H178.799ZM176.819 274.415V270.671L174.227 274.415H176.819ZM183.246 277.247C182.262 277.247 181.51 276.879 180.99 276.143C180.478 275.407 180.222 274.335 180.222 272.927C180.222 271.511 180.478 270.435 180.99 269.699C181.51 268.963 182.262 268.595 183.246 268.595C184.23 268.595 184.978 268.963 185.49 269.699C186.01 270.427 186.27 271.499 186.27 272.915C186.27 274.331 186.01 275.407 185.49 276.143C184.978 276.879 184.23 277.247 183.246 277.247ZM183.246 276.251C183.862 276.251 184.314 275.983 184.602 275.447C184.89 274.911 185.034 274.067 185.034 272.915C185.034 271.763 184.89 270.923 184.602 270.395C184.314 269.859 183.862 269.591 183.246 269.591C182.63 269.591 182.178 269.859 181.89 270.395C181.602 270.923 181.458 271.763 181.458 272.915C181.458 274.059 181.602 274.903 181.89 275.447C182.178 275.983 182.63 276.251 183.246 276.251ZM188.27 277.211C188.054 277.211 187.87 277.139 187.718 276.995C187.574 276.851 187.502 276.667 187.502 276.443C187.502 276.219 187.574 276.035 187.718 275.891C187.87 275.739 188.054 275.663 188.27 275.663C188.486 275.663 188.666 275.739 188.81 275.891C188.954 276.035 189.026 276.219 189.026 276.443C189.026 276.667 188.954 276.851 188.81 276.995C188.666 277.139 188.486 277.211 188.27 277.211ZM193.301 277.247C192.317 277.247 191.565 276.879 191.045 276.143C190.533 275.407 190.277 274.335 190.277 272.927C190.277 271.511 190.533 270.435 191.045 269.699C191.565 268.963 192.317 268.595 193.301 268.595C194.285 268.595 195.033 268.963 195.545 269.699C196.065 270.427 196.325 271.499 196.325 272.915C196.325 274.331 196.065 275.407 195.545 276.143C195.033 276.879 194.285 277.247 193.301 277.247ZM193.301 276.251C193.917 276.251 194.369 275.983 194.657 275.447C194.945 274.911 195.089 274.067 195.089 272.915C195.089 271.763 194.945 270.923 194.657 270.395C194.369 269.859 193.917 269.591 193.301 269.591C192.685 269.591 192.233 269.859 191.945 270.395C191.657 270.923 191.513 271.763 191.513 272.915C191.513 274.059 191.657 274.903 191.945 275.447C192.233 275.983 192.685 276.251 193.301 276.251ZM200.688 277.043C200.576 277.251 200.42 277.355 200.22 277.355C200.1 277.355 199.992 277.311 199.896 277.223C199.808 277.135 199.764 277.023 199.764 276.887C199.764 276.775 199.796 276.667 199.86 276.563L204.348 268.799C204.468 268.591 204.628 268.487 204.828 268.487C204.948 268.487 205.052 268.531 205.14 268.619C205.236 268.707 205.284 268.819 205.284 268.955C205.284 269.067 205.252 269.175 205.188 269.279L200.688 277.043ZM199.572 273.755C198.924 273.755 198.416 273.535 198.048 273.095C197.68 272.655 197.496 272.011 197.496 271.163C197.496 270.315 197.68 269.675 198.048 269.243C198.416 268.803 198.924 268.583 199.572 268.583C200.228 268.583 200.74 268.803 201.108 269.243C201.476 269.675 201.66 270.315 201.66 271.163C201.66 272.019 201.476 272.667 201.108 273.107C200.74 273.539 200.228 273.755 199.572 273.755ZM199.572 272.939C199.924 272.939 200.184 272.799 200.352 272.519C200.52 272.231 200.604 271.779 200.604 271.163C200.604 270.555 200.52 270.111 200.352 269.831C200.184 269.551 199.924 269.411 199.572 269.411C199.22 269.411 198.96 269.551 198.792 269.831C198.632 270.103 198.552 270.547 198.552 271.163C198.552 271.779 198.632 272.231 198.792 272.519C198.96 272.799 199.22 272.939 199.572 272.939ZM205.464 277.235C204.808 277.235 204.296 277.019 203.928 276.587C203.56 276.147 203.376 275.499 203.376 274.643C203.376 273.795 203.56 273.155 203.928 272.723C204.296 272.283 204.808 272.063 205.464 272.063C206.112 272.063 206.62 272.283 206.988 272.723C207.364 273.155 207.552 273.795 207.552 274.643C207.552 275.491 207.368 276.135 207 276.575C206.632 277.015 206.12 277.235 205.464 277.235ZM205.464 276.419C205.816 276.419 206.072 276.279 206.232 275.999C206.4 275.711 206.484 275.259 206.484 274.643C206.484 274.035 206.4 273.591 206.232 273.311C206.064 273.023 205.808 272.879 205.464 272.879C205.112 272.879 204.852 273.019 204.684 273.299C204.516 273.579 204.432 274.027 204.432 274.643C204.432 275.259 204.516 275.711 204.684 275.999C204.852 276.279 205.112 276.419 205.464 276.419Z" fill="#CADCF6"/>
<defs>
<filter id="filter0_d" x="0" y="0.133183" width="527" height="571" filterUnits="userSpaceOnUse" color-interpolation-filters="sRGB">
<feFlood flood-opacity="0" result="BackgroundImageFix"/>
<feColorMatrix in="SourceAlpha" type="matrix" values="0 0 0 0 0 0 0 0 0 0 0 0 0 0 0 0 0 0 127 0"/>
<feOffset dy="7.13318"/>
<feGaussianBlur stdDeviation="20"/>
<feColorMatrix type="matrix" values="0 0 0 0 0.745098 0 0 0 0 0.815686 0 0 0 0 0.913725 0 0 0 0.3 0"/>
<feBlend mode="normal" in2="BackgroundImageFix" result="effect1_dropShadow"/>
<feBlend mode="normal" in="SourceGraphic" in2="effect1_dropShadow" result="shape"/>
</filter>
<filter id="filter1_d" x="258.56" y="124.32" width="159.735" height="167.864" filterUnits="userSpaceOnUse" color-interpolation-filters="sRGB">
<feFlood flood-opacity="0" result="BackgroundImageFix"/>
<feColorMatrix in="SourceAlpha" type="matrix" values="0 0 0 0 0 0 0 0 0 0 0 0 0 0 0 0 0 0 127 0"/>
<feOffset dy="7.13318"/>
<feGaussianBlur stdDeviation="4.45824"/>
<feColorMatrix type="matrix" values="0 0 0 0 0.798338 0 0 0 0 0.975296 0 0 0 0 0.945803 0 0 0 1 0"/>
<feBlend mode="normal" in2="BackgroundImageFix" result="effect1_dropShadow"/>
<feBlend mode="normal" in="SourceGraphic" in2="effect1_dropShadow" result="shape"/>
</filter>
<filter id="filter2_d" x="49.9612" y="102.378" width="221.421" height="298.32" filterUnits="userSpaceOnUse" color-interpolation-filters="sRGB">
<feFlood flood-opacity="0" result="BackgroundImageFix"/>
<feColorMatrix in="SourceAlpha" type="matrix" values="0 0 0 0 0 0 0 0 0 0 0 0 0 0 0 0 0 0 127 0"/>
<feOffset dy="2.02411"/>
<feGaussianBlur stdDeviation="5.06026"/>
<feColorMatrix type="matrix" values="0 0 0 0 0.686024 0 0 0 0 0.769779 0 0 0 0 0.887796 0 0 0 1 0"/>
<feBlend mode="normal" in2="BackgroundImageFix" result="effect1_dropShadow"/>
<feBlend mode="normal" in="SourceGraphic" in2="effect1_dropShadow" result="shape"/>
</filter>
</defs>
</svg>
