<svg width="211" height="65" viewBox="0 0 211 65" fill="none" xmlns="http://www.w3.org/2000/svg">
<path d="M30.5797 61.277C47.4684 61.277 61.1594 47.5596 61.1594 30.6385C61.1594 13.7173 47.4684 0 30.5797 0C13.691 0 0 13.7173 0 30.6385C0 47.5596 13.691 61.277 30.5797 61.277Z" fill="#BEC9D8"/>
<path fill-rule="evenodd" clip-rule="evenodd" d="M33.199 0H33.0082H29.5371H29.3318L29.4325 0.268843L5.67725 61.277H10.2777L31.266 5.16752L52.2676 61.277H56.8536L33.1055 0.250032L33.199 0Z" fill="white"/>
<path d="M120.305 58.0197H112.879L107.566 43.9709H85.8716L80.8363 58.0197H73.3914L93.2548 6.70068H100.461L120.305 58.0197ZM105.477 38.1884L97.5936 16.8436C97.2359 15.6685 96.9628 14.4698 96.7764 13.2566H96.6163C96.4544 14.4765 96.1723 15.6779 95.7738 16.8436L87.9723 38.1884H105.477Z" fill="#BEC9D8"/>
<path d="M162.545 55.9074C158.047 58.0321 153.096 59.0543 148.113 58.8874C141.404 59.1933 134.886 56.6376 130.218 51.8713C125.606 46.7995 123.203 40.1393 123.529 33.3318C123.183 25.9424 125.908 18.7338 131.072 13.3731C136.108 8.33641 143.045 5.6042 150.211 5.83585C154.425 5.70248 158.623 6.41545 162.55 7.93152V14.8617C158.791 12.818 154.561 11.7676 150.27 11.8124C144.926 11.6175 139.756 13.702 136.079 17.5339C132.26 21.7595 130.286 27.3027 130.586 32.9576C130.304 38.3018 132.139 43.5447 135.703 47.5774C139.166 51.2066 144.051 53.1788 149.098 52.9857C153.821 53.0969 158.482 51.9024 162.553 49.5373V55.913L162.545 55.9074Z" fill="#BEC9D8"/>
<path d="M209.694 58.0201H201.513L189.87 38.6988C189.416 37.8459 189.023 36.9622 188.696 36.0543H188.516C188.477 36.2317 188.059 37.1326 187.303 38.7376L175.32 58.0201H167.1L184.436 32.24L168.504 6.70103H176.744L187.033 24.4422C187.708 25.6219 188.313 26.839 188.845 28.0874H188.985C189.575 26.784 190.239 25.515 190.976 24.2869L201.744 6.68994H209.447L193.158 32.1235L209.694 58.0201Z" fill="#BEC9D8"/>
</svg>
