<svg width="208" height="104" viewBox="0 0 208 104" fill="none" xmlns="http://www.w3.org/2000/svg">
<path fill-rule="evenodd" clip-rule="evenodd" d="M62.1318 19.2346C63.0137 18.5484 64.2463 18.5484 65.1282 19.2346C74.5381 26.5548 85.2884 26.4958 89.3473 26.4735C89.5503 26.4724 89.7371 26.4713 89.9056 26.4713C90.5616 26.4713 91.1898 26.7357 91.6494 27.205C92.1095 27.6743 92.3625 28.3094 92.3517 28.9677C92.1611 40.7389 91.6544 49.2939 90.6693 55.692C89.6834 62.0946 88.1917 66.5296 85.9024 69.9296C83.5969 73.3532 80.6334 75.4977 77.2022 77.5594C76.0565 78.2475 74.8776 78.9177 73.6396 79.6215C71.0828 81.0746 68.274 82.6708 64.9851 84.8685C64.1643 85.4172 63.0956 85.4172 62.2749 84.8685C58.9905 82.6741 56.1871 81.0796 53.6354 79.6286C52.3936 78.9222 51.2113 78.25 50.0624 77.5586C46.6341 75.4965 43.6747 73.352 41.3741 69.9271C39.0901 66.5275 37.6034 62.0925 36.6211 55.6907C35.6394 49.293 35.1351 40.7386 34.9444 28.9677C34.9337 28.3094 35.1867 27.6743 35.6466 27.205C36.1065 26.7357 36.7348 26.4713 37.3905 26.4713C37.5572 26.4713 37.7419 26.4724 37.9434 26.4735C41.9695 26.4958 52.721 26.5554 62.1318 19.2346ZM39.8828 31.3847C40.1014 41.7976 40.5952 49.328 41.4567 54.9427C42.3851 60.9926 43.7142 64.6251 45.4302 67.1798C47.13 69.7099 49.3552 71.4064 52.5767 73.3441C53.5559 73.9331 54.6475 74.5546 55.8373 75.2319C58.1107 76.5261 60.7415 78.0241 63.6298 79.8886C66.5243 78.0203 69.1601 76.5211 71.4377 75.2252C72.6237 74.5505 73.7124 73.9311 74.69 73.3437C77.9152 71.4055 80.1454 69.7083 81.8493 67.1777C83.5695 64.6231 84.9023 60.9906 85.8338 54.9415C86.6986 49.3272 87.1945 41.7971 87.4133 31.3849C82.4267 31.3128 72.6719 30.5507 63.6298 24.2241C54.5972 30.5441 44.8549 31.3112 39.8828 31.3847Z" fill="#BEC9D8"/>
<path d="M113.942 37.6251H108.873V51.1171H105.465V37.6251H100.465V34.9221H113.942V37.6251ZM122.021 45.1887H119.305V51.1171H115.896V34.9221H122.044C123.998 34.9221 125.506 35.3485 126.566 36.2013C127.627 37.0541 128.157 38.259 128.157 39.8163C128.157 40.9212 127.911 41.8445 127.418 42.5858C126.934 43.3201 126.195 43.9058 125.203 44.3434L128.782 50.9616V51.1171H125.123L122.021 45.1887ZM119.305 42.486H122.055C122.911 42.486 123.574 42.2742 124.044 41.852C124.513 41.4217 124.748 40.8322 124.748 40.0832C124.748 39.3195 124.525 38.7188 124.078 38.2813C123.639 37.8438 122.96 37.6251 122.044 37.6251H119.305V42.486ZM143.282 34.9221V45.5889C143.282 47.3615 142.713 48.763 141.577 49.7934C140.449 50.8243 138.903 51.3397 136.941 51.3397C135.009 51.3397 133.475 50.8393 132.339 49.8379C131.203 48.8371 130.623 47.4613 130.6 45.7116V34.9221H134.009V45.6114C134.009 46.6718 134.267 47.4468 134.782 47.936C135.305 48.4181 136.024 48.659 136.941 48.659C138.857 48.659 139.831 47.6727 139.861 45.7004V34.9221H143.282ZM154.656 46.8681C154.656 46.2379 154.429 45.7562 153.975 45.4221C153.52 45.081 152.702 44.7253 151.52 44.3547C150.338 43.9761 149.403 43.6054 148.713 43.2423C146.834 42.2484 145.895 40.91 145.895 39.2268C145.895 38.3517 146.145 37.5731 146.645 36.8909C147.153 36.2013 147.876 35.6637 148.816 35.2781C149.763 34.8925 150.823 34.6997 151.997 34.6997C153.179 34.6997 154.232 34.911 155.156 35.3337C156.08 35.7489 156.796 36.3385 157.304 37.1023C157.819 37.866 158.077 38.7336 158.077 39.705H154.668C154.668 38.9635 154.429 38.3888 153.952 37.981C153.474 37.5657 152.804 37.3581 151.941 37.3581C151.107 37.3581 150.459 37.5323 149.997 37.8809C149.535 38.222 149.304 38.6743 149.304 39.2379C149.304 39.7644 149.573 40.2056 150.111 40.5615C150.656 40.9174 151.456 41.2511 152.509 41.5625C154.448 42.1336 155.861 42.8417 156.747 43.687C157.633 44.5323 158.077 45.5852 158.077 46.8461C158.077 48.2476 157.535 49.3487 156.452 50.1495C155.369 50.9428 153.91 51.3397 152.077 51.3397C150.804 51.3397 149.645 51.1134 148.599 50.6612C147.554 50.2015 146.755 49.575 146.202 48.7813C145.657 47.988 145.384 47.0686 145.384 46.0228H148.804C148.804 47.8099 149.895 48.7035 152.077 48.7035C152.888 48.7035 153.52 48.5442 153.975 48.2251C154.429 47.899 154.656 47.4468 154.656 46.8681ZM172.849 37.6251H167.781V51.1171H164.372V37.6251H159.372V34.9221H172.849V37.6251Z" fill="#BEC9D8"/>
<path d="M106.519 66.524L106.918 68.5263L107.408 66.6127L110.219 57.1091H111.206L113.982 66.6127L114.462 68.5437L114.889 66.524L117.229 57.1091H118.35L115.032 70.0051H113.982L111.046 59.9167L110.717 58.6417L110.397 59.9167L107.39 70.0051H106.34L103.031 57.1091H104.152L106.519 66.524ZM127.059 66.3913H121.178L119.844 70.0051H118.696L123.598 57.1091H124.639L129.54 70.0051H128.402L127.059 66.3913ZM121.517 65.4616H126.711L124.114 58.4378L121.517 65.4616ZM132.556 69.0841H138.952V70.0051H131.453V57.1091H132.556V69.0841ZM142.164 69.0841H148.559V70.0051H141.06V57.1091H142.164V69.0841ZM157.82 63.823H151.761V69.0841H158.727V70.0051H150.668V57.1091H158.683V58.0393H151.761V62.9019H157.82V63.823ZM170.007 58.0393H165.568V70.0051H164.474V58.0393H160.044V57.1091H170.007V58.0393Z" fill="#BEC9D8"/>
</svg>
